<?xml version="1.0" standalone="no"?>
<!DOCTYPE svg PUBLIC "-//W3C//DTD SVG 1.1//EN" "http://www.w3.org/Graphics/SVG/1.1/DTD/svg11.dtd" >
<svg xmlns="http://www.w3.org/2000/svg">
<metadata></metadata>
<defs>
<font id="earl_gray_tearegular" horiz-adv-x="1089" >
<font-face units-per-em="2048" ascent="1638" descent="-410" />
<missing-glyph horiz-adv-x="614" />
<glyph horiz-adv-x="0" />
<glyph horiz-adv-x="682" />
<glyph unicode=" "  horiz-adv-x="614" />
<glyph unicode="&#x09;" horiz-adv-x="614" />
<glyph unicode="&#xa0;" horiz-adv-x="614" />
<glyph unicode="." horiz-adv-x="759" d="M408 166q-36 -14 -50 -53q27 11 38 22t12 31zM453 174v2q-2 16 -11.5 29.5t-23.5 13.5h-6q-46 -11 -66 -41q0 -6 -4 -10q-4 -8 -15.5 -27t-17.5 -32q0 -3 -2 -5v-4v-4v-14v-4v-4q2 -2 2 -4t2 -2q0 -5 2 -7l6 -6v-2h3q8 0 28 4q6 4 21 9q3 1 8 3t8 3q26 10 45 41 q21 35 21 61zM358 113q14 39 50 53q-1 -20 -12 -31t-38 -22zM307 78v2v-2z" />
<glyph unicode="A" horiz-adv-x="1144" d="M1130 53l-20 -45q-12 -6 -16 -6v2q-23 1 -148 12l-28 2h-17l-10 2v50h8q16 12 51 12q15 0 19 2q-1 3 -4 9t-4 9v2q-11 42 -25 72v2q-25 70 -41 137q-4 11 -8 33l-19 74q-13 57 -30 119q-4 15 -15 45l-6 20l-4 8q-1 1 -1.5 3t-1 5t-1.5 5q-86 4 -123 4q-106 0 -197 -15 q-1 -1 -12 -53l-2 -8l-6 -20q-4 -30 -16 -82q-2 -13 -10.5 -54.5t-10.5 -64.5h-2q-3 -29 -12 -58q-1 -9 -4 -24.5t-4 -18.5v-4l-2 -2q-3 -21 -17 -90q-4 -31 -8 -47h4l-4 -2q-3 -14 -16 -43v-2l-2 -4l-5 -6q0 -6 -2 -8v-2l-2 -3v-2h-2l-2 -2h-8l-59 -8q-4 0 -11.5 -1 t-11.5 -1l-4 -2q-78 -8 -115 -8h-32h-74v2q-2 0 -4.5 1t-3.5 1q-1 1 -4 2t-5 2h-2l-2 2q-4 0 -6 2h-6v2l-4 2l8 47l92 15q13 30 23 63q3 13 8 25q32 131 57 270q2 22 13 57l12 56l8 49q2 11 7.5 33.5t7.5 34.5q40 198 75 301q22 69 25 88q0 4 4 16q0 4 4 12v2q37 148 55 226 q9 36 13 82l-74 12v14q13 49 57 49q4 0 4 -2l72 -6l27 -2q4 0 8 -2h6q10 4 35 4q16 0 26 -2h2q2 0 8 -1t9 -1l16 -4q17 -4 43 -8h4q12 0 23.5 -10t15.5 -35l11 -41q1 -5 51 -244q16 -56 41 -172q10 -39 26 -117q8 -32 11 -59q16 -71 36 -133q6 -15 15 -58v-6q9 -14 12 -35 l2 -2v-2q0 -7 6 -22q0 -2 1 -6t1 -6q15 -30 19 -70q38 -141 53 -201q28 -77 68 -129v-2q4 -8 28 -16h2l4 -1q4 -1 9 -1h4q1 0 3.5 -1t4.5 -1h2h10q4 0 4 -2h15zM180 147l-6 -36q-2 -5 -8 -27l-4 -12q10 -2 31 -2q41 0 96 10h4q4 0 24 4l5 10v6q9 15 12 37v2q10 71 22 119 l2 6q3 15 11 54.5t12 60.5l18 96q3 14 9.5 41.5t9.5 40.5l37 164v2l4 6q4 36 12 64q1 6 4 18t4 18q4 26 8 37q2 13 9 37q8 58 39 166q13 60 40 152q2 14 11 41l12 41v2l2 2q0 2 1 4.5t1 3.5q9 52 8 65q-18 6 -24 6q-6 3 -11 3h-6h-98v-15q-1 -3 -2 -8t-2 -8v-10q-2 0 -2 -2 h2l-2 -5q0 -4 -2 -6q0 -6 -4 -22q-4 -26 -8 -39q-14 -56 -17 -70q-4 -12 -4 -18v-4h-2q-3 -10 -14 -58l-11 -34q-3 -22 -12 -43q-12 -73 -33 -132q-32 -97 -67 -272l-4 -10v-8l-13 -52q-2 -18 -10 -49q-1 -9 -4 -25t-4 -22q-2 -8 -5 -24.5t-5 -24.5v-2l-2 -2 q-14 -66 -15 -86h-2q-5 -24 -28 -115l-6 -20q0 -2 -7 -37zM741 698h2q26 -3 50 4q-23 111 -105 465l-2 9q-3 11 -8.5 33.5t-7.5 31.5q-7 35 -15 59q-106 -373 -147 -606q28 0 90 4q6 2 18 2h17q3 0 9 -1t9 -1h2q7 0 25 -1t27 -1q12 2 36 2z" />
<glyph unicode="B" horiz-adv-x="1114" d="M1040 520q4 -87 -18 -141q-5 -9 -14.5 -31t-14.5 -31q-17 -49 -49 -102q-46 -69 -143 -115q-32 -11 -56 -16q-10 -5 -65 -27q-93 -30 -211 -37q-48 -4 -78 -8q-105 -6 -110 -6q-8 -2 -23 -2q-19 0 -47 4q-5 1 -16 2t-15 2h-2q-15 0 -28 8q-11 6 -11 25v2q4 19 33 19h14 h47q4 105 19 622q1 33 3 93.5t4 111.5t5 94l4 332q-49 -2 -145 -2h-4q-26 0 -36.5 10t-12.5 35q-7 14 6 22q11 15 45 15q1 0 5 1t7 1h17q40 4 65 4q33 0 53 -4q90 -12 174 0q40 6 80 6q54 0 121 -12q50 -5 107 -45q72 -31 135 -101q48 -51 51 -116q3 -82 -31 -150.5 t-100 -114.5q-9 -6 -45 -37q1 0 3.5 -1t4.5 -1q131 -9 219 -106q38 -30 41 -86v-2l8 -57q1 -10 2 -28.5t2 -29.5zM324 1049q4 -27 4 -82q0 -203 -15 -385q-9 -103 -12 -205q0 -13 1 -38t1 -38q2 -27 2 -76q2 -23 2 -80q2 -27 2 -77h23q10 2 28 2h5q17 1 20.5 5.5t5.5 22.5 q6 41 10 113l7 102q0 2 2 27.5t4 36.5q4 90 10 131q10 106 10 321v80q0 107 -8 191q-2 39 -2 117v71q0 34 -23 45q-20 -2 -57 -2l-2 -2v-2q-1 -7 -3 -27.5t-3 -29.5q-12 -78 -12 -105v-116zM684 1313q183 -154 107 -379q88 82 77 194q-2 48 -24 74h-2q-66 72 -158 111z M461 94v-16h10q15 3 44 7t44 7q72 11 98 29q70 46 119 125q41 80 64 166q10 34 10 73q0 11 -4 39l-6 29q-21 104 -82 176q-26 39 -62 39q-16 0 -32 -8q-27 -12 -43 -12q-31 0 -58 24l-8 8l8 6q5 0 19 9q15 15 36 20q13 6 27 17t18 15.5t21 24.5l33 64q2 3 20 39q27 68 2 153 q-29 95 -106 142q-70 39 -115 39q-18 0 -26 -4q-9 -49 -9 -91q0 -24 2 -36l3 -12t3 -15.5t1 -13.5q2 -16 2 -54v-55l6 -315q0 -109 -17 -217q-4 -41 -4 -127q0 -81 -8 -144q-6 -23 -6 -73q0 -15 -4 -25v-33zM915 461q-13 -148 -102 -281q35 17 53 41v2q60 60 97 189 q26 86 4 143h-2q0 3 -0.5 8t-0.5 10t1 9q0 48 -23 86q-14 27 -40 46t-71 40q-2 0 -2 -2q46 -85 69.5 -152.5t16.5 -138.5z" />
<glyph unicode="C" horiz-adv-x="1073" d="M1059 129l-12 -16q0 -2 -3 -2q-7 -14 -8 -15l-4 -6h-8q-24 0 -41 27l-16 -15q-5 -5 -15 -14t-18.5 -16.5t-15.5 -12.5q-134 -90 -293 -90q-44 0 -125 15q-142 24 -250 147l-4 2v2q-55 60 -84 105h-2l-15 34q-6 10 -20 48v2q-29 108 -35 247q0 98 25 234q6 35 24 90v2 l15 29q14 40 26 57q13 21 41 86q14 35 27 61l2 5h2l2 4l4 6v2q49 85 77 113q11 11 23 20l37 35q9 9 72 67v2h2l6 5v2h2q44 35 68 41q24 3 49 12h2q8 4 14 4q38 10 70 10q13 0 33 -4q25 -4 69 -27l11 -4h2v-2q2 0 2 -2h8v-6l14 -8l10 14l13 19q3 3 8 9t8 9l8 8l11 -4 q26 -9 32 -24q6 -18 -6 -33q-1 -2 -4 -5t-4 -5l-6 -11v-2q-13 -13 -23 -28l-6 -17q-5 -5 -8 -14l-12 -29l-4 -8l-52 -8l-4 6q-22 26 -6 57l2 2v2h2q-50 50 -106 50h-15q-82 -14 -114 -60q-8 -8 -19 -30l-6 -15q-22 -52 -33 -92l-2 -8v-4q-39 -120 -53 -174 q-29 -122 -43 -197l-6 -49q-10 -65 -10 -96l2 -37q0 -106 16 -182l10 -43q24 -116 54 -168l2 -2q48 -72 88 -97l22 -12q40 -35 82 -41h12q35 -6 72 -6q64 0 109 26q59 27 94 82q-16 19 -29 48v2q-4 12 -4 28v6l4 4l8 13l11 10l14 23l14 -25l15 -21q3 -5 10 -15t10 -15l8 -13 q8 -13 29 -44.5t31 -49.5zM346 936q0 1 6 31q4 26 8 39l2 14q1 3 3.5 9t3.5 9q9 52 24 97v2l13 30q1 6 4 15l4 12q12 36 14 53v2l2 2q8 16 8 21l-65 -70l-4 -4q-46 -55 -82 -139q-55 -103 -85 -181.5t-38 -160.5q-11 -148 -4 -246q17 -125 67 -203q40 -55 107 -118 q30 -26 45 -37q9 -6 18 -15q64 -39 146 -49l-17 10q-89 55 -137 146q-30 60 -57 172q-18 103 -23 168v2q-8 102 15 287q6 42 18 86q0 4 4 16z" />
<glyph unicode="D" horiz-adv-x="1212" d="M1135 940q47 -110 30 -262v-2q-27 -190 -86 -297l-6 -12l-43 -78l-2 -2q-33 -50 -94 -99h-2l-6 -6q0 -5 -6 -8q-47 -52 -134 -82h-2q-8 -2 -23.5 -7t-23.5 -7q-10 -5 -22 -8q-137 -40 -258 -43q-16 0 -37 -7q-18 -6 -23 -6h-2q-12 -2 -36.5 -4t-26.5 -2q-44 0 -64 -2 l-43 -6q-5 0 -18 -1t-19 -1q-2 -2 -6 -2q-2 0 -7.5 -1t-8.5 -1q-25 0 -41 22l-4 9l6 4q8 12 12 16l2 4h4q15 3 60 8q27 6 51 9q0 104 2 155q2 47 2 133q0 56 -4 166q0 52 -4 154q0 4 12 119q4 20 4 28q1 19 2 56t2 55q4 164 0 244v2q6 32 9 55q8 93 0 147q-55 -14 -115 -20 l-10 -2v10q0 21 -2 29l-2 10h10l18 6q12 4 21 4l26 6q118 18 127 19q6 2 15 2q28 0 82 -12q109 -9 184.5 -24t142.5 -50q28 -9 74 -29q63 -30 109 -77t90 -111q47 -73 84 -201zM311 229q-6 -105 -6 -110q0 -29 17 -56q88 4 133 25q2 6 2 18q4 40 2 64q0 51 -4 149t-4 148 q-6 141 -9 285q-2 20 -2 57q3 22 0 43q0 47 4 141q0 11 1 35t1 35t-6 41h-2q-4 35 -4 104q0 36 -2 52q-3 57 -18 116q-19 0 -29 2q-12 2 -39 2q0 -20 2 -28q0 -27 -2 -37q-8 -34 -12 -139q0 -53 -2 -80l-4 -105q0 -12 -1 -33.5t-1 -31.5q-4 -78 -11 -131q0 -22 -4 -62 q-12 -141 -4 -207v-2q4 -62 4 -92q4 -54 4 -86q0 -39 -4 -117zM709 1325v2q-5 1 -18 4t-21 4q-110 27 -125 29q-20 2 -66 2q1 -3 2 -8.5t2 -7.5v-7q2 -20 2 -65q4 -23 4 -64q0 -16 5 -104q4 -36 4 -59q0 -30 -4 -88q0 -10 -3.5 -52t-3.5 -65q2 -21 -2 -47q7 -93 7 -174 l6 -219q4 -132 4 -197q7 -71 18 -113h17q1 1 3 2t3 2q6 0 14 4q119 45 186 105q87 81 125 153q53 117 62 222q10 91 8 153v27q-4 137 -18 205q-13 73 -37 166q-14 27 -31 55q-3 7 -7.5 14t-8.5 12.5t-10 12.5t-9.5 11t-12 11.5t-11 10t-12 10.5t-11.5 10q-24 15 -43 37h-2 q-3 6 -14 6h-2zM748 139q-2 -1 -5.5 -4t-5.5 -4l23 6q25 10 35 15q94 50 176 145q10 11 19.5 24t16 23.5t15.5 27t13 24.5t13.5 27.5t12.5 25.5q14 37 24 90q15 62 17 69q8 33 8 131v23q0 92 -16 143q-5 19 -23 64q-7 15 -20 55q-45 104 -140 190q26 -53 31 -102v-2 q0 -8 4 -16q0 -1 1 -4t1 -5q1 -9 23 -88q8 -29 10 -39v-2q0 -12 4 -36q2 -12 2 -39q0 -26 4 -80q3 -59 0 -117q-3 -173 -63 -324q-21 -81 -101 -149v-2q-43 -35 -79 -70z" />
<glyph unicode="E" horiz-adv-x="851" d="M858 387v-2q29 -114 -55 -217h-2q-6 -3 -15 -12l-4 -6q-3 -3 -6 -9q-36 -48 -69 -69q-3 -2 -25.5 -16t-32.5 -19.5t-29 -14t-34 -12.5q-92 -30 -185 -30q-29 0 -43 2q-42 3 -86 12q-178 44 -221 219q-4 24 -2 41q-4 24 -4 29q-17 111 39 270q12 34 41 98q25 53 65 97 q20 25 78 71l6 6q4 3 29 23q0 1 1 2t1 2v2h-2q-2 0 -14 4q-27 12 -45 25q-114 46 -144 176q-22 99 41 223q26 40 72 78q50 38 133 86q23 10 78 14h16h9h10h10q52 -3 96 -26q18 -4 39 -21l6 -4h2l4 -4q13 -8 23 -21q3 -1 14 -12h4v-10q46 -82 7 -141v-2l-5 -2l-73 4 q-24 15 -37 59q-4 18 -12 35l-7 12q0 4 -2 8q-7 34 -30.5 54.5t-57.5 23.5q-18 0 -30 -2q-24 -4 -33 -16h-4q-33 -29 -47 -60q-35 -70 -35 -138t24.5 -116.5t65.5 -85.5q13 -9 43 -20l16 -6q23 -7 35 -15l17 -6q1 0 3 -1t3 -1h2l2 -4q11 -17 -4 -41l-4 -6l-2 -8h-3 q-1 -1 -4.5 -2t-5.5 -2q-7 -5 -20 -9q-17 -10 -53 -24l-11 -4q-68 -30 -90 -90l-12 -33q-1 -3 -4 -9t-4 -9q-10 -25 -11 -29l-12 -29q-12 -35 -12 -76q0 -9 -1 -28t-1 -29q0 -39 -2 -57q0 -31 2 -45v-2q-3 -57 41 -113l4 -4q6 -3 12 -12q3 -3 6 -9q4 -4 8 -6v-2 q118 -130 320 -145q41 16 45 53q3 8 8 24.5t8 24.5q1 3 2.5 9.5t2.5 9.5l6 22q2 4 2 10l30 103h2q42 33 62 33q17 0 51 -21zM588 1352q5 -42 12.5 -58t26.5 -20q-2 32 -39 78zM264 1333v2q-2 2 -6 2q-4 -2 -8 -6v-2q-103 -92 -103 -211q0 -25 7 -53q17 -86 100 -131 q42 -20 78 -23h10q12 0 57 9l-4 2q-16 8 -22 14q-1 0 -2 1t-2 1q-85 52 -111 129q-20 62 -20 119q0 51 16 110q4 8 4 13q1 2 2 5l2 6t2 7v6zM94 328v-2q4 -28 4 -43q0 -3 -1 -9.5t-1 -9.5q0 -35 19 -78q46 -117 174 -141q59 -12 117 -12q90 0 161 26l4 4q-1 0 -3 1.5t-3 1.5 q-4 0 -6 2q-99 19 -176 67q-79 51 -139 129q-49 61 -49 125v6q2 10 2 31q0 19 -4 47q-3 27 -3 55q0 100 43 187q3 3 3 4t-3 4q-4 -8 -8 -12q-26 -28 -57 -88l-6 -9q0 -10 -8 -18l-4 -4q-50 -109 -58 -182v-25q0 -39 2 -57zM762 246q0 -19 -2 -31q47 47 47 92q0 22 -8 41 q-27 -27 -35 -94q0 -1 -1 -3.5t-1 -4.5z" />
<glyph unicode="F" horiz-adv-x="833" d="M831 1466q3 -58 3 -116q-1 -23 -6.5 -31t-30.5 -29l-13 -8l-12 102q-49 -6 -106 -6q-86 -8 -138 -8q-62 0 -106 8h-25h-22h-19q-5 -36 6 -86q9 -50 7 -69q-2 -37 2 -115q4 -32 4 -55v-158q15 -6 28 -6h19q39 8 104 8q11 0 39 -8l19 -6l14 -4l-10 -11q-8 -8 -10 -12 q-9 -10 -17 -12q-30 -13 -67 -13q-37 -4 -111 -8q-4 -72 4 -205q4 -114 4 -176q-4 -127 6 -376h76l-4 -9q-6 -18 -6 -39q-2 -2 -2 -8v-6l-23 -2q-5 -1 -15 -4t-15 -4q-12 -4 -17 -4q-1 -1 -4 -2t-4 -2q-14 -5 -35 -9h-84h-61q-12 0 -34 -1t-30 -1q-5 0 -15 1t-15 1 q-9 3 -13 5h-8v8q-3 41 10 51q5 10 27 10q12 0 18 -2h2q10 0 19 -6l6 88q2 31 6 92t6 92q9 97 15 199q2 36 -2 107q0 13 -5 106q0 8 -1 26t-1 27v35q-2 10 -2 29q0 4 1 14.5t1 15.5q2 10 2 31v29q0 184 -14 274q-2 8 -2 21v2q8 32 -6 88q-4 15 -8 45q-53 -3 -90 -8v-2h-11 q-2 -1 -7.5 -2t-8.5 -2h-2q-13 0 -23 8.5t-12 19.5q-2 14 6 24t23 11l67 12q11 1 32.5 4.5t29.5 4.5q140 8 235 8q64 0 95 -2h38q39 0 117 4q58 4 88 4q4 2 13 2h14h6v10q-2 4 -2 17v4q4 24 12 37q7 10 19 10q18 0 24 -19q0 -2 2 -4q6 -36 6 -39zM238 223v-117v-53 q20 -10 36 -10q7 0 52 10h4v64q0 51 -2 76q0 129 2 153q5 116 -2 270q0 7 -1 21.5t-1 21.5q0 31 -4 101q-1 13 -2.5 38t-2.5 36l-6 100q0 12 1 32.5t1 30.5q2 20 2 62q0 26 -4 88q-1 20 -4 61t-4 62q-4 72 -8 106q-12 2 -27 2q-21 0 -51 -12v-8q0 -11 4 -31q19 -66 23 -215 v-35q4 -132 4 -198q1 -32 2 -99t2 -100q0 -29 2 -45v-51q5 -16 0 -35q-2 -64 -10 -258q0 -3 -1 -9.5t-1 -9.5q-4 -32 -4 -49z" />
<glyph unicode="G" horiz-adv-x="974" d="M856 426q57 0 57 -64q0 -12 -1 -36t-1 -37q-2 -27 -2 -78q-2 -45 -2 -141q0 -65 -24 -93l-4 -6l-9 4q-29 14 -24 60l6 209q0 1 -1 3t-1 3q-14 -28 -16 -33q-53 -130 -183 -217q-71 -45 -153 -45q-13 0 -41 4h-2l-41 6q-82 12 -125 31q-95 45 -150 123q-99 133 -129 342 q-30 211 35 452q31 118 88 232q63 123 184 201q106 77 222 86q8 2 28 2q18 0 70 -9q64 -9 92 -67l14 -19q2 -2 2 -4q11 -22 11 -28q0 -11 -6 -23q0 -1 -1 -4.5t-1 -5.5l-3 -10l-10 4q-2 0 -5 1t-5 1q-18 9 -20 12q-11 11 -19 31q-6 12 -8 14q-9 21 -38.5 37t-59.5 16 q-17 0 -23 -2q-101 -39 -168 -159q-70 -126 -96 -306q-2 -11 -7 -33t-7 -34q-25 -114 -23 -170q3 -115 37 -227q36 -123 90 -193q55 -79 160 -133q27 -10 47 -10q33 0 63 18q129 71 164 219v2q-2 2 -2 4q-23 0 -63 -4q-74 -8 -115 -8q-19 0 -55 4h-15l6 12l15 27q2 5 14 29 l4 6l6 -2q4 0 9 -1t11 -2.5t9 -2.5q11 -3 45 -8q78 6 154 18q6 2 16 2zM227 477q-50 203 -14 361q21 82 29 123q2 10 7 30.5t7 30.5q46 190 143 311q-86 -47 -157 -129q-22 -26 -41 -59t-30 -57.5t-28 -67.5q-5 -15 -8 -21q-105 -261 -67 -536q18 -136 71 -236 q48 -94 115 -143q70 -55 172 -64h8q69 -6 70 -6q36 0 69 13q42 15 80 45q-33 -13 -59 -13q-31 0 -70 17q-114 50 -180 137q-84 118 -117 264z" />
<glyph unicode="H" horiz-adv-x="1048" d="M1006 1405q-6 -10 -41 -10v2h-21q-6 0 -24 -1t-27 -1q-8 -122 -10 -181q-2 -68 -2 -202q-2 -29 -2 -86q0 -30 -5 -172q0 -19 -1 -55.5t-1 -53.5q-4 -219 -2 -332q0 -139 23 -252q19 1 56 4.5t55 4.5l10 2v-11q-3 -26 -13 -43q-13 -16 -36 -16q-35 -4 -109 -8 q-93 -6 -96 -6q-4 -2 -15 -2q-10 0 -22 4q-21 13 -21 28q0 8 7.5 18t17.5 13q10 4 39 4h31q8 -2 26 -2q-20 309 -6 719q-83 -10 -207 -10q-116 -4 -166 -8q-1 -4 -2 -13.5t-2 -13.5q0 -10 -1 -29.5t-1 -29.5v-347q-4 -184 0 -272q0 -34 -18 -45l-4 -2l-2 2h-21q-58 4 -84 4 q-29 0 -69 -4v-2h-2q-5 0 -17 1t-18 1h-37h-14q-15 0 -21 4q-6 0 -22 4l-31 6h-10l2 11q3 17 13 27t17.5 12.5t22.5 5.5h6h2q25 0 35 -2h27q8 37 10 51q0 49 4 143q1 23 2 71.5t2 72.5q0 6 1 17t1 17q4 50 4 74l6 215q10 237 13 420q0 61 -17 201q0 15 -4 43q-4 4 -18 4h-11 h-10q-33 0 -49 28l-2 5l2 4q12 28 59 28q80 2 236 2h2q17 -4 31 -8l6 -2v-14q-13 -457 -15 -629h43q49 8 115 8h29h26q84 0 117 6h2q4 2 10 2q21 0 31 -10q0 53 2 80q10 405 10 498l-92 -4q-6 -2 -16 -2q-15 0 -21 8q-9 11 0 49l3 6h6q90 4 282 8l21 2v-10q0 -41 -8 -49z M283 1354q8 -94 8 -140v-77q0 -201 -4 -301l-13 -330q-12 -330 -12 -336q-2 -24 2 -74q2 -10 2 -30q107 6 109 6q2 16 2 41q0 31 1 93t1 91q0 123 2 184v154q0 102 2 153q1 46 4 138.5t4 138.5q4 180 8 268q0 33 -2 49v21q-21 0 -61 4q-9 0 -27.5 1t-27.5 1v-25q0 -5 1 -15 t1 -15z" />
<glyph unicode="I" horiz-adv-x="608" d="M539 70l-7 -9q-12 -10 -22 -10q-99 -9 -201 -12h-61q-95 0 -144 2h-4h-4l-6 -2h-2q-4 0 -6 2q-31 0 -31 27q0 26 33 26h8q33 0 49 -2h41q2 16 2 45q4 62 4 90v117q3 163 -2 293q-4 142 11 379l6 114q9 140 -6 275l-58 -10q-4 -4 -12 -4h-4q-13 0 -29.5 11.5t-17.5 22.5v2 q0 29 30 29h7h4q144 7 237 14q31 2 107 19h2l14 2q22 0 27 -23q3 -16 -2 -26q-6 -12 -29 -15l-53 -6q-1 -9 -2 -26.5t-2 -26.5q-4 -54 -4 -80q0 -24 -1 -73t-1 -74q0 -99 -2 -146q-1 -60 -6.5 -173.5t-6.5 -129.5l-6 -147q0 -172 -2 -258q0 -26 -4 -76q0 -7 -1 -20t-1 -19 q0 -15 4 -47q0 -19 4 -27h29q8 2 28 2q49 0 84 -24zM485 1452q2 0 2 4q0 -4 -2 -4zM332 356q0 12 -1 35.5t-1 34.5l2 29q7 105 14 280q4 130 8 406q1 34 2 102.5t2 102.5q2 12 -2 40q0 4 -1 13t-1 14q-25 -4 -65 -8q-6 0 -17 -1t-16 -1v-51v-84v-172q0 -2 -6 -119 q-6 -141 -6 -148q-2 -164 -2 -487q0 -23 -2 -33v-26v-187h86q8 136 8 195q0 45 -2 65z" />
<glyph unicode="J" horiz-adv-x="1075" d="M215 340q-10 -2 -27 -4.5t-27 -4.5t-18 -7q-21 -11 -57.5 -33t-48.5 -29q-4 -2 -14 -6.5t-14 -7.5t-9 -10.5t2 -16.5q3 -8 7.5 -11.5t10.5 -2.5t10.5 2.5t11 5t9.5 4.5q27 8 38 4t24 -28l43 -82q56 -95 167 -134.5t218 -13.5q101 31 198 111q55 46 84 108q41 79 43 84 q44 96 39 170q-12 189 -14 279q-12 187 -14 289q0 101 8 319q0 9 3 28.5t3 22.5h57q28 2 34.5 8t10.5 41q-25 5 -35 5q-20 0 -59 -2.5t-59 -2.5q-8 0 -57 -1.5t-67 -1.5t-53 2t-63 8q-17 6 -43 2q-6 0 -13.5 -4.5t-8.5 -8.5q-8 -16 4 -28q15 -15 32 -15h80q11 -91 11 -94 q0 -5 6 -235q2 -69 6.5 -198t7.5 -234t4 -199q3 -182 -78 -314q-61 -91 -151 -81q-111 14 -144 26q-92 28 -155 148q-4 12 -19 69q7 6 26 18t31 24.5t19 31.5zM707 1376h102q12 -58 14 -88q14 -104 17 -141v-82q2 -70 5 -212.5t5 -213.5q5 -65 4.5 -147t-12.5 -144 q-38 -185 -213 -289q7 11 13.5 26t8.5 19q71 115 74 291q0 250 -6 502q-2 69 -8.5 205t-8.5 203q-1 15 -0.5 22t2.5 23t3 26z" />
<glyph unicode="K" horiz-adv-x="1218" d="M1174 80q9 -23 -2.5 -55.5t-34.5 -47.5q-54 -28 -107 -28q-34 0 -61 8q-45 11 -82 45q-130 112 -236 287q-22 39 -65 104q-45 67 -54 82q-33 55 -43 72l-43 74q-3 6 -13 16t-13 14l-12 11v-15v-100v-201q0 -18 -5 -106q-4 -50 -4 -72q-2 -39 -2 -119q-1 -34 -10 -43.5 t-43 -15.5q-47 -8 -68 -10q-84 -11 -139 -21q-4 -2 -10 -2q-33 0 -33 31q-2 16 10 24q9 6 21 6h2q7 0 74 5h6q2 41 2 114q0 72 -4 170v17q3 13 0 20q-3 6 -5 12.5t-3 13.5t-1.5 11.5t-0.5 12.5t-0.5 11.5t0.5 12.5t1 11.5t1.5 12t1.5 11.5q1 7 2 21t2 20v143v72v77 q0 12 1 38t1 40q0 30 4 80q8 106 8 160q0 47 -8 153q0 26 -4 80q-3 0 -8.5 -1t-8.5 -1q-19 0 -34 -6q-11 -8 -23 -8q-13 0 -35 18q-1 2 -10 11l-10 8l12 6q9 3 14 8q25 10 27 10q41 9 92 27q18 10 60 10h10h10h14q33 11 45 11q16 4 19 4q29 0 29 -43v-43q-3 -43 0 -86v-7 q4 -267 8 -393v-84q55 58 90 109q53 73 106 155q22 31 29 43q11 19 14 27v2l2 2q33 46 50 86q1 2 5.5 9.5t6.5 9.5l2 4l4 4h2q10 3 10 10v8l2 4q37 57 60 115q4 13 12 23q7 14 25 14q4 0 6 -2h2q16 -12 16 -29q0 -19 -12 -35q-61 -106 -160 -274q-47 -82 -100 -152 q-31 -45 -86 -114q-57 -71 -62 -78q50 -40 105 -148l10 -22q2 -2 8 -14q35 -57 41 -66v-2l25 -39q52 -95 98 -156q24 -33 84 -106q13 -13 37 -41q37 -43 96 -43q25 0 49 6q13 6 31 10q39 10 63 15h3q6 2 16 2q56 0 68 -35zM344 705v143h2q2 4 2 12v80q0 53 2 78v153 q0 25 1 77t1 77q0 9 -4 41v4q-16 -3 -86 -12v-53q6 -73 6 -146v-6q-12 -222 -12 -324q0 -235 10 -450l6 -340q13 3 36.5 7t29.5 5q18 390 10 664zM1073 14h4q24 0 41 43q-2 0 -6.5 1t-7.5 1q-15 0 -78 -14t-84 -14q34 -27 70 -27h6q0 1 1 2t1 2l4 6l43 -4q2 0 4 2z" />
<glyph unicode="L" horiz-adv-x="1030" d="M1083 240q12 -12 9 -39v-2q-12 -67 -62 -99l-6 -4q-49 -32 -76 -47.5t-74 -32t-92 -16.5q-10 0 -16 2q-47 2 -143 2h-142h-104q-17 0 -53 1t-54 1q-10 0 -34 -4q-4 -2 -15 -2q-30 0 -33 31q-2 0 -1 15l1 15v17q-16 258 -8 778q8 239 -10 361q-2 16 -2 49q0 31 -2 47 q0 23 -10 53l-45 -4q-5 0 -9 -4q-2 0 -5 -1t-5 -1h-2q-16 -3 -33 10q-16 10 -16 25t8.5 22.5t15 8.5t19.5 1q27 1 113.5 5.5t134.5 5.5l123 6q22 0 30 -10q6 -9 11 -39l2 -11l-84 -6q-5 -130 -8 -180q-3 -83 -9 -156q-1 -35 -4 -105.5t-4 -105.5q-3 -139 0 -278v-139v-39 v-76q4 -122 8 -193q0 -6 1 -18t1 -18q17 0 74 -5q12 0 36 -1t38 -1q16 -2 53 -2h53q18 -2 47 -2q76 0 142 17h2q28 7 51 39l18 30q21 38 33 52q45 65 92 65q33 -3 45 -18zM244 942v-98q1 -31 1 -66t-0.5 -76.5t-0.5 -64.5v-105q-2 -68 -2 -210q0 -12 1 -37t1 -37 q0 -52 4 -150q2 -19 7.5 -25t25.5 -7q27 -3 55 -3q-1 33 -2 99t-2 98q-1 35 -2 104.5t-2 104.5q-4 299 12 496q8 104 12 315v2q2 21 -2 57q0 6 -1 18.5t-1 18.5l-49 -6q-48 -4 -78 -8q0 -15 2 -23q0 -65 8 -122q13 -100 13 -275zM1022 184q-25 -15 -27 -30q21 17 27 30z" />
<glyph unicode="M" horiz-adv-x="1449" d="M1399 115l2 -6q12 -35 -8 -52h-2q-29 -20 -80 -39q-1 0 -3 -1t-3 -1q-101 -47 -121 -55h-2q-5 -3 -19 -8q-29 -13 -43 -16l-6 -5l-4 9q-20 36 14 59l39 20q3 1 8.5 3.5t8.5 3.5v18q0 15 -2 23q-2 16 -23 145q-21 141 -45 291l-12 125q-3 56 -13 127q-8 73 -20 229 q-14 205 -39 350l-6 11q-77 -89 -113 -189l-4 -8q-19 -51 -67 -125q-14 -22 -31 -53l-4 -4h-6q-43 8 -56 16h-2l-2 2q-124 169 -307 361q-4 -129 -13.5 -368.5t-13.5 -344.5l-24 -606q7 -2 20.5 -6.5t20.5 -6.5l20 -6l8 -2l-2 -8q-2 -10 -12 -31q-4 -6 -8 -18l-2 -8l-8 2 q-33 7 -93.5 23t-76.5 20q-8 2 -60.5 16.5t-81.5 20.5l-6 2l-2 6v24q0 17 -2 27v12l10 -2q9 -1 22 -4t17 -4l17 -4q18 39 22 123q17 202 47 381q11 51 19 151v17q33 236 39 544q0 47 -2 76q-14 1 -127 17q-16 4 -25 4l-6 2l-2 6q0 3 -1 9.5t-1 10.5q0 13 -2 19v12l10 -2 q7 0 21 -1t20 -1q29 0 43 -2h2q53 -9 68 -10q2 2 8 2q12 0 20 2h4q11 -4 37 -8h6q2 0 7 -1t8 -1q8 0 14 -3q30 -4 43 -8q1 0 4.5 -1t5.5 -1h2q29 -21 45 -39q10 -10 11 -12q14 -14 24 -29q15 -18 29 -32q4 -4 37.5 -41t54.5 -58h2l4 -4q7 -14 25 -26q6 -6 12 -15q6 -6 8 -10 q5 -4 14.5 -13.5t14.5 -13.5h2l2 -2q14 -23 21 -32q4 4 6 4q13 9 22 22l76 105q56 73 141 192q7 11 25 25l16 12l2 2h4q32 0 37 -72q2 -6 2 -16l19 -107q12 -86 20 -129v-2q8 -57 21 -129l6 -28v-2q16 -135 22 -197q4 -24 4 -37q7 -84 29 -221q1 -5 2 -16t2 -17q4 -24 4 -41 q2 -21 17 -112v-2l6 -45q4 -22 8 -64q0 -1 6 -47l6 -45v-2l6 -27q1 -5 4 -12t3 -8q23 0 59 20q3 1 16 7t18.5 8t15.5 4.5t20 1.5h6zM238 305q-11 -143 -9 -235q32 -19 44.5 -23t33.5 -4h17q8 83 12 260q0 58 4 172q14 251 22 445q9 153 15 307q0 45 4 135l-16 4q-3 1 -9.5 3 t-9.5 3q-4 -16 -4 -24q-4 -16 -8 -56q-4 -98 -8 -145q-8 -174 -17 -287q-5 -78 -22 -182q-2 -72 -23 -170q-19 -129 -26 -203z" />
<glyph unicode="N" horiz-adv-x="993" d="M1016 88l2 -6q1 -5 2 -13t1.5 -11t1 -8t0 -7.5t-1.5 -5t-3 -4.5q-8 -10 -33 -10q-110 0 -180 -33q-8 -4 -17 -4q-18 0 -30 18l-2 2v2q-4 14 2 25q7 12 26 16l97 25q0 32 4 94q4 94 4 139q0 60 -4 174q0 29 -1 86t-1 86q-2 121 -2 361q0 111 -47 217q-40 81 -121 133 q-11 8 -37 8q-15 0 -21 -2q-49 -13 -82 -39v-2q-65 -51 -92 -102q-37 -58 -37 -129q-8 -167 -8 -410q3 -120 13 -276q0 -31 4 -93q0 -36 4 -114q1 -19 2 -57.5t2 -57.5q0 -34 -9.5 -45.5t-43.5 -15.5q-81 -17 -150 -25l-18 -2q-2 -2 -9 -2q-26 0 -36 20q-10 16 4 37 q14 20 14 72q0 31 2 47q4 20 4 66q0 23 4 69q6 204 6 209q0 315 -2 473q-7 272 -49 412q-12 4 -35 4h-20h-19q-57 0 -92 33l-12 12l18 2l23 6q16 4 22 4q36 4 56 4q73 5 88 5q55 0 127 -7q44 -3 55 -53q2 -11 4.5 -23.5t6.5 -28t6 -24.5q3 -13 8 -37t8 -36l4 -21q0 1 1 2 t1 2l21 27q54 99 174 147q42 17 69 17q58 0 117 -62q130 -145 133 -385v-6q4 -336 4 -512v-387h70zM256 1319q15 -84 23 -186.5t9 -168.5t1 -184q0 -36 -4 -106q0 -9 -1 -26.5t-1 -26.5v-336q-2 -70 -2 -217q10 1 28 4t25 4q11 2 33 5t32 5v39q3 41 0 80q-2 71 -10 184 q-8 117 -10 178q-2 76 -2 230q-4 258 -8 381q-2 39 -19 141q-8 35 -10 53q-9 39 -49 39v2h-15h-16h-12v-33q0 -12 4 -32q1 -5 2 -15t2 -14z" />
<glyph unicode="O" d="M1098 883q9 -73 13 -124.5t1.5 -116.5t-16.5 -120q-51 -187 -152 -311q-97 -120 -203 -170q-98 -43 -200 -43q-81 0 -172 33q-103 45 -154 131q-104 173 -121 315q-33 310 37 535q22 59 36 94t42.5 85t62.5 87q123 138 260 164q24 6 54 6q55 0 119 -23q184 -56 284 -237 q24 -42 45.5 -98t29.5 -83.5t26 -95.5q5 -12 8 -28zM535 86q-57 -8 -78 -10q11 0 35 -4q54 -6 57 -6h18q145 0 228 92l2 2q31 29 69 55q6 6 15 12l12 11q97 117 143 299q17 55 18.5 123.5t-5.5 121.5q0 4 -1 13t-1 14q-5 89 -52 229q-2 12 -10 31q-29 99 -104 174 q-11 11 -35 27q-30 17 -39 28q-45 49 -115 76l-4 2v4l-2 2h-2q-10 4 -33 4q-14 0 -26 3q-6 0 -13 -7h-2l2 -2v-4l2 -2q34 -31 70 -53q20 -15 21 -16q5 -8 16 -15q35 -25 57 -57q94 -157 123 -309q40 -221 6 -377q-28 -144 -110 -264q-104 -155 -262 -197zM848 879l-19 69 q-3 10 -8 30.5t-8 29.5q-55 218 -274 346h-2q-18 12 -43 12q-27 0 -45 -12h-3q-152 -89 -215 -244q-75 -171 -81 -315v-52q-4 -121 12 -178q7 -25 10 -65q0 -95 59 -221q23 -55 66 -82l61 -31q22 -9 29 -14q46 -19 86 -19t78 14q82 28 149 105q106 120 146 295q21 99 6 280 q-1 8 -2 26t-2 26z" />
<glyph unicode="P" horiz-adv-x="792" d="M784 1245q21 -134 -43 -260q-50 -93 -143 -123q-76 -32 -174 -35q-4 -2 -10 -2q-13 0 -45 4q-20 5 -27 5l-6 -103q0 -193 -4 -557q-1 -34 -19 -151q-8 -43 -49 -43q-10 0 -16 2q-27 0 -51 6q-62 8 -93 8q-19 0 -51 -4q-2 -2 -6 -2q-22 0 -35 10q-6 6 -10 23q-1 2 -2 6 t-2 6l-4 10l108 6q0 4 1 12t1 11q7 40 7 65q4 52 8 164l6 160q-1 20 4 108q4 40 4 64v78v157q4 125 -12 392v8q-2 31 -2 98v27q-5 0 -15.5 -1t-15.5 -1q-19 0 -47 -4h-2q-9 -3 -16 -3q-29 0 -43 29l-5 6l5 4l4 5q4 8 12 8l92 12q133 18 186 18q17 0 25 -2q26 0 35.5 -8.5 t9.5 -36.5v-73l8 8q31 28 43 41h2q64 61 164 61q74 0 121 -33q82 -61 102 -180zM162 127v-10q0 -23 2 -35v-31h96q1 3 2 8t2 7q1 3 2.5 9.5t2.5 11.5t1 9q1 165 6.5 476.5t6.5 367.5l6 422q0 29 -2 43q-24 8 -47 8q-30 0 -66 -16q0 -122 2 -183l6 -147q6 -276 6 -283 q0 -56 -10 -311l-6 -115q-2 -65 -10 -231zM731 1155q6 82 -35 166q-40 78 -125 78h-20q-99 -6 -174 -111q-19 -22 -23 -55q-8 -70 -12 -201q-2 -47 2 -135q36 -16 86 -16q30 0 76 6q62 18 103.5 41t68.5 65q50 77 53 162z" />
<glyph unicode="Q" horiz-adv-x="1341" d="M1434 61q15 -35 6 -63q-9 -25 -39 -35q-56 -29 -94 -29q-32 -4 -47 -4q-113 0 -248 72q-65 39 -135 109q-3 3 -17 15.5t-22 18.5q-43 47 -76 64q-49 31 -105 94q-19 20 -30 51q-8 4 -17 4q-23 5 -26 18v9q-3 22 4 43q0 3 1 8t1 8v5l4 2q12 6 20 6q12 0 29 -17 q96 -57 166 -157v-2q6 -6 20 -27q5 25 5 33q12 94 14 123q6 111 6 221q4 126 4 192l-6 86q-2 43 -10 123v2q0 14 -1 43t-1 45q-1 15 -2 44t-2 44q-1 12 -4.5 34.5t-4.5 31.5q-1 12 -4 33t-5 38t-3 33q-5 24 -45 37q-27 8 -76 8h-35q-6 -1 -17 -3t-17 -3q-52 -7 -74 -11 t-62 -15.5t-73 -28.5q-95 -64 -150 -137q-54 -64 -116 -213h-3l-8 -19l-30 -98q-3 -10 -9.5 -30.5t-9.5 -30.5q-26 -93 -6 -230v-2q9 -109 59 -184v-2h2q10 -24 15 -33q20 -49 41 -84q55 -95 143 -143q78 -43 160 -43h10h2q169 0 277 55l8 4l4 -6q17 -21 12 -37 q-3 -17 -20 -25q-38 -30 -70 -40q-100 -25 -186 -25q-87 0 -154 22q-132 39 -217 142q-58 71 -102 153h-2q-66 138 -66 332q3 157 88 359q86 200 211 305q88 76 207 106q99 27 186 27q95 0 182 -33q71 -29 111 -74q106 -131 137 -227q24 -100 35 -172q18 -141 6 -254v-2 q-13 -84 -28 -139q-1 -3 -5 -13.5t-6 -15.5q-37 -123 -80 -199q-44 -87 -102 -145l-2 -2l-14 -14q-1 -2 -5 -7t-6 -8q3 0 3 -2q4 -8 8 -10h2l2 -2q24 -30 61 -59l27 -25q1 -1 4 -2t4 -2q10 -5 25 -10q12 0 36 -4q58 -10 70 -11h2l15 -2q13 0 43 15q48 26 122 45q8 4 25 4 q43 0 70 -56zM907 1026q24 -260 15 -410q-2 -17 -13 -184q0 -41 -2 -61q-2 -31 -2 -97l13 13l22 22l21 39q54 95 69 148l19 57q31 104 38 162q21 238 -32 368q-7 22 -39 93q-47 105 -47 116q-9 11 -39 37t-41 39q0 -10 2 -14q5 -24 0 -31q0 -15 4 -47q0 -4 1 -13t1 -14 l6 -110q0 -39 4 -113zM1358 35q-4 2 -15 2q-27 0 -67 -27h10q50 0 72 25z" />
<glyph unicode="R" horiz-adv-x="1302" d="M1235 207h10q23 0 39 -19.5t19 -44.5v-2q0 -38 -35 -92q-30 -46 -76 -59q-7 -4 -25 -8q-29 -10 -37 -15q-4 0 -24 -3t-31 -3q-50 0 -112 47q-75 54 -120 102q-4 4 -3 4t12 -10q9 -9 2 2q-4 6 -20 27q-35 46 -43 60q-11 17 -30.5 44.5t-27.5 38.5q-58 75 -86 156 q-3 9 -18 45q-4 9 -35 94l-14 35l-13 39l-6 12q-16 29 -35 33q-17 1 -25 14t-5 31q2 12 8 19t10.5 9t13.5 5q2 1 5 2t4 2q29 8 118 45q11 6 33 14.5t25 10.5q35 17 45 73q2 11 7 39t7 45q0 15 4 43q3 14 4.5 31.5t2 28.5t-1.5 34t-2.5 29t-4.5 34.5t-4 29.5q-2 4 -2 12l-2 2 q-6 44 -61 84h-3q-1 1 -2.5 1.5t-4.5 1t-5 1.5q-8 0 -10 -2h-2q-67 -8 -154 -84q-2 -1 -5 -4t-5 -4q-23 -20 -34.5 -50t-13 -50.5t-1.5 -57.5q1 -34 -0.5 -96t-1.5 -82l-2 -88q0 -123 2 -182q-1 -14 -4 -61t-6 -72q-15 -154 -19 -187q-2 -39 -6 -117.5t-6 -117.5 q-1 -42 -19 -58.5t-57 -23.5q-76 -7 -178 0h-10q-7 0 -21.5 -1t-21.5 -1q-10 -2 -31 -2q-4 -2 -12 -2q-20 0 -26.5 12t-8.5 37v8l8 2q34 8 102 16q3 0 19 3.5t24 3.5l3 26q3 16 0 29l1 57q0 58 -1 58v114q4 109 2 162q2 28 2.5 80t1.5 68q0 13 1 35.5t1 33.5q-4 66 -4 98 q-7 61 -7 109l5 68v34q0 18 8 54l2 211l2 22v12l-119 11l-2 4q-10 20 -2 39q6 13 27 16h2l151 -2l180 -2l2 -2q19 -24 19 -74q0 -36 4 -45l12 8q73 56 137.5 89t131.5 30q76 -7 131 -49q24 -7 47 -49q38 -81 41 -168q-3 -83 -37 -154q-44 -102 -141 -190q-81 -72 -156 -92 h-4q-11 0 -17 -4q2 -2 2 -9q73 -257 234 -481q13 -19 23 -33q4 -6 6 -7q8 -7 32 -34v-2q42 -45 90 -80q5 -3 37 -12q9 -5 23 -8q10 18 29.5 47t27.5 43q0 1 3.5 5.5t4.5 8.5q31 46 109 62zM842 1190q8 -99 -4 -156l-2 -57v-19q2 2 12 17q32 41 51 137q8 66 4 107q-1 1 -2 4 t-2 4q-7 22 -22 55q-11 24 -39 35q-7 2 -20 5t-19 5q35 -46 41 -117q2 -6 2 -20zM285 70q39 5 43 6q12 2 24 8q5 5 8 27q0 24 2 36l9 187q2 24 5 72t5 73q1 24 4 70.5t4 68.5l12 263l2 192q0 11 -2 17l-4 18q0 12 -2 20q0 6 -1 17t-1 14q2 26 5 80.5t5 81.5q0 14 -2 18 q-2 2 -10 2h-10q-16 -4 -35 -4q-2 0 -6 1t-6 1q-6 -1 -18.5 0.5t-16.5 1.5t-13 -1t-14 -1q0 -6 -2 -17.5t-2 -16.5q-4 -26 -8 -78v-2q0 -50 4 -148q0 -13 0.5 -36.5t0.5 -42.5t-1 -35q4 -182 0 -285q0 -242 -8 -438v-19q-4 -102 14 -153q11 0 15 2zM1229 129 q-58 -22 -82 -80q44 18 61.5 34.5t20.5 45.5z" />
<glyph unicode="S" horiz-adv-x="1110" d="M969 551q27 -98 18 -219q-3 -83 -39 -139q-32 -59 -102 -111q-70 -54 -150.5 -83.5t-181.5 -51.5q-39 -8 -94 -8q-120 0 -230 65q-112 68 -161 221v4q-12 71 -6 109q13 47 51 47q2 0 7.5 -1t8.5 -1q1 0 3.5 -1t4.5 -1l2 -2q45 -23 60 -64q8 -27 12 -73v-9q2 -30 -2 -100 v-8q0 -20 18 -35q45 -33 82.5 -50t54.5 -19.5t42 -2.5h2l6 -2h14q45 0 64 11q145 43 225 186q62 113 59 233v3q0 106 -28 188q-38 101 -103 166q-3 6 -6 6l-8 8l-4 4q-28 21 -68 33q-38 18 -94 27l-23 6q-5 1 -15 4t-15 4h-2q-52 18 -66 25l-10 4q-2 0 -5 1t-5 1h-2l-21 6 q-53 24 -84 84q-32 62 -26 114q12 86 65 154q50 67 145 129q94 66 220 66q84 0 188 -29q40 -10 72 -51q4 -2 12 -10v-3q12 -14 15.5 -40t-5.5 -43h-2v-3q-26 -22 -59 -22q-21 0 -29 4q-48 16 -74 57l-2 2v2l-2 3l-18 30q-14 21 -25 21q-8 0 -20 -4h-2q-110 -19 -176 -103 q-94 -114 -88 -241q3 -46 20.5 -69t56.5 -30q82 -18 230 -71q41 -15 112 -64h2q44 -38 89 -92q63 -72 92 -172zM305 995q-19 128 43 246q52 101 150 168l-27 -6q-114 -44 -172 -111q-37 -48 -58.5 -86t-29.5 -84q-3 -51 41 -92v-2q3 -2 10.5 -8t13 -10t13.5 -8.5t16 -6.5z M748 1391q-3 -23 26 -35v-2q9 -6 17 -6q4 0 12 4q-14 28 -55 39zM711 780l12 -22q103 -207 70 -373q-26 -132 -76 -213q-55 -93 -131 -147q74 18 133 47q85 42 143 108q34 34 51 84q19 94 9 160q-6 53 -17 96q-24 94 -69 154q-1 2 -5.5 5.5t-5.5 4.5l-6 6l-2 2l-4 4 q-8 14 -22 31q-41 47 -89 68q1 -2 4.5 -7.5t4.5 -7.5zM932 260v-2q12 61 12 111q0 -51 -12 -109zM104 207v4q0 47 -8 70q-7 -45 8 -74z" />
<glyph unicode="T" horiz-adv-x="888" d="M940 1483l2 -8q9 -29 -4 -45q-9 -15 -35 -15q-35 -2 -112 -2q-33 0 -103 -4q-40 -4 -63 -4q-37 -139 -37 -260q-3 -98 -13 -219q-10 -108 -10 -230v-102q0 -12 -1 -33t-1 -31v-114v-232q3 -80 -14 -151l-2 -6h-6q-38 -6 -74 -15q-47 -8 -68 -10q-4 -2 -14 -2 q-31 0 -31 37q0 47 2 72v45q2 42 6.5 121.5t6.5 115.5q8 220 14 316q4 36 8 104q15 181 17 225q4 90 4 138q0 81 -23 176v2v53q-142 0 -227 -16q-11 -5 -25 -9l-24 -6q-4 -2 -15 -2q-22 0 -35 23l-2 4v2q3 11 10 18t11 8.5t16 6.5l2 2q26 3 58 10q94 20 145 20h19 q155 0 233 2l190 7q129 4 189 8h6zM506 838v2q5 54 8 78l6 59q4 46 4 67v3q15 148 17 184q1 18 4 53t4 51v37q-46 4 -53 4q-23 0 -41 -12q0 -3 6 -39q4 -12 4 -18l2 -9q0 -6 2.5 -37.5t3 -41t1.5 -36t1 -40v-35t-2 -40t-4 -36.5v-2q-8 -55 -12 -166q-1 -10 -2 -29t-2 -28 l-27 -356q-4 -132 -4 -201l-6 -176q33 3 47 8l2 2h2q20 3 24 6.5t7 18.5q6 44 6 77q0 68 -2 101q0 15 -1 48t-1 48q2 51 2 152q1 50 2 151.5t2 151.5z" />
<glyph unicode="U" horiz-adv-x="991" d="M977 1419h2q10 -3 20.5 -14t10.5 -21q0 -11 -11 -18q-9 -9 -28 -6q-8 2 -27 2t-29 -2h-22q-2 -6 -2 -19q8 -70 4 -204v-111v-78q0 -12 1 -38.5t1 -41.5q0 -49 -4 -151q-1 -10 -2 -31t-2 -31q-2 -39 -2 -120q-1 -46 -12 -102t-20 -87.5t-30 -97.5q-16 -59 -51 -102 t-88 -83q-65 -48 -149 -57q-47 -6 -88 -6q-79 0 -132 33q-93 52 -122 129q-53 127 -68 309q-15 176 -18 332q-3 138 0 276v121q0 20 1 59.5t1 57.5q0 8 -5 43q0 4 -1 11t-1 11l-61 -12q-7 0 -23 -4h-6l-2 2q-18 18 -10 35q3 15 27 22q43 15 69 17h76q47 0 74 2q44 2 117 14 h2q3 0 7.5 1t6.5 1q8 0 31 -10l6 -4l-2 -8q-5 -17 -16.5 -26.5t-21 -11.5t-26.5 -3q-30 -4 -43 -13l13 -118v-23q16 -174 4 -268v-4v-10q0 -1 1 -5t1 -6v-96q6 -192 6 -195q0 -21 10 -104q4 -20 4 -33q4 -13 8 -47q5 -53 19 -119q25 -101 71 -147q24 -24 52 -27q5 0 13.5 -1 t12.5 -1q97 0 170 82q70 87 97 180q24 86 30 205q0 24 1 50t2.5 58t2.5 50l7 88q4 81 8 133v27q4 186 -11 284q0 5 -4 21v4h-57q-33 0 -33 22q-3 15 4 25q8 8 25 8q123 6 133 6q32 0 78 -4zM190 408l3 -11q8 -64 14.5 -98t26.5 -84t53 -84v-2q27 -27 57 -47q42 -25 111 -25 h30q117 9 195 76q73 60 100 150q-21 -27 -59 -70q-67 -85 -166 -94q-10 -2 -29 -2q-66 0 -108.5 34t-73.5 111q-13 34 -47 168l-12 59v3q-2 10 -2 32q-9 281 -11 383q-3 50 0 97v90q-7 116 -14 274q0 4 -1 8l-1 4q-28 4 -37 4q-34 0 -55 -12q3 -14 8 -96q1 -12 2 -35t2 -35 q8 -56 4 -168q-2 -18 -2 -57l-6 -70q-5 -84 -4 -102q0 -15 1 -45t1 -45q8 -209 20 -311z" />
<glyph unicode="V" horiz-adv-x="1275" d="M731 248q-38 38 -63 80q-4 22 -29 82q-14 33 -40.5 94.5t-47.5 113t-37 97.5q-98 267 -174 495q-11 19 -23.5 62.5t-15.5 50.5q24 15 65.5 39.5t59.5 36.5q22 15 22.5 25.5t-18.5 33.5q-28 -9 -29 -10q-71 -47 -219 -137q-22 -14 -127 -70q-41 -41 -53 -61 q-3 -4 -2.5 -11.5t2.5 -11.5q21 -10 25 -4q6 2 11 5.5t9.5 8.5t7.5 7q4 4 39 26q4 -8 10 -17.5t9 -15.5q87 -232 141 -413q3 -10 32.5 -106t49.5 -146q15 -44 51 -142.5t53 -150.5q16 -60 84 -213q3 -4 15.5 -19t15.5 -22q18 9 33.5 19.5t33 26.5t23.5 21.5t28 29t23 24.5 q11 17 32.5 38.5t29.5 32.5q0 23 10 41q6 15 19 42.5t18 41.5q64 149 110 297q32 77 60 189q11 41 52 198.5t65 241.5q4 11 12 36t14 44q134 -83 150 -94l14 16q17 27 14.5 35t-30.5 22q-21 10 -60.5 33.5t-56.5 32.5q-15 9 -64 41.5t-75 46.5q-21 16 -37 14.5t-39 -24.5 q10 -26 59 -52t62 -51l-6 -51q-52 -187 -60 -221l-33 -137q-6 -19 -40 -115.5t-42 -150.5q0 -3 -1 -10l-1 -7q-14 -39 -46.5 -125t-49.5 -133q-6 -18 -23 -52t-22 -48zM567 37q-12 28 -18 37q-25 72 -76 205t-65 170q-34 97 -134 407q-44 133 -79 215q-40 129 -50 156 q7 10 18 18.5t20.5 12.5t25.5 11t24 11q10 10 21.5 5t17.5 -23q4 -17 17.5 -58t17.5 -61q30 -81 85.5 -241.5t62.5 -180.5q50 -152 127 -322q15 -32 33.5 -93.5t27.5 -84.5q2 -1 3 -8t3 -8q43 -65 -28 -125q-19 -22 -54 -43z" />
<glyph unicode="W" horiz-adv-x="1423" d="M1079 1419v4q9 19 27 19q10 0 16 -2q209 -56 258 -72q2 -2 9 -2q24 -9 30 -21q3 -7 4 -18v-4h-2q-16 -4 -26 -4q-13 0 -58 10q-36 12 -57 12q-14 0 -20 -2q0 -1 -1.5 -3.5t-1.5 -4.5q-9 -12 -16 -33q-13 -58 -27 -106q-36 -136 -40 -207q-6 -37 -15 -80q-8 -31 -14 -71 q-17 -65 -21 -168q-4 -66 -8 -93q-5 -55 -29 -176q-23 -226 -32 -305q28 -4 41 -4q24 -4 32 -4h7h6q14 0 18 -6q17 -8 17 -25q0 -2 -3.5 -9.5t-7.5 -10.5h-2h-12h-12h-15q-25 0 -37 -2h-36q-27 0 -39 2q-6 0 -19 -1t-20 -1q-32 0 -94 4q-22 0 -27 10q-10 10 -4 33v2l2 2 q23 10 49 10q23 0 35 -2q5 0 16 -1t17 -1q-9 30 -17 47q-23 54 -45 94q-50 78 -117 240l-8 19q-7 18 -12 28l-6 10q-3 9 -8 19q-43 -89 -54 -117q-3 -6 -8 -18.5t-8 -18.5q-2 -4 -22 -78q-32 -132 -64 -176q-10 -10 -16 -33q-4 -20 -17.5 -34.5t-24 -19t-32.5 -13.5h-6 q-62 -4 -90 -12q-30 -5 -35 -5q-10 0 -45 5q-32 4 -47 4h-31h-31h-26q-8 -2 -21 -2q-29 0 -45 30v2l2 2q27 19 68 19h20h21q35 0 57 12q-4 23 -9.5 72.5t-6.5 60.5q-15 177 -39 277q-12 50 -21 96q-10 52 -14 64q-1 7 -4 20t-4 20l-43 172q-17 92 -45 189q-3 11 -43 133 q-22 61 -41 133l-27 -6h-2q-8 -2 -18 -2q-16 0 -41 20l-2 2v3q-3 24 28 30q131 31 281 64q20 4 28 4q28 0 37 -25q3 -8 0 -14q-7 -12 -49 -21q-4 -4 -10 -6q4 -16 4 -22l6 -29q2 -8 7.5 -27t7.5 -30l73 -283q14 -59 17 -78q5 -28 22 -102q19 -70 43 -133q4 -12 13.5 -39 t13.5 -43q7 -22 19 -65.5t16 -55.5q6 -24 41 -147q2 -10 6 -58q3 -48 10 -78q9 24 14 70l2 14v2q81 170 111 271v2q2 3 5 11t5 11q26 63 33 88q7 27 29 27q19 0 32 -20q7 -10 15 -29v-2q24 -106 78 -215q35 -65 55 -111q8 -18 49 -96v-2q3 -9 10 -16q1 -1 2 -3t2 -2l6 29 q9 36 9 43q4 38 8 57q5 52 16.5 150t16.5 145q1 13 4 35t4 31q5 49 16 131q1 8 4 23.5t4 23.5q32 210 76 350q2 8 8 29t9 31q17 65 22 92q-17 12 -49 20q-53 17 -70 41zM164 1356l-98 -19q4 -4 8 -12q64 -163 162 -537q2 -6 5 -20t5 -20q29 -119 67 -355q31 -178 58 -303 q58 4 90 4q29 0 43 2q-7 26 -10 80q-4 54 -11 111q-9 111 -55 209q-24 50 -53 157q-3 18 -10 39q-4 20 -23 78l-18 64q-10 44 -37 165q-20 90 -39 166q-1 7 -4 18t-4 15q-6 26 -41 164z" />
<glyph unicode="X" horiz-adv-x="1335" d="M1253 150q-19 12 -41 32q-9 -8 -18 -14.5t-21.5 -14t-19 -11.5t-23 -12.5t-20 -10t-23.5 -11t-22 -10.5q-21 35 -45 56q-110 153 -129 176q-30 38 -60 80t-68 99t-56 83q-16 31 -2 49q11 25 36 85t41 95q11 23 54 112t69 138q11 22 45 86t54.5 108.5t35.5 88.5 q7 -1 22 -5.5t23 -5.5q15 -7 66 -20q35 -5 37 10q8 29 -19 43q-2 1 -9.5 2t-10.5 2q-110 27 -141 37q-30 6 -89 20.5t-88 20.5q-4 1 -16.5 5.5t-19.5 2.5q-22 0 -29 -10q-16 -13 12 -37q2 -1 11.5 -1t13.5 -1q8 -2 36.5 -9.5t47.5 -10.5q-53 -112 -172.5 -306.5 t-153.5 -254.5q-10 23 -31.5 65t-29.5 64q-11 24 -30 65t-35 75t-32 66q-5 13 -22.5 54t-26 72.5t-8.5 62.5q60 0 166 8q3 31 -3 36.5t-38 4.5q-147 -10 -172 -10q-49 -5 -129 6q-34 0 -37 -23q0 -22 29 -22q6 0 18 -1t21 -1q4 -1 82 -6q8 -23 23.5 -65t21.5 -60 q9 -23 32.5 -76.5t34.5 -81.5q5 -11 45.5 -102.5t69.5 -137.5q31 -53 2 -102q-13 -24 -44 -91t-52 -101q-23 -39 -64 -131t-73 -140q-5 -8 -27 -45t-35 -57q-4 1 -19.5 4t-21.5 6q-85 35 -110 43q-5 2 -19.5 0.5t-19.5 -6.5q-17 -14 8 -35q4 -3 28 -19.5t40 -25.5t34 -14 q16 -4 55.5 -25.5t67.5 -21.5l6 -9q48 -37 154 -67q22 -8 28.5 -5t26.5 29q-16 10 -65 45q17 33 62.5 115.5t66.5 126.5q103 215 125 260q66 -94 185.5 -262t166.5 -235q-58 -30 -80 -46q-14 -14 -10 -26q4 -8 30 -8q5 -3 19 2q12 6 34.5 17t39 20.5t30.5 19.5q60 36 121 61 q2 1 10.5 4t12 4.5t10.5 5.5t10 7.5t6.5 9.5t3.5 13zM657 674q-1 -2 -4 -9t-4 -12q-4 -3 -8 -14q-1 -2 -7.5 -12.5t-8.5 -16.5q0 -3 -1 -7.5t-1 -6.5q-18 -35 -72.5 -147t-85.5 -173q-14 -30 -33 -62.5t-43.5 -70.5t-36.5 -59q-9 5 -20 11.5t-16.5 10t-13 8.5t-11 7.5 t-7.5 6.5t-6 7t-3 7t-1 8q2 10 25 55q146 265 221 407q6 15 21 46t22 47v6l2 2q2 9 13 20q10 20 12 23l12 35l2 4q25 43 91 163.5t104 184.5q7 12 51.5 87.5t62.5 117.5q4 21 21.5 25.5t46.5 -1.5q-7 -33 -41 -112q-5 -12 -24 -48t-27 -57q-12 -24 -39.5 -81t-44.5 -89 l-78 -151q-9 -24 -26.5 -64.5t-22.5 -52.5q-1 -2 -6.5 -15t-7.5 -24h-2q0 -4 -5 -4z" />
<glyph unicode="Y" horiz-adv-x="1079" d="M1071 1462l2 -4q16 -44 -10 -67l-2 -5h-4q-25 0 -60 7h-6q-17 0 -28 -19q-14 -32 -37 -65l-11 -17q-41 -84 -104 -178q-73 -114 -147 -213q-21 -35 -21 -84q0 -45 -4 -131q0 -45 -4 -131q0 -135 -12 -285q-2 -70 -13 -178q0 -5 -1 -17t-1 -18q21 0 31 -4q22 -13 29 -22 v-2q1 -2 2 -6.5t2 -6.5q3 -13 10 -20l10 -16h-18q-12 0 -21 -3q-3 0 -8 -1t-8 -1q-26 0 -75 3.5t-58 3.5q-14 0 -39 1t-37 1q-19 0 -51 -4q-35 -5 -43 -5q-2 -1 -4.5 -2t-4 -1.5t-3.5 -0.5q-2 -2 -7 -2l-2 -2l-2 2q-12 0 -20 8t-8 21q-3 17 4 27t20 10q2 2 10 2q35 6 60 6 q25 6 34 16t9 33l6 133q9 191 4 264q-4 54 -4 80q-1 25 -4 77t-4 79q-2 32 -29 96q-33 61 -129 219l-12 19q-29 53 -127 213l-45 74q-17 32 -43 32q-2 0 -6.5 -1t-6.5 -1q-8 -4 -12 -4q-8 0 -20 8q-11 11 -11 21v2h3q6 28 30 31q79 14 152 14h47q15 0 45 1t47 1q20 2 64 2 l10 2l-2 -10v-29q-1 -5 -2 -14.5t-2 -14.5v-8l-11 2q-6 0 -17.5 1t-18.5 1h-19h-6q26 -64 100 -192l29 -49l6 -8q79 -128 152 -215q10 3 12 8v2q62 81 160 225q5 6 14 25q89 138 123 221q0 2 2 2q0 1 1 3.5t1 4.5h-4q-6 -1 -18.5 -2t-18.5 -2q-8 -2 -20 -2q-30 0 -33 29 q-4 7 0 20q12 21 43 25h2q3 0 9 1t9 1h19q12 0 16 -2q47 -2 164 -15h6zM492 186q-8 -86 0 -133q12 -2 28 -2q15 0 21 6q2 5 12 45q6 53 6 105q0 86 8 250q4 82 4 125q0 25 4 75q4 96 -2 142l-10 12q-10 16 -20 29h-2q-1 1 -13.5 21.5t-19.5 31.5q-3 8 -8 16q-6 12 -17 23 q-87 131 -131 211q-44 62 -116 203q-13 36 -52 36h-16v-2q-19 0 -27 -2q1 -7 11 -26q4 -6 24 -41q29 -46 31 -49v-2l57 -93q129 -206 203 -338q22 -38 18 -94q-4 -65 4 -188v-25q10 -82 7 -192q0 -12 -1 -37t-1 -37q0 -47 -2 -70z" />
<glyph unicode="Z" horiz-adv-x="1220" d="M1163 156q20 -27 11 -66q-12 -66 -72 -78q-67 -20 -107 -22h-2q-121 -12 -227 -15q-35 -2 -43 -6q-2 -2 -12 -2q-14 0 -39 4q-129 6 -234 6q-152 0 -299 -16q-20 -4 -63 -4q-20 0 -29 14q-11 17 -2 39l2 6h78q20 35 22 39q29 46 31 51q49 84 102.5 195.5t80.5 173.5 t85 201q10 29 39 96q19 55 66 160q35 77 47 110q13 28 35.5 84t32.5 78q24 62 51 123l4 23q0 8 2 14q-55 0 -80 2q-15 0 -43 1t-43 1h-45q-45 -4 -150 -4h-106q-11 1 -21 10.5t-14 18.5v4q0 39 39 39q25 0 37 -2q46 -4 63 -4q86 0 168 -3q111 0 168 -2h49h48q39 0 59 2 q26 3 63 9q2 2 11 2q8 0 14 -2q3 0 9 -1t9 -1h11v-9q-2 -8 -2 -24q-6 -46 -6 -47q-65 -253 -199 -568q-9 -20 -26.5 -60.5t-26.5 -61.5q-71 -170 -187 -433q-22 -59 -76 -161l-6 -15q9 0 13 -2q5 -1 20.5 -3.5t22.5 -2.5h84h82h83q8 0 17.5 1t11.5 1h17l14 -2 q124 -6 217 103q27 34 72 34q12 0 20 -2q35 -3 49 -26zM514 360q80 198 123 295q158 359 223 564q29 94 37 147l-100 -6q-108 -244 -201 -477q-85 -207 -123 -298t-114 -257t-146 -293l125 6h24q18 36 21 41q7 12 14 29l9 14q44 81 57 115q24 58 51 120zM1075 96l31 17 q-12 4 -19 4q-22 0 -47 -37q26 13 35 16z" />
<glyph unicode="a" horiz-adv-x="1175" d="M641 1384q-21 7 -25 7q-4 2 -10 2h-6h-98v-15q-1 -3 -2 -8t-2 -8v-10q-2 0 -2 -2h2l-2 -4q0 -5 -2 -7q0 -2 -5 -22q-4 -26 -8 -39q-11 -44 -16 -70q-4 -12 -4 -18v-4h-2q-6 -19 -15 -58l-10 -34q-3 -22 -12 -43q-12 -72 -33 -131q-32 -96 -67 -273l-5 -10v-8l-12 -51 q-3 -20 -10 -50q-1 -9 -4 -25t-4 -22q-2 -8 -5.5 -24.5t-5.5 -24.5v-2l-2 -2q-12 -59 -14 -86h-2q-2 -8 -29 -115l-6 -20q0 -7 -6 -37l-6 -18l-6 -37q-3 -5 -8 -27l-4 -12q10 -2 30 -2q41 0 96 10h5q4 0 24 4q4 8 4 10v6q10 17 13 37v2q10 71 22 119l2 6q3 15 11 54.5 t12 60.5l18 96q3 13 9.5 41t9.5 41l36 164v2l4 6q3 31 13 64q1 6 4 18.5t4 18.5q4 24 8 36q4 22 8 37q8 58 39 166q10 47 41 152q3 19 10 41l13 41v2l2 2q0 2 1 4.5t1 3.5q9 52 8 65zM1163 72h-14q0 2 -4 2h-10h-2q-2 0 -5 1t-4 1h-4q-5 0 -8 1l-4 1h-2q-25 8 -29 16v2 q-38 49 -67 129q-7 27 -54 201q-4 43 -18 70q0 2 -1 6t-1 6q-6 15 -6 22v2l-2 3q-3 17 -13 34v6q-9 47 -14 58q-23 72 -37 133q-4 34 -10 59q-12 59 -27 117q-25 116 -41 172q-50 239 -51 244l-10 41q-4 25 -15.5 35t-23.5 10h-4q-26 4 -43 8l-16 4q-3 0 -9 1t-8 1h-2 q-10 2 -26 2q-25 0 -35 -4h-6q-4 2 -9 2l-26 2l-72 6q0 2 -4 2q-44 0 -57 -49v-14l73 -12q-4 -51 -12 -82q-18 -78 -55 -226v-2q-4 -8 -4 -12q-4 -12 -4 -16q-3 -19 -25 -88q-38 -110 -76 -301q-2 -11 -7 -33.5t-7 -34.5l-8 -49l-13 -55q-9 -29 -12 -58q-25 -139 -57 -270 q-5 -12 -8 -25q-10 -33 -23 -63l-92 -15l-8 -47l4 -2v-2h6q2 -2 6 -2l2 -2h2q1 -1 3 -1.5t3 -1t2 -1.5q1 0 4 -1t5 -1v-2h73h33q37 0 115 8l4 2q4 0 11 1t11 1l60 8h8l2 3h2v2l2 2v2q2 2 2 8l4 6l2 4v2q15 35 17 43l4 2h-4q4 16 8 47q12 56 16 90l2 2v5q1 4 4.5 19t4.5 24 q9 30 12 57h2q2 24 10 66t10 53q15 65 17 82l6 20l2 8l12 54q85 14 197 14q37 0 123 -4q1 -2 1.5 -5t1 -5t1.5 -3t1.5 -3t1 -3t1.5 -2l6 -20q8 -22 14 -45q24 -88 31 -119l19 -74q4 -22 8 -33q16 -67 41 -137v-2q12 -26 24 -71v-3q1 -3 4 -9t4 -9q-4 -2 -18 -2 q-35 0 -51 -12h-8v-49l10 -2h16l29 -3q126 -11 147 -12v-2q5 0 17 6l20 45zM774 702h-2q-25 0 -37 -2q-9 0 -27 1t-24 1h-2q-3 0 -9 1.5t-9 1.5h-17q-9 0 -18 -3q-62 -4 -90 -4q41 236 147 607q5 -15 14 -60q17 -64 17 -65l2 -9q72 -312 104 -464q-26 -8 -49 -5zM633 1319 q0 -1 -1 -3.5t-1 -4.5l-2 -2v-2l-13 -41q-7 -22 -10 -41q-31 -105 -41 -152q-31 -108 -39 -166q-4 -15 -8 -37q-4 -12 -8 -36q-1 -6 -4 -18.5t-4 -18.5q-10 -33 -13 -64l-4 -6v-2l-36 -164q-3 -13 -9.5 -41t-9.5 -41l-18 -96q-4 -21 -12 -60.5t-11 -54.5l-2 -6 q-12 -48 -22 -119v-2q-3 -20 -13 -37v-6q0 -2 -4 -10q-20 -4 -24 -4h-5q-55 -10 -96 -10q-20 0 -30 2l4 12q5 22 8 27l6 37l6 18q6 30 6 37l6 20q27 107 29 115h2q2 27 14 86l2 2v2q2 8 5.5 24.5t5.5 24.5q1 6 4 22t4 25q7 30 10 50l12 51v8l5 10q35 177 67 273 q21 59 33 131q9 21 12 43l10 34q9 39 15 58h2v4q0 6 4 18q5 26 16 70q4 13 8 39q5 20 5 22q2 2 2 7l2 4h-2l2 2v10q1 3 2 8t2 8v15h98h6q6 0 10 -2q4 0 25 -7q1 -13 -8 -65z" />
<glyph unicode="b" horiz-adv-x="1013" d="M899 551h-2v27q0 48 -23 86q-14 27 -39.5 46t-70.5 40q-2 0 -2 -2q46 -85 69.5 -152.5t16.5 -138.5q-12 -146 -103 -281q36 18 54 41v2q59 59 96 189q26 86 4 143zM801 1124q-2 46 -25 74h-2q-66 72 -158 111q183 -154 107 -379q89 83 78 194zM367 825v80q0 96 -9 191 q-2 39 -2 116v72q0 34 -22 45q-20 -2 -58 -2l-2 -2v-2q-1 -7 -3 -27.5t-3 -29.5q-12 -78 -12 -105v-117q4 -27 4 -81q0 -216 -14 -385q-11 -120 -13 -205q0 -13 1.5 -38t1.5 -38q2 -27 2 -76q2 -23 2 -80q2 -27 2 -78h22q15 3 29 3h4q17 1 21 6t6 22q6 41 10 113l6 102 q0 2 2 27.5t4 36.5q4 90 10 131q11 117 11 321zM973 516q-1 10 -2 28.5t-2 28.5l-8 58v2q-3 56 -41 86q-88 97 -220 106q-2 0 -4.5 1t-3.5 1q36 31 45 37q66 46 100 114t31 150q-3 66 -51 117q-63 70 -135 101q-57 40 -107 45q-67 12 -120 12q-39 0 -80 -6q-84 -12 -174 0 q-20 4 -54 4q-25 0 -65 -4h-16q-4 0 -8 -1t-5 -1q-34 0 -45 -15q-13 -8 -6 -22q2 -25 12.5 -35t36.5 -10h4q97 0 146 2l-4 -332q-2 -39 -13 -299q-2 -70 -5 -196t-6 -230t-7 -197h-47h-15q-28 0 -32 -18v-2q0 -20 10 -25q13 -8 29 -8h2q4 -1 14.5 -2t15.5 -2q28 -4 47 -4 q15 0 23 2q6 0 111 6q31 5 77 8q118 7 211 37q60 24 66 27q21 5 55 16q99 46 144 115q32 53 49 102q5 9 14 31t14 31q23 56 19 141zM895 408q-37 -130 -96 -189v-2q-18 -23 -54 -41q91 135 103 281q7 71 -16.5 138.5t-69.5 152.5l2 2q45 -21 70.5 -40t39.5 -46 q23 -38 23 -86v-27h2q22 -57 -4 -143zM723 930q76 225 -107 379q92 -39 158 -111h2q23 -28 25 -74q11 -111 -78 -194zM782 481q0 -39 -10 -73q-25 -91 -63 -166q-49 -79 -119 -125q-26 -18 -98 -29q-15 -3 -44.5 -7t-44.5 -7h-10v16v33q4 10 4 24q0 51 6 74q9 71 9 144 q0 86 4 127q16 101 16 217l-6 315v55q0 38 -2 54q0 5 -6 41q-2 12 -2 36q0 46 8 90q10 5 27 5q44 0 114 -39q78 -48 107 -142q25 -85 -2 -153q-15 -30 -21 -39l-33 -64q-2 -2 -9.5 -11t-10 -11.5l-9.5 -9.5t-11 -10.5t-11 -7.5t-14 -7q-23 -6 -37 -20q-13 -9 -18 -9l-9 -6 l9 -8q28 -25 57 -25q14 0 43 13q16 8 33 8q35 0 61 -39q61 -72 82 -176l6 -29q4 -28 4 -39zM367 905v-80q0 -204 -11 -321q-6 -41 -10 -131q-2 -11 -4 -36.5t-2 -27.5l-6 -102q-4 -72 -10 -113q-2 -17 -6 -22t-21 -6h-4q-14 0 -29 -3h-22q0 51 -2 78q0 57 -2 80q0 49 -2 76 q0 13 -1.5 38t-1.5 38q2 85 13 205q14 169 14 385q0 54 -4 81v117q0 27 12 105q1 9 3 29.5t3 27.5v2q2 0 2 2q38 0 58 2q22 -11 22 -45v-72q0 -77 2 -116q9 -95 9 -191z" />
<glyph unicode="c" horiz-adv-x="1071" d="M555 39l-16 10q-90 56 -138 146q-30 60 -57 172q-16 93 -22 168v2q-9 106 14 286q6 41 18 86q0 5 4 17q0 6 3 17t4 13q4 26 8 39l2 15l6 18q8 42 25 96v2l12 31q1 6 4 15l4 12q12 36 14 53v2l2 2q9 18 9 21l-66 -70l-4 -4q-46 -55 -82 -139q-55 -103 -85 -181.5 t-38 -160.5q-11 -148 -4 -246q17 -123 68 -203q45 -61 106 -119q30 -26 45 -37q15 -10 19 -14q64 -39 145 -49zM1071 119l-4 10q-10 19 -31 51t-28 43l-9 13q-3 5 -10 15t-10 15l-14 21l-15 24l-14 -22l-10 -10l-8 -13l-5 -4v-6q0 -14 5 -29v-2q13 -30 28 -47 q-35 -55 -94 -82q-45 -26 -109 -26q-37 0 -71 6h-13q-40 6 -81 41l-23 12q-41 26 -88 96l-2 2q-28 49 -53 168l-11 43q-16 76 -16 183l-2 36q0 32 10 97l6 49q13 70 43 196q11 45 54 175v4l2 8q14 47 32 92l7 14q13 26 18 31q31 45 115 59h14q58 0 107 -49h-3v-2l-2 -2 q-15 -31 7 -57l4 -6l51 8l4 8l12 29q3 9 8 14l7 16q14 21 22 29v2l6 10q1 2 4 5.5t4 5.5q12 16 7 32q-6 16 -33 25l-10 4l-9 -8q-3 -3 -8 -9.5t-8 -9.5l-12 -18l-11 -14l-14 8v6h-8l-2 2v2h-2l-10 4q-44 23 -70 27q-20 4 -33 4q-31 0 -69 -10q-7 0 -15 -4h-2 q-29 -11 -49 -13q-24 -6 -68 -41h-2v-2l-6 -4h-2v-2q-50 -46 -71 -67l-37 -35q-20 -15 -39.5 -39t-30 -41t-31.5 -53v-2l-4 -7q-2 -2 -2 -4h-2l-2 -4q-13 -26 -27 -61q-30 -70 -40 -86q-13 -19 -27 -58l-14 -28v-2q-20 -63 -25 -90q-25 -136 -25 -234q6 -140 35 -248v-2 q11 -30 21 -47l14 -35h2q27 -42 84 -104v-2l4 -2q109 -124 250 -148q75 -14 125 -14q159 0 293 90q7 5 15.5 12.5t18.5 16.5t15 14l16 14q16 -26 41 -26h8l5 6q2 2 8 14q2 0 2 2zM539 49l16 -10q-81 10 -145 49q-4 4 -19 14q-15 11 -45 37q-61 58 -106 119q-51 80 -68 203 q-7 98 4 246q8 82 38 160.5t85 181.5q36 84 82 139l4 4l66 70q0 -3 -9 -21l-2 -2v-2q-2 -17 -14 -53l-4 -12t-4 -15l-12 -31v-2q-17 -54 -25 -96l-6 -18l-2 -15q-4 -13 -8 -39q-1 -2 -4 -13t-3 -17q-4 -12 -4 -17q-12 -45 -18 -86q-23 -180 -14 -286v-2q6 -75 22 -168 q27 -112 57 -172q48 -90 138 -146z" />
<glyph unicode="d" d="M338 176q0 52 -4 150t-4 147q-4 91 -8 285q-3 30 -3 57q3 21 0 43q0 23 5 141q0 12 1 35.5t1 34.5q0 6 -7 41h-2q-4 35 -4 104q0 36 -2 52q-3 57 -18 116q-19 0 -29 2q-12 2 -39 2q0 -20 2 -28q0 -27 -2 -37q-8 -34 -12 -139q0 -53 -2 -80l-4 -105q0 -12 -1 -33.5 t-1 -31.5q-4 -89 -10 -131q0 -12 -5 -62q-12 -141 -4 -207v-2q4 -62 4 -92q5 -68 5 -86t-5 -116q-6 -105 -6 -111q0 -28 17 -55q90 4 133 24q2 6 2 19q4 40 2 63zM627 145q-2 -1 -5.5 -4t-5.5 -4l23 6q25 10 35 15q94 50 176 145q10 11 19.5 24t16 23.5t15.5 27t13 24.5 t13.5 27.5t12.5 25.5q16 43 25 90q2 7 7.5 32t8.5 37q8 33 8 131v23q0 92 -16 143q-5 19 -23 64q-7 15 -20 55q-46 107 -139 191q24 -50 30 -103v-2q0 -8 4 -16q0 -1 1 -3.5t1 -4.5q1 -9 23 -88q8 -29 10 -39v-2q0 -13 4 -37q2 -12 2 -39q0 -26 4 -80q3 -59 0 -117 q-3 -172 -63 -323q-21 -83 -100 -150v-2q-48 -38 -80 -70zM1014 946q-37 128 -84 201q-44 64 -90 111t-109 77q-46 20 -74 29q-67 35 -142.5 50t-184.5 24q-54 12 -82 12q-9 0 -15 -2q-25 -2 -127 -18l-26 -7q-9 0 -21 -4l-18 -6h-10l2 -10q2 -8 2 -29v-10l10 2q60 6 115 20 q8 -54 0 -147q-4 -34 -8 -55v-2q4 -80 0 -244q-1 -19 -2.5 -56t-2.5 -55q0 -8 -4 -28q-12 -115 -12 -119q4 -102 4 -154q4 -110 4 -166q0 -86 -2 -133q-2 -51 -2 -155q-24 -3 -51 -9q-43 -5 -59 -8h-5l-2 -4q-4 -4 -12 -16l-6 -4l4 -8q16 -23 41 -23q3 0 8.5 1t7.5 1 q5 0 7 2q6 0 18.5 1t17.5 1l43 6q20 2 64 2q2 0 26.5 2t36.5 4h2q2 0 23 7q18 6 37 6q121 3 258 43q12 3 22 8q8 2 24 7t24 7h2q86 29 133 82q6 3 6 8q2 2 3 3.5t1.5 2.5t1.5 1h2q63 51 94 98l2 2l43 78l6 12q59 107 86 297v2q17 152 -30 262zM981 614q-3 -12 -8.5 -37 t-7.5 -32q-9 -47 -25 -90q-3 -6 -12.5 -25.5t-13.5 -27.5t-13 -24.5t-15.5 -27t-16 -23.5t-19.5 -24q-82 -95 -176 -145q-10 -5 -35 -15l-23 -6q2 1 5.5 4t5.5 4q32 32 80 70v2q79 67 100 150q60 151 63 323q3 58 0 117q-4 54 -4 80q0 27 -2 39q-4 24 -4 37v2q-2 10 -10 39 q-22 79 -23 88q0 2 -1 4.5t-1 3.5q-4 8 -4 16v2q-6 53 -30 103q93 -84 139 -191q13 -40 20 -55q18 -45 23 -64q16 -51 16 -143v-23q0 -98 -8 -131zM809 590q-9 -107 -61 -221q-39 -74 -125 -154q-65 -58 -187 -104q-10 -5 -14 -5q-1 -1 -3 -2t-3 -2h-17q-11 42 -18 113 q0 65 -4 197l-6 219q0 95 -6 174q4 26 2 47q0 17 1 36.5t2.5 43.5t2.5 37q4 58 4 88q0 23 -4 59q-4 70 -4 105q0 40 -4 63q0 36 -3 66v6q-1 2 -2 7.5t-2 8.5q46 0 66 -2q15 -2 125 -29q8 -1 21 -4t18 -4v-2h2q11 0 14 -6h2q19 -22 43 -37q2 -2 11.5 -10t12 -10.5t11 -10 t12 -11.5t9.5 -11t10 -12.5t8.5 -12.5t7.5 -14q17 -28 31 -55q24 -93 37 -166q14 -68 18 -205v-27q2 -62 -8 -153zM336 113q0 -13 -2 -19q-43 -20 -133 -24q-17 27 -17 55q0 6 6 111q5 98 5 116q0 19 -5 86q0 30 -4 92v2q-8 66 4 207q5 50 5 62q6 42 10 131q0 10 1 31.5 t1 33.5l4 105q2 27 2 80q4 105 12 139q2 10 2 37q-2 8 -2 28q27 0 39 -2q10 -2 29 -2q15 -59 18 -116q2 -16 2 -52q0 -69 4 -104h2q7 -35 7 -41q0 -11 -1 -34.5t-1 -35.5q-5 -118 -5 -141q3 -22 0 -43q0 -27 3 -57q4 -194 8 -285q0 -49 4 -147t4 -150q2 -23 -2 -63z" />
<glyph unicode="e" horiz-adv-x="892" d="M799 369q-27 -27 -35 -95q0 -1 -1 -3.5t-1 -4.5q0 -18 -2 -30q47 47 47 92q0 22 -8 41zM565 86q-4 0 -6 2q-96 18 -176 68q-79 51 -139 129q-49 61 -49 125v6q2 10 2 30t-4 48q-3 27 -3 55q0 99 43 186q3 3 3 4t-3 4q-4 -8 -8 -12q-26 -28 -57 -88l-6 -8q0 -11 -8 -19 l-4 -4q-50 -109 -58 -182v-24q0 -40 2 -58v-2q4 -28 4 -43q0 -3 -1 -9t-1 -9q0 -35 19 -78q46 -117 174 -141q63 -13 117 -13q88 0 161 27l4 4q-1 0 -3 1t-3 1zM588 1372q5 -42 12.5 -58t26.5 -20q-2 32 -39 78zM399 940l-4 2q-16 8 -22 14q-1 0 -2 1t-2 1q-85 52 -111 129 q-20 62 -20 119q0 52 16 111q4 8 4 12q5 15 6 19v6v2q-2 2 -6 2q-4 -2 -8 -6v-2q-103 -92 -103 -211q0 -26 7 -54q17 -86 100 -131q39 -19 78 -22h10q17 0 57 8zM858 406v2q-33 20 -51 20q-20 0 -62 -33h-2l-30 -102q0 -6 -2 -10l-6 -23q-1 -3 -2.5 -9t-2.5 -9 q-3 -8 -8 -24.5t-8 -24.5q-4 -38 -45 -54q-201 15 -320 146v2q-4 2 -8 6q-2 4 -6 8q-6 9 -12 12l-4 4q-44 56 -41 113v2q-2 14 -2 45q2 18 2 58q0 10 1 29t1 28q0 42 12 76l12 28q1 4 11 29q1 3 4 9t4 9l12 33q22 60 90 90l11 4q32 12 53 25q16 5 20 8q2 1 5.5 2t4.5 2h3 l2 8l4 7q15 24 4 41l-2 4h-2q-1 0 -3 1t-3 1l-17 6q-9 5 -35 14l-16 6q-26 10 -43 21q-41 37 -65.5 85.5t-24.5 116.5t35 138q13 30 47 59h4q10 13 33 17q12 2 30 2q34 -3 57.5 -23.5t30.5 -54.5q2 -4 2 -8l7 -13q8 -17 12 -35q13 -44 37 -59l73 -4l5 2v2q39 59 -7 141v11 h-4q-11 11 -14 12q-8 11 -23 20l-4 5h-2l-6 4q-20 16 -39 20q-47 24 -96 27h-10h-10h-9h-16q-52 -4 -78 -15q-83 -48 -133 -86q-48 -39 -72 -77q-64 -125 -41 -224q30 -130 144 -176q15 -11 45 -24q2 -1 5 -2t5 -2t4 -1h2v-2q0 -1 -1 -2t-1 -2q-5 -4 -29 -22l-6 -6 q-56 -44 -78 -72q-41 -45 -65 -96q-28 -61 -41 -99q-56 -159 -39 -270q0 -5 4 -29q-2 -17 2 -41q43 -175 221 -219q44 -9 86 -12q14 -2 43 -2q90 0 185 31q12 3 25 8t27.5 12.5t23 12.5t25 15.5t20.5 12.5q32 20 69 70q2 4 6 8l4 6q9 9 15 12h2q84 104 55 218zM807 328 q0 -45 -47 -92q2 12 2 30q0 2 1 4.5t1 3.5q8 68 35 95q8 -19 8 -41zM627 1294q-19 4 -26.5 20t-12.5 58q37 -46 39 -78zM567 80q-73 -27 -161 -27q-54 0 -117 13q-128 24 -174 141q-19 43 -19 78q0 3 1 9t1 9q0 15 -4 43v2q-2 18 -2 58v24q8 73 58 182l4 4q8 8 8 19l6 8 q31 60 57 88q4 4 8 12q3 -3 3 -4t-3 -4q-43 -87 -43 -186q0 -28 3 -55q4 -28 4 -48t-2 -30v-6q0 -64 49 -125q60 -78 139 -129q80 -50 176 -68q2 -2 6 -2q1 0 3 -1t3 -1zM395 942l4 -2q-40 -8 -57 -8h-10q-39 3 -78 22q-83 45 -100 131q-7 28 -7 54q0 119 103 211v2q4 4 8 6 q4 0 6 -2v-2v-6q-1 -4 -6 -19q0 -4 -4 -12q-16 -59 -16 -111q0 -57 20 -119q26 -77 111 -129q1 0 2 -1t2 -1q6 -6 22 -14z" />
<glyph unicode="f" horiz-adv-x="833" d="M322 621q0 7 -1.5 21.5t-1.5 21.5q0 30 -4 100q-1 12 -2 36.5t-2 37.5l-6 100q0 12 1 32.5t1 30.5q2 20 2 62q0 26 -4 88q-1 21 -4 62t-4 61q-4 72 -8 106q-12 2 -27 2q-21 0 -51 -12v-8q0 -11 4 -31q19 -66 23 -215v-35q4 -132 4 -198q1 -32 2 -99t2 -100q0 -29 2 -45 v-51q5 -16 0 -35q-2 -64 -10 -258q0 -3 -1 -9.5t-1 -9.5q-5 -40 -5 -49v-116v-54q20 -10 37 -10q6 0 51 10h5v64q0 51 -2 76q0 129 2 153q5 116 -2 271zM825 1470q0 3 -6 39q-2 2 -2 4q-6 19 -24 19q-12 0 -19 -10q-8 -13 -12 -37v-4q0 -13 2 -17v-10h-6h-15q-8 0 -12 -2 q-30 0 -88 -4q-78 -4 -117 -4h-39q-31 2 -94 2q-95 0 -235 -8q-8 -1 -29.5 -4t-32.5 -4l-67 -13q-15 -1 -23 -11t-6 -24q2 -11 12 -19.5t23 -8.5h2q3 1 8.5 2t7.5 2h10v2q36 5 91 8q4 -30 8 -45q14 -56 6 -88v-2q0 -13 2 -21q14 -90 14 -274v-29q0 -20 -2 -30q0 -5 -1 -16 t-1 -15q0 -19 2 -29v-35q0 -9 1 -27t1 -26q4 -74 4 -106q4 -71 2 -107q-8 -135 -14 -199q-2 -31 -6 -92t-6 -92l-6 -88q-9 6 -19 6h-2q-6 2 -18 2q-22 0 -27 -10q-13 -10 -10 -51v-8h8l12 -4q5 0 15.5 -1t15.5 -1q8 0 30 1t34 1h61h84q26 4 35 8q1 1 4 2t4 2q4 0 16 4 q5 1 15.5 4t15.5 4l23 2v6q0 7 2 9q0 20 6 38l4 9h-76q-10 249 -6 376q0 63 -4 177q-8 133 -4 204q54 3 110 9q40 0 68 12q6 2 16 12q1 2 11 12l10 11l-14 4l-19 6q-28 8 -39 8q-65 0 -104 -8h-19q-13 0 -28 6v158q0 23 -4 55q-4 87 -3 115q2 23 -6 69q-11 50 -6 86h19h22 h25q44 -8 106 -8q51 0 137 8q49 0 107 7l12 -103l13 8q25 20 29.5 28.5t6.5 31.5q0 77 -2 116zM324 350q-2 -24 -2 -153q2 -25 2 -76v-64h-5q-45 -10 -51 -10q-17 0 -37 10v54v116q0 9 5 49q0 3 1 9.5t1 9.5q8 194 10 258q5 19 0 35v51q-2 16 -2 45q-1 33 -2 100t-2 99 q0 66 -4 198v35q-4 149 -23 215q-4 20 -4 31v8q30 12 51 12q15 0 27 -2q4 -34 8 -106q1 -20 4 -61t4 -62q4 -62 4 -88q0 -42 -2 -62q0 -10 -1 -30.5t-1 -32.5l6 -100q1 -13 2 -37.5t2 -36.5q4 -70 4 -100q0 -7 1.5 -21.5t1.5 -21.5q7 -155 2 -271z" />
<glyph unicode="g" horiz-adv-x="974" d="M594 104q-31 0 -70 17q-114 50 -180 137q-84 118 -117 264q-50 203 -14 361q21 82 29 123q2 10 7 30.5t7 30.5q46 190 143 311q-86 -47 -157 -129q-22 -26 -41 -59t-30 -57.5t-28 -67.5q-5 -15 -8 -21q-105 -261 -67 -536q18 -136 71 -236q48 -94 115 -143 q68 -54 172 -63h8q5 0 30 -3.5t40 -3.5q36 0 69 13q42 15 80 45q-33 -13 -59 -13zM913 408q0 63 -57 63q-10 0 -16 -2q-76 -12 -154 -18q-34 5 -45 8q-1 0 -12 3t-17 3l-6 2l-4 -6q-12 -24 -14 -29l-15 -26l-6 -13h15q36 -4 55 -4q41 0 115 8q40 4 63 4q0 -2 2 -4v-2 q-35 -148 -164 -219q-30 -18 -63 -18q-20 0 -47 10q-105 54 -160 133q-54 70 -90 193q-34 112 -37 227q-2 56 23 170q2 12 7 33.5t7 33.5q26 180 96 306q67 120 168 159q6 2 23 2q30 0 59.5 -16t38.5 -37q2 -2 8 -14q8 -20 19 -31q2 -3 20 -12q2 0 5 -1t5 -1l10 -4l3 10 q0 2 1 5.5t1 4.5q6 12 6 23q0 6 -11 28q0 2 -2 4l-14 19q-28 58 -92 67q-52 9 -70 9q-20 0 -28 -2q-116 -9 -222 -86q-121 -78 -184 -201q-57 -114 -88 -232q-65 -241 -35 -452q30 -209 129 -342q55 -78 150 -123q43 -19 125 -31l41 -6h2q28 -4 41 -4q82 0 153 45 q130 87 183 217q2 5 16 33q0 -1 1 -3t1 -3l-6 -209q-5 -46 24 -60l9 -4l4 7q24 28 24 92q0 96 2 141q0 51 2 78q0 12 1 37t1 37zM653 117q-38 -30 -80 -45q-33 -13 -69 -13q-15 0 -40 3.5t-30 3.5h-8q-104 9 -172 63q-67 49 -115 143q-53 100 -71 236q-38 275 67 536 q3 6 8 21q17 43 28 67.5t30 57.5t41 59q71 82 157 129q-97 -121 -143 -311q-2 -10 -7 -30.5t-7 -30.5q-8 -41 -29 -123q-36 -158 14 -361q33 -146 117 -264q66 -87 180 -137q39 -17 70 -17q26 0 59 13z" />
<glyph unicode="h" horiz-adv-x="1110" d="M391 1397v20q-21 0 -61 4q-9 0 -28 1t-28 1v-24q0 -5 1 -15.5t1 -15.5q9 -106 9 -139v-78q0 -201 -4 -301l-13 -330q-12 -330 -12 -336q-2 -24 2 -73q2 -10 2 -31q107 6 109 6q2 16 2 41q0 31 1 93t1 91q0 124 2 185v153q0 103 2 154q1 46 4 138t4 138q4 182 8 269 q0 33 -2 49zM1008 86l-11 -2q-18 -1 -54.5 -4t-55.5 -4q-23 113 -23 252q-2 112 2 331q0 17 1 53.5t1 55.5q4 114 4 172q0 57 2 86q0 101 3 203q2 57 10 180q9 0 27 1t24 1h20v-2q35 0 41 10q9 9 9 49v11l-21 -2q-147 -3 -282 -9h-7l-2 -6q-9 -38 0 -49q6 -8 21 -8 q10 0 16 2l92 4q0 -93 -10 -498q-2 -27 -2 -79q-10 10 -31 10q-6 0 -10 -2h-2q-33 -6 -117 -6h-26h-29q-60 0 -115 -9h-43q2 172 15 629v14l-6 3q-14 5 -31 8h-2q-156 0 -236 -2q-46 0 -59 -29l-2 -4l2 -4q16 -29 49 -29h10h10q15 0 19 -4q4 -28 4 -43q16 -132 16 -201 q-3 -217 -12 -420l-6 -215q0 -23 -4 -73q0 -6 -1 -17.5t-1 -17.5q-1 -24 -2 -71.5t-2 -71.5q-4 -94 -4 -144q0 -3 -11 -51h-26q-10 2 -35 2h-2h-6q-15 -3 -22.5 -5t-18 -12.5t-13.5 -27.5l-2 -10h11l30 -6q20 -5 23 -5q6 -4 20 -4h15h37q6 0 17.5 -1t16.5 -1h2v2q40 4 70 4 q26 0 84 -4h21l2 -2l4 2q18 11 18 45q-4 88 0 273v346q0 10 1 29.5t1 29.5q1 4 2 13.5t2 13.5q50 4 166 8q124 0 207 10q-14 -409 6 -718q-18 0 -26 2h-31q-26 0 -39 -5q-10 -3 -17.5 -12.5t-7.5 -17.5q0 -16 21 -29q12 -4 22 -4q11 0 15 2q3 0 96 6q72 4 108 8q23 0 37 17 q10 17 13 43v10zM393 1348q-4 -87 -8 -269q-1 -46 -4 -138t-4 -138q-2 -51 -2 -154v-153q-2 -61 -2 -185q0 -29 -1 -91t-1 -93q0 -25 -2 -41q-2 0 -109 -6q0 21 -2 31q-4 49 -2 73q0 6 12 336l13 330q4 100 4 301v78q0 33 -9 139q0 5 -1 15.5t-1 15.5v24q9 0 28 -1t28 -1 q40 -4 61 -4v-20q2 -16 2 -49z" />
<glyph unicode="i" horiz-adv-x="669" d="M367 1348q0 4 -1 12.5t-1 13.5q-23 -4 -66 -8q-6 0 -17 -1t-16 -1v-51v-84v-172q0 -2 -6 -119q-6 -141 -6 -147q-2 -164 -2 -488q0 -23 -2 -33v-26v-187h86q8 136 8 195q0 45 -2 65q0 11 -1 35t-1 35l2 29q7 105 14 280q6 198 9 406q1 34 2 102.5t2 102.5q2 12 -2 41z M549 31l-8 6q-35 24 -84 24q-21 0 -29 -2h-29q-4 8 -4 27q-4 32 -4 47q0 6 1 19t1 20q4 50 4 76q2 86 2 258l7 147q12 286 12 303q2 47 2 146q0 24 1 73t1 74q0 26 4 80q1 9 2 26.5t2 26.5l53 7q24 3 29 14t2 27q-4 22 -27 22l-14 -2h-2q-70 -16 -106 -18q-125 -10 -238 -15 h-4h-6q-31 0 -31 -28v-3q1 -11 17.5 -22.5t29.5 -11.5h4q9 0 13 4l57 10q15 -134 6 -274l-6 -115q-15 -226 -10 -379q5 -130 2 -293v-117q0 -28 -4 -90q0 -29 -2 -45h-41q-16 2 -50 2h-8q-33 0 -33 -26q0 -27 31 -27q2 -2 6 -2h2q2 0 6 2h5h4q49 -2 143 -2h61q102 3 201 12 q4 0 10 3l10 5l3 3zM369 1307q-1 -34 -2 -102.5t-2 -102.5q-3 -208 -9 -406q-7 -175 -14 -280l-2 -29q0 -11 1 -35t1 -35q2 -20 2 -65q0 -59 -8 -195h-86v187v26q2 10 2 33q0 324 2 488q0 6 6 147q6 117 6 119v172v84v51q5 0 16 1t17 1q43 4 66 8q0 -5 1 -13.5t1 -12.5 q4 -29 2 -41z" />
<glyph unicode="j" horiz-adv-x="1075" d="M850 684q-2 70 -5 213t-5 213v82q-3 37 -17 141q-2 30 -14 88h-102q-1 -10 -3 -26t-2.5 -23t0.5 -22q2 -67 8.5 -203t8.5 -205q6 -252 6 -502q-3 -175 -74 -290q-2 -4 -8.5 -19.5t-13.5 -26.5q175 104 213 289q12 62 12.5 144t-4.5 147zM995 1470q-25 5 -34 5 q-19 0 -59 -2.5t-60 -2.5q-8 0 -57 -1.5t-67 -1.5t-53 2t-63 8q-17 6 -43 2q-6 0 -13.5 -4.5t-8.5 -8.5q-8 -16 4 -28q15 -15 32 -15q11 -1 24 -1t29.5 0.5t26.5 0.5q11 -91 11 -94q0 -5 6 -235q2 -69 6.5 -198t7.5 -234t4 -199q3 -181 -78 -313q-62 -92 -151 -82 q-111 14 -144 26q-92 28 -155 148q-4 12 -19 69q7 6 26 18t31 24.5t19 31.5q-10 -2 -27 -4.5t-27 -4.5t-18 -7q-21 -11 -57.5 -33t-48.5 -29q-4 -2 -14 -6.5t-14 -7.5t-9 -10.5t2 -16.5q3 -8 7.5 -11.5t10.5 -2.5t10.5 2.5t11 5t9.5 4.5q27 8 38 4t24 -28l43 -82 q56 -95 167 -134.5t218 -13.5q101 31 198 111q55 46 84 108q41 79 43 84q44 96 39 170q-12 189 -14 279q-12 187 -14 289q0 101 8 319q0 9 3 28.5t3 22.5h57q28 2 34.5 8t10.5 41zM842 393q-38 -185 -213 -289q7 11 13.5 26.5t8.5 19.5q71 115 74 290q0 250 -6 502 q-2 69 -8.5 205t-8.5 203q-1 15 -0.5 22t2.5 23t3 26h102q12 -58 14 -88q14 -104 17 -141v-82q2 -70 5 -213t5 -213q5 -65 4.5 -147t-12.5 -144z" />
<glyph unicode="k" horiz-adv-x="1060" d="M1028 111q-12 0 -24 -2t-29.5 -6.5t-24.5 -6.5q-63 -14 -84 -14q34 -27 70 -27h6q0 1 1 2t1 2l4 7l43 -5q2 0 4 2l2 3h4q24 0 41 43q-2 0 -6.5 1t-7.5 1zM276 1376q0 9 -4 41v4q-16 -3 -86 -12v-53q7 -86 7 -146v-6q-13 -240 -13 -323q0 -236 10 -451l7 -340q13 3 36.5 7 t28.5 5q18 390 10 664l-4 -10v143h2q2 4 2 12v80q0 53 2 78v154q0 25 1 76t1 77zM1098 131q-12 35 -68 35q-10 0 -16 -2h-2q-44 -9 -64 -14q-13 -3 -30 -11q-24 -6 -50 -6q-59 0 -96 43q-24 28 -37 41q-55 66 -84 107q-48 63 -98 155l-25 39v2q-6 9 -41 66q-6 12 -8 14 l-10 23q-18 36 -29 55t-31.5 46.5t-43.5 45.5q17 24 61 78q49 62 86 115q56 74 100 151q73 123 160 275q12 16 12 34q0 17 -16 29h-2q-2 2 -6 2q-18 0 -25 -14q-8 -10 -12 -23q-23 -60 -59 -114l-2 -5v-8q0 -7 -11 -10h-2l-4 -4q0 -2 -2 -4t-6.5 -9.5t-5.5 -9.5 q-19 -44 -49 -86l-2 -2v-2q-1 -2 -15 -26q-11 -19 -28 -43q-51 -79 -107 -156q-35 -51 -90 -109v84q-4 125 -8 394v6q-3 43 0 86v43q0 43 -29 43q-2 0 -18 -4q-12 0 -45 -11h-15h-10h-10q-42 0 -60 -10q-43 -15 -92 -26q-4 0 -8 -2t-9 -5t-9 -4q-4 -5 -15 -8l-12 -6l10 -8 l10 -10q23 -19 35 -19t23 8q15 6 35 6q3 0 8 1.5t8 1.5q4 -54 4 -80q8 -106 8 -154q0 -54 -8 -160q-4 -50 -4 -80q0 -14 -1 -39.5t-1 -37.5v-78v-72v-143q-1 -6 -2 -20t-2 -21q0 -2 -1.5 -11.5t-1.5 -12t-1 -11.5t-0.5 -12.5t0.5 -11.5t0.5 -12.5t1.5 -11.5t3 -13.5t5 -12.5 q3 -7 0 -20v-17q4 -98 4 -170q0 -73 -2 -114h-6q-54 -4 -74 -4h-2q-9 0 -20 -7q-13 -9 -11 -24q0 -31 33 -31q6 0 10 2q52 9 140 21q19 2 67 10q34 6 43.5 16t10.5 43q0 80 2 119q0 22 4 72q4 70 4 106v201v100v15l12 -11q4 -5 14 -14.5t13 -15.5l43 -74q9 -17 43 -72 q23 -36 53 -82q43 -65 65 -104q106 -175 236 -287q37 -34 82 -45q27 -8 61 -8q51 0 107 29q23 15 34.5 47t2.5 55zM1042 109q-17 -43 -41 -43h-4l-2 -3q-2 -2 -4 -2l-43 5l-4 -7q0 -1 -1 -2t-1 -2h-6q-36 0 -70 27q21 0 84 14q7 2 24.5 6.5t29.5 6.5t24 2q3 0 7.5 -1t6.5 -1 zM274 1223v-154q-2 -25 -2 -78v-80q0 -8 -2 -12h-2v-143l4 10q8 -274 -10 -664q-5 -1 -28.5 -5t-36.5 -7l-7 340q-10 215 -10 451q0 83 13 323v6q0 60 -7 146v53q70 9 86 12v-4q4 -32 4 -41q0 -26 -1 -77t-1 -76z" />
<glyph unicode="l" horiz-adv-x="1050" d="M371 1339q0 6 -1 18.5t-1 18.5l-50 -6q-46 -3 -77 -8q0 -15 2 -23q0 -65 8 -122q12 -92 12 -275v-98q1 -31 1 -66t-0.5 -76.5t-0.5 -64.5v-105q-2 -68 -2 -210q0 -12 1 -37t1 -37q0 -52 4 -150q2 -19 7.5 -25t25.5 -7q27 -3 55 -3q-1 33 -2 99t-2 98q-1 35 -2 104.5 t-2 104.5q-4 299 12 496q9 122 13 315v2q2 21 -2 57zM1104 240q-12 15 -45 18q-47 0 -92 -65q-12 -14 -33 -52l-19 -30q-23 -32 -51 -39h-2q-66 -17 -141 -17q-29 0 -47 2h-53q-38 0 -54 2q-14 0 -37.5 1t-35.5 1q-57 5 -74 5q0 6 -1 18t-1 18q-4 71 -8 193v76v39v139 q-3 139 0 278q1 35 4 105.5t4 105.5q4 48 8 156q3 50 8 180l84 6l-2 11q-6 32 -10 39q-8 10 -31 10l-123 -6q-47 -1 -134 -5.5t-114 -5.5q-13 0 -19.5 -1t-15 -8.5t-8.5 -22.5t17 -25q17 -13 33 -10h2q2 0 5 1t5 1q4 4 8 4l45 4q10 -30 10 -53q2 -16 2 -47q0 -33 2 -49 q19 -128 11 -361q-8 -520 8 -778v-17l-1 -15q0 -15 1 -15q3 -31 33 -31q10 0 14 2q24 4 35 4q17 0 53 -1t53 -1h105h141q96 0 143 -2q6 -2 17 -2q45 0 92 16.5t73 31.5t76 48l7 4q48 31 61 99v2q3 28 -8 39zM1016 154q3 15 26 30q-7 -14 -26 -30zM373 1282v-2 q-4 -193 -13 -315q-16 -197 -12 -496q1 -35 2 -104.5t2 -104.5q1 -32 2 -98t2 -99q-28 0 -55 3q-20 1 -25.5 7t-7.5 25q-4 98 -4 150q0 12 -1 37t-1 37q0 142 2 210v105q0 23 0.5 64.5t0.5 76.5t-1 66v98q0 183 -12 275q-8 57 -8 122q-2 8 -2 23q31 5 77 8l50 6 q0 -6 1 -18.5t1 -18.5q4 -36 2 -57z" />
<glyph unicode="m" horiz-adv-x="1449" d="M432 1389l-16 4q-3 1 -9.5 3t-9.5 3q-4 -16 -4 -25q-4 -17 -8 -55q-4 -98 -8 -145q-8 -174 -17 -287q-5 -78 -22 -182q-2 -72 -23 -170q-19 -129 -26 -203q-11 -133 -8 -236q22 -13 35.5 -18.5t19.5 -6.5t22 -1h17q8 83 12 260q0 58 4 172q18 313 23 444q7 108 14 307 q0 46 4 136zM1452 135l-2 6h-6q-21 2 -70 -20q-38 -21 -59 -21q-3 9 -6 21l-6 26v3l-7 45q-6 46 -6 47q-4 41 -8 63l-6 45v2q-11 70 -16 113q0 11 -5 41q-1 6 -2 17t-2 16q-20 124 -28 221q0 13 -4 37q-2 25 -23 196v2l-6 29q-13 72 -21 129v2q-8 43 -20 129l-19 107 q0 10 -2 16q-5 72 -36 72h-5l-2 -2l-16 -13q-19 -14 -25 -24q-94 -132 -141 -193l-76 -104q-11 -15 -22 -23q-2 0 -6 -4q-5 6 -21 33l-2 2h-2q-5 4 -14.5 13.5t-14.5 13.5q-2 4 -8 10q-4 6 -12 14q-17 12 -25 27l-4 4h-2q-5 5 -92 98q-9 9 -29 33q-10 15 -24 29q-2 4 -10 12 q-16 18 -45 39h-2q-2 0 -6 1t-5 1q-13 4 -43 8q-4 2 -14 2q-3 0 -7.5 1t-6.5 1h-7q-24 4 -36 8h-5q-8 -2 -20 -2q-6 0 -8 -2q-9 1 -20 2.5t-25 4.5t-23 4h-2q-14 2 -43 2q-6 0 -20 1t-21 1l-10 2v-13q2 -6 2 -18q0 -4 1 -11t1 -10l2 -6l6 -2q9 0 25 -4q93 -13 127 -16 q2 -29 2 -76q-6 -309 -39 -545v-16q-9 -109 -18 -152q-32 -191 -48 -381q-4 -84 -22 -123l-16 5q-4 1 -17 4t-22 4l-11 2v-12q2 -10 2 -27v-25l2 -6l7 -2q29 -6 80 -20t61 -17q16 -4 76.5 -20t93.5 -23l8 -2l2 8q5 14 8 19q12 24 13 31l2 8l-9 2l-20 6q-7 2 -20.5 6t-20.5 6 l25 606q3 99 12.5 340t13.5 373q187 -195 307 -360l2 -2h3q15 -10 55 -17h6l4 4q22 40 31 54q48 74 67 125l4 8q35 98 113 188l6 -10q25 -145 39 -350q10 -122 21 -230q9 -61 12 -127l12 -125q26 -163 45 -290q20 -125 23 -146q2 -8 2 -22v-19q-3 -1 -8.5 -3t-8.5 -3 l-38 -20q-35 -23 -15 -60l4 -8l6 4q8 2 43 17q14 5 19 8h2q20 8 121 55q1 0 3 1t3 1q51 19 80 39h2q20 17 8 51zM416 1393l16 -4q-4 -90 -4 -136q-7 -199 -14 -307q-5 -131 -23 -444q-4 -114 -4 -172q-4 -177 -12 -260h-17q-16 0 -22 1t-19.5 6.5t-35.5 18.5q-3 103 8 236 q7 74 26 203q21 98 23 170q17 104 22 182q9 113 17 287q4 47 8 145q4 38 8 55q0 9 4 25q3 -1 9.5 -3t9.5 -3z" />
<glyph unicode="n" horiz-adv-x="1062" d="M399 219q-2 71 -10 184q-8 116 -10 179q-2 76 -2 229q-4 258 -8 381q-2 39 -19 141q-8 35 -10 53q-9 39 -49 39v2h-15h-16h-12v-32q0 -13 4 -33q1 -5 2 -15t2 -14q15 -84 23 -186.5t9 -168t1 -183.5q0 -37 -4 -107q0 -9 -1 -26.5t-1 -26.5v-336q-2 -70 -2 -217q10 1 28 4 t25 4q11 2 33 5t32 5v39q3 41 0 80zM1018 96l-2 6h-70v387q0 176 -4 512v7q-3 240 -133 385q-58 61 -117 61q-29 0 -69 -16q-119 -47 -174 -148l-21 -26q0 -1 -1 -2t-1 -2l-4 20q-3 12 -8 36.5t-8 37.5q-1 3 -8 32t-9 44q-11 50 -55 53q-62 6 -127 6q-30 0 -88 -4 q-20 0 -56 -4q-6 0 -22 -4l-23 -7l-18 -2l12 -12q35 -33 92 -33h19h20q23 0 35 -4q42 -140 49 -411q2 -158 2 -473q0 -5 -6 -209q-4 -46 -4 -70q0 -46 -4 -66q-2 -16 -2 -47q0 -51 -14 -71q-14 -21 -4 -37q11 -21 36 -21q7 0 9 2l18 2q69 8 150 25q34 4 43.5 15.5t9.5 45.5 q-1 19 -2 57.5t-2 57.5q-4 78 -4 115q-4 62 -4 92q-10 156 -13 276q0 243 8 410q0 71 37 129q27 51 92 102v3q31 24 82 38q6 2 21 2q26 0 37 -8q81 -52 121 -133q47 -106 47 -217q0 -239 2 -360q0 -28 1 -86t1 -86q4 -114 4 -174q0 -46 -4 -140q-4 -62 -4 -94l-97 -25 q-19 -4 -26 -16q-5 -11 -2 -24v-3l2 -2q12 -18 30 -18q9 0 17 4q70 33 180 33q25 0 33 10q2 2 3 4.5t1.5 5t0 7.5t-1 8t-1.5 11t-2 13zM399 139v-39q-10 -2 -32 -5t-33 -5q-7 -1 -25 -4t-28 -4q0 147 2 217v336q0 9 1 26.5t1 26.5q4 70 4 107q0 118 -1 183.5t-9 168 t-23 186.5q-1 4 -2 14t-2 15q-4 20 -4 33v32h12h16h15v-2q40 0 49 -39q2 -18 10 -53q17 -102 19 -141q4 -123 8 -381q0 -153 2 -229q2 -63 10 -179q8 -113 10 -184q3 -39 0 -80z" />
<glyph unicode="o" horiz-adv-x="1028" d="M965 825q0 4 -1 13t-1 14q-5 89 -52 229q-2 12 -10 31q-29 99 -104 174q-11 11 -35 27q-30 17 -39 28q-45 49 -115 76l-4 2v4l-2 2h-2q-12 5 -33 5q-18 0 -26 2q-6 0 -13 -7h-2l2 -2v-4l2 -2q34 -31 70 -53q20 -15 21 -16q5 -8 16 -15q35 -25 57 -57q94 -157 123 -309 q40 -221 6 -377q-28 -144 -110 -264q-104 -155 -262 -197q-57 -8 -78 -10q11 0 35 -4q54 -6 57 -6h18q145 0 228 92l2 2q31 29 69 55q6 6 15 12l12 11q97 117 143 299q17 55 18.5 123.5t-5.5 121.5zM1014 926q-3 16 -8 28q-42 157 -74 226q-13 27 -27 51q-100 181 -284 237 q-64 23 -119 23q-29 0 -53 -6q-138 -26 -261 -164q-34 -37 -62.5 -87t-42.5 -85t-36 -94q-70 -225 -37 -535q17 -142 121 -315q51 -86 154 -131q91 -33 172 -33q102 0 200 43q106 50 203 170q101 124 152 311q14 55 16.5 120t-1.5 116.5t-13 124.5zM952 580 q-46 -182 -143 -299l-12 -11q-9 -6 -15 -12q-38 -26 -69 -55l-2 -2q-83 -92 -228 -92h-18q-3 0 -57 6q-24 4 -35 4q21 2 78 10q158 42 262 197q82 120 110 264q34 156 -6 377q-29 152 -123 309q-22 32 -57 57q-11 7 -16 15q-1 1 -21 16q-36 22 -70 53l-2 2v4l-2 2h2 q7 7 13 7q8 -2 26 -2q21 0 33 -5h2q0 -2 2 -2v-4l4 -2q70 -27 115 -76q9 -11 39 -28q24 -16 35 -27q75 -75 104 -174q8 -19 10 -31q47 -140 52 -229q0 -5 1 -14t1 -13q7 -53 5.5 -121.5t-18.5 -123.5zM762 590q-40 -175 -146 -295q-67 -77 -149 -105q-38 -14 -78 -14t-86 19 q-7 5 -29 14l-61 31q-43 27 -66 82q-59 126 -59 221q-3 40 -10 65q-16 57 -12 178v52q6 144 81 315q63 155 215 244h3q18 12 45 12q25 0 43 -12h2q219 -128 274 -346q3 -9 8 -29.5t8 -30.5l19 -69q1 -8 2 -26t2 -26q15 -181 -6 -280z" />
<glyph unicode="p" horiz-adv-x="917" d="M369 922l6 421q0 29 -2 43q-27 9 -47 9q-28 0 -66 -17q0 -121 2 -182l6 -147q6 -276 6 -283q0 -56 -10 -311l-6 -115q-2 -65 -10 -231v-11q0 -23 2 -35v-30h96q1 3 2 7.5t2 6.5q6 30 6 31q1 165 6.5 476.5t6.5 367.5zM870 1227q-20 119 -102 180q-47 33 -121 33 q-99 0 -164 -62h-2q-12 -13 -43 -41l-8 -8v74q0 28 -9.5 36.5t-35.5 8.5q-8 2 -25 2q-53 0 -186 -18l-92 -13q-8 0 -12 -8l-4 -4l-5 -4l5 -6q14 -29 43 -29q10 0 16 2h2q28 4 47 4q5 0 15.5 1t15.5 1v-26q0 -68 2 -99v-8q16 -267 12 -391q-1 -23 -1 -49.5t0.5 -59t0.5 -49.5 v-78q0 -23 -4 -63q-5 -89 -4 -109l-6 -159q-4 -112 -8 -164q0 -26 -7 -66q0 -3 -1 -10.5t-1 -11.5l-108 -6l4 -11q1 -2 2 -6t2 -6q4 -16 10 -22q15 -11 35 -11q4 0 6 2q32 4 51 4q31 0 93 -8q24 -6 51 -6q6 -2 16 -2q41 0 49 43q18 116 19 152q4 364 4 557l6 102q11 0 27 -4 q32 -4 45 -4q6 0 10 2q98 3 174 35q93 30 143 123q64 126 43 260zM817 1137q-3 -85 -53 -162q-27 -42 -69 -65.5t-103 -41.5q-47 -6 -76 -6q-48 0 -86 17q-4 88 -2 135q4 129 12 200q4 34 23 56q39 55 80.5 81t93.5 29h20q86 0 125 -77q41 -84 35 -166zM375 1343l-6 -421 q-1 -56 -6.5 -367.5t-6.5 -476.5q0 -1 -6 -31q-1 -2 -2 -6.5t-2 -7.5h-96v30q-2 12 -2 35v11q8 166 10 231l6 115q10 255 10 311q0 7 -6 283l-6 147q-2 61 -2 182q38 17 66 17q20 0 47 -9q2 -14 2 -43z" />
<glyph unicode="q" horiz-adv-x="1341" d="M1343 -10q-27 0 -67 -27h10q50 0 72 25q-4 2 -15 2zM1055 1036q-6 19 -39 92q-47 105 -47 117q-9 11 -39 37q-30 25 -41 39q0 -10 2 -14q5 -24 0 -31q0 -15 4 -47q0 -4 1 -13t1 -14l6 -110q0 -39 4 -113q24 -260 15 -410q-2 -17 -13 -184q0 -41 -2 -61q-2 -31 -2 -97 l13 13l22 22l21 39q54 95 69 148l19 57q31 104 38 162q21 238 -32 368zM1434 14q-27 56 -70 56q-17 0 -25 -4q-71 -18 -122 -46q-28 -14 -43 -14l-15 2h-2q-23 2 -70 10q-30 5 -36 5q-15 5 -25 10q-1 1 -4 2t-4 2l-27 24q-35 27 -61 60l-2 2h-2q-4 2 -8 10l-3 2q2 3 6 8t5 7 q2 2 5 5.5t5 5.5t4 3l2 2q58 58 102 145q43 76 80 199q2 5 6 15.5t5 13.5q15 55 28 139v2q12 113 -6 254q-11 72 -35 172q-31 96 -137 227q-40 45 -111 74q-87 33 -182 33q-87 0 -186 -27q-119 -30 -207 -106q-125 -104 -211 -306q-85 -202 -88 -358q0 -194 66 -332h2 q44 -83 102 -153q85 -103 217 -142q67 -22 154 -22q90 0 186 24q30 10 70 41q17 8 20 25q5 16 -12 37l-4 6l-8 -4q-108 -55 -277 -55h-2h-10q-82 0 -160 43q-88 48 -143 143q-21 35 -41 84q-5 9 -15 33h-2v2q-50 75 -59 184v2q-20 137 6 229q3 10 9.5 31t9.5 31l30 98l8 19 h3q62 149 116 213q55 73 150 137q33 17 73 28.5t62 15.5t74 11q6 1 17 3t17 3h35q49 0 76 -8q40 -13 45 -37q1 -16 3 -33t5 -38t4 -33q1 -9 4.5 -31.5t4.5 -34.5q1 -14 2 -43.5t2 -44.5q0 -16 1 -45t1 -43v-2q8 -80 10 -123l6 -86q0 -66 -4 -192q0 -111 -6 -222 q-1 -28 -14 -122q0 -8 -5 -33q-12 18 -20 26v3q-70 100 -166 157q-17 17 -29 17q-6 0 -20 -7l-4 -2v-4q0 -3 -1 -8t-1 -8q-7 -21 -4 -43q-1 -11 4.5 -17t9 -7t12.5 -3q9 0 17 -4q11 -31 30 -51q56 -63 105 -94q33 -17 76 -64q8 -6 21.5 -19t17.5 -16q67 -68 135 -108 q135 -72 248 -72q15 0 47 4q38 0 94 29q30 10 39 35q9 28 -6 63zM1358 -12q-22 -25 -72 -25h-10q40 27 67 27q11 0 15 -2zM1087 668q-7 -58 -38 -162l-19 -57q-15 -53 -69 -148l-21 -39l-22 -22l-13 -13q0 66 2 97q2 20 2 61q11 167 13 184q9 150 -15 410q-4 74 -4 113 l-6 110q0 5 -1 14t-1 13q-4 32 -4 47q5 7 0 31q-2 4 -2 14q11 -13 41 -39t39 -37q0 -12 47 -117q33 -73 39 -92q53 -130 32 -368z" />
<glyph unicode="r" horiz-adv-x="1261" d="M1274 137q-58 -22 -82 -80q44 18 61.5 34.5t20.5 45.5zM446 889l3 192q0 8 -3 17l-4 18q0 13 -2 21q0 7 -1 17t-1 13q2 24 5.5 79t5.5 83q0 13 -3 19q-2 2 -10 2h-10q-16 -4 -35 -4q-2 0 -6 1t-6 1q-6 -1 -18.5 0.5t-16.5 1.5t-13 -1t-14 -1q0 -6 -2 -18t-2 -17 q-4 -26 -8 -78v-2q0 -50 4 -148q0 -13 0.5 -36.5t0.5 -42.5t-1 -35q4 -182 0 -285q0 -242 -8 -438v-19q-4 -102 14 -153q11 0 15 2q39 5 43 6q12 2 24 8q6 6 9 27q0 25 2 37l8 186q2 24 5 72t5 73q1 24 4 71t4 69zM948 1227q-1 1 -2 4t-2 4q-7 22 -22 55q-11 24 -39 35 q-7 2 -20 5t-19 5q35 -46 41 -116q2 -6 2 -21q8 -99 -4 -156l-2 -57v-18q4 4 12 16q32 41 51 137q8 66 4 107zM897 113l-12 9q14 -19 79 -72q23 -19 44 -34q62 -47 112 -47q11 0 31.5 3t24.5 3q9 6 36 15q18 4 25 8q46 13 76 59q35 54 35 93v2q-3 25 -19 44t-39 19h-10 q-79 -16 -109 -61q-1 -4 -4.5 -9t-3.5 -6q-8 -14 -27.5 -43t-29.5 -47q-14 3 -23 8q-27 8 -36 13q-52 38 -91 80v2q-25 28 -33 33q-1 2 -7 10q-10 14 -21 30q-159 221 -233 482q0 5 -3 8q6 4 17 4h4q75 20 156 92q97 88 141 190q34 71 37 154q-3 87 -41 168q-23 42 -47 49 q-55 42 -131 49q-67 3 -132 -29.5t-137 -88.5l-12 -9q-4 9 -4 45q0 51 -18 74l-3 2l-180 2l-151 2h-2q-21 -3 -27 -16q-8 -19 2 -39l2 -4l119 -10v-13l-2 -22l-2 -211q-8 -36 -8 -53v-35l-4 -68q0 -56 6 -108q0 -33 4 -99q0 -11 -1 -33.5t-1 -35.5q-1 -16 -1.5 -68t-2.5 -80 q2 -53 -2 -162v-114q2 0 1 -57t-1 -58q3 -13 0 -29l-2 -26q-1 0 -43 -6q-61 -7 -103 -17l-8 -2v-8q2 -25 8.5 -37t26.5 -12q8 0 12 2q21 0 31 2q7 0 21.5 1t21.5 1h10q102 -7 178 0q39 7 57 23.5t19 58.5q2 39 6 117.5t6 117.5q4 33 19 187q3 25 6 72t4 61q-2 59 -2 182 l2 88q0 20 1.5 82t0.5 96q0 37 1.5 57.5t13 50.5t34.5 50q2 1 5 4t5 4q87 76 154 84h2q2 2 10 2q2 -1 5 -1.5t5 -1t3 -1.5h2q55 -40 61 -84l2 -2q0 -8 2 -12q1 -6 3.5 -25.5t3.5 -28t3 -26t2 -28.5v-25.5t-1.5 -27.5t-4.5 -25q-4 -28 -4 -43q-2 -17 -7 -45t-7 -39 q-10 -57 -45 -74q-3 -2 -25 -10.5t-33 -14.5q-89 -37 -118 -45q-1 -1 -4 -2t-5 -2q-9 -3 -13.5 -5t-10.5 -9t-8 -19q-3 -18 5 -31t25 -14q20 -4 35 -32l6 -13l13 -39l14 -34q33 -90 35 -95q15 -36 18 -45q28 -79 86 -155q7 -11 27 -39t31 -45q4 -6 58 -80q9 -12 8 -12z M1192 57q24 58 82 80q-3 -29 -20.5 -45.5t-61.5 -34.5zM944 1120q-19 -96 -51 -137q-8 -12 -12 -16v18l2 57q12 57 4 156q0 15 -2 21q-6 70 -41 116q6 -2 19 -5t20 -5q28 -11 39 -35q15 -33 22 -55q1 -1 2 -4t2 -4q4 -41 -4 -107zM446 889l-12 -262q-1 -22 -4 -69t-4 -71 q-2 -25 -5 -73t-5 -72l-8 -186q-2 -12 -2 -37q-3 -21 -9 -27q-12 -6 -24 -8q-4 -1 -43 -6q-4 -2 -15 -2q-18 51 -14 153v19q8 196 8 438q4 103 0 285q1 16 1 35t-0.5 42.5t-0.5 36.5q-4 98 -4 148v2q4 52 8 78q0 5 2 17t2 18q5 0 14 1t13 1t16.5 -1.5t18.5 -0.5q2 0 6 -1 t6 -1q19 0 35 4h10l10 -2q3 -6 3 -19q-2 -28 -5.5 -83t-5.5 -79q0 -3 1 -13t1 -17q2 -8 2 -21l4 -18q3 -9 3 -17z" />
<glyph unicode="s" horiz-adv-x="1112" d="M166 223v4q0 47 -8 70q-7 -45 8 -74zM864 1368q-14 28 -55 39q-3 -23 27 -35v-2q9 -6 16 -6q4 0 12 4zM559 1425l-27 -6q-115 -45 -172 -110q-37 -48 -58.5 -86t-29.5 -84q-3 -51 41 -92v-3q2 -2 10.5 -8t13.5 -9.5t13.5 -8t16.5 -6.5q-19 128 43 245q53 102 149 168z M983 440q-7 61 -16 97q-23 90 -70 153l-10 10l-6 7l-2 2q0 1 -2 2t-3 2q-6 10 -22 30q-41 48 -88 68q1 -2 4 -7t4 -7l12 -23q103 -207 70 -373q-26 -132 -76 -213q-55 -93 -131 -147q74 18 133 47q85 42 144 109q34 34 51 84q18 90 8 159zM1004 346q-4 -41 -11 -72v2 q8 32 11 70zM1030 567q-29 100 -92 172q-48 57 -88 92h-2q-70 48 -113 64q-157 56 -229 72q-40 7 -57.5 29.5t-20.5 68.5q-6 128 88 242q65 83 176 102h2q12 4 21 4q11 0 24 -20l19 -31l2 -2v-2l2 -2q26 -43 74 -58q8 -4 28 -4q33 0 60 23v2h2q9 18 5 44t-16 40v2 q-8 8 -12 10q-32 41 -72 51q-104 29 -188 29q-127 0 -219 -65q-94 -61 -145 -130q-54 -70 -66 -153q-6 -51 27 -115q31 -60 84 -84l20 -6h2q2 0 5 -1t5 -1l11 -4q17 -8 65 -25h2q5 -1 15.5 -4t15.5 -4l22 -6q57 -9 95 -27q41 -12 67 -32l4 -4l9 -9q3 0 6 -6q63 -63 102 -166 q29 -85 29 -188v-2q3 -120 -60 -234q-80 -143 -225 -186q-18 -10 -63 -10h-15l-6 2h-2q-26 0 -42 2t-53.5 19t-82.5 50q-19 16 -19 35v9q4 70 2 100v8q-4 47 -12 74q-15 40 -59 63l-2 2q-2 0 -4.5 1t-3.5 1q-3 0 -9 1t-8 1q-38 0 -51 -47q-6 -38 6 -108v-4q49 -154 162 -222 q110 -65 229 -65q55 0 94 8q101 22 181.5 51.5t150.5 83.5q72 54 103 111q36 56 39 139q9 118 -19 219zM975 281q-17 -50 -51 -84q-59 -67 -144 -109q-59 -29 -133 -47q76 54 131 147q50 81 76 213q33 166 -70 373l-12 23q-1 2 -4 7t-4 7q47 -20 88 -68q16 -20 22 -30 q1 -1 3 -2t2 -2l2 -2l6 -7l10 -10q47 -63 70 -153q9 -36 16 -97q10 -69 -8 -159zM852 1364q-7 0 -16 6v2q-30 12 -27 35q41 -11 55 -39q-8 -4 -12 -4zM532 1419l27 6q-96 -66 -149 -168q-62 -117 -43 -245q-8 2 -16.5 6.5t-13.5 8t-13.5 9.5t-10.5 8v3q-44 41 -41 92 q8 46 29.5 84t58.5 86q57 65 172 110zM166 227v-4q-15 29 -8 74q8 -23 8 -70z" />
<glyph unicode="t" horiz-adv-x="909" d="M508 1323v37q-46 4 -53 4q-23 0 -41 -12q0 -3 6 -39q4 -12 4 -19l2 -8q0 -6 2.5 -37.5t3 -41t1.5 -36t1 -40v-35t-2 -40t-4 -36.5v-2q-8 -55 -12 -166q-1 -10 -2 -29t-2 -28l-27 -357q-4 -132 -4 -200l-6 -177q29 3 47 9l2 2h2q20 3 24 6t7 18q6 44 6 78q0 67 -2 100 q0 16 -1 49t-1 48q2 51 2 151q1 50 2 151.5t2 151.5v2q5 54 8 78l6 60q4 46 4 67v2q14 146 17 185q1 18 4 53t4 51zM901 1462l-2 8h-6q-61 -4 -188 -8l-191 -6q-78 -2 -233 -2h-19q-51 0 -145 -20q-41 -9 -58 -11l-2 -2q-1 0 -6.5 -2t-7 -3t-6 -3t-6 -4t-4.5 -5t-4.5 -6.5 t-2.5 -8.5v-3l3 -4q13 -22 34 -22q11 0 15 2l24 6q18 4 25 8q90 17 227 17v-54v-2q23 -95 23 -176q0 -47 -4 -137q-2 -44 -17 -225q-4 -70 -8 -105q-6 -98 -14 -315q-2 -36 -6.5 -116t-6.5 -122v-45q-2 -25 -2 -71q0 -37 31 -37q10 0 14 2q21 2 68 10q27 7 74 14h6l2 6 q17 71 14 152v231v115q0 10 1 31t1 33v102q0 111 11 229q9 103 12 220q0 121 37 260q23 0 63 4q70 4 103 4q77 0 112 2q27 0 35 14q13 16 4 45zM508 1360v-37q-1 -16 -4 -51t-4 -53q-3 -39 -17 -185v-2q0 -21 -4 -67l-6 -60q-3 -24 -8 -78v-2q-1 -50 -2 -151.5t-2 -151.5 q0 -100 -2 -151q0 -15 1 -48t1 -49q2 -33 2 -100q0 -34 -6 -78q-3 -15 -7 -18t-24 -6h-2l-2 -2q-18 -6 -47 -9l6 177q0 68 4 200l27 357q1 9 2 28t2 29q4 111 12 166v2q2 18 4 36.5t2 40v35t-1 40t-1.5 36t-3 41t-2.5 37.5l-2 8q0 7 -4 19q-6 36 -6 39q18 12 41 12 q7 0 53 -4z" />
<glyph unicode="u" horiz-adv-x="1052" d="M782 186q-67 -85 -166 -94q-10 -2 -28 -2q-66 0 -108.5 34.5t-73.5 111.5q-17 45 -48 167l-12 60v2q-2 10 -2 33q-8 226 -10 383q-3 49 0 96v90q-11 190 -15 274q0 3 -1 8l-1 5q-28 4 -36 4q-35 0 -56 -12q3 -14 8 -97q1 -11 2.5 -34t2.5 -35q8 -56 4 -168q-2 -18 -2 -58 l-7 -69q-5 -84 -4 -103q0 -16 1 -45t1 -45q8 -195 21 -311l2 -10q8 -64 14.5 -98t26.5 -84.5t53 -84.5v-2q25 -25 58 -47q41 -24 110 -24h31q117 9 194 75q74 61 101 150q-10 -12 -60 -70zM1071 1358q0 10 -10.5 21t-20.5 14h-2q-46 4 -77 4q-11 0 -134 -6q-15 0 -24 -9 q-7 -10 -4 -24q0 -23 32 -23h58v-4q4 -16 4 -20q14 -93 10 -285v-27q-4 -52 -8 -133l-6 -88q-1 -18 -2.5 -49.5t-2.5 -57.5t-1 -50q-6 -114 -31 -205q-27 -95 -96 -180q-73 -82 -170 -82q-4 0 -13 1t-14 1q-28 3 -51 26q-47 47 -72 148q-12 57 -18 119q-4 34 -8 47 q0 12 -4 32q-11 91 -11 105q0 4 -6 194v97q0 2 -1 5.5t-1 4.5v10v4q12 94 -4 269v22l-12 119q11 7 43 12q17 1 26 3t20.5 11.5t16.5 26.5l2 8l-6 4q-26 11 -31 11q-2 0 -6.5 -1t-7.5 -1h-2q-82 -13 -117 -15q-27 -2 -73 -2h-76q-31 -2 -70 -16q-24 -7 -27 -23q-8 -16 11 -35 l2 -2h6q16 4 22 4l62 13q0 -4 1 -11.5t1 -11.5q4 -28 4 -43q0 -18 -1 -57t-1 -59v-121q-3 -139 0 -277q3 -156 18 -332q15 -182 68 -309q29 -76 123 -129q53 -33 131 -33q34 0 88 7q85 9 150 57q53 41 88 83t51 101q59 187 61 287q0 82 2 121q1 10 2 30.5t2 30.5 q4 102 4 152q0 15 -1 41.5t-1 38.5v77v111q4 135 -4 205q0 12 2 18h23q10 2 29 2q18 0 26 -2q20 -3 29 6q10 7 10 19zM842 256q-27 -89 -101 -150q-77 -66 -194 -75h-31q-69 0 -110 24q-33 22 -58 47v2q-33 34 -53 84.5t-26.5 84.5t-14.5 98l-2 10q-13 116 -21 311 q0 16 -1 45t-1 45q-1 19 4 103l7 69q0 40 2 58q4 112 -4 168q-1 12 -2.5 35t-2.5 34q-5 83 -8 97q21 12 56 12q8 0 36 -4l1 -5q1 -5 1 -8q4 -84 15 -274v-90q-3 -47 0 -96q2 -157 10 -383q0 -23 2 -33v-2l12 -60q31 -122 48 -167q31 -77 73.5 -111.5t108.5 -34.5q18 0 28 2 q99 9 166 94q50 58 60 70z" />
<glyph unicode="v" horiz-adv-x="1216" d="M649 215q-2 1 -3 8t-3 8q-9 23 -27.5 85t-33.5 94q-78 173 -127 321q-7 20 -62.5 180.5t-85.5 241.5q-4 20 -17.5 61t-17.5 58q-6 18 -17.5 23t-21.5 -5q-8 -4 -24 -11t-25.5 -11t-20.5 -12.5t-18 -18.5q10 -27 50 -156q35 -82 79 -215q100 -310 134 -407q14 -37 65 -170 t76 -205q6 -9 18 -37q35 21 54 43q71 60 28 125zM1266 1268q-21 10 -61 33.5t-56 31.5q-15 9 -64 41.5t-75 46.5q-21 16 -37 14.5t-39 -24.5q10 -26 59 -51.5t62 -50.5l-6 -52q-52 -187 -60 -221l-33 -137q-6 -19 -40 -115.5t-42 -150.5q0 -3 -1 -10l-1 -7 q-14 -39 -46.5 -125t-49.5 -133q-6 -18 -23 -52t-22 -48q-38 38 -63 80q-4 22 -29 82q-14 33 -40.5 94.5t-47.5 113t-37 97.5q-95 258 -174 496q-11 19 -24 62t-15 50q24 15 65.5 39.5t59.5 36.5q22 15 22.5 25.5t-18.5 33.5q-28 -9 -29 -10q-71 -47 -219 -137 q-22 -14 -127 -70q-41 -41 -53 -61q-3 -4 -2.5 -11.5t2.5 -11.5q21 -10 25 -4q6 2 11 5.5t9.5 8.5t7.5 7q4 4 39 26q4 -9 10 -18t9 -14q86 -228 141 -414q3 -10 32.5 -106t49.5 -146q15 -44 51 -142.5t53 -150.5q16 -60 84 -213q3 -4 15.5 -19t15.5 -22q18 9 33.5 19.5 t33 26.5t23.5 21.5t28 29t23 24.5q11 17 32.5 39t29.5 33q0 24 10 41q6 15 19 42.5t18 41.5q64 149 110 297q32 79 60 188q11 41 52 198.5t65 241.5q4 11 12 36t14 44q134 -83 150 -94l14 16q17 27 14.5 35.5t-30.5 22.5zM621 90q-19 -22 -54 -43q-12 28 -18 37 q-25 72 -76 205t-65 170q-34 97 -134 407q-44 133 -79 215q-40 129 -50 156q7 10 18 18.5t20.5 12.5t25.5 11t24 11q10 10 21.5 5t17.5 -23q4 -17 17.5 -58t17.5 -61q30 -81 85.5 -241.5t62.5 -180.5q49 -148 127 -321q15 -32 33.5 -94t27.5 -85q2 -1 3 -8t3 -8 q43 -65 -28 -125z" />
<glyph unicode="w" horiz-adv-x="1447" d="M596 162q-5 69 -10 110q-9 109 -56 209q-23 49 -53 158q-3 18 -10 39q-4 20 -23 78l-18 63q-16 71 -37 166q-20 90 -39 166q-1 7 -4 18t-4 15q-6 27 -41 164l-35 -7l-98 -18q4 -4 8 -12q64 -163 162 -537q2 -6 5 -20.5t5 -20.5q32 -134 68 -354q35 -200 57 -303 q58 4 90 4q29 0 43 2q-7 26 -10 80zM1526 1309v4q-1 10 -3.5 17t-9.5 11.5t-9 5.5t-13 5q-6 0 -8 2q-32 11 -258 71q-6 2 -17 2q-17 0 -26 -18v-4q18 -25 69 -41q30 -8 49 -21q-5 -27 -22 -92q-3 -10 -8 -30t-8 -29q-44 -140 -76 -350q-1 -8 -4 -23.5t-4 -23.5 q-14 -104 -17 -131q-1 -9 -4 -31t-4 -35q-5 -47 -16.5 -145t-16.5 -150q-4 -19 -8 -57q0 -11 -8 -43l-6 -29l-4 4q-8 8 -11 17v2q-41 78 -49 96q-18 41 -55 110q-54 109 -78 215v3q-8 20 -14 28q-14 21 -33 21q-22 0 -29 -27q-9 -32 -32 -88q-1 -2 -5 -11t-6 -12v-2 q-31 -104 -110 -270v-2q0 -6 -2 -14q-5 -43 -15 -70q-7 30 -10 78q-3 47 -6 57q-33 116 -41 148q-4 12 -16 55.5t-19 65.5q-4 16 -13.5 42.5t-12.5 38.5q-22 60 -43 134q-22 95 -23 102q-4 30 -16 78l-74 282q-2 11 -7 31t-7 27l-7 28q0 7 -4 23q8 2 11 6q42 9 49 21 q3 6 0 14q-9 25 -37 25q-4 0 -29 -5q-184 -40 -280 -63q-32 -6 -29 -31v-2l2 -2q25 -20 41 -20q10 0 18 2h2l27 6q19 -72 41 -133q40 -122 43 -133q28 -97 45 -189l43 -172q1 -7 4 -20.5t4 -20.5q7 -24 15 -63q14 -72 20 -97q24 -100 39 -276q1 -11 6.5 -60.5t9.5 -72.5 q-22 -12 -57 -12h-20h-21q-40 0 -67 -19l-3 -2v-2q16 -31 46 -31q12 0 20 2h27h30h31q15 0 47 -4q28 -4 45 -4q11 0 35 4q33 9 90 13h6q22 9 32.5 13.5t24 19t17.5 34.5q6 23 16 33q32 44 64 176q20 74 22 78q3 6 8.5 18.5t8.5 18.5q12 33 53 116q6 -12 8 -18l6 -10 q6 -12 21 -47q67 -162 117 -240q22 -40 45 -94q6 -12 16 -47q-6 0 -17 1t-16 1q-12 2 -35 2q-26 0 -49 -10l-2 -2v-3q-6 -22 4 -32q6 -11 27 -11q62 -4 94 -4q7 0 20 1t19 1q12 -2 39 -2h37q12 2 37 2h14h12h13h2q10 7 10 21q0 16 -16 24q-5 7 -19 7h-6h-6q-9 0 -33 4 q-13 0 -41 4q19 168 33 305q24 121 29 176q4 28 8 92q4 107 20 168q5 34 15 72q6 29 14 80q4 66 41 207q9 31 26 106q6 19 17 33q0 2 1 4.5t1 3.5q6 2 20 2q22 0 58 -12q45 -10 57 -10q11 0 27 4h2zM606 82q-14 -2 -43 -2q-32 0 -90 -4q-22 103 -57 303q-36 220 -68 354 q-2 6 -5 20.5t-5 20.5q-98 374 -162 537q-4 8 -8 12l98 18l35 7q35 -138 41 -164q1 -4 4 -15t4 -18q19 -77 39 -166q22 -95 37 -166l18 -63q19 -58 23 -78q7 -21 10 -39q30 -109 53 -158q47 -100 56 -209q5 -41 10 -110q3 -54 10 -80z" />
<glyph unicode="x" horiz-adv-x="1335" d="M1032 1364q-29 6 -46 1.5t-21 -26.5q-18 -42 -62 -114.5t-53 -89.5q-38 -63 -104 -184t-91 -165q-2 0 -2 -4l-12 -34q-2 -3 -12 -23q-11 -11 -13 -20l-2 -3v-6q-7 -16 -22 -46.5t-21 -45.5q-75 -142 -221 -407q-22 -42 -24 -56q0 -5 1 -9t4.5 -8t6.5 -7t11 -8t13.5 -8.5 t18.5 -11t22 -13.5q12 21 36.5 59t43.5 70.5t33 62.5q31 61 85.5 173t72.5 147q0 2 1 6.5t1 7.5q2 6 8.5 16t7.5 13q4 11 8 14q1 5 4.5 12l4.5 9q4 0 4 4h2q2 11 7.5 24t6.5 15q5 13 22.5 52.5t26.5 63.5l78 152q17 32 44.5 89t39.5 81q8 21 26.5 56.5t24.5 47.5 q34 78 41 113zM1264 174q-10 -9 -23 -18t-21.5 -14.5t-27 -14.5t-23.5 -11.5t-28 -13.5t-25 -12q-20 33 -45 55q-11 16 -38 54.5t-48.5 67.5t-42.5 55q-30 38 -60 80t-68 99t-56 83q-16 31 -2 49q10 23 36 84t42 96q13 27 54.5 114.5t67.5 135.5q12 25 45.5 86.5t54.5 107 t36 89.5q7 -1 22 -5.5t23 -5.5q17 -7 65 -20q35 -5 37 10q9 30 -18 43q-2 1 -10 2t-11 2q-110 27 -141 37q-29 6 -88 20.5t-88 20.5q-4 1 -17 5.5t-20 2.5q-22 0 -29 -10q-16 -13 12 -37q2 -1 11.5 -1t13.5 -1q8 -2 36.5 -9.5t47.5 -10.5q-53 -112 -173 -307.5t-153 -254.5 q-10 23 -31.5 65t-29.5 64q-12 26 -44 96.5t-52 110.5q-5 14 -22.5 54t-26.5 72t-9 63q60 0 166 8q3 31 -3 36.5t-38 4.5q-147 -10 -172 -10q-49 -5 -129 6q-34 0 -37 -23q0 -22 29 -22q5 0 18 -1t21 -1q17 -3 82 -7q8 -23 23.5 -64.5t21.5 -59.5q9 -23 32.5 -76.5 t34.5 -81.5q5 -11 45.5 -102.5t69.5 -137.5q31 -53 2 -102q-13 -25 -44 -92t-52 -101q-23 -39 -64 -130.5t-73 -139.5q-5 -8 -27 -45t-35 -57q-4 1 -19.5 4t-21.5 6q-85 35 -110 43q-5 2 -19.5 0.5t-19.5 -6.5q-17 -14 8 -35q6 -4 28.5 -20t39 -25.5t34.5 -14.5 q16 -4 55.5 -25.5t67.5 -21.5l6 -8q48 -37 154 -67q22 -8 28.5 -5t26.5 29q-16 10 -65 45q17 33 62.5 115.5t66.5 126.5q102 215 125 260q68 -96 189.5 -267.5t162.5 -230.5q-63 -32 -80 -45q-14 -14 -10 -26q5 -9 31 -9q4 -2 18 3q12 6 34.5 17t39 20.5t30.5 19.5 q60 36 121 61q2 1 12.5 4.5t15 6t12 7t10.5 11t4 14.5q-14 9 -41 33zM991 1251q-6 -12 -24.5 -47.5t-26.5 -56.5q-12 -24 -39.5 -81t-44.5 -89l-78 -152q-9 -24 -26.5 -63.5t-22.5 -52.5q-1 -2 -6.5 -15t-7.5 -24h-2q0 -4 -4 -4l-4.5 -9t-4.5 -12q-4 -3 -8 -14 q-1 -3 -7.5 -13t-8.5 -16q0 -3 -1 -7.5t-1 -6.5q-18 -35 -72.5 -147t-85.5 -173q-14 -30 -33 -62.5t-43.5 -70.5t-36.5 -59q-9 6 -22 13.5t-18.5 11t-13.5 8.5t-11 8t-6.5 7t-4.5 8t-1 9q2 14 24 56q146 265 221 407q6 15 21 45.5t22 46.5v6q0 1 2 3q2 9 13 20q10 20 12 23 l12 34l2 4q25 44 91 165t104 184q9 17 53 89.5t62 114.5q4 22 21 26.5t46 -1.5q-7 -35 -41 -113z" />
<glyph unicode="y" horiz-adv-x="1142" d="M637 780l-10 13q-4 7 -21 28h-2q-1 1 -13.5 21.5t-19.5 31.5q-3 10 -8 17q-6 12 -16 22q-87 131 -131 211q-47 67 -117 203q-14 37 -51 37h-17v-2q-18 0 -26 -2q2 -12 10 -27q11 -16 25 -41q2 -3 12.5 -21.5t17.5 -27.5v-2l58 -92q118 -190 202 -338q23 -40 19 -94 q-4 -65 4 -189v-24q10 -76 6 -193q0 -13 -1 -37t-1 -36q0 -47 -2 -70q-8 -86 0 -133q12 -2 29 -2q14 0 20 6q2 5 12 45q7 61 7 104q0 86 8 250q4 82 4 125q0 26 4 76q4 96 -2 141zM1137 1440l-2 4h-7q-104 12 -163 14q-4 2 -17 2h-18q-3 0 -9.5 -1t-9.5 -1h-2 q-32 -5 -43 -24q-5 -14 0 -21q3 -29 33 -29q13 0 21 2q6 1 18 2.5t18 2.5h5q0 -2 -1.5 -5t-1.5 -4l-2 -2q-36 -87 -122 -221q-6 -12 -15 -24q-103 -152 -160 -226v-2q-2 -5 -12 -8q-69 82 -151 215l-7 8l-28 49q-76 132 -101 193h7h18q7 0 19 -1t18 -1l10 -2v8q1 5 2 14.5 t2 14.5v28l2 11l-10 -2q-43 0 -63 -2q-17 0 -47.5 -1t-45.5 -1h-47q-67 0 -151 -15q-25 -3 -31 -31h-2v-2q0 -10 10 -20q12 -8 21 -8q4 0 12 4q2 0 6 1t6 1q26 0 43 -33l45 -74q98 -160 127 -213l13 -18q96 -158 129 -219q26 -61 28 -96q1 -27 4 -79t4 -77q0 -13 5 -80 q4 -64 -5 -264l-6 -133q0 -23 -9 -33t-34 -16q-19 0 -59 -7q-8 0 -10 -2q-14 0 -21 -10t-4 -26q0 -13 8 -21t21 -8l2 -2l2 2q4 0 6 2l12 4q15 0 43 4q32 4 52 4q12 0 36.5 -1t38.5 -1q129 -6 133 -6q3 0 8.5 1t8.5 1q6 2 20 2h19l-11 16q-6 6 -10 21q-1 2 -2 6t-2 6v2 q-8 11 -29 23q-10 4 -30 4q0 6 1 18t1 17q9 93 12 178q12 150 12 285q4 86 4 131q5 107 5 131q0 50 20 84q73 99 147 213q67 99 105 178l10 16q22 31 37 66q10 18 29 18h6q30 -6 59 -6h4l2 4q27 24 11 68zM639 639q-4 -50 -4 -76q0 -43 -4 -125q-8 -164 -8 -250 q0 -43 -7 -104q-10 -40 -12 -45q-6 -6 -20 -6q-17 0 -29 2q-8 47 0 133q2 23 2 70q0 12 1 36t1 37q4 117 -6 193v24q-8 124 -4 189q4 54 -19 94q-84 148 -202 338l-58 92v2q-7 9 -17.5 27.5t-12.5 21.5q-14 24 -25 41q-8 15 -10 27q8 2 26 2v2h17q37 0 51 -37 q70 -136 117 -203q44 -80 131 -211q10 -10 16 -22q5 -7 8 -17q7 -11 19.5 -31.5t13.5 -21.5h2q17 -21 21 -28l10 -13q6 -45 2 -141z" />
<glyph unicode="z" horiz-adv-x="1220" d="M1106 102l31 17q-12 4 -19 4q-22 0 -47 -37q26 13 35 16zM928 1372l-101 -6q-98 -221 -200 -477q-85 -207 -123 -298t-114 -257t-146 -293l125 6h24q18 36 21 41q7 12 14 29l8 14q47 87 58 115q30 74 51 121q80 198 123 295q159 361 223 563q29 94 37 147zM1194 162 q-14 23 -49 26q-8 2 -21 2q-44 0 -71 -34q-93 -109 -217 -103l-15 2h-16q-2 0 -11.5 -1t-17.5 -1h-84h-82h-84q-7 0 -22.5 2.5t-20.5 3.5q-4 2 -12 2l6 15q52 99 76 162q104 237 186 432l54 123q132 310 198 567q0 1 6 47q0 17 2 25v8h-10q-3 0 -9 1t-9 1q-6 2 -15 2 q-8 0 -10 -2q-23 -4 -63 -8q-20 -2 -60 -2h-47h-49q-57 2 -168 2q-55 2 -168 2q-17 0 -63 4q-12 2 -37 2q-39 0 -39 -39v-4q4 -9 14 -18.5t21 -10.5h106q105 0 150 4h45q14 0 43 -1t43 -1q25 -2 80 -2q-2 -6 -2 -14l-4 -23q-36 -82 -52 -123q-10 -23 -32.5 -78t-34.5 -83 q-14 -38 -47 -111q-47 -105 -66 -160q-29 -68 -39 -96q-165 -393 -268 -569q-4 -8 -31 -52q-3 -7 -11.5 -20.5t-10.5 -17.5h-78l-2 -7q-9 -22 2 -39q9 -14 28 -14q44 0 64 4q156 17 299 17q82 0 233 -7q25 -4 39 -4q11 0 13 2q10 5 43 7q119 3 227 14h2q40 2 107 22 q59 12 71 78q10 40 -10 66zM1137 119l-31 -17q-9 -3 -35 -16q25 37 47 37q7 0 19 -4zM827 1366l101 6q-8 -53 -37 -147q-64 -202 -223 -563q-43 -97 -123 -295q-21 -47 -51 -121q-11 -28 -58 -115l-8 -14q-7 -17 -14 -29q-3 -5 -21 -41h-24l-125 -6q70 127 146 293t114 257 t123 298q102 256 200 477z" />
<glyph unicode="&#x2000;" horiz-adv-x="766" />
<glyph unicode="&#x2001;" horiz-adv-x="1532" />
<glyph unicode="&#x2002;" horiz-adv-x="766" />
<glyph unicode="&#x2003;" horiz-adv-x="1532" />
<glyph unicode="&#x2004;" horiz-adv-x="510" />
<glyph unicode="&#x2005;" horiz-adv-x="383" />
<glyph unicode="&#x2006;" horiz-adv-x="255" />
<glyph unicode="&#x2007;" horiz-adv-x="255" />
<glyph unicode="&#x2008;" horiz-adv-x="191" />
<glyph unicode="&#x2009;" horiz-adv-x="306" />
<glyph unicode="&#x200a;" horiz-adv-x="85" />
<glyph unicode="&#x202f;" horiz-adv-x="306" />
<glyph unicode="&#x205f;" horiz-adv-x="383" />
<glyph unicode="&#x25fc;" horiz-adv-x="1454" d="M0 1454h1454v-1454h-1454v1454z" />
</font>
</defs>
</svg>
