<?xml version="1.0" encoding="utf-8"?>
<!-- Generator: Adobe Illustrator 16.0.0, SVG Export Plug-In . SVG Version: 6.00 Build 0)  -->
<!DOCTYPE svg PUBLIC "-//W3C//DTD SVG 1.1//EN" "http://www.w3.org/Graphics/SVG/1.1/DTD/svg11.dtd">
<svg version="1.1" id="Layer_1" xmlns="http://www.w3.org/2000/svg" xmlns:xlink="http://www.w3.org/1999/xlink" x="0px" y="0px"
	 width="400px" height="817px" viewBox="0 0 400 817" enable-background="new 0 0 400 817" xml:space="preserve">
<g>
	<path  d="M1,342c0-25,0-50,0-75c1.68-0.157,2.268-1.325,2.224-2.753c-0.149-4.796,1.346-9.517,0.611-14.331
		c0.825-2.626,1.65-5.252,2.476-7.877c0.278-0.648,0.556-1.297,0.834-1.945c0.821-2.535,1.642-5.07,2.462-7.606
		c1.7-1.387,1.992-3.446,2.565-5.371c0.17-0.534,0.34-1.067,0.51-1.602c0.877-0.545,1.413-1.314,1.542-2.351
		c0.701-1.703,1.402-3.405,2.103-5.108c1.984-1.506,2.272-3.8,2.78-5.991c0.404-1.011,0.809-2.021,1.213-3.031
		c0.866-2.024,2.519-3.717,2.57-6.086c0.137-0.632,0.275-1.265,0.412-1.896c3.521-5.713,7.043-11.426,10.565-17.14l0.035-0.029
		c3.169-2.348,4.393-6.109,6.665-9.099c2.143-2.82,1.743-7.052,4.651-9.151c5.21-3.761,8.578-9.178,13.061-13.577
		c3.465-3.401,4.104-10.878,0.629-14.115c-4.464-4.16-8.319-8.913-12.996-12.832l-0.03-0.027c-0.291-2.652-2.925-4.186-2.947-7.16
		c-0.076-10.393-1.166-20.929,6.68-29.513c0.292-0.319,0.263-0.933,0.383-1.409c0.655-0.687,1.31-1.374,1.965-2.062
		c7.805-2.304,9.498-5.923,5.883-13.073c-4.685-9.267-5.039-18.05,2.259-26.284c1.408-1.589,3.332-3.255,3.285-5.445
		c-0.133-6.225,3.841-9.952,7.766-13.749c1.062-1.027,2.487-1.686,2.877-3.286c1.011-0.332,2.023-0.664,3.034-0.996
		c1.066-0.127,1.821-0.723,2.393-1.593c2.198-1.141,4.397-2.28,6.595-3.421c4.78-1.695,9.914-2.559,13.98-5.934
		c0.614-0.165,1.228-0.329,1.842-0.493c3.28-0.033,6.212-1.299,9.138-2.585c0.642-0.073,1.284-0.146,1.926-0.218
		c2.271,0.29,4.266-0.4,6.085-1.714c1.744-0.026,3.466-0.163,5.035-1.039c1.429,0.06,2.858,0.122,3.946-1.071
		c0.638-0.062,1.277-0.124,1.915-0.187c7.286,0.474,14.546,0.076,21.8-0.607C153.256,3.097,154.772,3.015,155,1c33,0,66,0,99,0
		c0.322,1.921,1.787,2.072,3.332,2.251c5.919,0.682,11.84,1.122,17.793,0.492c0.955,0.1,1.911,0.2,2.867,0.3
		c1.086,1.274,2.418,1.936,4.126,1.661c0.956,0.127,1.911,0.255,2.868,0.382c1.815,1.311,3.914,1.648,6.077,1.769
		c0.638,0.088,1.274,0.177,1.912,0.265c3.704,2.589,7.846,4.241,12.101,5.644c10.079,3.324,19.275,8.461,28.469,13.648
		c5.298,2.988,6.73,9.005,10.701,12.881c5.072,4.952,6.809,11.034,6.922,17.596c0.1,5.782,0.771,10.991,4.062,16.074
		c3.388,5.233,2.923,14.927-0.77,16.776c-5.917,2.964-11.228,7.62-17.445,9.224c-12.669,3.266-23.61,10.557-36.111,14.074
		c-11.306,3.181-22.198,7.654-34.185,8.413c-7.185,0.455-14.504,0.87-21.516,2.993c-0.688,0.01-1.377,0.021-2.065,0.031
		c-2.469-0.109-4.95-0.429-7.405-0.293c-12.543,0.691-25.091,1.558-37.65,0.968c-7.409-0.348-14.778-1.619-22.225-0.651
		c-1.323-0.021-2.647-0.041-3.97-0.062c-5.349-2.044-11.039-1.666-16.582-2.232c-11.836-1.212-23.813-1.487-35.119-5.825
		c-1.324-0.507-2.597-0.437-3.914-0.287c-1.385,0.157-3.426-0.574-3.69,1.496c-0.249,1.953,1.839,1.862,3.112,2.537
		c9.83,5.212,20.959,4.684,31.423,7.018c26.375,5.882,53.227,7.642,80.22,6.666c4.87-0.177,9.938,0.056,14.548-2.218
		c0.666-0.027,1.332-0.054,1.999-0.081c3.989,0.691,7.899,0.288,11.878-0.418c11.098-1.971,21.891-5.432,33.153-6.633
		c3.446-0.367,6.913-1.214,10.194-2.349c11.615-4.017,22.583-9.451,33.293-15.466c7.074-3.973,14.847-6.75,20.857-12.496
		c0.959-0.917,2.248-1.286,3.1-0.223c3.797,4.744,9.013,8.618,10.37,14.941c2.675,12.466-4.647,21.492-11.093,30.73
		c-0.592,0.849-1.971,1.183-3.023,1.67c-9.525,4.41-10.991,14.809-2.778,21.439c3.321,2.682,5.647,6.047,8.195,9.307
		c0.387,0.634,0.773,1.269,1.16,1.903c0.446,3.528,1.545,6.902,4.051,9.411c13.184,13.199,18.021,30.931,24.245,47.464
		c3.812,10.123,6.617,21.083,9.166,31.882c1.034,4.386,0.787,9.614,4.346,13.327c0,14.333,0,28.667,0,43
		c-1.016,0.353-1.787,1.013-1.84,2.107c-0.604,12.688-2.913,25.246-2.911,37.979c-0.039,1.314-0.078,2.628-0.116,3.941
		c-3.427,12.125-4.1,24.606-4.794,37.085c-0.042,0.978-0.083,1.956-0.125,2.935c-0.386,0.896-0.948,1.758-1.131,2.693
		c-2.224,11.419-3.086,23.023-4.659,34.528c-2.811,20.548-4.543,41.197-6.663,61.812c-0.834,8.11-0.202,16.241-1.531,24.366
		c-1.493,9.128-2.979,18.335-2.91,27.662c-0.049,1.31-0.098,2.618-0.146,3.927c-3.028,11.839-3.954,23.957-4.804,36.086
		c-0.055,1.308-0.11,2.615-0.165,3.923c-3.272,8.686-2.827,17.955-4.037,26.946c-1.569,11.659-1.851,23.47-5.908,34.744
		c-1.062,2.951-1.234,6.626-3.458,8.666c-8.643,7.929-13.963,18.825-24.442,25.269c-9.898,6.086-17.681,14.94-29.556,18.722
		c-10.74,3.421-20.752,9.512-31.65,12.822c-8.807,2.675-17.371,6.412-27.08,6.107c-5.977-0.188-12.022,1.811-18.037,2.828
		c-0.648,0.034-1.295,0.068-1.943,0.104c-4.135-0.463-8.23,0.012-12.357,0.332c-10.682,0.831-21.299,1.991-32.125,0.938
		c-7.175-0.698-14.417-2.17-21.726-1.223c-1.305-0.052-2.609-0.104-3.913-0.155c-6.817-1.005-13.479-2.998-20.438-3.122
		c-2.479-0.045-5.056,0.06-7.415-0.561c-15.761-4.145-30.889-10.062-45.638-16.938c-5.241-2.443-11.37-3.019-15.843-6.981
		c-7.727-6.843-16.352-12.459-24.617-18.566c-2.925-3.059-5.851-6.116-8.776-9.175c-0.266-1.643-1.338-2.604-2.758-3.274
		c-0.698-1.576-1.942-2.669-3.265-3.691c-1.519-4.602-2.447-9.461-5.773-13.276c-0.172-0.843-0.344-1.686-0.517-2.527
		c0.123-1.618-0.523-2.934-1.604-4.077c-0.186-3.568-3.08-5.935-4.061-9.15c0.013-1.077-0.22-2.065-1.034-2.842
		c-0.388-2.333-0.776-4.666-1.165-6.999c-0.195-3.73-0.674-7.417-1.739-11.01c-0.14-2.973-0.279-5.945-0.419-8.917
		c-0.153-6.062-0.229-12.131-1.596-18.085c-0.663-11,0.344-22.059-1.174-33.027c-0.102-25.616,0.359-51.225-0.798-76.848
		c-1.005-22.265-0.166-44.58-0.782-66.885c-0.656-23.766,1.213-47.576-0.33-71.358C3.095,345.744,4.361,342.931,1,342z
		 M328.816,128.88l0.131-0.103c4.721-1.041,9.096-2.817,12.684-6.164c0.912-0.852,1.303-1.992,0.574-3.158
		c-0.512-0.821-1.487-1.031-2.15-0.397c-4.68,4.479-11.418,4.32-16.652,7.458c-9.247,5.544-19.731,7.568-29.752,10.963
		c-5.463,1.851-11.731,0.903-16.518,4.886c-1.007,0.062-2.013,0.125-3.019,0.187c-2.149-0.142-4.303-0.455-6.446-0.396
		c-12.295,0.336-24.524,1.69-36.822,2.219c-23.957,1.029-47.849,1.031-71.725-1.252c-10.719-1.024-21.359-2.079-31.849-5.075
		c-14.561-4.159-27.736-11.753-42.194-16.068c-1.673-0.499-3.116-1.867-4.579-2.949c-3.203-2.369-6.343-4.823-9.523-7.223
		c-1.298-0.979-2.826-2.617-4.258-0.792c-1.188,1.515,0.659,2.649,1.623,3.704c5.47,5.984,12.212,10.054,19.401,13.73
		c11.316,5.788,21.982,13.148,34.736,15.414c9.965,1.771,19.818,3.999,29.733,5.964c1.219,0.241,2.59-0.284,3.891-0.456
		c0.527,0.007,1.055,0.015,1.583,0.021c1.392,1.658,3.392,2.206,5.339,2.387c11.572,1.073,23.153,2.732,34.739,2.801
		c14.097,0.082,28.217-1.014,42.295-2.023c5.24-0.376,10.532-0.878,15.719-1.615c10.805-1.535,21.424-4.46,32.246-5.764
		c11.102-1.338,21.258-5.121,31.313-9.523c2.276-0.997,4.481-2.247,5.696-4.63c0.329-0.003,0.633-0.094,0.91-0.271
		C327.373,130.852,328.476,130.45,328.816,128.88z M209.896,10.403c-5.553-2.659-11.431-0.763-17.145-1.143
		c-2.522-0.167-5.37-0.966-7.616,1.204c-3.327-0.068-6.662-0.404-9.968,0.284c-2.145-0.188-4.312-0.673-6.431-0.516
		c-13.76,1.023-27.327,3.433-40.9,5.825c-6.705,1.182-12.746,5.367-19.95,4.299c-0.909-0.135-1.919,0.471-2.891,0.702
		C97.23,22.91,90.958,27.693,84.46,31.883c-5.766,3.718-9.484,9.338-8.137,16.411c1.364,7.162,4.527,13.718,12.429,16.057
		c10.434,3.088,19.624,9.177,30.288,11.887c8.147,2.07,16.112,4.812,24.538,5.609c1.101,0.104,2.739,0.175,2.793-1.333
		c0.055-1.522-1.56-1.372-2.685-1.521c-11.352-1.508-21.632-6.656-32.561-9.554c-7.418-1.967-13.502-6.735-21.051-8.604
		c-9.873-2.443-13.416-16.788-6.176-23.373c5.824-5.297,13.126-8.369,20.26-11.451c2.466-1.065,4.992-2.343,8.02-2.411
		c8.832-0.199,17.412-2.438,25.983-4.312c6.349-1.388,12.644-2.657,19.131-3.3c6.248-0.619,12.605-0.226,18.752-1.839
		c15.65-0.019,31.3-0.036,46.949-0.055c0.927,0.306,1.839,0.813,2.782,0.884c6.459,0.485,12.938,0.737,19.384,1.345
		c5.763,0.543,11.702,0.792,17.071,2.993c4.718,1.935,9.447,1.425,14.211,1.635c0.981,0.044,2.169-0.222,2.124-1.521
		c-0.043-1.245-1.231-1.366-2.208-1.568c-4.389-0.911-8.816-1.668-13.158-2.771c-11.799-2.994-23.866-3.925-35.933-4.86
		c-1.784-0.139-3.616,0.318-5.426,0.5C217.859,10.622,213.878,10.513,209.896,10.403z M304.266,587.83l-0.097-0.096
		c-1.417-2.811-2.896-5.568-5.902-7.048c-0.329-0.315-0.659-0.631-0.988-0.946c-0.667-1.921-2.356-2.695-3.968-3.571
		c-17.056-9.271-35.322-15.424-54.27-18.904c-23.836-4.378-47.945-4.721-72.014-1.222c-1.713,0.249-4.444,0.024-4.28,2.339
		c0.175,2.472,2.918,1.486,4.56,1.568c8.13,0.406,16.256-0.179,24.421,0.741c8.051,0.907,16.182,2.085,24.356,1.054
		c0.986,0.023,1.971,0.048,2.955,0.072c8.379,3.355,17.447,2.952,26.104,4.784c0.632,0.071,1.265,0.144,1.897,0.216
		c2.724,2.228,6.14,2.32,9.355,3.01c4.852,1.041,10.067,1.228,14.512,3.18c16.947,7.443,33.098,16.188,43.762,32.252
		c0.793,1.194,1.439,3.089,3.315,2.059c1.573-0.865,1.286-2.922,0.675-4.074C315.263,596.842,312.374,589.861,304.266,587.83z
		 M25.496,336.849c-1.373,5.927,1.769,11.021,3.14,16.425c0.357,1.408,1.035,3.684,3.157,3.119c1.768-0.471,1.25-2.548,1.148-3.946
		c-0.735-10.094-1.831-20.151-2.511-30.26c-0.993-14.755-1.169-29.389-0.083-44.159c0.546-7.429,3.023-14.628,2.303-22.147
		c0.061-0.651,0.121-1.303,0.181-1.953c2.329-4.405,3.6-9.194,5.065-13.913c3.282-10.573,5.585-21.545,12.745-30.515
		c1.058-1.326,3.129-3.111,1.374-4.656c-1.67-1.472-3.711,0.307-5.292,1.448c-0.781,0.564-1.303,1.491-1.933,2.262
		c-5.765,7.053-8.363,15.818-12.306,23.794c-5.133,10.385-8.188,21.792-9.463,33.376c-2.293,20.839-2.242,41.736,0.327,62.571
		c0.272,2.209,0.271,4.701,2.004,6.552C25.399,335.514,25.448,336.181,25.496,336.849z M234.912,110.659
		c0.658-0.019,1.316-0.036,1.975-0.055c6.952,1.31,13.943-0.591,20.128-2.447c15.726-4.721,32.459-4.377,47.819-11.204
		c10.488-4.662,20.992-9.271,31.719-14.228c-2.287-2.233-4.587-1.608-6.75-0.932c-8.37,2.618-16.793,5.103-25.037,8.077
		c-11.891,4.29-24.06,8.063-36.43,9.855c-17.567,2.546-35.406,3.43-53.163,4.402c-16.809,0.922-33.589-0.691-50.345-2.029
		c-13.454-1.073-26.809-3.017-39.318-8.229c-16.014-6.674-33.112-10.89-47.752-20.74c-0.772-0.52-1.884-1.21-2.711-0.253
		c-0.789,0.914-0.089,2.002,0.558,2.67c3.099,3.199,5.842,6.883,10.474,8.125c5.371,1.44,9.928,4.479,14.652,7.266
		c7.738,4.562,16.098,8.1,24.595,10.652c10.605,3.186,21.685,4.812,32.586,6.983c5.669,1.13,11.23,3.375,17.201,2.046
		c0.986,0.028,1.972,0.056,2.958,0.084c0.722,0.373,1.41,0.974,2.17,1.086c14.818,2.179,29.686,2.854,44.534,0.542
		C228.147,111.807,231.832,112.937,234.912,110.659z M322.118,402.31c-3.062,3.173-5.553,6.466-10.151,6.104
		c-0.639-0.051-1.447,0.775-2.021,1.351c-3.646,3.658-7.712,7.017-10.735,11.139c-3.258,4.441-7.679,5.531-12.462,6.236
		c-1.686,0.248-3.916,0.646-4.638-1.755c-0.682-2.264,0.621-3.583,2.449-4.882c9.516-6.761,18.107-14.445,25.172-23.893
		c5.443-7.277,12.397-13.459,14.372-22.955c0.413-1.984,2.185-3.683,3.318-5.519c6.42-10.393,14.076-20.221,14.849-33.157
		c0.192-3.219,2.14-7.124-1.502-9.128c-3.834-2.11-7.493,0.525-10.504,2.752c-2.494,1.845-5.033,4.235-6.334,6.965
		c-3.434,7.208-8.947,12.991-12.865,19.722c-4.691,8.054-11.651,15.104-12.855,25.002c-0.074,0.609-0.625,1.16-0.951,1.739
		c-4.549,8.09-10.135,15.583-13.7,24.246c-1.052,2.553-4.04,4.008-4.348,7.125c-0.618,6.243-4.354,10.159-9.703,12.877
		c-2.833,1.438-5.617,3.125-7.463,5.712c-4.69,6.573-11.69,10.286-17.992,14.835c-1.665,1.202-4.001,1.762-6.101,2.011
		c-3.326,0.396-5.025-2.151-2.886-4.628c5.401-6.253,9.944-13.608,17.687-17.302c4.215-2.011,6.851-5.01,9.074-8.831
		c2.354-4.045,5.18-8.042,9.646-9.646c3.306-1.186,6.064-3.144,7.027-5.867c2.732-7.728,8.35-13.517,12.471-20.282
		c6.752-11.086,10.461-23.259,13.499-35.707c0.507-2.079,1.066-4.474-1.107-5.964c-2.21-1.514-4.077,0.008-5.888,1.245
		c-7.674,5.244-16.799,8.415-21.939,17.177c-4.174,7.112-12.384,11.029-15.773,19.086c-0.867,2.062-0.661,4.336-2.301,6.33
		c-7.999,9.733-14.103,20.655-19.299,32.121c-2.393,5.279-6.151,10.12-7.604,15.607c-2.893,10.935-10.104,17.637-19.25,23.045
		c-2.053,1.214-4.305,2.835-6.403,1.155c-2.016-1.614-1.597-4.584-0.57-6.537c4.239-8.065,6.479-17.088,11.983-24.549
		c3.076-4.169,5.096-8.92,6.297-13.974c0.598-2.511,0.268-4.492-3.082-3.912c-7.951,1.377-15.963,0.667-23.934,0.54
		c-7.053-0.112-13.581,0.724-18.936,5.831c-0.984,0.938-2.252,1.743-3.602,0.93c-1.713-1.032-1.059-2.686-0.455-4.008
		c1.604-3.511,1.344-6.995,0.77-10.721c-1.455-9.449-8.872-14.933-13.927-22.001c-1.089-1.523-4.698-1.241-3.57-3.856
		c0.873-2.023,3.825-1.509,5.871-2.053c0.631-0.167,1.327-0.082,1.989-0.147c10.671-1.066,20.431,1.367,29.214,7.579
		c1.709,1.209,3.489,2.271,5.303,0.248c3.94-4.391,2.925-8.98-2.61-11.155c-3.075-1.209-6.407-1.77-9.469-3.004
		c-4.934-1.989-9.793-3.64-15.283-3.725c-6.314-0.098-12.04,1.687-17.951,3.414c-4.878,1.425-9.747,4.158-14.896,3.39
		c-8.998-1.343-17.956-3.162-26.782-5.377c-7.456-1.872-14.971-1.826-22.317-0.861c-7.211,0.947-14.275,3.604-19.616,8.955
		c-8.719,8.735-8.801,25.694-5.912,37.333c0.337,1.358,0.484,3.929,2.739,3.536c2.433-0.423,1.742-2.88,1.781-4.592
		c0.196-8.617,1.695-16.903,6.7-24.118c4.25-6.124,8.455-12.821,16.79-13.579c11.018-1.002,21.831,0.011,31.919,5.342
		c2.997,1.583,2.76,2.587,0.957,5.181c-4.373,6.29-11.289,9.719-16.244,15.283c-0.936,1.051-2.029,1.258-3.007,0.186
		c-4.755-5.212-10.744-3.962-16.291-2.515c-4.073,1.063-7.129,4.122-7.613,8.878c-0.45,4.426,1.73,6.038,5.889,6.934
		c3.872,0.833,4.561,3.956,2.2,7.153c-3.064,4.149-7.008,7.852-9.195,12.407c-6.031,12.564-18.511,21.069-21.869,35.234
		c-0.137,0.578-0.773,1.08-1.262,1.525c-5.391,4.904-8.604,11.363-12.469,17.361c-2.136,3.314-0.556,4.158,2.552,3.962
		c4.902-0.309,9.222-2.608,13.764-4.147c2.845-0.964,5.959-1.79,7.443-4.611c2.488-4.732,5.877-8.808,8.928-13.126
		c3.03-4.288,3.072-10.046,6.33-13.97c6.736-8.113,11.833-17.268,17.549-26.023c1.62-2.482,3.285-3.229,5.745-1.987
		c5.635,2.845,11.718,3.528,17.866,4.022c2.811,0.226,4.87,1.688,5.221,4.498c0.576,4.605,1.698,9.15,1.35,13.878
		c-0.587,7.988-5.113,13.806-10.242,19.329c-3.493,3.764-8.156,1.891-12.313,2.421c-1.147,0.146-2.332-0.034-3.497,0.016
		c-4.47,0.192-6.436-2.007-6.229-6.384c0.07-1.497,0.125-3.007,0.007-4.497c-0.162-2.038,1.033-4.655-1.507-5.842
		c-2.2-1.026-4.147,0.649-6.069,1.552c-2.405,1.129-3.968,3.271-4.76,5.589c-2.564,7.505-1.767,14.654,2.814,21.343
		c6.84,9.986,25.572,10.671,32.684,3.578c2.11-2.104,5.046-3.458,6.886-5.736c3.911-4.843,10.317-7.947,11.558-14.626
		c1.512-8.146,2.79-16.314,1.668-24.764c-1.281-9.651-0.932-9.759,8.851-10.458c3.035-0.217,7.256-2.802,8.803-0.044
		c1.494,2.663-2.238,5.784-3.854,8.609c-5.622,9.828-11.118,19.683-11.043,31.513c0.072,11.263,8.055,16.133,18.226,11.122
		c9.583-4.721,18.54-10.415,26.717-17.284c1.746-1.467,2.627-1.988,3.233,0.794c1.33,6.104,3.059,7.196,9.248,5.912
		c6.58-1.365,11.631-5.573,16.823-9.423c1.741-1.292,2.864-2.36,5.101-0.611c5.539,4.334,11.198,4.328,16.876,0.218
		c5.114-3.702,10.103-7.597,16.187-9.634c1.365-0.457,2.146-1.289,2.963-2.426c3.426-4.768,7.959-8.479,12.232-12.436
		c2.685-2.486,4.707-2.326,6.67,1.033c2.478,4.241,6.348,4.589,10.384,2.507c7.948-4.102,14.285-10.181,19.999-16.954
		c3.518-4.172,6.312-8.972,11.029-12.097C322.123,406.766,323.391,405.237,322.118,402.31z M325.27,65.688
		c-1.594-0.908-2.422-0.278-3.26,0.25c-4.063,2.562-8.445,4.204-13.104,5.496c-6.918,1.917-13.498,5.265-20.49,6.627
		c-5.049,0.983-9.705,3.612-14.726,3.784c-12.126,0.417-24.256,0.419-36.396,0.957c-15.785,0.699-31.623,0.179-47.438,0.273
		c-1.645,0.01-3.656-0.836-4.976,1.154c1.768,2.309,4.248,1.76,6.485,1.762c19.778,0.024,39.534,0.939,59.333-0.849
		c11.51-1.039,23.074-0.635,34.613-2.77c8.355-1.546,16.062-4.513,23.98-7.112C315.231,73.312,321.25,71.445,325.27,65.688z
		 M297.711,23.989c3.438,1.558,5.9,2.726,8.41,3.779c0.771,0.324,1.71,0.196,2.17-0.628c0.381-0.679-0.127-1.575-0.68-1.575
		C304.543,25.568,302.322,21.868,297.711,23.989z M313.131,29.932c0.285-0.156,0.959-0.304,1.058-0.627
		c0.257-0.843-0.437-1.182-1.128-1.169c-0.434,0.009-1.146,0.265-1.236,0.562C311.57,29.529,312.246,29.792,313.131,29.932z"/>
	<path fill-rule="evenodd" clip-rule="evenodd" d="M5.14,562.926c-2.917-1.016-1.994-3.539-2.001-5.525
		c-0.085-21.283-0.064-42.568-0.147-63.853C2.983,491.555,3.876,489.045,1,488c0-48.667,0-97.333,0-146
		c3.361,0.931,2.095,3.744,2.23,5.835c1.542,23.782-0.327,47.593,0.33,71.358c0.616,22.305-0.224,44.62,0.782,66.885
		C5.499,511.701,5.038,537.31,5.14,562.926z"/>
	<path fill-rule="evenodd" clip-rule="evenodd"  d="M359.192,174.916c4.295,5.78,8.919,11.349,12.807,17.391
		c5.557,8.638,9.155,18.233,13.101,27.719c5.883,14.141,8.783,29.119,13.866,43.445c0.414,1.168,0.71,2.199,2.034,2.529
		c0,3.667,0,7.333,0,11c-3.559-3.713-3.312-8.941-4.346-13.327c-2.549-10.799-5.354-21.759-9.166-31.882
		c-6.225-16.533-11.062-34.265-24.245-47.464C360.737,181.818,359.639,178.444,359.192,174.916z"/>
	<path fill-rule="evenodd" clip-rule="evenodd"  d="M401,347c-3.658,1.845-1.437,5.682-2.79,8.361
		c-0.755,1.493,0.088,3.702-1.962,4.726c-0.001-12.733,2.308-25.291,2.912-37.979c0.053-1.095,0.824-1.755,1.84-2.107
		C401,329,401,338,401,347z"/>
	<path fill-rule="evenodd" clip-rule="evenodd"  d="M129.922,3.849C129.948,2.898,129.974,1.949,130,1
		c8.333,0,16.667,0,25,0c-0.228,2.015-1.744,2.097-3.278,2.241C144.468,3.925,137.208,4.322,129.922,3.849z"/>
	<path fill-rule="evenodd" clip-rule="evenodd"  d="M275,1c0.041,0.915,0.082,1.83,0.124,2.744
		c-5.952,0.629-11.873,0.188-17.792-0.493C255.787,3.072,254.322,2.921,254,1C261,1,268,1,275,1z"/>
	<path fill-rule="evenodd" clip-rule="evenodd"  d="M1,250c0.946-0.027,1.892-0.056,2.836-0.084
		c0.733,4.814-0.761,9.535-0.612,14.331C3.268,265.675,2.68,266.843,1,267C1,261.333,1,255.667,1,250z"/>
	<path fill-rule="evenodd" clip-rule="evenodd"  d="M175.111,110.619c-5.971,1.329-11.532-0.916-17.201-2.046
		c-10.901-2.172-21.981-3.798-32.586-6.983c-8.497-2.553-16.856-6.09-24.595-10.652c-4.724-2.786-9.281-5.825-14.652-7.266
		c-4.632-1.242-7.375-4.926-10.474-8.125c-0.647-0.668-1.347-1.756-0.558-2.67c0.827-0.957,1.938-0.267,2.711,0.253
		c14.64,9.851,31.739,14.066,47.752,20.74c12.51,5.213,25.864,7.156,39.318,8.229c16.756,1.338,33.537,2.951,50.345,2.029
		c17.757-0.973,35.596-1.856,53.163-4.402c12.37-1.792,24.539-5.565,36.43-9.855c8.244-2.975,16.667-5.459,25.037-8.077
		c2.163-0.677,4.463-1.302,6.75,0.932c-10.727,4.956-21.23,9.565-31.719,14.228c-15.36,6.827-32.094,6.483-47.819,11.204
		c-6.185,1.856-13.176,3.757-20.128,2.449c3.574-3.954,8.537-3.065,13.001-3.461c6.13-0.543,15.913-2.766,19.782-5.783
		c-42.373,6.976-83.521,7.583-125.329,0.159c1.105,2.864,2.431,3.117,3.446,3.131c7.217,0.098,13.965,2.976,21.117,3.437
		C171.197,108.236,173.622,108.362,175.111,110.619z M98.012,85.951c12.692,8.342,26.177,14.744,41.855,15.207
		C125.635,96.885,111.905,91.294,98.012,85.951z M312.062,90.622c-12.194,2.885-24.025,7.069-36.127,10.286
		C288.959,100.999,300.779,96.775,312.062,90.622z"/>
	<path fill-rule="evenodd" clip-rule="evenodd"  d="M292.976,8.119c4.283-2.696,6.913,1.825,10.38,2.643
		c9.695,2.285,18.107,8.006,27.168,12.045c5.334,2.378,9.863,6.725,12.704,12.302c0.661,1.299,1.802,2.361,2.763,3.498
		c4.41,5.218,8.268,10.937,6.897,18.033c-1.56,8.084,3.704,13.786,5.972,20.508c1.3,3.853,1.744,7.403-0.299,11.005
		c-1.499,2.642-1.086,4.699,0.824,7.205c3.279,4.302,7.549,7.841,9.303,13.397c1.646,5.212,1.988,10.038-0.6,14.896
		c-2.809,5.271-5.696,10.5-8.523,15.763c-1.619,3.018-4.812,3.993-7.394,5.746c-5.28,3.586-6.184,11.272-1.671,15.863
		c2.805,2.853,5.686,5.607,7.925,8.961c0.816,1.223,1.68,2.264-0.393,3.028c-2.548-3.26-4.874-6.625-8.195-9.307
		c-8.213-6.631-6.747-17.029,2.778-21.439c1.053-0.487,2.432-0.821,3.023-1.67c6.445-9.238,13.768-18.265,11.093-30.73
		c-1.357-6.323-6.573-10.197-10.37-14.941c-0.852-1.063-2.141-0.694-3.1,0.223c-6.011,5.746-13.783,8.523-20.857,12.496
		c-10.71,6.015-21.678,11.449-33.293,15.466c-3.281,1.135-6.748,1.981-10.194,2.349c-11.263,1.201-22.056,4.662-33.153,6.633
		c-3.979,0.706-7.889,1.109-11.878,0.42c0.563-0.915,1.413-1.317,2.454-1.496c7.682-1.316,15.412-2.412,23.023-4.053
		c10.344-2.229,20.865-3.644,31.012-6.781c9.869-3.051,19.163-7.338,27.949-12.748c1.13-0.696,3.669-0.635,2.674-2.64
		c-0.75-1.51-2.753-0.434-4.035,0.251c-12.32,6.579-25.37,11.166-38.776,15.012c-11.519,3.305-23.102,5.748-35.098,5.92
		c-2.626,0.037-5.323,0.581-7.886-0.533c7.012-2.123,14.331-2.538,21.516-2.993c11.986-0.759,22.879-5.232,34.185-8.413
		c12.501-3.518,23.442-10.809,36.111-14.074c6.218-1.604,11.528-6.26,17.445-9.224c3.692-1.85,4.157-11.543,0.77-16.776
		c-3.291-5.083-3.962-10.292-4.062-16.074c-0.113-6.562-1.85-12.644-6.922-17.596c-3.971-3.876-5.403-9.893-10.701-12.881
		c-9.193-5.188-18.39-10.324-28.469-13.648C300.821,12.36,296.68,10.708,292.976,8.119z"/>
	<path fill-rule="evenodd" clip-rule="evenodd"  d="M176.044,14.151c-6.147,1.611-12.504,1.218-18.752,1.837
		c-6.487,0.643-12.782,1.912-19.131,3.3c-8.571,1.873-17.151,4.112-25.983,4.312c-3.028,0.068-5.554,1.346-8.02,2.411
		c-7.133,3.082-14.436,6.154-20.26,11.451c-7.24,6.585-3.697,20.93,6.176,23.373c7.548,1.868,13.633,6.637,21.051,8.604
		c10.929,2.897,21.209,8.046,32.561,9.554c1.125,0.149,2.74-0.001,2.685,1.521c-0.055,1.508-1.692,1.438-2.793,1.333
		c-8.426-0.798-16.391-3.539-24.538-5.609c-10.664-2.71-19.854-8.799-30.288-11.887c-7.901-2.339-11.065-8.895-12.429-16.057
		c-1.347-7.073,2.372-12.693,8.137-16.411c6.498-4.189,12.771-8.973,20.536-10.823c0.971-0.231,1.982-0.837,2.891-0.702
		c7.204,1.068,13.245-3.117,19.95-4.299c13.573-2.393,27.14-4.802,40.9-5.825c2.119-0.157,4.286,0.328,6.431,0.513
		C174.186,12.206,175.265,13.141,176.044,14.151z"/>
	<path fill-rule="evenodd" clip-rule="evenodd"  d="M156.102,149.372c-1.301,0.17-2.672,0.695-3.891,0.454
		c-9.915-1.965-19.768-4.193-29.733-5.964c-12.753-2.266-23.42-9.626-34.736-15.414c-7.189-3.677-13.931-7.746-19.401-13.73
		c-0.964-1.055-2.812-2.189-1.623-3.704c1.432-1.825,2.96-0.187,4.258,0.792c3.181,2.399,6.321,4.854,9.523,7.223
		c1.463,1.082,2.906,2.45,4.579,2.949c14.458,4.315,27.633,11.909,42.194,16.068c10.49,2.996,21.13,4.051,31.849,5.075
		c23.876,2.283,47.768,2.281,71.725,1.252c12.298-0.528,24.527-1.883,36.822-2.219c2.144-0.059,4.297,0.255,6.446,0.395
		c-0.604,0.891-1.487,1.2-2.521,1.379c-18.687,3.232-37.665,2.095-56.481,3.769c-21.512,1.914-43.03-1.525-64.534-2.837
		c-3.552-0.216-7.067-1.037-11.455-1.71c1.59,2.686,3.431,2.582,5.148,2.972C148.258,147.025,152.591,146.731,156.102,149.372z
		 M90.32,126.195c13.724,9.797,28.589,16.42,45.66,16.908C120.308,138.725,105.159,132.891,90.32,126.195z"/>
	<path fill-rule="evenodd" clip-rule="evenodd"  d="M325.033,131.023c-1.215,2.383-3.42,3.633-5.696,4.63
		c-10.056,4.402-20.212,8.186-31.313,9.523c-10.822,1.304-21.441,4.229-32.246,5.764c-5.187,0.737-10.479,1.239-15.719,1.615
		c-14.078,1.01-28.198,2.105-42.295,2.023c-11.586-0.068-23.167-1.728-34.739-2.801c-1.948-0.181-3.947-0.729-5.338-2.388
		c2.639-0.582,5.347-0.639,7.932-0.091c11.782,2.496,23.809,2.603,35.676,2.479c18.212-0.192,36.45-1.416,54.592-3.109
		c6.34-0.592,12.804-1.629,19.105-3.01c1.159-0.254,5.034,0.085,2.142-3.294c4.786-3.983,11.055-3.036,16.518-4.887
		c10.021-3.395,20.505-5.419,29.752-10.963c5.234-3.138,11.973-2.979,16.652-7.458c0.663-0.634,1.639-0.424,2.15,0.397
		c0.729,1.166,0.338,2.307-0.574,3.158c-3.588,3.347-7.963,5.123-12.684,6.165c0.348-0.562,1.07-1.198,0.977-1.673
		c-0.328-1.657-1.556-0.73-2.285-0.439c-4.918,1.965-9.219,5.127-14.43,6.66c-9.675,2.847-18.991,6.938-29.164,7.996
		c-0.908,0.095-2.013,0.383-2.191,2.726c6.398-1.226,12.65-1.615,18.78-3.341C309.113,138.32,316.996,134.491,325.033,131.023z"/>
	<path fill-rule="evenodd" clip-rule="evenodd"  d="M369.204,599.046c1.406,3.729,1.303,7.686,0.202,11.26
		c-1.108,3.6-1.119,7.159-1.543,10.771c-1.228,10.469-0.986,21.162-4.483,31.308c-0.92,2.667-0.515,5.488-1.422,8.28
		c-2.231,6.864-6.812,11.949-10.997,17.546c-11.066,14.798-25.498,25.784-41.365,34.137c-11.891,6.26-24.637,11.52-37.52,15.811
		c-13.48,4.489-27.303,7.924-41.711,7.809c-1.809-0.015-3.688,0.325-5.331-0.816c6.016-1.017,12.062-3.015,18.038-2.827
		c9.709,0.305,18.273-3.433,27.08-6.107c10.898-3.311,20.91-9.401,31.65-12.822c11.875-3.781,19.657-12.636,29.556-18.722
		c10.479-6.443,15.8-17.34,24.442-25.269c2.224-2.04,2.396-5.715,3.458-8.666c4.058-11.274,4.339-23.085,5.908-34.744
		C366.377,617.001,365.932,607.731,369.204,599.046z"/>
	<path fill-rule="evenodd" clip-rule="evenodd"  d="M171.887,125.436c-7.559,1.611-15.198-0.099-22.802-0.345
		c-0.029,0.511-0.059,1.022-0.088,1.533c7.266,1.116,14.549,2.136,21.796,3.367c21.977,3.733,44.128,1.456,66.195,2.021
		c1.65,0.042,3.342-0.241,4.898,0.579c-4.61,2.272-9.678,2.04-14.548,2.217c-26.993,0.976-53.845-0.784-80.22-6.666
		c-10.464-2.334-21.594-1.806-31.423-7.018c-1.272-0.675-3.361-0.584-3.112-2.537c0.264-2.07,2.305-1.339,3.69-1.496
		c1.316-0.149,2.59-0.22,3.914,0.287c11.305,4.338,23.283,4.613,35.119,5.825C160.848,123.77,166.538,123.392,171.887,125.436z"/>
	<path fill-rule="evenodd" clip-rule="evenodd"  d="M325.27,65.688c-4.02,5.758-10.038,7.624-15.977,9.573
		c-7.918,2.6-15.625,5.566-23.98,7.112c-11.539,2.135-23.104,1.73-34.613,2.77c-19.799,1.788-39.555,0.873-59.333,0.849
		c-2.238-0.002-4.718,0.547-6.485-1.762c1.319-1.99,3.331-1.145,4.976-1.154c15.815-0.095,31.653,0.426,47.438-0.273
		c12.14-0.538,24.27-0.54,36.396-0.957c5.021-0.172,9.677-2.801,14.726-3.784c6.992-1.362,13.572-4.71,20.49-6.627
		c4.658-1.292,9.04-2.934,13.104-5.496C322.848,65.409,323.676,64.779,325.27,65.688z"/>
	<path fill-rule="evenodd" clip-rule="evenodd"  d="M25.351,334.846c-1.733-1.851-1.731-4.343-2.004-6.552
		c-2.568-20.835-2.62-41.732-0.327-62.571c1.275-11.584,4.33-22.991,9.463-33.376c3.943-7.976,6.542-16.741,12.306-23.794
		c0.63-0.771,1.152-1.697,1.933-2.262c1.582-1.142,3.622-2.92,5.292-1.448c1.755,1.545-0.316,3.33-1.374,4.656
		c-7.16,8.97-9.462,19.941-12.745,30.515c-1.465,4.719-2.736,9.508-5.064,13.913c-2.355-5.381,2.124-9.368,2.929-14.117
		c0.796-4.696,3.777-8.925,3.496-14.266c-2.347,1.191-3.182,3.043-3.929,4.824c-5.59,13.327-10.344,27.224-10.961,41.499
		c-0.806,18.647-2.173,37.502,1.442,56.131C26.241,330.22,26.464,332.63,25.351,334.846z"/>
	<path fill-rule="evenodd" clip-rule="evenodd"  d="M216.084,561.745c-8.174,1.031-16.305-0.146-24.356-1.054
		c-8.166-0.92-16.292-0.335-24.421-0.741c-1.642-0.082-4.385,0.903-4.56-1.568c-0.164-2.314,2.567-2.09,4.28-2.339
		c24.069-3.499,48.178-3.156,72.014,1.222c18.947,3.48,37.214,9.633,54.27,18.904c1.611,0.876,3.301,1.65,3.967,3.572
		c-1.458,0.188-2.49-0.709-3.656-1.351c-13.148-7.238-27.276-11.807-41.689-15.801c-21.577-5.98-43.605-6.719-65.751-6.647
		c-2.952,0.009-5.931-0.069-8.592,2.338c8.748,0.764,17.498,0.574,26.232,0.847C207.986,559.257,212.43,558.88,216.084,561.745z"/>
	<path fill-rule="evenodd" clip-rule="evenodd"  d="M391.214,404.048c1.015,1.507,1,3.247,0.62,4.835
		c-2.561,10.709-2.752,21.739-4.224,32.587c-2.048,15.092-3.761,30.268-5.007,45.499c-1.338,16.358-1.565,32.852-4.38,49.098
		c-0.791,4.565-0.074,9.325-1.327,13.881c-0.521,1.893-0.554,4.024-2.579,5.163c-0.067-9.327,1.419-18.534,2.912-27.662
		c1.329-8.125,0.697-16.256,1.531-24.366c2.12-20.615,3.853-41.265,6.663-61.812c1.573-11.505,2.436-23.109,4.659-34.528
		C390.266,405.806,390.828,404.943,391.214,404.048z"/>
	<path fill-rule="evenodd" clip-rule="evenodd"  d="M25.496,336.849c1.332,0.221,1.175,2.842,2.867,2.06
		c1.137-0.526,0.767-2.116,0.661-3.211c-1.557-16.012-2.802-32.057-1.863-48.135c0.549-9.4,1.988-18.75,3.084-28.116
		c0.179-1.528,0.927-2.836,2.407-3.566c0.718,7.52-1.758,14.719-2.305,22.147c-1.086,14.771-0.911,29.404,0.083,44.159
		c0.68,10.108,1.776,20.166,2.511,30.26c0.102,1.398,0.619,3.476-1.148,3.946c-2.122,0.564-2.8-1.711-3.157-3.119
		C27.265,347.87,24.123,342.775,25.496,336.849z M29.74,347.048c0.175-1.979,0.766-3.416-1.002-4.348
		C27.95,344.393,28.498,345.492,29.74,347.048z"/>
	<path fill-rule="evenodd" clip-rule="evenodd"  d="M152.97,735.146c-1.472,1.051-3.187,0.952-4.813,0.803
		c-9.808-0.901-19.48-2.017-29.192-4.354c-15.451-3.719-29.113-11.613-43.905-16.482c-13.542-4.458-22.158-15.373-33.944-21.869
		c-1.544-0.852-2.158-2.468-2.097-4.266c8.265,6.107,16.89,11.724,24.617,18.566c4.474,3.963,10.602,4.538,15.843,6.981
		c14.749,6.876,29.877,12.793,45.638,16.938c2.359,0.62,4.936,0.516,7.415,0.561C139.491,732.147,146.153,734.141,152.97,735.146z"
		/>
	<path fill-rule="evenodd" clip-rule="evenodd"  d="M247.041,566.817c5.479-2.101,10.269,1.436,15.416,2.058
		c11.814,1.429,21.586,8.026,31.489,14.087c1.605,0.982,2.894,2.837,5.242,2.399c0.79-1.817-1.536-2.965-0.923-4.673
		c3.008,1.478,4.486,4.235,5.902,7.048c-0.471,0.337-0.941,0.672-1.412,1.008c0.166,0.164,0.332,0.329,0.497,0.493
		c0.337-0.469,0.675-0.938,1.013-1.407c8.108,2.031,10.997,9.012,14.395,15.413c0.611,1.152,0.898,3.209-0.675,4.074
		c-1.876,1.03-2.522-0.864-3.315-2.059c-10.664-16.064-26.814-24.809-43.762-32.252c-4.444-1.952-9.66-2.139-14.512-3.18
		C253.181,569.138,249.765,569.045,247.041,566.817z"/>
	<path fill-rule="evenodd" clip-rule="evenodd"  d="M221.841,10.731c1.81-0.182,3.642-0.639,5.426-0.5
		c12.066,0.936,24.134,1.866,35.933,4.86c4.342,1.103,8.77,1.859,13.158,2.771c0.977,0.202,2.165,0.323,2.208,1.568
		c0.045,1.299-1.143,1.564-2.124,1.521c-4.764-0.21-9.493,0.3-14.211-1.635c-5.369-2.201-11.309-2.45-17.071-2.993
		c-6.446-0.607-12.925-0.859-19.384-1.345c-0.943-0.07-1.855-0.578-2.782-0.885C222.609,12.973,222.225,11.853,221.841,10.731z"/>
	<path fill-rule="evenodd" clip-rule="evenodd"  d="M243.138,125.474c-1.944,2.549-4.966,1.686-7.411,1.964
		c-18.473,2.096-36.973,2.066-55.445-0.171c-1.582-0.191-3.407-0.054-4.424-1.772c7.446-0.965,14.815,0.307,22.225,0.654
		c12.56,0.59,25.107-0.276,37.65-0.968C238.188,125.045,240.669,125.364,243.138,125.474z"/>
	<path fill-rule="evenodd" clip-rule="evenodd"  d="M223.092,735.254c-4.854,4.262-11.096,3.174-16.582,3.406
		c-15.08,0.64-30.216,0.727-45.295-0.726c-1.944-0.188-3.633-0.527-4.331-2.636c7.309-0.945,14.551,0.526,21.726,1.225
		c10.826,1.054,21.443-0.106,32.125-0.938C214.861,735.266,218.957,734.791,223.092,735.254z"/>
	<path fill-rule="evenodd" clip-rule="evenodd"  d="M51.961,84.937c0.462-0.858,0.706-2.147,1.42-2.51
		c5.887-2.986,4.461-6.871,2.032-11.485c-4.659-8.85-4.294-17.426,2.448-25.325c1.955-2.291,3.064-4.881,3.344-8.087
		c0.493-5.655,8.435-14.172,12.826-14.432c-0.391,1.602-1.815,2.26-2.877,3.287c-3.925,3.797-7.898,7.524-7.766,13.749
		c0.046,2.19-1.877,3.856-3.285,5.445c-7.298,8.234-6.944,17.018-2.259,26.284C61.459,79.014,59.766,82.633,51.961,84.937z"/>
	<path fill-rule="evenodd" clip-rule="evenodd"  d="M178.069,110.703c3.373-1.382,6.985-0.994,10.319-0.528
		c13.59,1.899,27.113-0.192,40.662-0.146c1.966,0.007,3.998-0.396,5.861,0.631c-3.08,2.276-6.765,1.146-10.139,1.671
		c-14.849,2.312-29.716,1.637-44.534-0.542C179.479,111.677,178.791,111.076,178.069,110.703z"/>
	<path fill-rule="evenodd" clip-rule="evenodd"  d="M33.901,183.882c3.636-7.609,6.007-15.867,12.523-21.927
		c4.116-3.826,7.848-8.109,11.425-12.458c2.561-3.112,0.588-10.212-3.351-13.216c-3.881-2.959-7.235-6.289-8.587-11.175
		c4.676,3.92,8.531,8.673,12.996,12.833c3.475,3.237,2.835,10.714-0.629,14.115c-4.482,4.399-7.851,9.816-13.061,13.577
		c-2.908,2.1-2.508,6.331-4.651,9.151C38.293,177.772,37.07,181.534,33.901,183.882z"/>
	<path fill-rule="evenodd" clip-rule="evenodd"  d="M396.133,364.028c1.143,1.638,0.963,3.534,0.77,5.307
		c-1.005,9.199-2.088,18.392-3.26,27.571c-0.203,1.596-0.629,3.307-2.305,4.207C392.033,388.635,392.706,376.153,396.133,364.028z"
		/>
	<path fill-rule="evenodd" clip-rule="evenodd"  d="M45.881,125.08c-5.775-1.747-4.734-7.248-5.392-11.166
		c-1.636-9.74,1.108-18.636,7.718-26.151c0.386-0.439,1.184-0.518,1.79-0.765c-0.12,0.477-0.091,1.09-0.383,1.409
		c-7.846,8.584-6.756,19.12-6.68,29.513C42.956,120.895,45.59,122.428,45.881,125.08z"/>
	<path fill-rule="evenodd" clip-rule="evenodd"  d="M374.173,559.037c1.18,1.826,0.942,3.902,0.736,5.84
		c-0.926,8.727-1.999,17.438-3.051,26.149c-0.206,1.713-0.857,3.221-2.491,4.097C370.219,582.994,371.145,570.876,374.173,559.037z"
		/>
	<path fill-rule="evenodd" clip-rule="evenodd"  d="M219.039,561.817c1.479-1.017,3.202-0.958,4.793-0.721
		c6.166,0.921,12.309,1.994,18.455,3.042c1.412,0.24,2.349,1.129,2.855,2.464C236.486,564.77,227.418,565.173,219.039,561.817z"/>
	<path fill-rule="evenodd" clip-rule="evenodd"  d="M209.896,10.403c-8.252,1.106-16.506,1-24.762,0.061
		c2.247-2.169,5.094-1.37,7.617-1.203C198.465,9.641,204.344,7.744,209.896,10.403z"/>
	<path fill-rule="evenodd" clip-rule="evenodd"  d="M23.301,201.051c1.361-7.046,3.673-13.504,10.565-17.139
		C30.344,189.625,26.822,195.338,23.301,201.051z"/>
	<path fill-rule="evenodd" clip-rule="evenodd"  d="M7.909,614.038c-3.204-5.792-3.926-11.804-1.597-18.085
		C7.68,601.907,7.756,607.976,7.909,614.038z"/>
	<path fill-rule="evenodd" clip-rule="evenodd"  d="M86.054,17.089c3.763-4.091,8.717-5.378,13.98-5.935
		C95.967,14.53,90.834,15.394,86.054,17.089z"/>
	<path fill-rule="evenodd" clip-rule="evenodd"  d="M297.711,23.989c4.611-2.121,6.832,1.579,9.9,1.576
		c0.553,0,1.061,0.896,0.68,1.575c-0.46,0.824-1.398,0.952-2.17,0.628C303.611,26.715,301.148,25.547,297.711,23.989z"/>
	<path fill-rule="evenodd" clip-rule="evenodd"  d="M24.22,672.837c-4.49-3.308-4.851-8.413-5.776-13.274
		C21.773,663.376,22.701,668.235,24.22,672.837z"/>
	<path fill-rule="evenodd" clip-rule="evenodd"  d="M10.067,633.965c-3.551-3.2-3.829-6.918-1.741-11.01
		C9.394,626.548,9.873,630.234,10.067,633.965z"/>
	<path fill-rule="evenodd" clip-rule="evenodd"  d="M101.876,10.662c2.496-2.806,5.252-4.69,9.138-2.586
		C108.088,9.363,105.157,10.629,101.876,10.662z"/>
	<path fill-rule="evenodd" clip-rule="evenodd"  d="M112.94,7.859c1.457-2.598,3.358-3.623,6.085-1.715
		C117.207,7.459,115.211,8.149,112.94,7.859z"/>
	<path fill-rule="evenodd" clip-rule="evenodd"  d="M284.986,6.086c2.711-1.766,4.638-0.834,6.076,1.77
		C288.9,7.734,286.802,7.396,284.986,6.086z"/>
	<path fill-rule="evenodd" clip-rule="evenodd"  d="M20.319,209.033c-1.517-3.031-0.23-4.878,2.57-6.086
		C22.838,205.316,21.185,207.009,20.319,209.033z"/>
	<path fill-rule="evenodd" clip-rule="evenodd"  d="M16.326,218.056c-1.299-3.029,0.484-4.629,2.779-5.991
		C18.599,214.256,18.311,216.55,16.326,218.056z"/>
	<path fill-rule="evenodd" clip-rule="evenodd"  d="M9.607,232.487c-0.208-2.298-0.287-4.533,2.564-5.371
		C11.599,229.041,11.307,231.101,9.607,232.487z"/>
	<path fill-rule="evenodd" clip-rule="evenodd"  d="M277.992,4.043c2.307-1.754,3.273-0.189,4.125,1.662
		C280.41,5.979,279.078,5.317,277.992,4.043z"/>
	<path fill-rule="evenodd" clip-rule="evenodd"  d="M17.93,657.033c-1.763-0.875-3.298-1.841-1.605-4.077
		C17.407,654.1,18.053,655.415,17.93,657.033z"/>
	<path fill-rule="evenodd" clip-rule="evenodd"  d="M313.131,29.932c-0.885-0.14-1.561-0.402-1.307-1.234
		c0.09-0.297,0.803-0.553,1.236-0.562c0.691-0.013,1.385,0.326,1.128,1.169C314.09,29.628,313.416,29.775,313.131,29.932z"/>
	<path fill-rule="evenodd" clip-rule="evenodd"  d="M124.061,5.106c0.748-2.449,2.179-2.378,3.946-1.071
		C126.918,5.229,125.489,5.166,124.061,5.106z"/>
	<path fill-rule="evenodd" clip-rule="evenodd"  d="M30.243,679.803c-2.077-0.113-3.139-1.084-2.761-3.272
		C28.905,677.198,29.978,678.16,30.243,679.803z"/>
	<path fill-rule="evenodd" clip-rule="evenodd"  d="M12.266,643.806c-2.065-0.319-2.542-1.219-1.035-2.842
		C12.046,641.74,12.279,642.729,12.266,643.806z"/>
	<path fill-rule="evenodd" clip-rule="evenodd"  d="M325.943,130.752c0.639-1.115,1.562-1.792,2.873-1.872
		C328.476,130.45,327.373,130.852,325.943,130.752z"/>
	<path fill-rule="evenodd" clip-rule="evenodd"  d="M77.066,22.103c0.224-1.389,1.005-1.943,2.391-1.597
		C78.887,21.38,78.132,21.976,77.066,22.103z"/>
	<path fill-rule="evenodd" clip-rule="evenodd"  d="M12.682,225.515c-0.451-1.414,0.101-2.174,1.54-2.352
		C14.095,224.2,13.56,224.97,12.682,225.515z"/>
	<path fill-rule="evenodd" clip-rule="evenodd"  d="M6.311,242.039c-1.335-1.338-0.479-1.739,0.833-1.945
		C6.866,240.742,6.588,241.391,6.311,242.039z"/>
	<path fill-rule="evenodd" clip-rule="evenodd"  d="M157.025,453.061c2.898-6.355,3.358-15.492,9.699-22.244
		c0.569-0.606,1.089-1.431,1.804-1.703c9.632-3.674,17.596-11.546,28.856-11.238c2.563,0.07,5.137-1.295,7.75-1.747
		c3.123-0.539,4.385,1.184,2.67,3.664c-4.91,7.104-7.096,16.163-12.895,22.174c-8.213,8.514-16.265,18.139-29.177,20.405
		C159.163,463.524,156.879,461.722,157.025,453.061z"/>
	<path fill-rule="evenodd" clip-rule="evenodd"  d="M161.884,405.034c-0.773,3.294-2.995,5.891-5.822,8.016
		c-4.442,3.338-9.732,4.936-14.798,6.962c-3.969,1.587-6.822,0.001-9.391-3.232c-2.8-3.525-4.435-8.229-9.71-9.491
		c-1.839-0.44-1.442-2.695-0.858-4.365c1.403-4.013,3.739-7.376,6.963-10.136c3.151-2.696,5.952-6.061,9.535-7.929
		c4.476-2.335,6.945,3.362,10.854,4.095c7.678,1.438,11.958,6.01,12.835,13.775C161.565,403.387,161.712,404.038,161.884,405.034z"
		/>
	<path fill-rule="evenodd" clip-rule="evenodd"  d="M245.012,424.89c-2.32-0.442-2.193-1.806-1.328-2.986
		c3.559-4.854,4.729-11.375,10.758-14.586c1.861-0.99,3.508-3.387,4.155-5.479c2.899-9.379,10.522-15.467,15.69-23.243
		c5.794-8.718,12.191-17.004,19.355-24.659c1.146-1.223,2.362-3.75,4.273-2.311c1.526,1.148,0.148,3.436-0.527,5.064
		c-3.598,8.668-10.768,15.207-14.46,23.77c-4.247,9.848-11.708,17.357-18.767,24.821c-5.531,5.849-10.78,12.023-16.58,17.64
		C246.77,423.707,245.779,424.309,245.012,424.89z"/>
	<path fill-rule="evenodd" clip-rule="evenodd"  d="M336.505,335.782c-0.581,7.268-4.264,12.352-7.133,17.723
		c-5.317,9.952-10.454,20.029-17.069,29.23c-0.193,0.271-0.375,0.563-0.616,0.785c-6.532,6-11.794,12.968-15.999,20.768
		c-0.539,0.998-1.448,1.828-2.296,2.618c-0.735,0.685-1.673,1.261-2.638,0.394c-0.756-0.681-0.387-1.551-0.042-2.303
		c0.556-1.21,1.128-2.417,1.786-3.572c7.369-12.927,13.553-26.462,23.578-37.908c6.108-6.975,10.078-15.818,15.054-23.795
		c0.96-1.541,2.058-3.011,3.239-4.389c0.324-0.378,1.334-0.584,1.747-0.356C336.54,335.211,336.619,336.071,336.505,335.782z"/>
	<path fill-rule="evenodd" clip-rule="evenodd"  d="M123.679,420.465c-0.064,1.73-1.366,1.84-2.468,1.479
		c-3.66-1.198-7.473-1.508-11.203-2.265c-4.028-0.816-4.324-2.566-1.429-5.687c1.131-1.219,2.24-2.473,3.486-3.565
		c3.158-2.768,6.659-2.062,8.308,1.7C121.568,414.857,122.577,417.668,123.679,420.465z"/>
	<path fill-rule="evenodd" clip-rule="evenodd"  d="M94.159,408.645c-0.857-0.509-1.796-0.917-2.551-1.548
		c-1.271-1.061-2.705-2.188-2.211-4.138c0.48-1.896,2.226-2.475,3.827-2.77c3.014-0.555,6.878-0.506,8.06,2.133
		c1.247,2.785-1.806,4.905-4.469,6.195C95.93,408.559,95.044,408.602,94.159,408.645z"/>
	<path fill-rule="evenodd" clip-rule="evenodd" fill="#FEFEFE" d="M94.159,408.645c0.885-0.043,1.771-0.086,2.655-0.127
		c0.011,0.168,0.022,0.334,0.036,0.499c0.158,2.001-0.556,4.501-2.438,4.073C91.722,412.479,93.864,410.213,94.159,408.645z"/>
	<path fill-rule="evenodd" clip-rule="evenodd"  d="M163.419,424.165c-0.266,0.024-0.533,0.062-0.798,0.05
		c-0.03-0.001-0.048-0.281-0.072-0.433c0.267-0.024,0.534-0.062,0.799-0.052C163.377,423.731,163.396,424.013,163.419,424.165z"/>
	<path fill-rule="evenodd" clip-rule="evenodd" fill="#FEFEFE" d="M312.062,90.622c-11.282,6.153-23.103,10.377-36.127,10.286
		C288.036,97.691,299.867,93.507,312.062,90.622z"/>
	<path fill-rule="evenodd" clip-rule="evenodd" fill="#FEFEFE" d="M90.32,126.195c14.839,6.695,29.988,12.529,45.66,16.908
		C118.909,142.615,104.044,135.992,90.32,126.195z"/>
	<path fill-rule="evenodd" clip-rule="evenodd" fill="#FEFEFE" d="M29.74,347.048c-1.242-1.556-1.791-2.655-1.002-4.348
		C30.506,343.632,29.915,345.068,29.74,347.048z"/>
	<path fill-rule="evenodd" clip-rule="evenodd" fill="#FEFEFE" d="M304.266,587.83c-0.338,0.47-0.676,0.938-1.013,1.407
		c-0.165-0.164-0.331-0.329-0.497-0.493c0.471-0.336,0.941-0.671,1.412-1.008C304.169,587.734,304.266,587.83,304.266,587.83z"/>
</g>
</svg>
