<?xml version="1.0" encoding="utf-8"?>
<!-- Generator: Adobe Illustrator 16.0.0, SVG Export Plug-In . SVG Version: 6.00 Build 0)  -->
<!DOCTYPE svg PUBLIC "-//W3C//DTD SVG 1.1//EN" "http://www.w3.org/Graphics/SVG/1.1/DTD/svg11.dtd">
<svg version="1.1" id="Layer_1" xmlns="http://www.w3.org/2000/svg" xmlns:xlink="http://www.w3.org/1999/xlink" x="0px" y="0px"
	 width="344.933px" height="436.951px" viewBox="187.534 110.898 344.933 436.951"
	 enable-background="new 187.534 110.898 344.933 436.951" xml:space="preserve">
<path d="M227.562,272.891c-1.158,0.036-2.316,0.151-3.462,0.291c1.17-0.024,2.34-0.048,3.462-0.079V272.891z"/>
<path d="M236.026,272.793h-7.251c-0.4,0-0.806,0.091-1.207,0.103v0.212C230.552,273.024,233.377,272.921,236.026,272.793z"/>
<path d="M215.594,273.321c2.613-0.03,5.081-0.042,7.482-0.049c0.339-0.048,0.679-0.048,1.025-0.091
	C221.384,273.242,218.577,273.291,215.594,273.321z"/>
<path d="M227.562,273.272v-0.169c-1.128,0.03-2.292,0.054-3.462,0.079c-0.346,0.042-0.686,0.036-1.025,0.091
	C224.61,273.267,226.113,273.267,227.562,273.272z"/>
<path d="M503.23,380.408h22.761v-1.606H505.54C504.764,379.317,503.994,379.845,503.23,380.408z"/>
<path d="M532.467,412.004v-39.253h-6.476H194.009h-6.475v39.253l156.217,0.667v91.068c-1.413,32.917-38.422,44.109-38.422,44.109
	h109.361c0,0-37.01-11.198-38.416-44.109v-91.068L532.467,412.004z"/>
<path d="M392.02,116.782c-1.759-1.782-3.377-3.48-4.917-5.123h-0.291C388.484,113.26,390.194,114.939,392.02,116.782z"/>
<path d="M332.346,111.659h-0.236c-1.443,1.498-2.971,3.043-4.614,4.663C329.188,114.654,330.794,113.12,332.346,111.659z"/>
<g>
	<path d="M516.575,281.191c-1.655-1.443-3.475-2.644-5.36-3.723c-5.184-3.802-11.556-6.142-18.547-6.142h-0.242v-3.492
		c-0.152-0.127-0.261-0.297-0.261-0.503c0-0.218,0.108-0.388,0.261-0.515v-50.979c0-7.228-2.08-14.37-6.003-20.384
		c-0.546,0.364-1.158,0.625-1.867,0.625c-1.91,0-3.456-1.546-3.456-3.462c0-0.952,0.382-1.819,1.013-2.443
		c-0.897-0.885-1.765-1.819-2.723-2.546c-0.115,0.073-0.225,0.151-0.37,0.151c-0.376,0-0.691-0.309-0.691-0.691
		c0-0.037,0.037-0.061,0.043-0.091c-4.45-3.104-9.422-4.772-14.437-4.772h-15.134v-24.974c-0.078,0.024-0.127,0.091-0.218,0.091
		c-0.382,0-0.691-0.309-0.691-0.691c0-0.382,0.31-0.691,0.691-0.691c0.091,0,0.14,0.061,0.218,0.091v-9.865
		c-0.078,0.03-0.127,0.091-0.218,0.091c-0.382,0-0.691-0.315-0.691-0.691c0-0.382,0.31-0.691,0.691-0.691
		c0.091,0,0.14,0.061,0.218,0.091v-5.008c0-7.24-2.782-14.485-8.3-20.002c-3.438-3.444-7.567-5.688-11.914-6.985
		c-1.213-0.63-10.78-1.127-24.234-1.473c-0.625,0.916-1.625,1.552-2.813,1.552c-1.243,0-2.292-0.697-2.904-1.686
		c-23.113-0.491-54.738-0.613-76.979-0.34c-0.545,1.188-1.733,2.025-3.134,2.025c-1.358,0-2.498-0.8-3.068-1.934
		c-11.49,0.194-19.414,0.515-20.415,0.964c-5.693,0.903-11.174,3.486-15.558,7.876c-5.523,5.518-8.301,12.763-8.301,20.002v5.039
		c0.097-0.049,0.182-0.127,0.303-0.127c0.376,0,0.691,0.309,0.691,0.691c0,0.376-0.315,0.691-0.691,0.691
		c-0.121,0-0.206-0.073-0.303-0.127v9.938c0.097-0.048,0.182-0.127,0.303-0.127c0.376,0,0.691,0.31,0.691,0.691
		s-0.315,0.691-0.691,0.691c-0.121,0-0.206-0.073-0.303-0.127v25.01h-15.133c-4.984,0-9.932,1.649-14.37,4.717
		c0.012,0.055,0.061,0.091,0.061,0.14c0,0.382-0.315,0.691-0.691,0.691c-0.164,0-0.309-0.079-0.424-0.176
		c-0.958,0.728-1.825,1.655-2.722,2.535c0.655,0.63,1.073,1.503,1.073,2.486c0,1.91-1.546,3.462-3.462,3.462
		c-0.733,0-1.376-0.279-1.928-0.667c-3.941,6.027-6.026,13.188-6.026,20.433v50.942c0.2,0.122,0.352,0.303,0.352,0.552
		s-0.151,0.424-0.352,0.546v3.735c-4.457,0.394-8.604,1.68-12.314,3.717c-4.001,1.461-7.779,3.51-11.035,6.342
		c-6.778,5.93-10.192,13.685-10.192,21.445v10.556c1.91,0,3.456,1.546,3.456,3.462c0,1.91-1.54,3.456-3.456,3.456v58.219h288.91
		l43.849,0.012v-76.184C526.773,294.875,523.359,287.121,516.575,281.191z M202.315,308.136c0.376,0,0.685,0.303,0.685,0.691
		c0,0.375-0.309,0.691-0.685,0.691c-0.382,0-0.691-0.315-0.691-0.691C201.618,308.439,201.927,308.136,202.315,308.136z
		 M199.544,323.36c-0.376,0-0.691-0.315-0.691-0.691c0-0.388,0.315-0.691,0.691-0.691c0.382,0,0.691,0.303,0.691,0.691
		C200.236,323.045,199.927,323.36,199.544,323.36z M199.544,312.295c-0.382,0-0.691-0.315-0.691-0.691
		c0-0.388,0.309-0.691,0.691-0.691c0.382,0,0.691,0.303,0.691,0.691C200.236,311.98,199.927,312.295,199.544,312.295z
		 M202.315,326.119c-0.382,0-0.691-0.303-0.691-0.679c0-0.388,0.31-0.691,0.691-0.691c0.376,0,0.691,0.303,0.691,0.691
		C203.007,325.816,202.691,326.119,202.315,326.119z M205.074,328.89c-0.376,0-0.685-0.303-0.685-0.691
		c0-0.376,0.309-0.691,0.685-0.691c0.382,0,0.691,0.315,0.691,0.691C205.766,328.587,205.462,328.89,205.074,328.89z
		 M205.074,306.759c-0.376,0-0.691-0.303-0.691-0.691c0-0.376,0.315-0.691,0.691-0.691c0.382,0,0.691,0.315,0.691,0.691
		C205.766,306.456,205.462,306.759,205.074,306.759z M207.845,331.661c-0.382,0-0.691-0.321-0.691-0.691
		c0-0.376,0.309-0.691,0.691-0.691c0.382,0,0.691,0.315,0.691,0.691C208.542,331.339,208.227,331.661,207.845,331.661z
		 M207.845,303.989c-0.382,0-0.691-0.31-0.691-0.691c0-0.376,0.309-0.691,0.691-0.691c0.376,0,0.691,0.322,0.691,0.691
		C208.542,303.679,208.221,303.989,207.845,303.989z M210.616,334.426c-0.382,0-0.697-0.315-0.697-0.691
		c0-0.388,0.315-0.691,0.697-0.691c0.376,0,0.686,0.303,0.686,0.691C211.301,334.11,210.992,334.426,210.616,334.426z
		 M210.61,301.23c-0.376,0-0.691-0.322-0.691-0.697c0-0.376,0.315-0.685,0.691-0.685c0.382,0,0.691,0.309,0.691,0.685
		C211.301,300.908,210.992,301.23,210.61,301.23z M213.381,337.196c-0.382,0-0.691-0.315-0.691-0.691
		c0-0.388,0.309-0.691,0.691-0.691c0.382,0,0.691,0.303,0.691,0.691C214.072,336.881,213.763,337.196,213.381,337.196z
		 M213.381,298.459c-0.382,0-0.691-0.309-0.691-0.691c0-0.382,0.309-0.691,0.691-0.691c0.382,0,0.691,0.309,0.691,0.691
		C214.072,298.15,213.763,298.459,213.381,298.459z M216.146,294.3c0.376,0,0.685,0.309,0.685,0.691
		c0,0.382-0.309,0.691-0.685,0.691c-0.382,0-0.697-0.309-0.697-0.691C215.448,294.609,215.764,294.3,216.146,294.3z
		 M216.146,378.699c-0.382,0-0.697-0.304-0.697-0.691c0-0.376,0.315-0.691,0.697-0.691c0.376,0,0.685,0.315,0.685,0.691
		C216.837,378.396,216.527,378.699,216.146,378.699z M216.146,339.955c-0.382,0-0.691-0.303-0.691-0.679
		c0-0.388,0.31-0.691,0.691-0.691c0.376,0,0.691,0.303,0.691,0.691C216.843,339.658,216.527,339.955,216.146,339.955z
		 M218.91,375.939c-0.376,0-0.691-0.314-0.691-0.69c0-0.388,0.315-0.691,0.691-0.691c0.382,0,0.691,0.304,0.691,0.691
		C219.607,375.625,219.298,375.939,218.91,375.939z M218.91,342.726c-0.376,0-0.691-0.303-0.691-0.691
		c0-0.375,0.315-0.691,0.691-0.691c0.382,0,0.691,0.315,0.691,0.691C219.607,342.429,219.298,342.726,218.91,342.726z
		 M218.91,292.917c-0.376,0-0.691-0.309-0.691-0.685c0-0.382,0.315-0.691,0.691-0.691c0.382,0,0.691,0.309,0.691,0.691
		C219.607,292.608,219.298,292.917,218.91,292.917z M221.688,373.169c-0.382,0-0.691-0.315-0.691-0.69
		c0-0.377,0.309-0.691,0.691-0.691c0.375,0,0.691,0.314,0.691,0.691C222.378,372.854,222.063,373.169,221.688,373.169z
		 M221.688,345.491c-0.382,0-0.691-0.315-0.691-0.691s0.309-0.685,0.691-0.685c0.382,0,0.691,0.315,0.691,0.685
		C222.373,345.182,222.063,345.491,221.688,345.491z M221.688,290.152c-0.382,0-0.691-0.309-0.691-0.685
		c0-0.382,0.309-0.691,0.691-0.691c0.375,0,0.691,0.31,0.691,0.691C222.373,289.843,222.063,290.152,221.688,290.152z
		 M224.446,370.398c-0.382,0-0.691-0.303-0.691-0.691c0-0.376,0.309-0.691,0.691-0.691c0.382,0,0.691,0.322,0.691,0.691
		C225.137,370.096,224.834,370.398,224.446,370.398z M224.446,348.262c-0.375,0-0.691-0.315-0.691-0.691
		c0-0.375,0.315-0.691,0.691-0.691c0.382,0,0.691,0.315,0.691,0.691C225.137,347.946,224.834,348.262,224.446,348.262z
		 M224.446,287.388c-0.382,0-0.691-0.315-0.691-0.691c0-0.382,0.309-0.691,0.691-0.691c0.382,0,0.691,0.309,0.691,0.691
		C225.137,287.072,224.834,287.388,224.446,287.388z M227.217,367.633c-0.382,0-0.691-0.303-0.691-0.69
		c0-0.376,0.31-0.691,0.691-0.691s0.691,0.315,0.691,0.691C227.908,367.33,227.599,367.633,227.217,367.633z M227.217,351.033
		c-0.382,0-0.691-0.315-0.691-0.691c0-0.388,0.31-0.691,0.691-0.691s0.691,0.303,0.691,0.691
		C227.908,350.724,227.599,351.033,227.217,351.033z M227.217,284.617c-0.382,0-0.691-0.309-0.691-0.691
		c0-0.382,0.31-0.691,0.691-0.691s0.691,0.309,0.691,0.691C227.908,284.308,227.599,284.617,227.217,284.617z M229.981,364.863
		c-0.376,0-0.691-0.304-0.691-0.691c0-0.377,0.315-0.68,0.691-0.68c0.382,0,0.691,0.303,0.691,0.68
		C230.673,364.56,230.364,364.863,229.981,364.863z M229.981,353.797c-0.376,0-0.685-0.303-0.685-0.691
		c0-0.376,0.309-0.691,0.685-0.691c0.382,0,0.691,0.315,0.691,0.691C230.673,353.494,230.364,353.797,229.981,353.797z
		 M229.981,281.846c-0.376,0-0.691-0.309-0.691-0.691c0-0.376,0.315-0.685,0.691-0.685c0.382,0,0.691,0.309,0.691,0.685
		C230.673,281.543,230.364,281.846,229.981,281.846z M229.981,270.781c-0.376,0-0.685-0.309-0.685-0.691
		c0-0.382,0.309-0.691,0.685-0.691c0.382,0,0.691,0.309,0.691,0.691C230.673,270.472,230.364,270.781,229.981,270.781z
		 M235.511,362.104c-1.904,0-3.456-1.546-3.456-3.461c0-1.91,1.546-3.456,3.456-3.456c1.916,0,3.462,1.546,3.462,3.456
		C238.979,360.558,237.427,362.104,235.511,362.104z M235.511,279.087c-1.904,0-3.456-1.546-3.456-3.462
		c0-1.904,1.546-3.456,3.456-3.456c1.916,0,3.462,1.546,3.462,3.456C238.979,277.535,237.427,279.087,235.511,279.087z
		 M241.053,364.863c-0.382,0-0.691-0.304-0.691-0.691c0-0.377,0.309-0.68,0.691-0.68c0.376,0,0.691,0.303,0.691,0.68
		C241.744,364.56,241.429,364.863,241.053,364.863z M241.053,353.797c-0.382,0-0.691-0.303-0.691-0.691
		c0-0.376,0.309-0.691,0.691-0.691c0.376,0,0.691,0.315,0.691,0.691C241.744,353.494,241.429,353.797,241.053,353.797z
		 M241.053,281.846c-0.382,0-0.691-0.309-0.691-0.691c0-0.376,0.309-0.685,0.691-0.685c0.376,0,0.691,0.309,0.691,0.685
		C241.744,281.543,241.429,281.846,241.053,281.846z M241.053,270.781c-0.382,0-0.691-0.309-0.691-0.691
		c0-0.382,0.309-0.691,0.691-0.691c0.376,0,0.691,0.309,0.691,0.691C241.744,270.472,241.429,270.781,241.053,270.781z
		 M241.053,198.835c-0.382,0-0.691-0.309-0.691-0.685c0-0.382,0.309-0.691,0.691-0.691c0.376,0,0.691,0.309,0.691,0.691
		C241.744,198.526,241.429,198.835,241.053,198.835z M243.818,367.633c-0.376,0-0.691-0.303-0.691-0.69
		c0-0.376,0.315-0.691,0.691-0.691c0.382,0,0.691,0.315,0.691,0.691C244.509,367.33,244.2,367.633,243.818,367.633z
		 M243.818,351.033c-0.376,0-0.691-0.315-0.691-0.691c0-0.388,0.315-0.691,0.691-0.691c0.382,0,0.691,0.303,0.691,0.691
		C244.509,350.724,244.2,351.033,243.818,351.033z M243.818,284.617c-0.376,0-0.691-0.309-0.691-0.691
		c0-0.382,0.315-0.691,0.691-0.691c0.382,0,0.691,0.309,0.691,0.691C244.509,284.308,244.2,284.617,243.818,284.617z
		 M243.818,268.01c-0.376,0-0.691-0.309-0.691-0.685c0-0.382,0.315-0.691,0.691-0.691c0.382,0,0.691,0.31,0.691,0.691
		C244.509,267.701,244.2,268.01,243.818,268.01z M243.818,201.6c-0.376,0-0.691-0.309-0.691-0.691c0-0.376,0.315-0.691,0.691-0.691
		c0.382,0,0.691,0.315,0.691,0.691C244.509,201.297,244.2,201.6,243.818,201.6z M246.583,370.398c-0.382,0-0.691-0.303-0.691-0.691
		c0-0.376,0.309-0.691,0.691-0.691c0.376,0,0.691,0.322,0.691,0.691C247.28,370.096,246.964,370.398,246.583,370.398z
		 M246.583,348.262c-0.382,0-0.691-0.315-0.691-0.691c0-0.375,0.309-0.691,0.691-0.691c0.376,0,0.691,0.315,0.691,0.691
		C247.274,347.946,246.964,348.262,246.583,348.262z M246.583,287.388c-0.382,0-0.691-0.315-0.691-0.691
		c0-0.382,0.309-0.691,0.691-0.691c0.376,0,0.691,0.309,0.691,0.691C247.28,287.072,246.964,287.388,246.583,287.388z
		 M246.583,265.251c-0.382,0-0.691-0.309-0.691-0.685c0-0.388,0.309-0.691,0.691-0.691c0.376,0,0.691,0.303,0.691,0.691
		C247.28,264.942,246.964,265.251,246.583,265.251z M246.583,204.377c-0.382,0-0.691-0.315-0.691-0.691
		c0-0.382,0.309-0.691,0.691-0.691c0.376,0,0.691,0.309,0.691,0.691C247.28,204.062,246.964,204.377,246.583,204.377z
		 M249.347,373.169c-0.375,0-0.691-0.315-0.691-0.69c0-0.377,0.315-0.691,0.691-0.691c0.382,0,0.691,0.314,0.691,0.691
		C250.039,372.854,249.735,373.169,249.347,373.169z M249.347,345.491c-0.375,0-0.691-0.315-0.691-0.691s0.315-0.685,0.691-0.685
		c0.382,0,0.691,0.315,0.691,0.685C250.044,345.182,249.735,345.491,249.347,345.491z M249.347,290.152
		c-0.375,0-0.691-0.309-0.691-0.685c0-0.382,0.315-0.691,0.691-0.691c0.382,0,0.691,0.31,0.691,0.691
		C250.044,289.843,249.735,290.152,249.347,290.152z M249.347,262.486c-0.375,0-0.691-0.315-0.691-0.691
		c0-0.382,0.315-0.691,0.691-0.691c0.382,0,0.691,0.309,0.691,0.691C250.044,262.171,249.735,262.486,249.347,262.486z
		 M249.347,207.136c-0.375,0-0.691-0.31-0.691-0.691c0-0.376,0.315-0.685,0.691-0.685c0.382,0,0.691,0.309,0.691,0.685
		C250.044,206.826,249.735,207.136,249.347,207.136z M252.125,375.939c-0.382,0-0.691-0.314-0.691-0.69
		c0-0.388,0.309-0.691,0.691-0.691c0.382,0,0.691,0.304,0.691,0.691C252.81,375.625,252.506,375.939,252.125,375.939z
		 M252.125,342.726c-0.382,0-0.691-0.303-0.691-0.691c0-0.375,0.309-0.691,0.691-0.691c0.382,0,0.691,0.315,0.691,0.691
		C252.81,342.429,252.506,342.726,252.125,342.726z M252.125,292.917c-0.382,0-0.691-0.309-0.691-0.685
		c0-0.382,0.309-0.691,0.691-0.691c0.382,0,0.691,0.309,0.691,0.691C252.81,292.608,252.506,292.917,252.125,292.917z
		 M252.125,259.715c-0.382,0-0.691-0.309-0.691-0.691c0-0.376,0.309-0.691,0.691-0.691c0.382,0,0.691,0.315,0.691,0.691
		C252.81,259.406,252.506,259.715,252.125,259.715z M252.125,209.906c-0.382,0-0.691-0.309-0.691-0.691s0.309-0.691,0.691-0.691
		c0.382,0,0.691,0.309,0.691,0.691S252.506,209.906,252.125,209.906z M254.883,378.699c-0.375,0-0.685-0.304-0.685-0.691
		c0-0.376,0.31-0.691,0.685-0.691c0.382,0,0.691,0.315,0.691,0.691C255.574,378.396,255.271,378.699,254.883,378.699z
		 M254.883,339.955c-0.375,0-0.685-0.303-0.685-0.679c0-0.388,0.31-0.691,0.685-0.691c0.382,0,0.691,0.303,0.691,0.691
		C255.574,339.658,255.271,339.955,254.883,339.955z M254.883,295.688c-0.375,0-0.685-0.309-0.685-0.691
		c0-0.382,0.31-0.691,0.685-0.691c0.382,0,0.691,0.309,0.691,0.691C255.574,295.379,255.271,295.688,254.883,295.688z
		 M254.883,256.944c-0.375,0-0.685-0.309-0.685-0.691c0-0.376,0.31-0.685,0.685-0.685c0.382,0,0.691,0.309,0.691,0.685
		C255.574,256.635,255.271,256.944,254.883,256.944z M254.883,212.671c-0.375,0-0.685-0.309-0.685-0.685
		c0-0.382,0.31-0.691,0.685-0.691c0.382,0,0.691,0.31,0.691,0.691C255.574,212.362,255.271,212.671,254.883,212.671z
		 M257.654,337.196c-0.382,0-0.691-0.315-0.691-0.691c0-0.388,0.309-0.691,0.691-0.691c0.382,0,0.691,0.303,0.691,0.691
		C258.345,336.881,258.036,337.196,257.654,337.196z M257.654,298.459c-0.382,0-0.691-0.309-0.691-0.691
		c0-0.382,0.309-0.691,0.691-0.691c0.382,0,0.691,0.309,0.691,0.691C258.345,298.15,258.036,298.459,257.654,298.459z
		 M257.654,254.18c-0.382,0-0.691-0.309-0.691-0.691c0-0.382,0.309-0.691,0.691-0.691c0.382,0,0.691,0.309,0.691,0.691
		C258.345,253.871,258.036,254.18,257.654,254.18z M257.654,215.442c-0.382,0-0.691-0.31-0.691-0.691
		c0-0.376,0.309-0.691,0.691-0.691c0.382,0,0.691,0.315,0.691,0.691C258.345,215.133,258.036,215.442,257.654,215.442z
		 M260.425,334.426c-0.382,0-0.691-0.315-0.691-0.691c0-0.388,0.31-0.691,0.691-0.691c0.376,0,0.685,0.303,0.685,0.691
		C261.11,334.11,260.801,334.426,260.425,334.426z M260.425,301.23c-0.382,0-0.691-0.322-0.691-0.697
		c0-0.376,0.31-0.685,0.691-0.685c0.376,0,0.685,0.309,0.685,0.685C261.11,300.908,260.801,301.23,260.425,301.23z M260.425,251.409
		c-0.382,0-0.691-0.309-0.691-0.691c0-0.376,0.31-0.691,0.691-0.691c0.376,0,0.685,0.315,0.685,0.691
		C261.11,251.105,260.801,251.409,260.425,251.409z M260.425,218.213c-0.382,0-0.691-0.315-0.691-0.691
		c0-0.382,0.31-0.691,0.691-0.691c0.376,0,0.685,0.309,0.685,0.691C261.11,217.898,260.801,218.213,260.425,218.213z
		 M263.189,331.661c-0.382,0-0.691-0.321-0.691-0.691c0-0.376,0.309-0.691,0.691-0.691s0.691,0.315,0.691,0.691
		C263.881,331.339,263.571,331.661,263.189,331.661z M263.189,303.989c-0.382,0-0.691-0.31-0.691-0.691
		c0-0.376,0.309-0.691,0.691-0.691s0.691,0.322,0.691,0.691C263.881,303.679,263.571,303.989,263.189,303.989z M263.189,248.65
		c-0.382,0-0.691-0.315-0.691-0.691c0-0.382,0.309-0.691,0.691-0.691s0.691,0.31,0.691,0.691
		C263.881,248.335,263.571,248.65,263.189,248.65z M263.189,220.972c-0.382,0-0.691-0.315-0.691-0.691
		c0-0.376,0.309-0.691,0.691-0.691s0.691,0.315,0.691,0.691C263.881,220.663,263.571,220.972,263.189,220.972z M265.954,328.89
		c-0.382,0-0.691-0.303-0.691-0.691c0-0.376,0.309-0.691,0.691-0.691c0.376,0,0.691,0.315,0.691,0.691
		C266.651,328.587,266.336,328.89,265.954,328.89z M265.954,306.759c-0.382,0-0.691-0.303-0.691-0.691
		c0-0.376,0.309-0.691,0.691-0.691c0.376,0,0.691,0.315,0.691,0.691C266.651,306.456,266.336,306.759,265.954,306.759z
		 M265.954,245.879c-0.382,0-0.691-0.31-0.691-0.691s0.309-0.691,0.691-0.691c0.376,0,0.691,0.309,0.691,0.691
		S266.336,245.879,265.954,245.879z M265.954,223.736c-0.382,0-0.691-0.309-0.691-0.685c0-0.382,0.309-0.691,0.691-0.691
		c0.376,0,0.691,0.309,0.691,0.691C266.651,223.427,266.336,223.736,265.954,223.736z M268.719,326.119
		c-0.376,0-0.691-0.303-0.691-0.679c0-0.388,0.315-0.691,0.691-0.691c0.382,0,0.691,0.303,0.691,0.691
		C269.417,325.816,269.107,326.119,268.719,326.119z M268.719,309.524c-0.376,0-0.685-0.315-0.685-0.691
		c0-0.388,0.309-0.691,0.685-0.691c0.382,0,0.691,0.303,0.691,0.691C269.417,309.209,269.107,309.524,268.719,309.524z
		 M268.719,243.114c-0.376,0-0.691-0.315-0.691-0.691c0-0.382,0.315-0.691,0.691-0.691c0.382,0,0.691,0.309,0.691,0.691
		C269.417,242.799,269.107,243.114,268.719,243.114z M268.719,226.507c-0.376,0-0.685-0.309-0.685-0.691s0.309-0.691,0.685-0.691
		c0.382,0,0.691,0.31,0.691,0.691C269.417,226.198,269.107,226.507,268.719,226.507z M271.49,323.36
		c-0.382,0-0.691-0.315-0.691-0.691c0-0.388,0.309-0.691,0.691-0.691c0.376,0,0.691,0.303,0.691,0.691
		C272.181,323.045,271.866,323.36,271.49,323.36z M271.49,312.295c-0.382,0-0.691-0.315-0.691-0.691
		c0-0.388,0.309-0.691,0.691-0.691c0.376,0,0.691,0.303,0.691,0.691C272.181,311.98,271.866,312.295,271.49,312.295z
		 M271.49,240.344c-0.382,0-0.691-0.31-0.691-0.691s0.309-0.685,0.691-0.685c0.376,0,0.691,0.303,0.691,0.685
		S271.866,240.344,271.49,240.344z M271.49,229.278c-0.382,0-0.691-0.309-0.691-0.691c0-0.382,0.309-0.691,0.691-0.691
		c0.376,0,0.691,0.309,0.691,0.691C272.181,228.969,271.866,229.278,271.49,229.278z M290.862,136.573
		c0.376,0,0.685,0.309,0.685,0.691c0,0.382-0.309,0.691-0.685,0.691c-0.382,0-0.691-0.309-0.691-0.691
		C290.165,136.882,290.48,136.573,290.862,136.573z M285.326,142.108c0.376,0,0.685,0.315,0.685,0.691
		c0,0.382-0.309,0.691-0.685,0.691c-0.382,0-0.691-0.309-0.691-0.691C284.635,142.424,284.944,142.108,285.326,142.108z
		 M277.02,320.589c-1.91,0-3.456-1.546-3.456-3.456c0-1.916,1.54-3.462,3.456-3.462c1.91,0,3.456,1.546,3.456,3.462
		C280.481,319.043,278.93,320.589,277.02,320.589z M277.02,237.573c-1.91,0-3.456-1.546-3.456-3.456s1.54-3.456,3.456-3.456
		c1.91,0,3.456,1.546,3.456,3.456S278.93,237.573,277.02,237.573z M277.02,154.562c-1.91,0-3.456-1.546-3.456-3.456
		c0-1.916,1.54-3.462,3.456-3.462c1.91,0,3.456,1.546,3.456,3.462C280.481,153.01,278.93,154.562,277.02,154.562z M282.562,323.36
		c-0.382,0-0.691-0.315-0.691-0.691c0-0.388,0.309-0.691,0.691-0.691c0.382,0,0.691,0.303,0.691,0.691
		C283.247,323.045,282.943,323.36,282.562,323.36z M282.562,312.295c-0.382,0-0.691-0.315-0.691-0.691
		c0-0.388,0.309-0.691,0.691-0.691c0.382,0,0.691,0.303,0.691,0.691C283.247,311.98,282.943,312.295,282.562,312.295z
		 M282.562,240.344c-0.382,0-0.691-0.31-0.691-0.691s0.309-0.685,0.691-0.685c0.382,0,0.691,0.303,0.691,0.685
		S282.943,240.344,282.562,240.344z M282.562,229.278c-0.382,0-0.691-0.309-0.691-0.691c0-0.382,0.309-0.691,0.691-0.691
		c0.382,0,0.691,0.309,0.691,0.691C283.252,228.969,282.943,229.278,282.562,229.278z M282.562,157.327
		c-0.382,0-0.691-0.309-0.691-0.691s0.309-0.691,0.691-0.691c0.382,0,0.691,0.31,0.691,0.691
		C283.247,157.018,282.943,157.327,282.562,157.327z M282.562,146.262c-0.382,0-0.691-0.315-0.691-0.691
		c0-0.382,0.309-0.691,0.691-0.691c0.382,0,0.691,0.31,0.691,0.691C283.247,145.946,282.943,146.262,282.562,146.262z
		 M285.326,326.119c-0.382,0-0.691-0.303-0.691-0.679c0-0.388,0.31-0.691,0.691-0.691c0.376,0,0.691,0.303,0.691,0.691
		C286.018,325.816,285.708,326.119,285.326,326.119z M284.635,308.833c0-0.388,0.31-0.691,0.691-0.691
		c0.376,0,0.685,0.303,0.685,0.691c0,0.376-0.309,0.691-0.685,0.691C284.944,309.524,284.635,309.209,284.635,308.833z
		 M285.326,243.114c-0.382,0-0.691-0.315-0.691-0.691c0-0.382,0.31-0.691,0.691-0.691c0.376,0,0.691,0.309,0.691,0.691
		C286.018,242.799,285.708,243.114,285.326,243.114z M284.635,225.816c0-0.382,0.31-0.691,0.691-0.691
		c0.376,0,0.685,0.309,0.685,0.691c0,0.382-0.309,0.691-0.685,0.691C284.944,226.507,284.635,226.198,284.635,225.816z
		 M285.326,160.092c-0.382,0-0.691-0.31-0.691-0.686c0-0.382,0.31-0.691,0.691-0.691c0.376,0,0.691,0.309,0.691,0.691
		C286.018,159.789,285.708,160.092,285.326,160.092z M288.091,328.89c-0.376,0-0.691-0.303-0.691-0.691
		c0-0.376,0.315-0.691,0.691-0.691c0.382,0,0.691,0.315,0.691,0.691C288.782,328.587,288.473,328.89,288.091,328.89z
		 M288.091,306.759c-0.376,0-0.691-0.303-0.691-0.691c0-0.376,0.315-0.691,0.691-0.691c0.382,0,0.691,0.315,0.691,0.691
		C288.782,306.456,288.473,306.759,288.091,306.759z M288.091,245.879c-0.376,0-0.691-0.31-0.691-0.691s0.315-0.691,0.691-0.691
		c0.382,0,0.691,0.309,0.691,0.691S288.473,245.879,288.091,245.879z M288.091,223.736c-0.376,0-0.691-0.309-0.691-0.685
		c0-0.382,0.315-0.691,0.691-0.691c0.382,0,0.691,0.309,0.691,0.691C288.782,223.427,288.473,223.736,288.091,223.736z
		 M288.091,162.862c-0.376,0-0.691-0.309-0.691-0.691c0-0.382,0.315-0.691,0.691-0.691c0.382,0,0.691,0.309,0.691,0.691
		C288.782,162.553,288.473,162.862,288.091,162.862z M288.091,140.726c-0.376,0-0.691-0.315-0.691-0.691
		c0-0.382,0.315-0.691,0.691-0.691c0.382,0,0.691,0.309,0.691,0.691S288.473,140.726,288.091,140.726z M290.862,331.661
		c-0.382,0-0.691-0.321-0.691-0.691c0-0.376,0.31-0.691,0.691-0.691s0.691,0.315,0.691,0.691
		C291.553,331.339,291.244,331.661,290.862,331.661z M290.165,303.292c0-0.376,0.309-0.691,0.691-0.691
		c0.376,0,0.686,0.321,0.686,0.691c0,0.382-0.31,0.691-0.686,0.691C290.48,303.989,290.165,303.679,290.165,303.292z
		 M290.862,248.65c-0.382,0-0.691-0.315-0.691-0.691c0-0.382,0.31-0.691,0.691-0.691s0.691,0.31,0.691,0.691
		C291.553,248.335,291.244,248.65,290.862,248.65z M290.165,220.281c0-0.376,0.309-0.691,0.691-0.691
		c0.376,0,0.686,0.315,0.686,0.691c0,0.375-0.31,0.691-0.686,0.691C290.48,220.972,290.165,220.663,290.165,220.281z
		 M290.862,165.633c-0.382,0-0.691-0.309-0.691-0.691c0-0.382,0.31-0.691,0.691-0.691s0.691,0.309,0.691,0.691
		C291.553,165.324,291.244,165.633,290.862,165.633z M293.626,334.426c-0.376,0-0.691-0.315-0.691-0.691
		c0-0.388,0.315-0.691,0.691-0.691c0.382,0,0.691,0.303,0.691,0.691C294.318,334.11,294.009,334.426,293.626,334.426z
		 M293.626,301.23c-0.382,0-0.691-0.322-0.691-0.697c0-0.376,0.309-0.685,0.691-0.685c0.382,0,0.691,0.309,0.691,0.685
		C294.318,300.908,294.009,301.23,293.626,301.23z M293.626,251.409c-0.376,0-0.691-0.309-0.691-0.691
		c0-0.376,0.315-0.691,0.691-0.691c0.382,0,0.691,0.315,0.691,0.691C294.318,251.105,294.009,251.409,293.626,251.409z
		 M293.626,218.213c-0.382,0-0.691-0.315-0.691-0.691c0-0.382,0.309-0.691,0.691-0.691c0.382,0,0.691,0.309,0.691,0.691
		C294.318,217.898,294.009,218.213,293.626,218.213z M293.626,168.398c-0.376,0-0.691-0.309-0.691-0.691
		c0-0.376,0.315-0.691,0.691-0.691c0.382,0,0.691,0.315,0.691,0.691C294.318,168.089,294.009,168.398,293.626,168.398z
		 M293.626,135.19c-0.382,0-0.691-0.31-0.691-0.686c0-0.382,0.309-0.691,0.691-0.691c0.382,0,0.691,0.309,0.691,0.691
		C294.318,134.881,294.009,135.19,293.626,135.19z M456.89,219.589c0.376,0,0.679,0.315,0.679,0.691c0,0.375-0.31,0.691-0.679,0.691
		c-0.383,0-0.691-0.315-0.691-0.691C456.198,219.905,456.507,219.589,456.89,219.589z M426.452,250.026
		c0.376,0,0.686,0.315,0.686,0.691c0,0.382-0.31,0.691-0.686,0.691c-0.382,0-0.697-0.309-0.697-0.691
		C425.755,250.342,426.064,250.026,426.452,250.026z M387.709,122.736c0.376,0,0.685,0.315,0.685,0.691
		c0,0.382-0.309,0.691-0.685,0.691c-0.383,0-0.691-0.31-0.691-0.691C387.018,123.052,387.326,122.736,387.709,122.736z
		 M373.866,136.573c0.382,0,0.691,0.309,0.691,0.691c0,0.382-0.31,0.691-0.691,0.691c-0.376,0-0.685-0.309-0.685-0.691
		C373.182,136.882,373.49,136.573,373.866,136.573z M310.233,117.207c0.376,0,0.686,0.315,0.686,0.691
		c0,0.382-0.31,0.691-0.686,0.691c-0.382,0-0.691-0.309-0.691-0.691C309.536,117.516,309.846,117.207,310.233,117.207z
		 M304.692,122.736c0.382,0,0.691,0.315,0.691,0.691c0,0.382-0.309,0.691-0.691,0.691c-0.376,0-0.685-0.31-0.685-0.691
		C304.007,123.052,304.31,122.736,304.692,122.736z M296.392,337.196c-0.382,0-0.691-0.315-0.691-0.691
		c0-0.388,0.309-0.691,0.691-0.691c0.382,0,0.691,0.303,0.691,0.691C297.089,336.881,296.779,337.196,296.392,337.196z
		 M296.392,298.459c-0.382,0-0.691-0.309-0.691-0.691c0-0.382,0.309-0.691,0.691-0.691c0.382,0,0.691,0.309,0.691,0.691
		C297.083,298.15,296.779,298.459,296.392,298.459z M296.392,254.18c-0.382,0-0.691-0.309-0.691-0.691
		c0-0.382,0.309-0.691,0.691-0.691c0.382,0,0.691,0.309,0.691,0.691C297.083,253.871,296.779,254.18,296.392,254.18z
		 M296.392,215.442c-0.382,0-0.691-0.31-0.691-0.691c0-0.376,0.309-0.691,0.691-0.691c0.382,0,0.691,0.315,0.691,0.691
		C297.089,215.133,296.779,215.442,296.392,215.442z M296.392,171.163c-0.382,0-0.691-0.31-0.691-0.691s0.309-0.691,0.691-0.691
		c0.382,0,0.691,0.31,0.691,0.691C297.089,170.86,296.779,171.163,296.392,171.163z M296.392,132.425
		c-0.382,0-0.691-0.309-0.691-0.691c0-0.382,0.309-0.691,0.691-0.691c0.382,0,0.691,0.309,0.691,0.691
		C297.089,132.116,296.779,132.425,296.392,132.425z M299.156,378.699c-0.376,0-0.691-0.304-0.691-0.691
		c0-0.376,0.315-0.691,0.691-0.691c0.382,0,0.691,0.315,0.691,0.691C299.854,378.396,299.538,378.699,299.156,378.699z
		 M299.156,339.955c-0.376,0-0.685-0.303-0.685-0.679c0-0.388,0.309-0.691,0.685-0.691c0.382,0,0.691,0.303,0.691,0.691
		C299.854,339.658,299.538,339.955,299.156,339.955z M299.156,295.688c-0.376,0-0.691-0.309-0.691-0.691
		c0-0.382,0.315-0.691,0.691-0.691c0.382,0,0.691,0.309,0.691,0.691C299.848,295.379,299.538,295.688,299.156,295.688z
		 M299.156,256.944c-0.376,0-0.685-0.309-0.685-0.691c0-0.376,0.309-0.685,0.685-0.685c0.382,0,0.691,0.309,0.691,0.685
		C299.854,256.635,299.538,256.944,299.156,256.944z M299.156,212.671c-0.376,0-0.691-0.309-0.691-0.685
		c0-0.382,0.315-0.691,0.691-0.691c0.382,0,0.691,0.31,0.691,0.691C299.854,212.362,299.538,212.671,299.156,212.671z
		 M299.156,173.934c-0.376,0-0.685-0.309-0.685-0.691c0-0.376,0.309-0.685,0.685-0.685c0.382,0,0.691,0.309,0.691,0.685
		C299.854,173.625,299.538,173.934,299.156,173.934z M299.156,129.654c-0.376,0-0.691-0.309-0.691-0.691
		c0-0.376,0.315-0.685,0.691-0.685c0.382,0,0.691,0.309,0.691,0.685C299.854,129.345,299.538,129.654,299.156,129.654z
		 M301.927,375.939c-0.382,0-0.691-0.314-0.691-0.69c0-0.388,0.309-0.691,0.691-0.691c0.382,0,0.691,0.304,0.691,0.691
		C302.618,375.625,302.309,375.939,301.927,375.939z M301.927,342.726c-0.382,0-0.691-0.303-0.691-0.691
		c0-0.375,0.309-0.691,0.691-0.691c0.382,0,0.691,0.315,0.691,0.691C302.618,342.429,302.309,342.726,301.927,342.726z
		 M301.927,292.917c-0.382,0-0.691-0.309-0.691-0.685c0-0.382,0.309-0.691,0.691-0.691c0.382,0,0.691,0.309,0.691,0.691
		C302.618,292.608,302.309,292.917,301.927,292.917z M301.927,259.715c-0.382,0-0.691-0.309-0.691-0.691
		c0-0.376,0.309-0.691,0.691-0.691c0.382,0,0.691,0.315,0.691,0.691C302.618,259.406,302.309,259.715,301.927,259.715z
		 M301.927,209.906c-0.382,0-0.691-0.309-0.691-0.691s0.309-0.691,0.691-0.691c0.382,0,0.691,0.309,0.691,0.691
		S302.309,209.906,301.927,209.906z M301.927,176.699c-0.382,0-0.691-0.309-0.691-0.691c0-0.382,0.309-0.691,0.691-0.691
		c0.382,0,0.691,0.309,0.691,0.691C302.618,176.39,302.309,176.699,301.927,176.699z M301.927,126.89
		c-0.382,0-0.691-0.309-0.691-0.691c0-0.382,0.309-0.691,0.691-0.691c0.382,0,0.691,0.309,0.691,0.691
		C302.618,126.581,302.309,126.89,301.927,126.89z M304.692,373.169c-0.376,0-0.685-0.315-0.685-0.69
		c0-0.377,0.309-0.691,0.685-0.691c0.382,0,0.691,0.314,0.691,0.691C305.383,372.854,305.074,373.169,304.692,373.169z
		 M304.698,345.491c-0.382,0-0.691-0.315-0.691-0.691s0.309-0.685,0.691-0.685c0.376,0,0.691,0.315,0.691,0.685
		C305.389,345.182,305.074,345.491,304.698,345.491z M304.007,289.467c0-0.382,0.309-0.691,0.685-0.691
		c0.382,0,0.691,0.31,0.691,0.691c0,0.376-0.309,0.685-0.691,0.685S304.007,289.843,304.007,289.467z M304.698,262.486
		c-0.382,0-0.691-0.315-0.691-0.691c0-0.382,0.309-0.691,0.691-0.691c0.376,0,0.691,0.309,0.691,0.691
		C305.389,262.171,305.074,262.486,304.698,262.486z M304.007,206.444c0-0.376,0.309-0.685,0.685-0.685
		c0.382,0,0.691,0.309,0.691,0.685c0,0.382-0.309,0.691-0.691,0.691S304.007,206.826,304.007,206.444z M304.698,179.47
		c-0.382,0-0.691-0.315-0.691-0.697c0-0.376,0.309-0.686,0.691-0.686c0.376,0,0.691,0.31,0.691,0.686
		C305.389,179.154,305.074,179.47,304.698,179.47z M307.463,370.398c-0.382,0-0.691-0.303-0.691-0.691
		c0-0.376,0.31-0.691,0.691-0.691s0.691,0.322,0.691,0.691C308.154,370.096,307.845,370.398,307.463,370.398z M307.463,348.262
		c-0.382,0-0.691-0.315-0.691-0.691c0-0.375,0.31-0.691,0.691-0.691s0.691,0.315,0.691,0.691
		C308.154,347.946,307.845,348.262,307.463,348.262z M307.463,287.388c-0.382,0-0.691-0.315-0.691-0.691
		c0-0.382,0.31-0.691,0.691-0.691s0.691,0.309,0.691,0.691C308.154,287.072,307.845,287.388,307.463,287.388z M307.463,265.251
		c-0.382,0-0.691-0.309-0.691-0.685c0-0.388,0.31-0.691,0.691-0.691s0.691,0.303,0.691,0.691
		C308.154,264.942,307.845,265.251,307.463,265.251z M307.463,204.377c-0.382,0-0.691-0.315-0.691-0.691
		c0-0.382,0.31-0.691,0.691-0.691s0.691,0.309,0.691,0.691C308.154,204.062,307.845,204.377,307.463,204.377z M307.463,182.234
		c-0.382,0-0.691-0.31-0.691-0.691s0.31-0.691,0.691-0.691s0.691,0.309,0.691,0.691S307.845,182.234,307.463,182.234z
		 M307.463,121.36c-0.382,0-0.691-0.315-0.691-0.691c0-0.382,0.31-0.691,0.691-0.691s0.691,0.31,0.691,0.691
		C308.154,121.045,307.845,121.36,307.463,121.36z M310.233,367.633c-0.382,0-0.691-0.303-0.691-0.69
		c0-0.376,0.31-0.691,0.691-0.691c0.376,0,0.686,0.315,0.686,0.691C310.919,367.33,310.609,367.633,310.233,367.633z
		 M310.233,351.033c-0.382,0-0.691-0.315-0.691-0.691c0-0.388,0.31-0.691,0.691-0.691c0.376,0,0.691,0.303,0.691,0.691
		C310.925,350.724,310.609,351.033,310.233,351.033z M309.536,283.926c0-0.382,0.31-0.691,0.691-0.691
		c0.376,0,0.686,0.309,0.686,0.691c0,0.382-0.31,0.691-0.686,0.691C309.846,284.617,309.536,284.313,309.536,283.926z
		 M310.233,268.01c-0.382,0-0.691-0.309-0.691-0.685c0-0.382,0.31-0.691,0.691-0.691c0.376,0,0.691,0.31,0.691,0.691
		C310.925,267.701,310.609,268.01,310.233,268.01z M309.536,200.909c0-0.376,0.31-0.691,0.691-0.691
		c0.376,0,0.686,0.315,0.686,0.691c0,0.382-0.31,0.691-0.686,0.691C309.846,201.6,309.536,201.297,309.536,200.909z
		 M310.233,184.999c-0.382,0-0.691-0.309-0.691-0.685c0-0.382,0.31-0.691,0.691-0.691c0.376,0,0.691,0.31,0.691,0.691
		C310.925,184.69,310.609,184.999,310.233,184.999z M312.998,364.863c-0.382,0-0.69-0.304-0.69-0.691c0-0.377,0.309-0.68,0.69-0.68
		c0.383,0,0.691,0.303,0.691,0.68C313.684,364.56,313.381,364.863,312.998,364.863z M312.998,353.797
		c-0.376,0-0.69-0.303-0.69-0.691c0-0.376,0.314-0.691,0.69-0.691c0.383,0,0.691,0.315,0.691,0.691
		C313.684,353.494,313.381,353.797,312.998,353.797z M312.998,281.846c-0.382,0-0.69-0.309-0.69-0.691
		c0-0.376,0.309-0.685,0.69-0.685c0.383,0,0.691,0.309,0.691,0.685C313.684,281.543,313.381,281.846,312.998,281.846z
		 M312.998,270.781c-0.376,0-0.69-0.309-0.69-0.691c0-0.382,0.314-0.691,0.69-0.691c0.383,0,0.691,0.309,0.691,0.691
		C313.689,270.472,313.381,270.781,312.998,270.781z M312.998,198.835c-0.382,0-0.69-0.309-0.69-0.685
		c0-0.382,0.309-0.691,0.69-0.691c0.383,0,0.691,0.309,0.691,0.691C313.684,198.526,313.381,198.835,312.998,198.835z
		 M312.998,187.77c-0.376,0-0.69-0.309-0.69-0.691c0-0.376,0.314-0.691,0.69-0.691c0.383,0,0.691,0.315,0.691,0.691
		C313.684,187.455,313.381,187.77,312.998,187.77z M312.998,115.818c-0.382,0-0.69-0.309-0.69-0.685c0-0.382,0.309-0.691,0.69-0.691
		c0.383,0,0.691,0.31,0.691,0.691C313.684,115.509,313.381,115.818,312.998,115.818z M318.528,362.104
		c-1.91,0-3.456-1.546-3.456-3.461c0-1.91,1.546-3.456,3.456-3.456c1.909,0,3.462,1.546,3.462,3.456
		C321.99,360.558,320.444,362.104,318.528,362.104z M318.528,279.087c-1.91,0-3.456-1.546-3.456-3.462
		c0-1.904,1.546-3.456,3.456-3.456c1.909,0,3.462,1.546,3.462,3.456C321.99,277.535,320.444,279.087,318.528,279.087z
		 M318.528,196.07c-1.91,0-3.456-1.546-3.456-3.462c0-1.91,1.546-3.456,3.456-3.456c1.909,0,3.462,1.546,3.462,3.456
		C321.99,194.524,320.444,196.07,318.528,196.07z M324.069,364.863c-0.382,0-0.69-0.304-0.69-0.691c0-0.377,0.309-0.68,0.69-0.68
		c0.376,0,0.686,0.303,0.686,0.68C324.755,364.56,324.445,364.863,324.069,364.863z M324.063,353.797
		c-0.376,0-0.685-0.303-0.685-0.691c0-0.376,0.309-0.691,0.685-0.691c0.382,0,0.691,0.315,0.691,0.691
		C324.755,353.494,324.445,353.797,324.063,353.797z M324.069,281.846c-0.382,0-0.69-0.309-0.69-0.691
		c0-0.376,0.309-0.685,0.69-0.685c0.376,0,0.686,0.309,0.686,0.685C324.755,281.543,324.445,281.846,324.069,281.846z
		 M324.063,270.781c-0.376,0-0.685-0.309-0.685-0.691c0-0.382,0.309-0.691,0.685-0.691c0.382,0,0.691,0.309,0.691,0.691
		C324.755,270.472,324.445,270.781,324.063,270.781z M324.069,198.835c-0.382,0-0.69-0.309-0.69-0.685
		c0-0.382,0.309-0.691,0.69-0.691c0.376,0,0.686,0.309,0.686,0.691C324.755,198.526,324.445,198.835,324.069,198.835z
		 M324.063,187.77c-0.376,0-0.685-0.309-0.685-0.691c0-0.376,0.309-0.691,0.685-0.691c0.382,0,0.691,0.315,0.691,0.691
		S324.445,187.77,324.063,187.77z M324.069,115.818c-0.382,0-0.69-0.309-0.69-0.685c0-0.382,0.309-0.691,0.69-0.691
		c0.376,0,0.686,0.31,0.686,0.691C324.755,115.509,324.445,115.818,324.069,115.818z M326.828,367.633
		c-0.376,0-0.69-0.303-0.69-0.69c0-0.376,0.314-0.691,0.69-0.691c0.383,0,0.691,0.315,0.691,0.691
		C327.525,367.33,327.217,367.633,326.828,367.633z M326.828,351.033c-0.382,0-0.69-0.315-0.69-0.691
		c0-0.388,0.309-0.691,0.69-0.691c0.383,0,0.691,0.303,0.691,0.691C327.525,350.724,327.217,351.033,326.828,351.033z
		 M326.828,284.617c-0.376,0-0.69-0.309-0.69-0.691c0-0.382,0.314-0.691,0.69-0.691c0.383,0,0.691,0.309,0.691,0.691
		C327.52,284.308,327.217,284.617,326.828,284.617z M326.828,268.01c-0.382,0-0.69-0.309-0.69-0.685c0-0.382,0.309-0.691,0.69-0.691
		c0.383,0,0.691,0.31,0.691,0.691C327.525,267.701,327.217,268.01,326.828,268.01z M326.828,201.6c-0.376,0-0.69-0.309-0.69-0.691
		c0-0.376,0.314-0.691,0.69-0.691c0.383,0,0.691,0.315,0.691,0.691C327.525,201.297,327.217,201.6,326.828,201.6z M326.828,184.999
		c-0.382,0-0.69-0.309-0.69-0.685c0-0.382,0.309-0.691,0.69-0.691c0.383,0,0.691,0.31,0.691,0.691
		C327.525,184.69,327.217,184.999,326.828,184.999z M326.828,118.589c-0.376,0-0.69-0.309-0.69-0.691
		c0-0.375,0.314-0.691,0.69-0.691c0.383,0,0.691,0.315,0.691,0.691C327.525,118.28,327.217,118.589,326.828,118.589z M329.6,370.398
		c-0.382,0-0.691-0.303-0.691-0.691c0-0.376,0.31-0.691,0.691-0.691c0.376,0,0.691,0.322,0.691,0.691
		C330.297,370.096,329.981,370.398,329.6,370.398z M329.6,348.262c-0.382,0-0.691-0.315-0.691-0.691c0-0.375,0.31-0.691,0.691-0.691
		c0.376,0,0.691,0.315,0.691,0.691C330.291,347.946,329.981,348.262,329.6,348.262z M329.6,287.388
		c-0.382,0-0.691-0.315-0.691-0.691c0-0.382,0.31-0.691,0.691-0.691c0.376,0,0.691,0.309,0.691,0.691
		C330.297,287.072,329.981,287.388,329.6,287.388z M329.6,265.251c-0.382,0-0.691-0.309-0.691-0.685c0-0.388,0.31-0.691,0.691-0.691
		c0.376,0,0.691,0.303,0.691,0.691C330.297,264.942,329.981,265.251,329.6,265.251z M329.6,204.377
		c-0.382,0-0.691-0.315-0.691-0.691c0-0.382,0.31-0.691,0.691-0.691c0.376,0,0.691,0.309,0.691,0.691
		C330.297,204.062,329.981,204.377,329.6,204.377z M329.6,182.234c-0.382,0-0.691-0.31-0.691-0.691s0.31-0.691,0.691-0.691
		c0.376,0,0.691,0.309,0.691,0.691C330.297,181.925,329.981,182.234,329.6,182.234z M329.6,121.36c-0.382,0-0.691-0.315-0.691-0.691
		c0-0.382,0.31-0.691,0.691-0.691c0.376,0,0.691,0.31,0.691,0.691C330.297,121.045,329.981,121.36,329.6,121.36z M332.364,373.169
		c-0.376,0-0.686-0.315-0.686-0.69c0-0.377,0.31-0.691,0.686-0.691c0.382,0,0.691,0.314,0.691,0.691
		C333.056,372.854,332.746,373.169,332.364,373.169z M332.364,345.491c-0.376,0-0.686-0.315-0.686-0.691s0.31-0.685,0.686-0.685
		c0.382,0,0.691,0.315,0.691,0.685C333.056,345.182,332.746,345.491,332.364,345.491z M332.364,290.152
		c-0.376,0-0.686-0.309-0.686-0.685c0-0.382,0.31-0.691,0.686-0.691c0.382,0,0.691,0.31,0.691,0.691
		C333.056,289.843,332.746,290.152,332.364,290.152z M332.364,262.486c-0.376,0-0.686-0.315-0.686-0.691
		c0-0.382,0.31-0.691,0.686-0.691c0.382,0,0.691,0.309,0.691,0.691C333.056,262.171,332.746,262.486,332.364,262.486z
		 M332.364,207.136c-0.376,0-0.686-0.31-0.686-0.691c0-0.376,0.31-0.685,0.686-0.685c0.382,0,0.691,0.309,0.691,0.685
		C333.056,206.826,332.746,207.136,332.364,207.136z M332.364,179.47c-0.376,0-0.686-0.315-0.686-0.697
		c0-0.376,0.31-0.686,0.686-0.686c0.382,0,0.691,0.31,0.691,0.686C333.056,179.154,332.746,179.47,332.364,179.47z M332.364,124.125
		c-0.376,0-0.686-0.309-0.686-0.691c0-0.376,0.31-0.691,0.686-0.691c0.382,0,0.691,0.315,0.691,0.691
		C333.056,123.816,332.746,124.125,332.364,124.125z M335.135,375.939c-0.382,0-0.691-0.314-0.691-0.69
		c0-0.388,0.31-0.691,0.691-0.691s0.691,0.304,0.691,0.691C335.826,375.625,335.517,375.939,335.135,375.939z M335.135,342.726
		c-0.382,0-0.691-0.303-0.691-0.691c0-0.375,0.31-0.691,0.691-0.691c0.376,0,0.691,0.315,0.691,0.691
		C335.826,342.429,335.511,342.726,335.135,342.726z M335.135,292.917c-0.382,0-0.691-0.309-0.691-0.685
		c0-0.382,0.31-0.691,0.691-0.691s0.691,0.309,0.691,0.691C335.826,292.608,335.517,292.917,335.135,292.917z M335.135,259.715
		c-0.382,0-0.691-0.309-0.691-0.691c0-0.376,0.31-0.691,0.691-0.691c0.376,0,0.691,0.315,0.691,0.691
		C335.826,259.406,335.511,259.715,335.135,259.715z M335.135,209.906c-0.382,0-0.691-0.309-0.691-0.691s0.31-0.691,0.691-0.691
		s0.691,0.309,0.691,0.691S335.517,209.906,335.135,209.906z M335.135,176.699c-0.382,0-0.691-0.309-0.691-0.691
		c0-0.382,0.31-0.691,0.691-0.691c0.376,0,0.691,0.309,0.691,0.691C335.826,176.39,335.511,176.699,335.135,176.699z
		 M335.135,126.89c-0.382,0-0.691-0.309-0.691-0.691c0-0.382,0.31-0.691,0.691-0.691s0.691,0.309,0.691,0.691
		C335.826,126.581,335.517,126.89,335.135,126.89z M337.906,378.699c-0.383,0-0.691-0.304-0.691-0.691
		c0-0.376,0.309-0.691,0.691-0.691c0.376,0,0.685,0.315,0.685,0.691C338.591,378.396,338.282,378.699,337.906,378.699z
		 M337.894,339.955c-0.376,0-0.685-0.303-0.685-0.679c0-0.388,0.309-0.691,0.685-0.691c0.382,0,0.691,0.303,0.691,0.691
		C338.591,339.658,338.282,339.955,337.894,339.955z M337.906,295.688c-0.383,0-0.691-0.309-0.691-0.691
		c0-0.382,0.309-0.691,0.691-0.691c0.376,0,0.685,0.309,0.685,0.691C338.591,295.379,338.282,295.688,337.906,295.688z
		 M337.894,256.944c-0.376,0-0.685-0.309-0.685-0.691c0-0.376,0.309-0.685,0.685-0.685c0.382,0,0.691,0.309,0.691,0.685
		C338.591,256.635,338.282,256.944,337.894,256.944z M337.906,212.671c-0.383,0-0.691-0.309-0.691-0.685
		c0-0.382,0.309-0.691,0.691-0.691c0.376,0,0.685,0.31,0.685,0.691C338.591,212.362,338.282,212.671,337.906,212.671z
		 M337.894,173.934c-0.376,0-0.685-0.309-0.685-0.691c0-0.376,0.309-0.685,0.685-0.685c0.382,0,0.691,0.309,0.691,0.685
		C338.591,173.625,338.282,173.934,337.894,173.934z M337.906,129.654c-0.383,0-0.691-0.309-0.691-0.691
		c0-0.376,0.309-0.685,0.691-0.685c0.376,0,0.685,0.309,0.685,0.685C338.591,129.345,338.282,129.654,337.906,129.654z
		 M340.671,337.196c-0.382,0-0.691-0.315-0.691-0.691c0-0.388,0.31-0.691,0.691-0.691s0.691,0.303,0.691,0.691
		C341.362,336.881,341.053,337.196,340.671,337.196z M340.671,298.459c-0.376,0-0.691-0.309-0.691-0.691
		c0-0.382,0.315-0.691,0.691-0.691c0.382,0,0.691,0.309,0.691,0.691C341.362,298.15,341.053,298.459,340.671,298.459z
		 M340.671,254.18c-0.382,0-0.691-0.309-0.691-0.691c0-0.382,0.31-0.691,0.691-0.691s0.691,0.309,0.691,0.691
		C341.362,253.871,341.053,254.18,340.671,254.18z M340.671,215.442c-0.376,0-0.691-0.31-0.691-0.691
		c0-0.376,0.315-0.691,0.691-0.691c0.382,0,0.691,0.315,0.691,0.691C341.362,215.133,341.053,215.442,340.671,215.442z
		 M340.671,171.163c-0.382,0-0.691-0.31-0.691-0.691s0.31-0.691,0.691-0.691s0.691,0.31,0.691,0.691
		C341.362,170.86,341.053,171.163,340.671,171.163z M340.671,132.425c-0.376,0-0.691-0.309-0.691-0.691
		c0-0.382,0.315-0.691,0.691-0.691c0.382,0,0.691,0.309,0.691,0.691C341.362,132.116,341.053,132.425,340.671,132.425z
		 M343.441,334.426c-0.382,0-0.691-0.315-0.691-0.691c0-0.388,0.31-0.691,0.691-0.691c0.376,0,0.691,0.303,0.691,0.691
		C344.133,334.11,343.817,334.426,343.441,334.426z M343.441,301.23c-0.382,0-0.691-0.322-0.691-0.697
		c0-0.376,0.31-0.685,0.691-0.685c0.376,0,0.691,0.309,0.691,0.685C344.133,300.908,343.817,301.23,343.441,301.23z
		 M343.441,251.409c-0.382,0-0.691-0.309-0.691-0.691c0-0.376,0.31-0.691,0.691-0.691c0.376,0,0.691,0.315,0.691,0.691
		C344.133,251.105,343.817,251.409,343.441,251.409z M343.441,218.213c-0.382,0-0.691-0.315-0.691-0.691
		c0-0.382,0.31-0.691,0.691-0.691c0.376,0,0.691,0.309,0.691,0.691C344.133,217.898,343.817,218.213,343.441,218.213z
		 M343.441,168.398c-0.382,0-0.691-0.309-0.691-0.691c0-0.376,0.31-0.691,0.691-0.691c0.376,0,0.691,0.315,0.691,0.691
		C344.133,168.089,343.817,168.398,343.441,168.398z M343.441,135.19c-0.382,0-0.691-0.31-0.691-0.686
		c0-0.382,0.31-0.691,0.691-0.691c0.376,0,0.691,0.309,0.691,0.691C344.133,134.881,343.817,135.19,343.441,135.19z M346.2,331.661
		c-0.376,0-0.691-0.321-0.691-0.691c0-0.376,0.315-0.691,0.691-0.691c0.382,0,0.691,0.315,0.691,0.691
		C346.892,331.339,346.588,331.661,346.2,331.661z M346.2,303.989c-0.376,0-0.691-0.31-0.691-0.691c0-0.376,0.315-0.691,0.691-0.691
		c0.382,0,0.691,0.322,0.691,0.691C346.892,303.679,346.588,303.989,346.2,303.989z M346.2,248.65c-0.376,0-0.691-0.315-0.691-0.691
		c0-0.382,0.315-0.691,0.691-0.691c0.382,0,0.691,0.31,0.691,0.691C346.892,248.335,346.588,248.65,346.2,248.65z M346.2,220.972
		c-0.376,0-0.691-0.315-0.691-0.691c0-0.376,0.315-0.691,0.691-0.691c0.382,0,0.691,0.315,0.691,0.691
		C346.892,220.663,346.588,220.972,346.2,220.972z M346.2,165.633c-0.376,0-0.691-0.309-0.691-0.691
		c0-0.382,0.315-0.691,0.691-0.691c0.382,0,0.691,0.309,0.691,0.691C346.892,165.324,346.588,165.633,346.2,165.633z M346.2,137.961
		c-0.376,0-0.691-0.309-0.691-0.691c0-0.382,0.315-0.691,0.691-0.691c0.382,0,0.691,0.309,0.691,0.691
		C346.892,137.652,346.588,137.961,346.2,137.961z M348.965,328.89c-0.382,0-0.691-0.303-0.691-0.691
		c0-0.376,0.31-0.691,0.691-0.691s0.691,0.315,0.691,0.691C349.656,328.587,349.347,328.89,348.965,328.89z M348.971,306.759
		c-0.382,0-0.69-0.303-0.69-0.691c0-0.376,0.309-0.691,0.69-0.691c0.376,0,0.686,0.315,0.686,0.691
		C349.656,306.456,349.347,306.759,348.971,306.759z M348.965,245.879c-0.382,0-0.691-0.31-0.691-0.691s0.31-0.691,0.691-0.691
		s0.691,0.309,0.691,0.691S349.347,245.879,348.965,245.879z M348.971,223.736c-0.382,0-0.69-0.309-0.69-0.685
		c0-0.382,0.309-0.691,0.69-0.691c0.376,0,0.686,0.309,0.686,0.691C349.656,223.427,349.347,223.736,348.971,223.736z
		 M348.965,162.862c-0.382,0-0.691-0.309-0.691-0.691c0-0.382,0.31-0.691,0.691-0.691s0.691,0.309,0.691,0.691
		C349.656,162.553,349.347,162.862,348.965,162.862z M348.971,140.726c-0.382,0-0.69-0.315-0.69-0.691
		c0-0.382,0.309-0.691,0.69-0.691c0.376,0,0.686,0.309,0.686,0.691S349.347,140.726,348.971,140.726z M351.736,326.119
		c-0.383,0-0.691-0.303-0.691-0.679c0-0.388,0.309-0.691,0.691-0.691c0.382,0,0.69,0.303,0.69,0.691
		C352.427,325.816,352.118,326.119,351.736,326.119z M351.736,309.524c-0.376,0-0.691-0.315-0.691-0.691
		c0-0.388,0.315-0.691,0.691-0.691c0.382,0,0.69,0.303,0.69,0.691C352.427,309.209,352.118,309.524,351.736,309.524z
		 M351.736,243.114c-0.383,0-0.691-0.315-0.691-0.691c0-0.382,0.309-0.691,0.691-0.691c0.382,0,0.69,0.309,0.69,0.691
		C352.427,242.799,352.118,243.114,351.736,243.114z M351.736,226.507c-0.376,0-0.691-0.309-0.691-0.691s0.315-0.691,0.691-0.691
		c0.382,0,0.69,0.31,0.69,0.691S352.118,226.507,351.736,226.507z M351.736,160.092c-0.383,0-0.691-0.31-0.691-0.686
		c0-0.382,0.309-0.691,0.691-0.691c0.382,0,0.69,0.309,0.69,0.691C352.427,159.789,352.118,160.092,351.736,160.092z
		 M351.736,143.497c-0.376,0-0.691-0.309-0.691-0.691c0-0.376,0.315-0.691,0.691-0.691c0.382,0,0.69,0.315,0.69,0.691
		C352.427,143.188,352.118,143.497,351.736,143.497z M354.507,323.36c-0.382,0-0.691-0.315-0.691-0.691
		c0-0.388,0.31-0.691,0.691-0.691s0.691,0.303,0.691,0.691C355.198,323.045,354.889,323.36,354.507,323.36z M354.507,312.295
		c-0.382,0-0.691-0.315-0.691-0.691c0-0.388,0.31-0.691,0.691-0.691s0.691,0.303,0.691,0.691
		C355.198,311.98,354.889,312.295,354.507,312.295z M354.507,240.344c-0.382,0-0.691-0.31-0.691-0.691s0.31-0.685,0.691-0.685
		s0.691,0.303,0.691,0.685S354.889,240.344,354.507,240.344z M354.507,229.278c-0.382,0-0.691-0.309-0.691-0.691
		c0-0.382,0.31-0.691,0.691-0.691s0.691,0.309,0.691,0.691C355.198,228.969,354.889,229.278,354.507,229.278z M354.507,157.327
		c-0.382,0-0.691-0.309-0.691-0.691s0.31-0.691,0.691-0.691s0.691,0.31,0.691,0.691S354.889,157.327,354.507,157.327z
		 M354.507,146.262c-0.382,0-0.691-0.315-0.691-0.691c0-0.382,0.31-0.691,0.691-0.691s0.691,0.31,0.691,0.691
		C355.198,145.946,354.889,146.262,354.507,146.262z M360.036,320.589c-1.909,0-3.456-1.546-3.462-3.456
		c0-1.916,1.553-3.462,3.462-3.462c1.91,0,3.462,1.546,3.462,3.462C363.498,319.043,361.952,320.589,360.036,320.589z
		 M360.036,237.573c-1.909,0-3.456-1.546-3.462-3.456c0-1.904,1.553-3.456,3.462-3.456c1.91,0,3.462,1.546,3.462,3.456
		S361.952,237.573,360.036,237.573z M360.036,154.562c-1.909,0-3.456-1.546-3.462-3.456c0-1.916,1.553-3.462,3.462-3.462
		c1.91,0,3.462,1.546,3.462,3.462C363.498,153.01,361.952,154.562,360.036,154.562z M365.572,323.36
		c-0.382,0-0.691-0.315-0.691-0.691c0-0.388,0.31-0.691,0.691-0.691s0.691,0.303,0.691,0.691
		C366.264,323.045,365.954,323.36,365.572,323.36z M365.572,312.295c-0.382,0-0.691-0.315-0.691-0.691
		c0-0.388,0.31-0.691,0.691-0.691s0.691,0.303,0.691,0.691C366.264,311.98,365.954,312.295,365.572,312.295z M365.572,240.344
		c-0.382,0-0.691-0.31-0.691-0.691s0.31-0.685,0.691-0.685s0.691,0.303,0.691,0.685S365.954,240.344,365.572,240.344z
		 M365.572,229.278c-0.382,0-0.691-0.309-0.691-0.691c0-0.382,0.31-0.691,0.691-0.691s0.691,0.309,0.691,0.691
		C366.264,228.969,365.954,229.278,365.572,229.278z M365.572,157.327c-0.382,0-0.691-0.309-0.691-0.691s0.31-0.691,0.691-0.691
		s0.691,0.31,0.691,0.691S365.954,157.327,365.572,157.327z M365.572,146.262c-0.382,0-0.691-0.315-0.691-0.691
		c0-0.382,0.31-0.691,0.691-0.691s0.691,0.31,0.691,0.691C366.264,145.946,365.954,146.262,365.572,146.262z M368.343,326.119
		c-0.382,0-0.691-0.303-0.691-0.679c0-0.388,0.31-0.691,0.691-0.691c0.376,0,0.691,0.303,0.691,0.691
		C369.034,325.816,368.719,326.119,368.343,326.119z M368.343,309.524c-0.382,0-0.691-0.315-0.691-0.691
		c0-0.388,0.31-0.691,0.691-0.691c0.376,0,0.691,0.303,0.691,0.691C369.034,309.209,368.719,309.524,368.343,309.524z
		 M368.343,243.114c-0.382,0-0.691-0.315-0.691-0.691c0-0.382,0.31-0.691,0.691-0.691c0.376,0,0.691,0.309,0.691,0.691
		C369.034,242.799,368.719,243.114,368.343,243.114z M368.343,226.507c-0.382,0-0.691-0.309-0.691-0.691s0.31-0.691,0.691-0.691
		c0.376,0,0.691,0.31,0.691,0.691S368.719,226.507,368.343,226.507z M368.343,160.092c-0.382,0-0.691-0.31-0.691-0.686
		c0-0.382,0.31-0.691,0.691-0.691c0.376,0,0.691,0.309,0.691,0.691C369.034,159.789,368.719,160.092,368.343,160.092z
		 M368.343,143.497c-0.382,0-0.691-0.309-0.691-0.691c0-0.376,0.31-0.691,0.691-0.691c0.376,0,0.691,0.315,0.691,0.691
		C369.034,143.188,368.719,143.497,368.343,143.497z M371.107,328.89c-0.376,0-0.69-0.303-0.69-0.691
		c0-0.376,0.314-0.691,0.69-0.691s0.691,0.315,0.691,0.691C371.799,328.587,371.489,328.89,371.107,328.89z M371.107,306.759
		c-0.376,0-0.69-0.303-0.69-0.691c0-0.376,0.314-0.691,0.69-0.691s0.691,0.315,0.691,0.691
		C371.799,306.456,371.483,306.759,371.107,306.759z M371.107,245.879c-0.376,0-0.69-0.31-0.69-0.691s0.314-0.691,0.69-0.691
		s0.691,0.309,0.691,0.691S371.489,245.879,371.107,245.879z M371.107,223.736c-0.376,0-0.69-0.309-0.69-0.685
		c0-0.382,0.314-0.691,0.69-0.691s0.691,0.309,0.691,0.691C371.799,223.427,371.483,223.736,371.107,223.736z M371.107,162.862
		c-0.376,0-0.69-0.309-0.69-0.691c0-0.382,0.314-0.691,0.69-0.691s0.691,0.309,0.691,0.691
		C371.799,162.553,371.489,162.862,371.107,162.862z M371.107,140.726c-0.376,0-0.69-0.315-0.69-0.691
		c0-0.382,0.314-0.691,0.69-0.691s0.691,0.309,0.691,0.691S371.483,140.726,371.107,140.726z M373.872,331.661
		c-0.382,0-0.69-0.321-0.69-0.691c0-0.376,0.309-0.691,0.69-0.691c0.376,0,0.691,0.315,0.691,0.691
		C374.563,331.339,374.255,331.661,373.872,331.661z M373.182,303.292c0-0.376,0.309-0.691,0.685-0.691
		c0.382,0,0.691,0.321,0.691,0.691c0,0.382-0.31,0.691-0.691,0.691C373.49,303.989,373.182,303.679,373.182,303.292z
		 M373.872,248.65c-0.382,0-0.69-0.315-0.69-0.691c0-0.382,0.309-0.691,0.69-0.691c0.376,0,0.691,0.31,0.691,0.691
		C374.563,248.335,374.255,248.65,373.872,248.65z M373.182,220.281c0-0.376,0.309-0.691,0.685-0.691
		c0.382,0,0.691,0.315,0.691,0.691c0,0.375-0.31,0.691-0.691,0.691C373.49,220.972,373.182,220.663,373.182,220.281z
		 M373.872,165.633c-0.382,0-0.69-0.309-0.69-0.691c0-0.382,0.309-0.691,0.69-0.691c0.376,0,0.691,0.309,0.691,0.691
		C374.563,165.324,374.255,165.633,373.872,165.633z M376.638,334.426c-0.383,0-0.691-0.315-0.691-0.691
		c0-0.388,0.309-0.691,0.691-0.691c0.382,0,0.69,0.303,0.69,0.691C377.328,334.11,377.025,334.426,376.638,334.426z M376.638,301.23
		c-0.383,0-0.691-0.322-0.691-0.697c0-0.376,0.309-0.685,0.691-0.685c0.382,0,0.69,0.309,0.69,0.685
		C377.328,300.908,377.025,301.23,376.638,301.23z M376.638,251.409c-0.383,0-0.691-0.309-0.691-0.691
		c0-0.376,0.309-0.691,0.691-0.691c0.382,0,0.69,0.315,0.69,0.691C377.328,251.105,377.025,251.409,376.638,251.409z
		 M376.638,218.213c-0.383,0-0.691-0.315-0.691-0.691c0-0.382,0.309-0.691,0.691-0.691c0.382,0,0.69,0.309,0.69,0.691
		C377.328,217.898,377.025,218.213,376.638,218.213z M376.638,168.398c-0.383,0-0.691-0.309-0.691-0.691
		c0-0.376,0.309-0.691,0.691-0.691c0.382,0,0.69,0.315,0.69,0.691C377.328,168.089,377.025,168.398,376.638,168.398z
		 M376.638,135.19c-0.383,0-0.691-0.31-0.691-0.686c0-0.382,0.309-0.691,0.691-0.691c0.382,0,0.69,0.309,0.69,0.691
		C377.328,134.881,377.025,135.19,376.638,135.19z M379.408,337.196c-0.382,0-0.691-0.315-0.691-0.691
		c0-0.388,0.31-0.691,0.691-0.691s0.691,0.303,0.691,0.691C380.1,336.881,379.796,337.196,379.408,337.196z M379.408,298.459
		c-0.382,0-0.691-0.309-0.691-0.691c0-0.382,0.31-0.691,0.691-0.691c0.376,0,0.691,0.309,0.691,0.691
		C380.1,298.15,379.79,298.459,379.408,298.459z M379.408,254.18c-0.382,0-0.691-0.309-0.691-0.691c0-0.382,0.31-0.691,0.691-0.691
		s0.691,0.309,0.691,0.691C380.1,253.871,379.796,254.18,379.408,254.18z M379.408,215.442c-0.382,0-0.691-0.31-0.691-0.691
		c0-0.376,0.31-0.691,0.691-0.691c0.376,0,0.691,0.315,0.691,0.691C380.1,215.133,379.79,215.442,379.408,215.442z M379.408,171.163
		c-0.382,0-0.691-0.31-0.691-0.691s0.31-0.691,0.691-0.691s0.691,0.31,0.691,0.691C380.1,170.86,379.796,171.163,379.408,171.163z
		 M379.408,132.425c-0.382,0-0.691-0.309-0.691-0.691c0-0.382,0.31-0.691,0.691-0.691c0.376,0,0.691,0.309,0.691,0.691
		C380.1,132.116,379.79,132.425,379.408,132.425z M382.173,378.699c-0.376,0-0.691-0.304-0.691-0.691
		c0-0.376,0.315-0.691,0.691-0.691c0.382,0,0.691,0.315,0.691,0.691C382.864,378.396,382.561,378.699,382.173,378.699z
		 M382.173,339.955c-0.376,0-0.691-0.303-0.691-0.679c0-0.388,0.315-0.691,0.691-0.691c0.382,0,0.691,0.303,0.691,0.691
		C382.864,339.658,382.561,339.955,382.173,339.955z M382.173,295.688c-0.376,0-0.691-0.309-0.691-0.691
		c0-0.382,0.315-0.691,0.691-0.691c0.382,0,0.691,0.309,0.691,0.691C382.864,295.379,382.561,295.688,382.173,295.688z
		 M382.173,256.944c-0.376,0-0.691-0.309-0.691-0.691c0-0.376,0.315-0.685,0.691-0.685c0.382,0,0.691,0.309,0.691,0.685
		C382.864,256.635,382.561,256.944,382.173,256.944z M382.173,212.671c-0.376,0-0.691-0.309-0.691-0.685
		c0-0.382,0.315-0.691,0.691-0.691c0.382,0,0.691,0.31,0.691,0.691C382.864,212.362,382.561,212.671,382.173,212.671z
		 M382.173,173.934c-0.376,0-0.691-0.309-0.691-0.691c0-0.376,0.315-0.685,0.691-0.685c0.382,0,0.691,0.309,0.691,0.685
		C382.864,173.625,382.561,173.934,382.173,173.934z M382.173,129.654c-0.376,0-0.691-0.309-0.691-0.691
		c0-0.376,0.315-0.685,0.691-0.685c0.382,0,0.691,0.309,0.691,0.685C382.864,129.345,382.561,129.654,382.173,129.654z
		 M384.938,375.939c-0.376,0-0.685-0.314-0.685-0.69c0-0.388,0.309-0.691,0.685-0.691c0.382,0,0.691,0.304,0.691,0.691
		C385.635,375.625,385.326,375.939,384.938,375.939z M384.938,342.726c-0.376,0-0.685-0.303-0.685-0.691
		c0-0.375,0.309-0.691,0.685-0.691c0.382,0,0.691,0.315,0.691,0.691C385.635,342.429,385.326,342.726,384.938,342.726z
		 M384.938,292.917c-0.376,0-0.685-0.309-0.685-0.685c0-0.382,0.309-0.691,0.685-0.691c0.382,0,0.691,0.309,0.691,0.691
		C385.635,292.608,385.326,292.917,384.938,292.917z M384.938,259.715c-0.376,0-0.685-0.309-0.685-0.691
		c0-0.376,0.309-0.691,0.685-0.691c0.382,0,0.691,0.315,0.691,0.691C385.635,259.406,385.326,259.715,384.938,259.715z
		 M384.938,209.906c-0.376,0-0.685-0.309-0.685-0.691s0.309-0.691,0.685-0.691c0.382,0,0.691,0.309,0.691,0.691
		S385.326,209.906,384.938,209.906z M384.938,176.699c-0.376,0-0.685-0.309-0.685-0.691c0-0.382,0.309-0.691,0.685-0.691
		c0.382,0,0.691,0.309,0.691,0.691C385.635,176.39,385.326,176.699,384.938,176.699z M384.938,126.89
		c-0.376,0-0.685-0.309-0.685-0.691c0-0.382,0.309-0.691,0.685-0.691c0.382,0,0.691,0.309,0.691,0.691
		C385.635,126.581,385.326,126.89,384.938,126.89z M387.709,373.169c-0.383,0-0.691-0.315-0.691-0.69
		c0-0.377,0.309-0.691,0.691-0.691c0.376,0,0.685,0.314,0.685,0.691C388.394,372.854,388.091,373.169,387.709,373.169z
		 M387.709,345.491c-0.383,0-0.691-0.315-0.691-0.691s0.309-0.685,0.691-0.685c0.376,0,0.69,0.315,0.69,0.685
		C388.406,345.182,388.091,345.491,387.709,345.491z M387.018,289.467c0-0.382,0.309-0.691,0.691-0.691
		c0.376,0,0.685,0.31,0.685,0.691c0,0.376-0.309,0.685-0.685,0.685C387.326,290.152,387.018,289.843,387.018,289.467z
		 M387.709,262.486c-0.383,0-0.691-0.315-0.691-0.691c0-0.382,0.309-0.691,0.691-0.691c0.376,0,0.69,0.309,0.69,0.691
		C388.406,262.171,388.091,262.486,387.709,262.486z M387.018,206.444c0-0.376,0.309-0.685,0.691-0.685
		c0.376,0,0.685,0.309,0.685,0.685c0,0.382-0.309,0.691-0.685,0.691C387.326,207.136,387.018,206.826,387.018,206.444z
		 M387.709,179.47c-0.383,0-0.691-0.315-0.691-0.697c0-0.376,0.309-0.686,0.691-0.686c0.376,0,0.69,0.31,0.69,0.686
		C388.406,179.154,388.091,179.47,387.709,179.47z M390.474,370.398c-0.376,0-0.691-0.303-0.691-0.691
		c0-0.376,0.315-0.691,0.691-0.691c0.382,0,0.691,0.322,0.691,0.691C391.171,370.096,390.861,370.398,390.474,370.398z
		 M390.474,348.262c-0.376,0-0.686-0.315-0.686-0.691c0-0.375,0.31-0.691,0.686-0.691c0.382,0,0.691,0.315,0.691,0.691
		C391.165,347.946,390.861,348.262,390.474,348.262z M390.474,287.388c-0.376,0-0.691-0.315-0.691-0.691
		c0-0.382,0.315-0.691,0.691-0.691c0.382,0,0.691,0.309,0.691,0.691C391.171,287.072,390.861,287.388,390.474,287.388z
		 M390.474,265.251c-0.376,0-0.686-0.309-0.686-0.685c0-0.388,0.31-0.691,0.686-0.691c0.382,0,0.691,0.303,0.691,0.691
		C391.171,264.942,390.861,265.251,390.474,265.251z M390.474,204.377c-0.376,0-0.691-0.315-0.691-0.691
		c0-0.382,0.315-0.691,0.691-0.691c0.382,0,0.691,0.309,0.691,0.691C391.171,204.062,390.861,204.377,390.474,204.377z
		 M390.474,182.234c-0.376,0-0.686-0.31-0.686-0.691s0.31-0.691,0.686-0.691c0.382,0,0.691,0.309,0.691,0.691
		C391.171,181.925,390.861,182.234,390.474,182.234z M390.474,121.36c-0.376,0-0.691-0.315-0.691-0.691
		c0-0.382,0.315-0.691,0.691-0.691c0.382,0,0.691,0.31,0.691,0.691C391.171,121.045,390.861,121.36,390.474,121.36z
		 M393.244,367.633c-0.382,0-0.691-0.303-0.691-0.69c0-0.376,0.31-0.691,0.691-0.691c0.376,0,0.686,0.315,0.686,0.691
		C393.936,367.33,393.626,367.633,393.244,367.633z M393.244,351.033c-0.382,0-0.691-0.315-0.691-0.691
		c0-0.388,0.31-0.691,0.691-0.691c0.376,0,0.686,0.303,0.686,0.691C393.936,350.724,393.626,351.033,393.244,351.033z
		 M393.244,284.617c-0.382,0-0.691-0.309-0.691-0.691c0-0.382,0.31-0.691,0.691-0.691c0.376,0,0.686,0.309,0.686,0.691
		C393.93,284.308,393.626,284.617,393.244,284.617z M393.244,268.01c-0.382,0-0.691-0.309-0.691-0.685
		c0-0.382,0.31-0.691,0.691-0.691c0.376,0,0.686,0.31,0.686,0.691C393.936,267.701,393.626,268.01,393.244,268.01z M393.244,201.6
		c-0.382,0-0.691-0.309-0.691-0.691c0-0.376,0.31-0.691,0.691-0.691c0.376,0,0.686,0.315,0.686,0.691
		C393.936,201.297,393.626,201.6,393.244,201.6z M393.244,184.999c-0.382,0-0.691-0.309-0.691-0.685c0-0.382,0.31-0.691,0.691-0.691
		c0.376,0,0.686,0.31,0.686,0.691C393.936,184.69,393.626,184.999,393.244,184.999z M393.244,118.589
		c-0.382,0-0.691-0.309-0.691-0.691c0-0.375,0.31-0.691,0.691-0.691c0.376,0,0.686,0.315,0.686,0.691
		C393.936,118.28,393.626,118.589,393.244,118.589z M396.009,364.863c-0.382,0-0.69-0.304-0.69-0.691c0-0.377,0.309-0.68,0.69-0.68
		c0.376,0,0.686,0.303,0.686,0.68C396.7,364.56,396.391,364.863,396.009,364.863z M396.009,353.797c-0.382,0-0.69-0.303-0.69-0.691
		c0-0.376,0.309-0.691,0.69-0.691c0.376,0,0.686,0.315,0.686,0.691C396.7,353.494,396.391,353.797,396.009,353.797z
		 M396.009,281.846c-0.382,0-0.69-0.309-0.69-0.691c0-0.376,0.309-0.685,0.69-0.685c0.376,0,0.686,0.309,0.686,0.685
		C396.7,281.543,396.391,281.846,396.009,281.846z M396.009,270.781c-0.382,0-0.69-0.309-0.69-0.691c0-0.382,0.309-0.691,0.69-0.691
		c0.376,0,0.686,0.309,0.686,0.691C396.694,270.472,396.391,270.781,396.009,270.781z M396.009,198.835
		c-0.382,0-0.69-0.309-0.69-0.685c0-0.382,0.309-0.691,0.69-0.691c0.376,0,0.686,0.309,0.686,0.691
		C396.7,198.526,396.391,198.835,396.009,198.835z M396.009,187.77c-0.382,0-0.69-0.309-0.69-0.691c0-0.376,0.309-0.691,0.69-0.691
		c0.376,0,0.686,0.315,0.686,0.691C396.7,187.455,396.391,187.77,396.009,187.77z M396.009,115.818c-0.382,0-0.69-0.309-0.69-0.685
		c0-0.382,0.309-0.691,0.69-0.691c0.376,0,0.686,0.31,0.686,0.691C396.7,115.509,396.391,115.818,396.009,115.818z M401.545,362.104
		c-1.904,0-3.456-1.546-3.456-3.461c0-1.91,1.552-3.456,3.456-3.456c1.91,0,3.462,1.546,3.462,3.456
		C405.007,360.558,403.455,362.104,401.545,362.104z M401.545,279.087c-1.904,0-3.456-1.546-3.456-3.462
		c0-1.904,1.552-3.456,3.456-3.456c1.91,0,3.462,1.546,3.462,3.456C405.007,277.535,403.455,279.087,401.545,279.087z
		 M401.545,196.07c-1.904,0-3.456-1.546-3.456-3.462c0-1.91,1.552-3.456,3.456-3.456c1.91,0,3.462,1.546,3.462,3.456
		C405.007,194.524,403.455,196.07,401.545,196.07z M407.087,364.863c-0.383,0-0.691-0.304-0.691-0.691
		c0-0.377,0.309-0.68,0.691-0.68c0.376,0,0.685,0.303,0.685,0.68C407.771,364.56,407.456,364.863,407.087,364.863z M407.08,353.797
		c-0.376,0-0.685-0.303-0.685-0.691c0-0.376,0.309-0.691,0.685-0.691s0.691,0.315,0.691,0.691
		C407.771,353.494,407.456,353.797,407.08,353.797z M407.087,281.846c-0.383,0-0.691-0.309-0.691-0.691
		c0-0.376,0.309-0.685,0.691-0.685c0.376,0,0.685,0.309,0.685,0.685C407.771,281.543,407.456,281.846,407.087,281.846z
		 M407.08,270.781c-0.376,0-0.685-0.309-0.685-0.691c0-0.382,0.309-0.691,0.685-0.691s0.691,0.309,0.691,0.691
		C407.771,270.472,407.456,270.781,407.08,270.781z M407.087,198.835c-0.383,0-0.691-0.309-0.691-0.685
		c0-0.382,0.309-0.691,0.691-0.691c0.376,0,0.685,0.309,0.685,0.691C407.771,198.526,407.456,198.835,407.087,198.835z
		 M407.08,187.77c-0.376,0-0.685-0.309-0.685-0.691c0-0.376,0.309-0.691,0.685-0.691s0.691,0.315,0.691,0.691
		S407.456,187.77,407.08,187.77z M407.087,115.818c-0.383,0-0.691-0.309-0.691-0.685c0-0.382,0.309-0.691,0.691-0.691
		c0.376,0,0.685,0.31,0.685,0.691C407.771,115.509,407.456,115.818,407.087,115.818z M409.846,367.633
		c-0.376,0-0.691-0.303-0.691-0.69c0-0.376,0.315-0.691,0.691-0.691c0.382,0,0.69,0.315,0.69,0.691
		C410.536,367.33,410.228,367.633,409.846,367.633z M409.846,351.033c-0.376,0-0.691-0.315-0.691-0.691
		c0-0.388,0.315-0.691,0.691-0.691c0.382,0,0.69,0.303,0.69,0.691C410.536,350.724,410.228,351.033,409.846,351.033z
		 M409.846,284.617c-0.376,0-0.691-0.309-0.691-0.691c0-0.382,0.315-0.691,0.691-0.691c0.382,0,0.69,0.309,0.69,0.691
		C410.536,284.308,410.228,284.617,409.846,284.617z M409.846,268.01c-0.376,0-0.691-0.309-0.691-0.685
		c0-0.382,0.315-0.691,0.691-0.691c0.382,0,0.69,0.31,0.69,0.691C410.536,267.701,410.228,268.01,409.846,268.01z M409.846,201.6
		c-0.376,0-0.691-0.309-0.691-0.691c0-0.376,0.315-0.691,0.691-0.691c0.382,0,0.69,0.315,0.69,0.691
		C410.536,201.297,410.228,201.6,409.846,201.6z M409.846,184.999c-0.376,0-0.691-0.309-0.691-0.685
		c0-0.382,0.315-0.691,0.691-0.691c0.382,0,0.69,0.31,0.69,0.691C410.536,184.69,410.228,184.999,409.846,184.999z M409.846,118.589
		c-0.376,0-0.691-0.309-0.691-0.691c0-0.375,0.315-0.691,0.691-0.691c0.382,0,0.69,0.315,0.69,0.691
		C410.536,118.28,410.228,118.589,409.846,118.589z M412.616,370.398c-0.382,0-0.691-0.303-0.691-0.691
		c0-0.376,0.31-0.691,0.691-0.691s0.691,0.322,0.691,0.691C413.308,370.096,412.998,370.398,412.616,370.398z M412.616,348.262
		c-0.382,0-0.691-0.315-0.691-0.691c0-0.375,0.31-0.691,0.691-0.691s0.691,0.315,0.691,0.691
		C413.308,347.946,412.998,348.262,412.616,348.262z M412.616,287.388c-0.382,0-0.691-0.315-0.691-0.691
		c0-0.382,0.31-0.691,0.691-0.691s0.691,0.309,0.691,0.691C413.308,287.072,412.998,287.388,412.616,287.388z M412.616,265.251
		c-0.382,0-0.691-0.309-0.691-0.685c0-0.388,0.31-0.691,0.691-0.691s0.691,0.303,0.691,0.691
		C413.308,264.942,412.998,265.251,412.616,265.251z M412.616,204.377c-0.382,0-0.691-0.315-0.691-0.691
		c0-0.382,0.31-0.691,0.691-0.691s0.691,0.309,0.691,0.691C413.308,204.062,412.998,204.377,412.616,204.377z M412.616,182.234
		c-0.382,0-0.691-0.31-0.691-0.691s0.31-0.691,0.691-0.691s0.691,0.309,0.691,0.691S412.998,182.234,412.616,182.234z
		 M412.616,121.36c-0.382,0-0.691-0.315-0.691-0.691c0-0.382,0.31-0.691,0.691-0.691s0.691,0.31,0.691,0.691
		C413.308,121.045,412.998,121.36,412.616,121.36z M415.387,373.169c-0.382,0-0.691-0.315-0.691-0.69
		c0-0.377,0.31-0.691,0.691-0.691c0.376,0,0.686,0.314,0.686,0.691C416.072,372.854,415.763,373.169,415.387,373.169z
		 M415.387,345.491c-0.382,0-0.697-0.315-0.697-0.691s0.315-0.685,0.697-0.685c0.376,0,0.686,0.315,0.686,0.685
		C416.072,345.182,415.763,345.491,415.387,345.491z M415.387,290.152c-0.382,0-0.691-0.309-0.691-0.685
		c0-0.382,0.31-0.691,0.691-0.691c0.376,0,0.686,0.31,0.686,0.691C416.072,289.843,415.763,290.152,415.387,290.152z
		 M415.387,262.486c-0.382,0-0.697-0.315-0.697-0.691c0-0.382,0.315-0.691,0.697-0.691c0.376,0,0.686,0.309,0.686,0.691
		C416.072,262.171,415.763,262.486,415.387,262.486z M415.387,207.136c-0.382,0-0.691-0.31-0.691-0.691
		c0-0.376,0.31-0.685,0.691-0.685c0.376,0,0.686,0.309,0.686,0.685C416.072,206.826,415.763,207.136,415.387,207.136z
		 M415.387,179.47c-0.382,0-0.697-0.315-0.697-0.697c0-0.376,0.315-0.686,0.697-0.686c0.376,0,0.686,0.31,0.686,0.686
		C416.072,179.154,415.763,179.47,415.387,179.47z M415.387,124.125c-0.382,0-0.691-0.309-0.691-0.691
		c0-0.376,0.31-0.691,0.691-0.691c0.376,0,0.686,0.315,0.686,0.691C416.072,123.816,415.763,124.125,415.387,124.125z
		 M418.151,375.939c-0.382,0-0.69-0.314-0.69-0.69c0-0.388,0.309-0.691,0.69-0.691c0.376,0,0.686,0.304,0.686,0.691
		C418.837,375.625,418.527,375.939,418.151,375.939z M418.151,342.726c-0.382,0-0.69-0.303-0.69-0.691
		c0-0.375,0.309-0.691,0.69-0.691c0.376,0,0.686,0.315,0.686,0.691C418.837,342.429,418.527,342.726,418.151,342.726z
		 M418.151,292.917c-0.382,0-0.69-0.309-0.69-0.685c0-0.382,0.309-0.691,0.69-0.691c0.376,0,0.686,0.309,0.686,0.691
		C418.837,292.608,418.527,292.917,418.151,292.917z M418.151,259.715c-0.382,0-0.69-0.309-0.69-0.691
		c0-0.376,0.309-0.691,0.69-0.691c0.376,0,0.686,0.315,0.686,0.691C418.837,259.406,418.527,259.715,418.151,259.715z
		 M418.151,209.906c-0.382,0-0.69-0.309-0.69-0.691s0.309-0.691,0.69-0.691c0.376,0,0.686,0.309,0.686,0.691
		S418.527,209.906,418.151,209.906z M418.151,176.699c-0.382,0-0.69-0.309-0.69-0.691c0-0.382,0.309-0.691,0.69-0.691
		c0.376,0,0.686,0.309,0.686,0.691C418.837,176.39,418.527,176.699,418.151,176.699z M418.151,126.89
		c-0.382,0-0.69-0.309-0.69-0.691c0-0.382,0.309-0.691,0.69-0.691c0.376,0,0.686,0.309,0.686,0.691
		C418.837,126.581,418.527,126.89,418.151,126.89z M420.917,378.699c-0.376,0-0.691-0.304-0.691-0.691
		c0-0.376,0.315-0.691,0.691-0.691s0.685,0.315,0.685,0.691C421.602,378.396,421.293,378.699,420.917,378.699z M420.917,339.955
		c-0.383,0-0.691-0.303-0.691-0.679c0-0.388,0.309-0.691,0.691-0.691c0.376,0,0.685,0.303,0.685,0.691
		C421.602,339.658,421.293,339.955,420.917,339.955z M420.917,295.688c-0.376,0-0.691-0.309-0.691-0.691
		c0-0.382,0.315-0.691,0.691-0.691s0.685,0.309,0.685,0.691C421.602,295.379,421.293,295.688,420.917,295.688z M420.917,256.944
		c-0.383,0-0.691-0.309-0.691-0.691c0-0.376,0.309-0.685,0.691-0.685c0.376,0,0.685,0.309,0.685,0.685
		C421.602,256.635,421.293,256.944,420.917,256.944z M420.917,212.671c-0.376,0-0.691-0.309-0.691-0.685
		c0-0.382,0.315-0.691,0.691-0.691s0.685,0.31,0.685,0.691C421.602,212.362,421.293,212.671,420.917,212.671z M420.917,173.934
		c-0.383,0-0.691-0.309-0.691-0.691c0-0.376,0.309-0.685,0.691-0.685c0.376,0,0.685,0.309,0.685,0.685
		C421.602,173.625,421.293,173.934,420.917,173.934z M420.917,129.654c-0.376,0-0.691-0.309-0.691-0.691
		c0-0.376,0.315-0.685,0.691-0.685s0.685,0.309,0.685,0.685C421.602,129.345,421.293,129.654,420.917,129.654z M423.682,337.196
		c-0.382,0-0.691-0.315-0.691-0.691c0-0.388,0.31-0.691,0.691-0.691s0.69,0.303,0.69,0.691
		C424.373,336.881,424.063,337.196,423.682,337.196z M423.682,298.459c-0.382,0-0.691-0.309-0.691-0.691
		c0-0.382,0.31-0.691,0.691-0.691s0.69,0.309,0.69,0.691C424.372,298.15,424.063,298.459,423.682,298.459z M423.682,254.18
		c-0.382,0-0.691-0.309-0.691-0.691c0-0.382,0.31-0.691,0.691-0.691s0.69,0.309,0.69,0.691
		C424.372,253.871,424.063,254.18,423.682,254.18z M423.682,215.442c-0.382,0-0.691-0.31-0.691-0.691
		c0-0.376,0.31-0.691,0.691-0.691s0.69,0.315,0.69,0.691C424.373,215.133,424.063,215.442,423.682,215.442z M423.682,171.163
		c-0.382,0-0.691-0.31-0.691-0.691s0.31-0.691,0.691-0.691s0.69,0.31,0.69,0.691C424.373,170.86,424.063,171.163,423.682,171.163z
		 M423.682,132.425c-0.382,0-0.691-0.309-0.691-0.691c0-0.382,0.31-0.691,0.691-0.691s0.69,0.309,0.69,0.691
		C424.373,132.116,424.063,132.425,423.682,132.425z M426.452,334.426c-0.382,0-0.697-0.315-0.697-0.691
		c0-0.388,0.315-0.691,0.697-0.691c0.376,0,0.686,0.303,0.686,0.691C427.138,334.11,426.828,334.426,426.452,334.426z
		 M426.452,301.23c-0.382,0-0.691-0.322-0.691-0.697c0-0.376,0.31-0.685,0.691-0.685c0.376,0,0.691,0.309,0.691,0.685
		C427.144,300.908,426.828,301.23,426.452,301.23z M426.452,218.213c-0.382,0-0.691-0.315-0.691-0.691
		c0-0.382,0.31-0.691,0.691-0.691c0.376,0,0.691,0.309,0.691,0.691C427.144,217.898,426.828,218.213,426.452,218.213z
		 M425.755,167.707c0-0.376,0.315-0.691,0.697-0.691c0.376,0,0.686,0.315,0.686,0.691c0,0.382-0.31,0.691-0.686,0.691
		C426.064,168.398,425.755,168.089,425.755,167.707z M426.452,135.19c-0.382,0-0.691-0.31-0.691-0.686
		c0-0.382,0.31-0.691,0.691-0.691c0.376,0,0.691,0.309,0.691,0.691C427.144,134.881,426.828,135.19,426.452,135.19z
		 M429.217,331.661c-0.382,0-0.691-0.321-0.691-0.691c0-0.376,0.31-0.691,0.691-0.691s0.691,0.315,0.691,0.691
		C429.908,331.339,429.599,331.661,429.217,331.661z M429.217,303.989c-0.382,0-0.691-0.31-0.691-0.691
		c0-0.376,0.31-0.691,0.691-0.691s0.691,0.322,0.691,0.691C429.908,303.679,429.599,303.989,429.217,303.989z M429.217,248.65
		c-0.382,0-0.691-0.315-0.691-0.691c0-0.382,0.31-0.691,0.691-0.691s0.691,0.31,0.691,0.691
		C429.908,248.335,429.599,248.65,429.217,248.65z M429.217,220.972c-0.382,0-0.691-0.315-0.691-0.691
		c0-0.376,0.31-0.691,0.691-0.691s0.691,0.315,0.691,0.691C429.908,220.663,429.599,220.972,429.217,220.972z M429.217,165.633
		c-0.382,0-0.691-0.309-0.691-0.691c0-0.382,0.31-0.691,0.691-0.691s0.691,0.309,0.691,0.691
		C429.908,165.324,429.599,165.633,429.217,165.633z M429.217,137.961c-0.382,0-0.691-0.309-0.691-0.691
		c0-0.382,0.31-0.691,0.691-0.691s0.691,0.309,0.691,0.691C429.908,137.652,429.599,137.961,429.217,137.961z M431.981,328.89
		c-0.376,0-0.685-0.303-0.685-0.691c0-0.376,0.309-0.691,0.685-0.691s0.697,0.315,0.697,0.691
		C432.679,328.587,432.364,328.89,431.981,328.89z M431.988,306.759c-0.383,0-0.691-0.303-0.691-0.691
		c0-0.376,0.309-0.691,0.691-0.691c0.376,0,0.69,0.315,0.69,0.691C432.679,306.456,432.37,306.759,431.988,306.759z
		 M431.981,245.879c-0.376,0-0.685-0.31-0.685-0.691s0.309-0.691,0.685-0.691s0.697,0.309,0.697,0.691
		S432.364,245.879,431.981,245.879z M431.988,223.736c-0.383,0-0.691-0.309-0.691-0.685c0-0.382,0.309-0.691,0.691-0.691
		c0.376,0,0.69,0.309,0.69,0.691C432.679,223.427,432.37,223.736,431.988,223.736z M431.981,162.862
		c-0.376,0-0.685-0.309-0.685-0.691c0-0.382,0.309-0.691,0.685-0.691s0.697,0.309,0.697,0.691
		C432.679,162.553,432.364,162.862,431.981,162.862z M431.988,140.726c-0.383,0-0.691-0.315-0.691-0.691
		c0-0.382,0.309-0.691,0.691-0.691c0.376,0,0.69,0.309,0.69,0.691S432.37,140.726,431.988,140.726z M434.747,326.119
		c-0.376,0-0.691-0.303-0.691-0.679c0-0.388,0.315-0.691,0.691-0.691c0.382,0,0.69,0.303,0.69,0.691
		C435.438,325.816,435.135,326.119,434.747,326.119z M434.747,309.524c-0.376,0-0.691-0.315-0.691-0.691
		c0-0.388,0.321-0.691,0.691-0.691c0.382,0,0.69,0.303,0.69,0.691C435.438,309.209,435.135,309.524,434.747,309.524z
		 M434.747,243.114c-0.376,0-0.691-0.315-0.691-0.691c0-0.382,0.315-0.691,0.691-0.691c0.382,0,0.69,0.309,0.69,0.691
		C435.438,242.799,435.135,243.114,434.747,243.114z M434.747,226.507c-0.376,0-0.691-0.309-0.691-0.691s0.321-0.691,0.691-0.691
		c0.382,0,0.69,0.31,0.69,0.691S435.135,226.507,434.747,226.507z M434.747,160.092c-0.376,0-0.691-0.31-0.691-0.686
		c0-0.382,0.315-0.691,0.691-0.691c0.382,0,0.69,0.309,0.69,0.691C435.438,159.789,435.135,160.092,434.747,160.092z
		 M434.747,143.497c-0.376,0-0.691-0.309-0.691-0.691c0-0.376,0.321-0.691,0.691-0.691c0.382,0,0.69,0.315,0.69,0.691
		C435.438,143.188,435.135,143.497,434.747,143.497z M437.518,323.36c-0.382,0-0.691-0.315-0.691-0.691
		c0-0.388,0.31-0.691,0.691-0.691s0.691,0.303,0.691,0.691C438.209,323.045,437.905,323.36,437.518,323.36z M437.518,312.295
		c-0.382,0-0.691-0.315-0.691-0.691c0-0.388,0.31-0.691,0.691-0.691s0.691,0.303,0.691,0.691
		C438.209,311.98,437.905,312.295,437.518,312.295z M437.518,240.344c-0.382,0-0.691-0.31-0.691-0.691s0.31-0.685,0.691-0.685
		s0.691,0.303,0.691,0.685S437.905,240.344,437.518,240.344z M437.518,229.278c-0.382,0-0.691-0.309-0.691-0.691
		c0-0.382,0.31-0.691,0.691-0.691s0.691,0.309,0.691,0.691C438.209,228.969,437.905,229.278,437.518,229.278z M437.518,157.327
		c-0.382,0-0.691-0.309-0.691-0.691s0.31-0.691,0.691-0.691s0.691,0.31,0.691,0.691S437.905,157.327,437.518,157.327z
		 M437.518,146.262c-0.382,0-0.691-0.315-0.691-0.691c0-0.382,0.31-0.691,0.691-0.691s0.691,0.31,0.691,0.691
		C438.209,145.946,437.905,146.262,437.518,146.262z M443.053,320.589c-1.903,0-3.455-1.546-3.455-3.456
		c0-1.916,1.552-3.462,3.455-3.462c1.904,0,3.45,1.546,3.45,3.462C446.509,319.043,444.963,320.589,443.053,320.589z
		 M443.053,237.573c-1.903,0-3.455-1.546-3.455-3.456s1.552-3.456,3.455-3.456c1.904,0,3.45,1.546,3.45,3.456
		S444.963,237.573,443.053,237.573z M443.053,154.562c-1.903,0-3.455-1.546-3.455-3.456c0-1.916,1.552-3.462,3.455-3.462
		c1.904,0,3.45,1.546,3.45,3.462C446.509,153.01,444.963,154.562,443.053,154.562z M448.583,323.36
		c-0.382,0-0.691-0.315-0.691-0.691c0-0.388,0.31-0.691,0.691-0.691s0.69,0.303,0.69,0.691
		C449.28,323.045,448.971,323.36,448.583,323.36z M448.583,312.295c-0.382,0-0.691-0.315-0.691-0.691
		c0-0.388,0.31-0.691,0.691-0.691s0.69,0.303,0.69,0.691C449.28,311.98,448.971,312.295,448.583,312.295z M448.583,240.344
		c-0.382,0-0.691-0.31-0.691-0.691s0.31-0.685,0.691-0.685s0.69,0.303,0.69,0.685S448.971,240.344,448.583,240.344z
		 M448.583,229.278c-0.382,0-0.691-0.309-0.691-0.691c0-0.382,0.31-0.691,0.691-0.691s0.69,0.309,0.69,0.691
		C449.273,228.969,448.971,229.278,448.583,229.278z M451.354,326.119c-0.382,0-0.691-0.303-0.691-0.679
		c0-0.388,0.31-0.691,0.691-0.691c0.376,0,0.686,0.303,0.686,0.691C452.045,325.816,451.735,326.119,451.354,326.119z
		 M451.348,309.524c-0.376,0-0.686-0.315-0.686-0.691c0-0.388,0.31-0.691,0.686-0.691c0.382,0,0.691,0.303,0.691,0.691
		C452.045,309.209,451.735,309.524,451.348,309.524z M451.354,243.114c-0.382,0-0.691-0.315-0.691-0.691
		c0-0.382,0.31-0.691,0.691-0.691c0.376,0,0.686,0.309,0.686,0.691C452.045,242.799,451.735,243.114,451.354,243.114z
		 M451.348,226.507c-0.376,0-0.686-0.309-0.686-0.691s0.31-0.691,0.686-0.691c0.382,0,0.691,0.31,0.691,0.691
		C452.045,226.198,451.735,226.507,451.348,226.507z M454.118,328.89c-0.376,0-0.691-0.303-0.691-0.691
		c0-0.376,0.315-0.691,0.691-0.691c0.382,0,0.691,0.315,0.691,0.691C454.815,328.587,454.507,328.89,454.118,328.89z
		 M454.118,306.759c-0.382,0-0.691-0.303-0.691-0.691c0-0.376,0.31-0.691,0.691-0.691s0.691,0.315,0.691,0.691
		C454.815,306.456,454.507,306.759,454.118,306.759z M454.118,245.879c-0.376,0-0.691-0.31-0.691-0.691s0.315-0.691,0.691-0.691
		c0.382,0,0.691,0.309,0.691,0.691S454.507,245.879,454.118,245.879z M454.118,223.736c-0.382,0-0.691-0.309-0.691-0.685
		c0-0.382,0.31-0.691,0.691-0.691s0.691,0.309,0.691,0.691C454.815,223.427,454.507,223.736,454.118,223.736z M456.89,331.661
		c-0.383,0-0.691-0.321-0.691-0.691c0-0.376,0.309-0.691,0.691-0.691c0.376,0,0.69,0.315,0.69,0.691
		C457.587,331.339,457.266,331.661,456.89,331.661z M456.198,303.292c0-0.376,0.309-0.691,0.691-0.691
		c0.376,0,0.679,0.321,0.679,0.691c0,0.382-0.31,0.691-0.679,0.691C456.507,303.989,456.198,303.679,456.198,303.292z
		 M456.89,248.65c-0.383,0-0.691-0.315-0.691-0.691c0-0.382,0.309-0.691,0.691-0.691c0.376,0,0.69,0.31,0.69,0.691
		C457.587,248.335,457.266,248.65,456.89,248.65z M459.654,334.426c-0.376,0-0.686-0.315-0.686-0.691
		c0-0.388,0.315-0.691,0.686-0.691c0.382,0,0.691,0.303,0.691,0.691C460.346,334.11,460.036,334.426,459.654,334.426z
		 M459.654,301.23c-0.376,0-0.691-0.322-0.691-0.697c0-0.376,0.321-0.685,0.691-0.685c0.382,0,0.691,0.309,0.691,0.685
		C460.346,300.908,460.036,301.23,459.654,301.23z M459.654,251.409c-0.376,0-0.686-0.309-0.686-0.691
		c0-0.376,0.315-0.691,0.686-0.691c0.382,0,0.691,0.315,0.691,0.691C460.346,251.105,460.036,251.409,459.654,251.409z
		 M459.654,218.213c-0.376,0-0.691-0.315-0.691-0.691c0-0.382,0.321-0.691,0.691-0.691c0.382,0,0.691,0.309,0.691,0.691
		C460.346,217.898,460.036,218.213,459.654,218.213z M462.425,337.196c-0.382,0-0.691-0.315-0.691-0.691
		c0-0.388,0.31-0.691,0.691-0.691s0.691,0.303,0.691,0.691C463.116,336.881,462.807,337.196,462.425,337.196z M462.425,298.459
		c-0.382,0-0.691-0.309-0.691-0.691c0-0.382,0.31-0.691,0.691-0.691s0.691,0.309,0.691,0.691
		C463.116,298.15,462.807,298.459,462.425,298.459z M462.425,254.18c-0.382,0-0.691-0.309-0.691-0.691
		c0-0.382,0.31-0.691,0.691-0.691s0.691,0.309,0.691,0.691C463.116,253.871,462.807,254.18,462.425,254.18z M462.425,215.442
		c-0.382,0-0.691-0.31-0.691-0.691c0-0.376,0.31-0.691,0.691-0.691s0.691,0.315,0.691,0.691
		C463.116,215.133,462.807,215.442,462.425,215.442z M467.961,208.524c0.376,0,0.685,0.31,0.685,0.691s-0.315,0.691-0.685,0.691
		c-0.383,0-0.691-0.309-0.691-0.691S467.572,208.524,467.961,208.524z M465.195,378.699c-0.382,0-0.69-0.304-0.69-0.691
		c0-0.376,0.309-0.691,0.69-0.691c0.376,0,0.686,0.315,0.686,0.691C465.881,378.396,465.571,378.699,465.195,378.699z
		 M465.195,339.955c-0.382,0-0.69-0.303-0.69-0.679c0-0.388,0.309-0.691,0.69-0.691c0.376,0,0.686,0.303,0.686,0.691
		C465.881,339.658,465.571,339.955,465.195,339.955z M465.195,295.688c-0.382,0-0.69-0.309-0.69-0.691
		c0-0.382,0.309-0.691,0.69-0.691c0.376,0,0.686,0.309,0.686,0.691C465.881,295.379,465.571,295.688,465.195,295.688z
		 M465.195,256.944c-0.382,0-0.69-0.309-0.69-0.691c0-0.376,0.309-0.685,0.69-0.685c0.376,0,0.686,0.309,0.686,0.685
		C465.881,256.635,465.571,256.944,465.195,256.944z M465.195,212.671c-0.382,0-0.69-0.309-0.69-0.685
		c0-0.382,0.309-0.691,0.69-0.691c0.376,0,0.686,0.31,0.686,0.691C465.881,212.362,465.571,212.671,465.195,212.671z
		 M467.961,375.939c-0.383,0-0.691-0.314-0.691-0.69c0-0.388,0.309-0.691,0.691-0.691c0.376,0,0.685,0.304,0.685,0.691
		C468.646,375.625,468.33,375.939,467.961,375.939z M467.961,342.726c-0.383,0-0.691-0.303-0.691-0.691
		c0-0.375,0.309-0.691,0.691-0.691c0.376,0,0.69,0.315,0.69,0.691C468.651,342.429,468.33,342.726,467.961,342.726z
		 M467.264,292.226c0-0.382,0.309-0.691,0.69-0.691c0.376,0,0.686,0.31,0.686,0.691c0,0.376-0.315,0.685-0.686,0.685
		C467.572,292.917,467.264,292.608,467.264,292.226z M467.961,259.715c-0.383,0-0.691-0.309-0.691-0.691
		c0-0.376,0.309-0.691,0.691-0.691c0.376,0,0.69,0.315,0.69,0.691C468.651,259.406,468.33,259.715,467.961,259.715z M470.72,373.169
		c-0.376,0-0.691-0.315-0.691-0.69c0-0.377,0.315-0.691,0.691-0.691c0.382,0,0.69,0.314,0.69,0.691
		C471.41,372.854,471.102,373.169,470.72,373.169z M470.72,345.491c-0.376,0-0.691-0.315-0.691-0.691s0.315-0.685,0.691-0.685
		c0.382,0,0.69,0.315,0.69,0.685C471.41,345.182,471.102,345.491,470.72,345.491z M470.72,290.152c-0.376,0-0.691-0.309-0.691-0.685
		c0-0.382,0.315-0.691,0.691-0.691c0.382,0,0.69,0.31,0.69,0.691C471.41,289.843,471.102,290.152,470.72,290.152z M470.72,262.486
		c-0.376,0-0.691-0.315-0.691-0.691c0-0.382,0.315-0.691,0.691-0.691c0.382,0,0.69,0.309,0.69,0.691
		C471.41,262.171,471.102,262.486,470.72,262.486z M470.72,207.136c-0.376,0-0.691-0.31-0.691-0.691
		c0-0.376,0.315-0.685,0.691-0.685c0.382,0,0.69,0.309,0.69,0.685C471.41,206.826,471.102,207.136,470.72,207.136z M473.49,370.398
		c-0.382,0-0.691-0.303-0.691-0.691c0-0.376,0.31-0.691,0.691-0.691c0.376,0,0.691,0.322,0.691,0.691
		C474.182,370.096,473.866,370.398,473.49,370.398z M473.49,348.262c-0.382,0-0.691-0.315-0.691-0.691
		c0-0.375,0.31-0.691,0.691-0.691s0.691,0.315,0.691,0.691C474.182,347.946,473.872,348.262,473.49,348.262z M473.49,287.388
		c-0.382,0-0.691-0.315-0.691-0.691c0-0.382,0.31-0.691,0.691-0.691c0.376,0,0.691,0.309,0.691,0.691
		C474.182,287.072,473.866,287.388,473.49,287.388z M473.49,265.251c-0.382,0-0.691-0.309-0.691-0.685
		c0-0.388,0.31-0.691,0.691-0.691s0.691,0.303,0.691,0.691C474.182,264.942,473.872,265.251,473.49,265.251z M473.49,204.377
		c-0.382,0-0.691-0.315-0.691-0.691c0-0.382,0.31-0.691,0.691-0.691c0.376,0,0.691,0.309,0.691,0.691
		C474.182,204.062,473.866,204.377,473.49,204.377z M476.255,367.633c-0.376,0-0.685-0.303-0.685-0.69
		c0-0.376,0.309-0.691,0.685-0.691c0.382,0,0.691,0.315,0.691,0.691C476.946,367.33,476.637,367.633,476.255,367.633z
		 M476.261,351.033c-0.382,0-0.69-0.315-0.69-0.691c0-0.388,0.309-0.691,0.69-0.691c0.376,0,0.686,0.303,0.686,0.691
		C476.946,350.724,476.637,351.033,476.261,351.033z M476.255,284.617c-0.376,0-0.685-0.309-0.685-0.691
		c0-0.382,0.309-0.691,0.685-0.691c0.382,0,0.691,0.309,0.691,0.691C476.946,284.308,476.637,284.617,476.255,284.617z
		 M476.261,268.01c-0.382,0-0.69-0.309-0.69-0.685c0-0.382,0.309-0.691,0.69-0.691c0.376,0,0.686,0.31,0.686,0.691
		C476.946,267.701,476.637,268.01,476.261,268.01z M476.255,201.6c-0.376,0-0.685-0.309-0.685-0.691
		c0-0.376,0.309-0.691,0.685-0.691c0.382,0,0.691,0.315,0.691,0.691C476.946,201.297,476.637,201.6,476.255,201.6z M479.025,364.863
		c-0.382,0-0.69-0.304-0.69-0.691c0-0.377,0.309-0.68,0.69-0.68c0.383,0,0.691,0.303,0.691,0.68
		C479.717,364.56,479.408,364.863,479.025,364.863z M479.025,353.797c-0.375,0-0.69-0.303-0.69-0.691
		c0-0.376,0.315-0.691,0.69-0.691c0.383,0,0.691,0.315,0.691,0.691C479.717,353.494,479.408,353.797,479.025,353.797z
		 M479.025,281.846c-0.382,0-0.69-0.309-0.69-0.691c0-0.376,0.309-0.685,0.69-0.685c0.383,0,0.691,0.309,0.691,0.685
		C479.717,281.543,479.408,281.846,479.025,281.846z M479.025,270.781c-0.375,0-0.69-0.309-0.69-0.691
		c0-0.382,0.315-0.691,0.69-0.691c0.383,0,0.691,0.309,0.691,0.691C479.717,270.472,479.408,270.781,479.025,270.781z
		 M479.025,198.835c-0.382,0-0.69-0.309-0.69-0.685c0-0.382,0.309-0.691,0.69-0.691c0.383,0,0.691,0.309,0.691,0.691
		C479.717,198.526,479.408,198.835,479.025,198.835z M484.562,362.104c-1.91,0-3.456-1.546-3.456-3.461
		c0-1.91,1.546-3.456,3.456-3.456s3.456,1.546,3.456,3.456C488.018,360.558,486.472,362.104,484.562,362.104z M484.562,279.087
		c-1.91,0-3.456-1.546-3.456-3.462c0-1.904,1.546-3.456,3.456-3.456s3.456,1.546,3.456,3.456
		C488.018,277.535,486.472,279.087,484.562,279.087z M490.098,364.863c-0.383,0-0.691-0.304-0.691-0.691
		c0-0.377,0.309-0.68,0.691-0.68c0.375,0,0.685,0.303,0.685,0.68C490.782,364.56,490.479,364.863,490.098,364.863z M490.098,353.797
		c-0.383,0-0.691-0.303-0.691-0.691c0-0.376,0.309-0.691,0.691-0.691c0.375,0,0.685,0.315,0.685,0.691
		C490.782,353.494,490.479,353.797,490.098,353.797z M490.098,281.846c-0.383,0-0.691-0.309-0.691-0.691
		c0-0.376,0.309-0.685,0.691-0.685c0.375,0,0.685,0.309,0.685,0.685C490.782,281.543,490.479,281.846,490.098,281.846z
		 M490.098,270.781c-0.383,0-0.691-0.309-0.691-0.691c0-0.382,0.309-0.691,0.691-0.691c0.375,0,0.685,0.309,0.685,0.691
		C490.782,270.472,490.479,270.781,490.098,270.781z M492.862,367.633c-0.382,0-0.691-0.303-0.691-0.69
		c0-0.376,0.31-0.691,0.691-0.691c0.376,0,0.69,0.315,0.69,0.691C493.553,367.33,493.238,367.633,492.862,367.633z M492.171,350.341
		c0-0.388,0.31-0.691,0.691-0.691c0.376,0,0.685,0.303,0.685,0.691c0,0.376-0.315,0.691-0.685,0.691
		C492.48,351.033,492.171,350.724,492.171,350.341z M492.862,284.617c-0.382,0-0.691-0.309-0.691-0.691
		c0-0.382,0.31-0.691,0.691-0.691c0.376,0,0.69,0.309,0.69,0.691C493.553,284.308,493.238,284.617,492.862,284.617z
		 M495.621,370.398c-0.376,0-0.68-0.303-0.68-0.691c0-0.376,0.31-0.691,0.68-0.691c0.382,0,0.69,0.322,0.69,0.691
		C496.312,370.096,496.009,370.398,495.621,370.398z M495.621,348.262c-0.376,0-0.691-0.315-0.691-0.691
		c0-0.375,0.321-0.691,0.691-0.691c0.382,0,0.69,0.315,0.69,0.691C496.312,347.946,496.009,348.262,495.621,348.262z
		 M495.621,287.388c-0.376,0-0.68-0.315-0.68-0.691c0-0.382,0.31-0.691,0.68-0.691c0.382,0,0.69,0.309,0.69,0.691
		C496.312,287.072,496.009,287.388,495.621,287.388z M498.392,373.169c-0.382,0-0.691-0.315-0.691-0.69
		c0-0.377,0.31-0.691,0.691-0.691s0.691,0.314,0.691,0.691C499.083,372.854,498.779,373.169,498.392,373.169z M498.392,345.491
		c-0.382,0-0.691-0.315-0.691-0.691s0.31-0.685,0.691-0.685s0.691,0.315,0.691,0.685
		C499.083,345.182,498.779,345.491,498.392,345.491z M498.392,290.152c-0.382,0-0.691-0.309-0.691-0.685
		c0-0.382,0.31-0.691,0.691-0.691s0.691,0.31,0.691,0.691C499.083,289.843,498.779,290.152,498.392,290.152z M501.162,375.939
		c-0.382,0-0.69-0.314-0.69-0.69c0-0.388,0.309-0.691,0.69-0.691c0.383,0,0.691,0.304,0.691,0.691
		C501.854,375.625,501.551,375.939,501.162,375.939z M501.162,342.726c-0.382,0-0.69-0.303-0.69-0.691
		c0-0.375,0.309-0.691,0.69-0.691c0.376,0,0.691,0.315,0.691,0.691C501.854,342.429,501.545,342.726,501.162,342.726z
		 M501.162,292.917c-0.382,0-0.69-0.309-0.69-0.685c0-0.382,0.309-0.691,0.69-0.691c0.383,0,0.691,0.309,0.691,0.691
		C501.854,292.608,501.551,292.917,501.162,292.917z M503.928,378.699c-0.376,0-0.686-0.304-0.686-0.691
		c0-0.376,0.31-0.691,0.686-0.691c0.382,0,0.69,0.315,0.69,0.691C504.625,378.396,504.315,378.699,503.928,378.699z
		 M503.928,339.955c-0.376,0-0.691-0.303-0.691-0.679c0-0.388,0.315-0.691,0.691-0.691c0.382,0,0.69,0.303,0.69,0.691
		C504.625,339.658,504.315,339.955,503.928,339.955z M503.928,295.688c-0.376,0-0.686-0.309-0.686-0.691
		c0-0.382,0.31-0.691,0.686-0.691c0.382,0,0.69,0.309,0.69,0.691C504.618,295.379,504.315,295.688,503.928,295.688z
		 M506.698,337.196c-0.382,0-0.691-0.315-0.691-0.691c0-0.388,0.31-0.691,0.691-0.691c0.376,0,0.685,0.303,0.685,0.691
		C507.39,336.881,507.08,337.196,506.698,337.196z M506.698,298.459c-0.382,0-0.691-0.309-0.691-0.691
		c0-0.382,0.31-0.691,0.691-0.691c0.376,0,0.685,0.309,0.685,0.691C507.383,298.15,507.08,298.459,506.698,298.459z
		 M509.463,334.426c-0.382,0-0.691-0.315-0.691-0.691c0-0.388,0.31-0.691,0.691-0.691c0.376,0,0.691,0.303,0.691,0.691
		C510.16,334.11,509.845,334.426,509.463,334.426z M509.463,301.23c-0.382,0-0.691-0.322-0.691-0.697
		c0-0.376,0.31-0.685,0.691-0.685s0.691,0.309,0.691,0.685C510.154,300.908,509.851,301.23,509.463,301.23z M512.228,331.661
		c-0.376,0-0.691-0.321-0.691-0.691c0-0.376,0.315-0.691,0.691-0.691c0.382,0,0.691,0.315,0.691,0.691
		C512.925,331.339,512.615,331.661,512.228,331.661z M512.228,303.989c-0.376,0-0.691-0.31-0.691-0.691
		c0-0.376,0.315-0.691,0.691-0.691c0.382,0,0.691,0.322,0.691,0.691C512.925,303.679,512.615,303.989,512.228,303.989z
		 M514.999,328.89c-0.383,0-0.691-0.303-0.691-0.691c0-0.376,0.309-0.691,0.691-0.691c0.376,0,0.685,0.315,0.685,0.691
		C515.689,328.587,515.381,328.89,514.999,328.89z M514.999,306.759c-0.383,0-0.691-0.303-0.691-0.691
		c0-0.376,0.309-0.691,0.691-0.691c0.376,0,0.685,0.315,0.685,0.691C515.689,306.456,515.381,306.759,514.999,306.759z
		 M517.77,326.119c-0.382,0-0.691-0.303-0.691-0.679c0-0.388,0.31-0.691,0.691-0.691c0.376,0,0.691,0.303,0.691,0.691
		C518.461,325.816,518.146,326.119,517.77,326.119z M517.77,309.524c-0.382,0-0.691-0.315-0.691-0.691
		c0-0.388,0.31-0.691,0.691-0.691c0.376,0,0.691,0.303,0.691,0.691C518.461,309.209,518.146,309.524,517.77,309.524z
		 M520.534,323.36c-0.376,0-0.697-0.315-0.697-0.691c0-0.388,0.321-0.691,0.697-0.691s0.686,0.303,0.686,0.691
		C521.22,323.045,520.91,323.36,520.534,323.36z M520.534,312.295c-0.376,0-0.697-0.315-0.697-0.691
		c0-0.388,0.321-0.691,0.697-0.691s0.691,0.303,0.691,0.691C521.226,311.98,520.91,312.295,520.534,312.295z M526.07,317.133v3.456
		c-1.91,0-3.463-1.546-3.463-3.456c0-1.916,1.553-3.462,3.463-3.462V317.133z"/>
</g>
</svg>
