<?xml version="1.0" encoding="utf-8"?>
<!-- Generator: Adobe Illustrator 16.0.0, SVG Export Plug-In . SVG Version: 6.00 Build 0)  -->
<!DOCTYPE svg PUBLIC "-//W3C//DTD SVG 1.1//EN" "http://www.w3.org/Graphics/SVG/1.1/DTD/svg11.dtd">
<svg version="1.1" id="Layer_1" xmlns="http://www.w3.org/2000/svg" xmlns:xlink="http://www.w3.org/1999/xlink" x="0px" y="0px"
	 width="999.424px" height="792.513px" viewBox="1.952 104.031 999.424 792.513"
	 enable-background="new 1.952 104.031 999.424 792.513" xml:space="preserve">
<path d="M1.952,616.432c0-60.512,21.472-112.24,64.416-155.184c42.944-42.944,94.347-64.416,154.208-64.416
	c9.76,0,20.17,1.301,31.232,3.904c0-0.65,0.325-1.627,0.976-2.928c0.65-1.302,0.976-2.277,0.976-2.929
	c-1.301-10.411-1.952-20.171-1.952-29.28c0-46.522,16.917-87.189,50.752-122c33.509-34.484,74.501-51.728,122.976-51.728
	c5.53,0,10.085,0.65,13.664,1.952c48.149-59.861,110.613-89.793,187.392-89.793c76.779,0,139.243,29.932,187.393,89.793
	c3.578-1.302,8.133-1.952,13.664-1.952c48.475,0,89.466,17.243,122.976,51.728c33.835,34.811,50.752,75.478,50.752,122
	c0,45.547-15.616,84.587-46.848,117.12c31.231,40.342,46.848,84.587,46.848,132.736c0,61.163-21.472,112.891-64.416,155.185
	c-42.618,42.293-94.021,63.439-154.208,63.439c-27.653,0-53.68-4.555-78.08-13.664c-58.56,50.752-126.229,76.128-203.008,76.128
	s-144.448-25.376-203.008-76.128c-24.4,9.109-50.427,13.664-78.08,13.664c-60.187,0-111.589-21.146-154.208-63.439
	C23.424,728.347,1.952,676.943,1.952,616.432L1.952,616.432z"/>
</svg>
