<?xml version="1.0" encoding="utf-8"?>
<!-- Generator: Adobe Illustrator 16.0.0, SVG Export Plug-In . SVG Version: 6.00 Build 0)  -->
<!DOCTYPE svg PUBLIC "-//W3C//DTD SVG 1.1//EN" "http://www.w3.org/Graphics/SVG/1.1/DTD/svg11.dtd">
<svg version="1.1"
	 id="svg2632" xmlns:inkscape="http://www.inkscape.org/namespaces/inkscape" xmlns:sodipodi="http://sodipodi.sourceforge.net/DTD/sodipodi-0.dtd" xmlns:svg="http://www.w3.org/2000/svg" xmlns:rdf="http://www.w3.org/1999/02/22-rdf-syntax-ns#" xmlns:cc="http://creativecommons.org/ns#" xmlns:dc="http://purl.org/dc/elements/1.1/" sodipodi:docname="Dog silhouette.svg" sodipodi:version="0.32" inkscape:output_extension="org.inkscape.output.svg.inkscape" inkscape:version="0.46"
	 xmlns="http://www.w3.org/2000/svg" xmlns:xlink="http://www.w3.org/1999/xlink" x="0px" y="0px"  viewBox="13.999 12.328 401.502 401.342" enable-background="new 13.999 12.328 401.502 401.342"
	 xml:space="preserve">
<g id="layer1" inkscape:label="Layer 1" inkscape:groupmode="layer">
	<path d="M272.114,144.542L321.551,83.8l31.272-6.285l27.251,9.034l5.45,16.494l29.977,10.996v21.991l-12.978,15.319h-21.34h-21.34
		l-2.482,10.464l-6.682,4.068l-4.088,16.493l-12.845,55.367l-16.351,35.736l-19.076,21.99l-5.45,68.725
		c2.403,7.057,5.53,12.26,9.217,15.846c3.688,3.586,7.936,5.555,12.584,6.146l4.021,13.746l-2.923,8.047l-10.703,0.197l-27.768-0.52
		l-17.131-35.216l-2.725-65.974l-10.9-10.996l-25.174-1.309l-18.944-6.285l-12.461-9.555l-25.174-4.844l-11.548,11.262
		l-20.647-3.148l-16.856,19.377l-19.724,21.337l-4.802,36.391l3.769,18.777l12.845,9.62l12.977,3.016l2.852,10.93l-6.225,6.352
		l-26.218,0.787L70.71,369.833l-4.022-41.377l-2.857-6.552l-20.559,12.248l-8.89,29.906l0.385,24.483l15.054,7.194l5.511,7.593
		l-7.456,10.209l-24.79,0.133l-9.087-21.99l1.429-62.694l37.767-54.723l7.131-20.296l-5.834-34.684l4.153-30.238l11.417-23.565
		l-11.939-25.849l-8.049-27.157l-7.065-44.969l5.252-44.97l7.527-10.208l8.175,52.229l10.9,46.732l20.889,39.926l82.67,1.896
		l56.896-1.341L272.114,144.542z"/>
</g>
</svg>
