<?xml version="1.0" encoding="utf-8"?>
<!-- Generator: Adobe Illustrator 16.0.0, SVG Export Plug-In . SVG Version: 6.00 Build 0)  -->
<!DOCTYPE svg PUBLIC "-//W3C//DTD SVG 1.1//EN" "http://www.w3.org/Graphics/SVG/1.1/DTD/svg11.dtd">
<svg version="1.1" id="Layer_1" xmlns="http://www.w3.org/2000/svg" xmlns:xlink="http://www.w3.org/1999/xlink" x="0px" y="0px"
	  viewBox="167.022 30.327 397.879 532.391"
	 enable-background="new 167.022 30.327 397.879 532.391" xml:space="preserve">
<g>
	<path d="M563.875,76.544c0.225,0.086,0.449,0.167,0.674,0.248c1.25,8.732-1.151,17.147-2.137,25.701
		c-1.613,14.055-2.615,28.201-4.106,42.279c-2.933,27.717-13.623,51.753-33.841,71.372c-11.013,10.696-21.605,21.819-32.383,32.763
		c-0.794,0.824-1.503,1.728-2.252,2.592c2.65-0.87,5.121-1.987,6.947-3.761c8.519-8.26,16.859-16.687,25.246-25.079
		c5.506-5.495,10.927-11.071,16.514-16.485c1.1-1.065,2.753-1.561,4.637-2.592c0.322,8.939-4.855,14.757-8.727,21.11
		c-3.871,6.359-7.58,12.816-11.652,19.037c-4.112,6.284-8.576,12.332-12.885,18.49c4.037-3.082,6.889-7.689,13.179-9.74
		c-0.709,4.7-0.433,8.968-2.033,12.332c-3.22,6.768-6.751,13.611-11.423,19.406c-8.876,11.007-18.656,21.266-28.027,31.887
		c-0.945,1.06-1.688,2.304-2.523,3.467c14.319-5.086,25.385-15.039,38.287-22.51c-0.3,2.834-0.979,5.409-1.936,7.874
		c-1.872,4.804-4.228,9.44-5.812,14.331c-5.449,16.998-12.511,33.017-25.989,45.407c-0.207,0.201-0.213,0.615-0.397,1.203
		c0.65,0.145,1.181,0.352,1.711,0.357c3.894,0.068,4.504,0.777,3.226,4.436c-0.663,1.9-1.417,3.963-2.725,5.42
		c-4.314,4.814-8.894,9.383-13.375,14.049c-1.227,1.272-2.437,2.54-3.767,3.928c0.708,0.53,1.036,0.968,1.451,1.061
		c3.329,0.708,3.548,2.274,1.44,4.688c-2.996,3.433-5.443,7.517-8.94,10.281c-10.523,8.347-21.403,16.231-32.192,24.221
		c-4.677,3.456-9.475,6.728-14.222,10.08c0.115,0.316,0.225,0.616,0.346,0.944c1.625,0.023,3.347,0.427,4.851,0.012
		c5.633-1.572,11.56-2.689,16.709-5.299c14.112-7.166,25.903-17.246,34.889-30.465c1.389-2.045,3.433-3.646,5.173-5.455
		c0.472,0.271,0.944,0.542,1.423,0.824c-0.582,1.936-0.807,4.095-1.804,5.771c-5.396,8.979-12.925,16.134-21.059,22.476
		c-11.491,8.968-23.38,17.412-38.972,17.608c-1.389,0.022-2.759,1.394-4.142,2.125c7.534,1.82,20.834-1.809,27.015-6.422
		c1.854-1.383,3.715-3.14,7.033-0.179c-3.439,2.5-6.273,5.501-9.746,6.86c-5.524,2.183-11.485,3.231-17.246,4.815
		c-2.608,0.731-5.16,1.676-7.741,2.522c4.666-0.426,9.084-1.642,13.56-1.993c4.521-0.352,9.106,0.035,13.662,0.282
		c7.073,0.369,13.801-0.294,20.241-3.79c2.298-1.25,5.42-1.014,8.167-1.463c-0.414,1.123-0.841,2.264-1.25,3.375
		c-8.271,4.499-17.188,5.479-26.449,5.594c-7.154,0.08-14.337,0.968-21.434,1.97c-3.854,0.541-7.125,2.621-8.721,6.871
		c5.04-0.575,9.764-1.272,14.527-1.584c4.861-0.316,9.723-0.104,14.071,3.174c-2.805,0.979-5.639,1.688-8.502,1.792
		c-3.945,0.144-7.931-0.438-11.859-0.179c-2.822,0.179-5.593,1.238-8.375,1.9c9.025,4.026,15.506,4.366,24.526,2.431
		c1.843-0.403,3.858,0.023,6.525,0.093c-3.409,4.567-7.367,5.714-11.704,5.581c-3.818-0.121-7.632-0.887-11.462-1.048
		c-3.255-0.145-6.526,0.155-9.567,0.259c-0.675,3.15,0.201,4.309,2.586,4.188c2.989-0.144,5.979-0.483,8.963-0.438
		c2.608,0.034,5.207,0.483,7.815,0.743c0.087,0.628,0.162,1.25,0.242,1.866c-2.58,0.841-5.114,2.067-7.753,2.396
		c-2.689,0.34-5.501-0.144-8.254-0.392c-2.989-0.282-4.51,0.473-4.671,3.98c-0.761,16.289-1.699,32.59-2.76,48.868
		c-0.282,4.273-1.036,8.559-1.946,12.758c-0.605,2.748-2.621,4.476-5.686,4.948c-3.934-5.3-4.573-11.354-4.015-17.517
		c1.25-13.749,2.719-27.463,4.136-41.184c0.265-2.586,0.72-5.144,1.169-8.26c-1.647,0.236-2.811,0.662-3.888,0.507
		c-1.44-0.225-2.8-0.91-4.199-1.405c1.228-1.037,2.315-2.362,3.721-3.024c1.118-0.507,2.615-0.201,3.952-0.259
		c-4.32-2.961-10.541-1.498-13.456-7.506c4.688-2.776,8.283,2.315,12.851,1.44c-3.888-5.086-8.219-8.923-13.599-11.543
		c-3.756-1.832-7.512-1.936-11.521-0.605c-2.437,0.801-3.347-0.841-2.615-3.116c1.273-3.87,4.614-3.26,7.246-2.54
		c5.086,1.383,10.006,3.364,14.993,5.121c2.529,0.898,5.046,1.866,7.569,2.799c0.236-0.403,0.478-0.812,0.72-1.203
		c-6.411-5.185-12.827-10.374-19.866-16.076c7.914-3.376,10.535,3.928,15.776,6.1c-1.688-4.217-4.607-6.773-7.902-8.911
		c-3.825-2.477-7.753-4.815-11.704-7.085c-1.971-1.134-2.045-2.304-0.743-4.003c2.562-3.306,5.806-4.377,10.206-3.047
		c-6.03-12.983-4.613-26.023-1.952-39.116c2.079-10.224,4.378-20.431,6.14-30.724c2.287-13.329,4.994-26.698,1.521-40.32
		c-0.433-1.71,0.696-3.801,1.105-5.725c0.622-0.023,1.232-0.035,1.849-0.058c0.864,2.621,2.039,5.184,2.546,7.885
		c2.305,12.183,7.097,23.155,15.247,32.579c0.541,0.615,1.227,1.111,2.448,2.217c-0.375-1.596-0.519-2.292-0.691-2.983
		c-4.493-16.952-9.049-33.886-13.415-50.861c-0.691-2.69-0.536-5.593-0.767-8.404c0.393-0.046,0.812-0.092,1.216-0.132
		c6.105,4.884,5.438,13.162,9.665,20.044c0.006-1.722,0-2.528,0.029-3.329c0.322-11.871,0.414-23.749,1.042-35.614
		c0.403-7.511,1.607-14.987,2.448-22.47c0.34-0.91,0.662-1.803,1.002-2.707c4.171,6.515,8.347,13.029,12.862,20.091
		c0.783-17.159,4.274-33.333,8.347-49.386c0.789-3.122,1.676-6.244,2.943-9.181c0.529-1.216,2.183-1.947,3.317-2.897
		c0.835,1.244,1.964,2.396,2.425,3.767c0.57,1.659,0.594,3.502,0.847,5.27c1.723-4.567,2.488-9.256,4.159-13.587
		c7.551-19.492,15.281-38.897,23.115-58.28c1.515-3.709,4.031-6.814,9.268-7.903c3.41,19.406,6.797,38.702,10.189,58.003
		c0.513-0.075,1.031-0.144,1.543-0.213c-0.426-3.485-0.708-7.004-1.312-10.454c-1.532-8.871-3.611-17.66-4.729-26.577
		c-1.566-12.361,1.486-23.737,9.885-33.155c6.388-7.142,12.994-14.135,19.976-20.702c12.654-11.923,25.62-23.518,38.562-35.142
		C558.847,79.425,561.484,78.117,563.875,76.544z M465.535,193.899c-0.283-1.042-0.628-2.056-0.945-3.093"/>
</g>
<g>
	<path d="M175.185,34.779c13.444,11.036,26.911,22.043,40.084,33.391c7.263,6.25,14.169,12.943,20.868,19.792
		c8.813,9.038,12.367,20.264,11.353,32.682c-0.726,8.957-2.408,17.833-3.548,26.761c-0.449,3.479-0.57,7.004-0.841,10.506
		c0.513,0.046,1.037,0.098,1.544,0.144c2.534-19.428,5.063-38.863,7.609-58.4c5.282,0.858,7.932,3.842,9.602,7.482
		c8.686,19.008,17.28,38.057,25.678,57.197c1.861,4.25,2.829,8.899,4.758,13.386c0.179-1.78,0.121-3.618,0.605-5.305
		c0.403-1.388,1.48-2.586,2.264-3.865c1.175,0.893,2.857,1.555,3.439,2.742c1.399,2.88,2.425,5.961,3.352,9.037
		c4.781,15.857,8.992,31.859,10.524,48.966c4.204-7.257,8.087-13.951,11.963-20.644c0.369,0.887,0.743,1.768,1.118,2.655
		c1.169,7.442,2.701,14.855,3.444,22.343c1.151,11.82,1.779,23.686,2.614,35.528c0.063,0.807,0.093,1.607,0.173,3.335
		c3.917-7.067,2.886-15.31,8.762-20.454c0.408,0.023,0.823,0.052,1.227,0.081c-0.109,2.811,0.179,5.708-0.392,8.421
		c-3.605,17.153-7.407,34.272-11.146,51.402c-0.15,0.686-0.266,1.394-0.564,3.001c1.175-1.158,1.831-1.676,2.344-2.315
		c7.725-9.774,12.027-20.96,13.796-33.218c0.392-2.725,1.445-5.334,2.194-7.995c0.616,0,1.227-0.017,1.849-0.023
		c0.495,1.907,1.717,3.946,1.359,5.668c-2.874,13.772,0.421,26.997,3.307,40.216c2.218,10.201,4.953,20.292,7.493,30.418
		c3.237,12.96,5.23,25.92-0.213,39.174c4.338-1.544,7.632-0.604,10.34,2.587c1.376,1.629,1.348,2.811-0.57,4.025
		c-3.848,2.454-7.667,4.96-11.388,7.604c-3.197,2.275-5.99,4.959-7.494,9.245c5.138-2.408,7.431-9.821,15.489-6.786
		c-6.786,5.996-12.961,11.475-19.13,16.929c0.26,0.392,0.513,0.789,0.772,1.17c2.477-1.049,4.941-2.126,7.441-3.128
		c4.896-1.981,9.724-4.176,14.752-5.783c2.592-0.841,5.898-1.584,7.338,2.229c0.841,2.229-0.006,3.905-2.471,3.22
		c-4.066-1.135-7.805-0.876-11.479,1.111c-5.265,2.857-9.424,6.895-13.081,12.137c4.607,0.686,7.972-4.567,12.781-2.005
		c-2.649,6.117-8.928,4.948-13.11,8.087c1.337,0,2.817-0.38,3.963,0.093c1.429,0.599,2.575,1.866,3.854,2.856
		c-1.37,0.553-2.707,1.296-4.13,1.584c-1.071,0.214-2.252-0.167-3.905-0.34c0.588,3.094,1.146,5.64,1.532,8.202
		c2.027,13.657,4.102,27.291,5.956,40.96c0.829,6.14,0.455,12.205-3.237,17.672c-3.081-0.329-5.172-1.971-5.893-4.678
		c-1.105-4.164-2.045-8.403-2.517-12.666c-1.786-16.209-3.45-32.458-4.925-48.701c-0.312-3.496-1.866-4.188-4.845-3.767
		c-2.735,0.368-5.518,0.979-8.219,0.766c-2.655-0.213-5.242-1.324-7.852-2.044c0.052-0.628,0.104-1.25,0.156-1.878
		c2.592-0.381,5.166-0.945,7.775-1.101c2.983-0.167,5.979,0.035,8.975,0.058c2.39,0.012,3.214-1.181,2.401-4.309
		c-3.047,0.046-6.33-0.121-9.573,0.167c-3.818,0.34-7.592,1.262-11.404,1.556c-4.32,0.34-8.323-0.628-11.935-5.052
		c2.661-0.179,4.653-0.697,6.515-0.392c9.095,1.544,15.552,0.922,24.394-3.496c-2.812-0.542-5.628-1.475-8.456-1.532
		c-3.939-0.093-7.892,0.674-11.843,0.708c-2.856,0.023-5.72-0.564-8.57-1.405c4.204-3.468,9.049-3.905,13.928-3.79
		c4.763,0.104,9.515,0.588,14.578,0.934c-1.785-4.188-5.138-6.117-9.003-6.492c-7.137-0.674-14.354-1.25-21.502-1.002
		c-9.256,0.294-18.213-0.294-26.675-4.412c-0.46-1.101-0.927-2.218-1.394-3.317c2.765,0.316,5.875-0.058,8.225,1.088
		c6.583,3.209,13.34,3.577,20.39,2.892c4.533-0.449,9.101-1.048,13.634-0.887c4.487,0.155,8.963,1.169,13.635,1.383
		c-2.609-0.721-5.202-1.556-7.84-2.172c-5.829-1.337-11.837-2.114-17.441-4.038c-3.536-1.215-6.497-4.084-10.045-6.434
		c3.186-3.094,5.121-1.417,7.033-0.121c6.377,4.332,19.832,7.367,27.279,5.219c-1.411-0.674-2.845-1.981-4.228-1.936
		c-15.586,0.484-27.832-7.413-39.715-15.863c-8.416-5.984-16.249-12.793-22.038-21.519c-1.077-1.642-1.394-3.779-2.062-5.691
		c0.467-0.294,0.927-0.587,1.388-0.875c1.82,1.722,3.934,3.231,5.409,5.219c9.556,12.804,21.784,22.355,36.202,28.88
		c5.265,2.396,11.237,3.231,16.929,4.557c1.521,0.352,3.226-0.133,4.838-0.236c0.109-0.316,0.208-0.628,0.312-0.945
		c-4.891-3.139-9.832-6.197-14.653-9.451c-11.135-7.494-22.355-14.885-33.235-22.758c-3.612-2.609-6.25-6.583-9.395-9.89
		c-2.206-2.304-2.057-3.882,1.232-4.746c0.415-0.104,0.726-0.564,1.405-1.112c-1.394-1.325-2.661-2.54-3.939-3.755
		c-4.683-4.464-9.47-8.818-13.985-13.444c-1.371-1.394-2.218-3.421-2.966-5.288c-1.44-3.6-0.864-4.343,3.024-4.579
		c0.536-0.035,1.048-0.271,1.693-0.426c-0.208-0.587-0.236-1.002-0.455-1.192c-14.008-11.779-21.773-27.469-27.977-44.208
		c-1.791-4.815-4.354-9.343-6.434-14.054c-1.065-2.419-1.86-4.959-2.287-7.782c13.225,6.889,24.716,16.341,39.249,20.8
		c-0.881-1.124-1.676-2.339-2.667-3.358c-9.832-10.184-20.062-20.01-29.411-30.608c-4.925-5.576-8.761-12.257-12.269-18.881
		c-1.746-3.283-1.665-7.557-2.581-12.223c6.376,1.768,9.429,6.244,13.599,9.141c-4.573-5.962-9.308-11.802-13.691-17.896
		c-4.343-6.037-8.346-12.315-12.488-18.495c-4.147-6.175-9.579-11.762-9.653-20.702c1.929,0.945,3.6,1.371,4.746,2.385
		c5.817,5.161,11.485,10.495,17.228,15.736c8.75,8.006,17.453,16.059,26.329,23.927c1.906,1.694,4.423,2.702,7.108,3.45
		c-0.784-0.829-1.532-1.705-2.362-2.482c-11.255-10.455-22.326-21.104-33.805-31.294c-21.064-18.708-32.809-42.244-36.968-69.806
		c-2.114-13.997-3.738-28.08-5.979-42.054c-1.359-8.507-4.136-16.802-3.277-25.58c0.225-0.092,0.443-0.184,0.662-0.276
		C170.306,31.795,172.996,32.982,175.185,34.779z M279.683,279.25c-0.288,0.524-0.582,1.048-0.87,1.567
		c-2.644-0.657-5.513-0.858-7.897-2.045c-11.705-5.835-23.271-11.929-34.9-17.931c-0.392-0.208-0.795-0.375-1.336-0.634
		c1.135,4.844,2.183,9.464,3.289,14.066c1.267,5.276,4.798,8.611,9.711,10.276c8.07,2.736,16.22,5.247,24.388,7.644
		c9.429,2.765,18.921,5.333,29.197,8.202c-0.703-2.385-1.14-4.165-1.745-5.881c-2.615-7.454-5.443-14.861-7.885-22.377
		c-1.682-5.155-4.556-8.761-9.838-10.593c-9.844-3.393-19.607-7.05-29.405-10.599c-0.219,0.179-0.438,0.357-0.651,0.53
		C261.055,260.732,270.363,269.994,279.683,279.25z M288.155,187.92c1.354-6.688-0.898-13.352-3.467-19.619
		c-3.854-9.435-7.891-18.794-12.591-28.229c-0.265,1.048-0.57,2.079-0.807,3.127c-3.421,15.466-6.86,30.926-10.201,46.414
		c-0.288,1.319-0.415,2.967,0.115,4.113c5.322,11.405,10.8,22.752,16.231,34.111c0.357,0.149,0.703,0.299,1.048,0.449
		C281.756,214.842,285.391,201.468,288.155,187.92z M324.109,336.251c-2.2,3.969-2.154,7.932-0.248,12.361
		c2.714,6.255,4.459,12.926,6.653,19.394c0.374,1.112,0.893,2.16,1.647,3.963c1.515-2.914,2.978-5.207,3.963-7.707
		c4.654-11.698,9.182-23.454,13.755-35.187c1.256-3.231,1.267-6.348,0.414-9.81c-1.676-6.843-2.724-13.824-4.268-22.038
		C338.406,310.758,331.183,323.458,324.109,336.251z M321.995,356.469c-1.739-5.075-4.021-9.798-4.901-14.78
		c-1.359-7.718-6.203-10.27-13.092-12.159c-11.9-3.249-23.57-7.437-35.24-11.486c-3.56-1.238-4.597,2.252-7.206,2.621
		C269.937,335.601,299.001,352.869,321.995,356.469z M240.849,160.641c-1.607-3.548-4.608-5.794-8.427-6.756
		c-5.691-1.429-11.48-2.523-17.09-4.24c-5.587-1.71-11.008-4.003-17.534-6.422c4.775,5.604,8.761,10.558,13.058,15.235
		c5.022,5.455,10.195,10.777,15.5,15.95c4.712,4.608,10.495,7.027,17.13,7.35c2.004,0.104,3.986,0.542,6.705,0.933
		C246.937,174.948,244.045,167.726,240.849,160.641z M256.21,202.499c1.054,1.878,2.108,3.755,3.157,5.639
		c-0.162,0.392-0.329,0.789-0.49,1.187c-2.926-0.461-5.985-0.542-8.75-1.463c-8.283-2.765-14.82-8.358-21.036-14.17
		c-7.073-6.624-13.731-13.686-20.58-20.569c-0.651-0.645-1.296-1.302-2.143-1.792c8.484,14.141,15.88,29.036,28.478,40.228
		c10.443,9.279,23.339,12.684,37.469,15.725C266.498,218.563,266.792,207.176,256.21,202.499z M321.184,224.294
		c-1.129,1.503-2.097,2.333-2.512,3.387c-2.304,5.904-4.775,11.762-6.63,17.81c-2.28,7.442-3.703,15.16-6.088,22.568
		c-1.221,3.813-3.785,7.177-5.593,10.829c-0.524,1.048-0.979,2.575-0.593,3.542c2.73,6.906,5.68,13.72,8.594,20.638
		C315.579,290.114,321.892,251.891,321.184,224.294z M242.56,112.182c-1.359-10.892-6.693-19.521-14.7-26.818
		c0.536,13.409,0.83,26.611,1.659,39.778c0.49,7.915,3.41,15.184,7.851,21.785c0.438,0.639,1.037,1.181,1.901,2.16
		C240.595,136.449,244.103,124.56,242.56,112.182z M182.598,106.134c0.432,4.556,2.713,6.543,7.062,7.344
		c8.577,1.584,17.096,3.542,25.632,5.346c0.294-0.3,0.587-0.599,0.875-0.91c-2.776-5.449-4.965-11.33-8.583-16.151
		c-1.832-2.431-6.14-3.335-9.515-4.222c-5.513-1.446-11.18-2.304-17.666-3.589C181.112,97.776,182.194,101.923,182.598,106.134z
		 M302.63,222.307c-2.552,11.462-5.098,22.931-7.949,34.318c-1.981,7.92-2.2,7.868,1.06,15.563
		c9.694-9.285,15.322-46.08,8.963-62.087C303.915,214.825,303.454,218.609,302.63,222.307z M209.209,69.909
		c-0.012-0.496-0.472-1.106-0.893-1.446c-4.562-3.617-9.13-7.188-13.905-10.921c-2.235,8.029-0.599,12.234,14.089,37.331
		c0.455-0.023,0.904-0.058,1.348-0.086C209.652,86.492,209.468,78.209,209.209,69.909z M353.531,378.449
		c-3.721,7.258-7.654,14.4-11.762,21.444c-1.157,1.993-1.884,3.565-1.06,5.928c0.95,2.678,1.313,5.569,2.194,9.562
		c4.257-5.536,8.018-10.408,12.194-15.829c-2.154,0.663-3.555,1.089-5.167,1.584c-1.083-4.377,1.037-7.344,3.202-10.149
		c4.136-5.333,6.993-11.203,7.701-17.93c0.294-2.812,0.029-5.656,0.012-8.485c-0.374-0.058-0.761-0.12-1.146-0.19
		C357.661,369.09,355.858,373.904,353.531,378.449z M175.997,59.766c0.092,3.497,0.075,6.682,0.283,9.855
		c0.305,4.648,2.321,6.832,6.808,7.333c3.064,0.346,6.146,0.432,9.631,0.663C189.354,69.408,184.297,63.297,175.997,59.766z
		 M352.927,500.74c0.64-0.069,1.278-0.133,1.924-0.202c-0.553-18.755-4.77-37.1-6.318-55.745c-0.387,0.046-0.767,0.081-1.158,0.121
		C349.229,463.524,351.072,482.129,352.927,500.74z"/>
</g>
</svg>
