<?xml version="1.0" encoding="utf-8"?>
<!-- Generator: Adobe Illustrator 16.0.0, SVG Export Plug-In . SVG Version: 6.00 Build 0)  -->
<!DOCTYPE svg PUBLIC "-//W3C//DTD SVG 1.1//EN" "http://www.w3.org/Graphics/SVG/1.1/DTD/svg11.dtd">
<svg version="1.1" id="Layer_1" xmlns="http://www.w3.org/2000/svg" xmlns:xlink="http://www.w3.org/1999/xlink" x="0px" y="0px"
	 width="2792.484px" height="340.602px" viewBox="3.964 317.159 2792.484 340.602"
	 enable-background="new 3.964 317.159 2792.484 340.602" xml:space="preserve">
<g>
	<path d="M163.063,553.075c31.222-2.913,60.856-5.237,90.38-8.556c29.495-3.315,58.653-8.56,86.393-19.43
		c-0.122-0.55-0.244-1.1-0.365-1.648c-1.921,0.328-3.886,0.5-5.759,1.01c-41.519,11.304-84.008,14.027-126.763,14.291
		c-25.327,0.155-50.658,0.396-75.981,0.068c-24.391-0.313-46.364-8.212-65.93-22.815c-1.18-0.881-2.771-1.211-3.417-2.696
		c29.943,1.844,58.253-3.909,86.794-7.05c-0.02-0.568-0.039-1.136-0.059-1.704c-1.562-0.144-3.126-0.273-4.688-0.431
		c-24.846-2.489-49.69-4.986-74.537-7.466c-2.813-0.281-5.677-0.886-8.447-0.617c-7.562,0.73-13.788-2.049-19.11-6.959
		c-14.288-13.185-23.628-29.803-32.181-47.627c193.566,34.945,388.396,59.141,584.063,76.994c0.116,0.56,0.233,1.119,0.35,1.679
		c-4.488,1.85-8.84,4.22-13.491,5.464c-31.52,8.432-63.025,16.928-94.688,24.794c-22.935,5.698-46.01,10.92-69.187,15.529
		c-34.771,6.914-69.161,16.102-104.684,18.761c-34.8,2.604-68.89-1.561-102.011-12.425c-13.888-4.556-27.325-10.486-40.939-15.864
		C167.197,555.741,165.766,554.648,163.063,553.075z"/>
	<path d="M2206.552,518.444c195.626-17.878,390.423-42.009,585.101-77.948c-2.063,4.166-3.118,7.119-4.834,9.619
		c-8.172,11.906-16.157,23.971-24.94,35.419c-5.569,7.262-13.304,10.62-23.068,10.678c-10.089,0.059-20.145,2.419-30.252,3.386
		c-17.397,1.664-34.825,3.027-52.241,4.521c-1.568,0.134-3.136,0.288-4.717,1.293c28.46,3.832,56.674,9.915,86.781,6.586
		c-1.362,1.634-2.055,2.854-3.081,3.638c-18.983,14.479-40.478,22.99-64.281,23.037c-42.977,0.084-85.979-0.396-128.925-1.949
		c-24.614-0.89-49.032-4.984-72.905-11.561c-2.405-0.663-4.877-1.089-7.327-1.575c-0.439-0.087-0.929,0.069-2.761,0.242
		c3.338,1.725,5.499,3.377,7.927,4.008c14.812,3.85,29.582,7.96,44.557,11.065c39.762,8.245,80.17,10.827,120.615,12.872
		c1.076,0.054,2.137,0.439,4.243,0.896c-1.616,1.375-2.409,2.38-3.446,2.881c-26.707,12.907-54.629,21.655-83.986,26.52
		c-40.959,6.782-80.985,1.91-120.947-6.949c-19.506-4.325-39.188-7.852-58.716-12.076c-21.479-4.648-42.916-9.494-64.287-14.604
		c-21.216-5.074-42.388-10.354-63.454-16.006c-10.111-2.714-19.955-6.442-29.875-9.841c-1.91-0.653-3.616-1.901-5.416-2.877
		C2206.393,519.293,2206.472,518.869,2206.552,518.444z"/>
	<path d="M444.812,495.685c-6.544-0.819-13.093-1.591-19.628-2.469c-45.063-6.053-90.134-12.065-135.186-18.211
		c-57.428-7.833-114.827-15.869-172.263-23.64c-32.18-4.354-64.409-8.346-96.615-12.509c-1.651-0.215-3.294-0.494-4.935-0.782
		c-10.307-1.812-10.954-1.925-11.671-12.525c-0.649-9.592-0.904-19.379,0.25-28.888c1.862-15.337,10.561-27.447,22.589-36.395
		c31.883-23.719,67.611-32.324,107.043-25.77c26.451,4.397,51.839,12.306,76.49,22.466c34.822,14.352,68.545,31.086,100.803,50.552
		c30.602,18.468,60.961,37.354,91.084,56.59c14.146,9.034,27.492,19.324,41.188,29.063c0.5,0.356,0.859,0.911,1.284,1.374
		C445.102,494.923,444.956,495.304,444.812,495.685z"/>
	<path d="M2354.627,494.359c5.153-3.782,10.186-7.745,15.48-11.315c20.264-13.661,40.207-27.852,61.021-40.624
		c31.61-19.4,63.528-38.354,95.942-56.371c17.557-9.758,36.405-17.19,54.682-25.649c20.765-9.611,42.402-16.709,64.613-22.043
		c24.854-5.97,49.842-9.126,75.102-2.236c19.424,5.297,38.047,12.285,53.449,25.863c14.875,13.113,22.503,29.46,21.434,49.461
		c-0.354,6.631-1.193,13.236-1.888,19.848c-0.407,3.876-2.608,5.646-6.555,6.158c-22.788,2.955-45.552,6.101-68.324,9.181
		c-28.886,3.908-57.765,7.868-86.659,11.708c-32.853,4.365-65.733,8.518-98.576,12.957c-32.187,4.353-64.332,9.01-96.511,13.421
		c-22.768,3.121-45.562,6.055-68.344,9.075c-4.812,0.638-9.621,1.296-14.432,1.944
		C2354.916,495.277,2354.771,494.818,2354.627,494.359z"/>
	<path d="M1944.704,517.8c-3.176-1.056-6.353-2.11-9.527-3.167c-0.231,0.445-0.465,0.891-0.696,1.335
		c2.367,3.054,4.736,6.105,7.104,9.157c-14.198-8.768-28.661-16.377-44.932-19.701c-0.362,0.507-0.725,1.015-1.087,1.521
		c1.041,1.258,2.125,2.48,3.111,3.777c5.212,6.842,11.134,13.275,15.401,20.665c4.754,8.231,1.121,15.478-8.085,18.045
		c-3.974,1.108-8.188,1.515-12.322,1.854c-19.456,1.598-38.942,2.574-58.333-0.505c-5.556-0.882-10.927-2.919-16.383-4.427
		c0.143-0.676,0.285-1.352,0.428-2.026c1.43,0.148,2.967,0.01,4.274,0.492c15.489,5.72,31.621,6.224,47.828,5.834
		c7.987-0.192,15.969-0.843,23.939-1.445c2.3-0.174,4.633-0.682,6.821-1.421c8.749-2.955,11.087-7.47,7.592-15.908
		c-4.193-10.128-12.678-16.907-19.983-24.648c-4.684-4.963-10.307-6.754-16.569-8.061c-30.809-6.43-61.545-13.206-92.388-19.461
		c-23.991-4.865-48.102-9.147-72.158-13.686c-21.604-4.075-43.184-8.269-64.815-12.173c-12.454-2.248-24.993-4.021-37.489-6.032
		c-1.159-0.188-2.287-0.562-3.432-0.848c0.073-0.46,0.146-0.92,0.219-1.379c6.317,0.679,12.706,0.964,18.938,2.104
		c37.355,6.818,74.7,13.708,112.001,20.821c33.376,6.366,66.701,13,100.025,19.63c10.288,2.048,20.45,4.754,30.767,6.635
		c8.5,1.55,17.136,2.363,25.72,3.438c24.631,3.084,49.229,6.504,73.909,9.111c35.762,3.779,71.599,6.84,107.369,10.535
		c5.118,0.527,10.081,2.79,15.046,4.458c2.482,0.834,4.809,2.139,7.32,3.283c0.043-0.642,0.181-0.99,0.062-1.192
		c-1.029-1.772-2.104-3.519-3.165-5.272c2.139-0.628,4.288-1.833,6.413-1.792c15.489,0.303,30.973,0.873,46.46,1.32
		c11.134,0.321,22.457-0.58,33.354,1.177c12.556,2.024,24.739,6.357,37.076,9.717c24.742,6.733,49.456,13.569,74.223,20.215
		c29.584,7.937,59.18,15.83,88.83,23.51c11.924,3.088,24.109,5.179,35.981,8.434c8.951,2.453,17.819,5.531,26.28,9.321
		c4.524,2.027,8.208,6.042,12.065,9.396c1.164,1.012,1.944,2.723,2.392,4.262c2.765,9.536-8.397,22.308-17.769,19.547
		c-9.039-2.664-17.876-6.414-26.299-10.682c-17.063-8.646-33.62-18.292-50.694-26.917c-20.429-10.319-41.91-17.968-64.381-22.519
		c-12.725-2.577-25.559-4.627-38.359-6.816c-2.398-0.411-4.877-0.361-7.653,0.395c0.799,0.629,1.506,1.475,2.409,1.854
		c22.089,9.329,44.226,18.544,66.295,27.919c17.586,7.47,35.481,14.363,52.475,23.019c8.529,4.344,15.396,11.985,22.89,18.285
		c0.961,0.809,1.159,2.522,1.711,3.818c-1.504,0.235-3.241,1.081-4.475,0.608c-6.83-2.617-13.533-5.564-20.289-8.38
		c-16.843-7.017-34.164-11.274-52.492-13.231c-14.021-1.5-28.012-6.084-41.289-11.186c-29.356-11.278-58.158-23.988-87.396-35.594
		c-9.539-3.787-19.738-5.896-29.597-8.904c-3.714-1.134-7.312-2.646-10.962-3.987c-0.262,0.63-0.523,1.259-0.785,1.887
		c34.252,15.456,68.031,32.09,102.889,46.034c34.85,13.944,70.773,25.199,106.228,37.634c-0.139,0.623-0.276,1.245-0.417,1.868
		c-1.296-0.086-2.607-0.067-3.886-0.271c-26.951-4.312-53.873-8.817-80.854-12.929c-20.241-3.083-40.591-5.468-60.825-8.589
		c-6.32-0.976-12.427-3.342-18.913-4.415c8.695,6.941,18.52,11.751,28.889,15.35c10.4,3.61,21,6.648,32.238,10.164
		c-1.422,0.385-2.293,0.903-3.07,0.788c-26.585-3.941-52.841-9.25-77.705-19.866c-5.499-2.348-10.676-5.444-16.057-8.079
		c-1.252-0.613-3.479-1.462-3.957-0.96c-0.983,1.026-1.566,2.928-1.469,4.412c0.389,5.843,2.219,11.081,7.295,14.682
		c1.728,1.226,3.309,2.653,4.58,5.227c-1.502-0.327-3.16-0.352-4.48-1.03c-8.605-4.424-13.592-13.682-12.01-23.22
		c0.598-3.6-0.458-5.253-3.519-6.508c-4.003-1.642-7.864-3.635-11.899-5.18c-1.38-0.527-3.275-0.627-4.639-0.121
		c-6.235,2.313-6.469,2.669-4.298,8.943c5.615,16.239,14.97,30.362,25.152,44.021c1.027,1.378,1.146,3.436,1.685,5.177
		c-1.767-0.125-3.675,0.142-5.277-0.436c-20.569-7.387-28.207-23.729-29.252-43.915c-0.532-10.286-3.264-18.663-12.031-24.845
		c-7.837-5.524-15.191-11.734-22.854-17.716c-4.219,7.771-4.047,7.776,1.269,13.253c7.022,7.235,13.779,14.731,20.649,22.115
		c-0.396,0.506-0.795,1.014-1.191,1.52c-22.638-13.173-45.273-26.347-68.663-39.958c-2.328,8.978-2.58,17.047,0.618,24.744
		c5.879,14.15,4.938,17.251-9.001,24.034c-3.185,1.549-6.515,2.793-9.778,4.177c-0.299-0.648-0.597-1.298-0.896-1.945
		c1.14-0.736,2.221-1.593,3.432-2.184c2.093-1.021,4.326-1.763,6.396-2.827c9.602-4.94,10.803-8.759,6.291-18.438
		c-3.9-8.364-3.652-17.18-2.012-25.977c0.722-3.86-0.398-5.976-4.656-6.968c0,1.132-0.236,1.992,0.035,2.639
		c4.812,11.456-1.614,25.055-12.565,30.256c-7.805,3.706-15.767,7.146-23.871,10.122c-3.284,1.206-7.135,0.87-10.728,1.235
		c-0.079-0.537-0.158-1.073-0.237-1.608c0.668-0.321,1.317-0.875,2.007-0.93c15.919-1.263,26.25-11.491,35.318-22.951
		c4.461-5.638,3.818-12.799-0.434-18.76c-9.084-12.738-20.304-23.869-33.388-31.916c-9.812-6.033-22.047-8.126-33.203-11.974
		L1944.704,517.8z M2004.67,547.908c0.559-0.649,1.118-1.299,1.678-1.947c-3.494-2.822-6.986-5.644-10.479-8.465
		c-0.312,0.38-0.626,0.759-0.938,1.139C1998.175,541.726,2001.423,544.816,2004.67,547.908z"/>
	<path d="M855.44,517.699c-10.725,3.593-22.01,6.078-31.989,11.137c-7.655,3.88-13.924,10.732-20.323,16.776
		c-5.056,4.773-9.66,10.105-13.945,15.596c-5.008,6.415-5.005,15.488,0.731,21.085c6.732,6.57,14.116,12.633,21.907,17.895
		c3.808,2.57,9.18,2.825,15.089,4.477c-5.455,1.998-9.646,1.025-13.569-0.474c-6.83-2.61-13.491-5.664-20.228-8.522
		c-12.274-5.209-19.84-18.817-14.781-31.43c0.263-0.657,0.033-1.514,0.033-2.647c-3.911,0.909-5.429,2.725-4.726,6.457
		c1.89,10.03,1.509,19.752-3.049,29.257c-3.147,6.563-1.815,9.946,4.388,13.87c2.793,1.769,5.97,2.922,8.936,4.427
		c1.354,0.687,2.623,1.547,4.028,2.388c-0.717,0.821-0.974,1.302-1.132,1.271c-8.031-1.562-15.108-5.281-20.603-11.158
		c-4.161-4.453-0.989-9.662,1.025-14.05c3.132-6.817,3.439-13.812,2.804-21.007c-0.153-1.736-0.727-3.435-1.311-6.073
		c-23.33,13.594-45.938,26.767-68.547,39.938c-0.311-0.32-0.62-0.641-0.931-0.959c2.69-3.378,5.234-6.889,8.112-10.1
		c3.668-4.093,7.3-8.31,11.509-11.796c4.686-3.881,6.268-7.815,2.153-13.712c-3.664,2.61-7.604,5.204-11.307,8.103
		c-5.243,4.104-10.255,8.501-15.471,12.642c-5.199,4.128-7.451,9.532-7.718,16.032c-0.488,11.935-2.401,23.477-9.054,33.819
		c-5.517,8.578-13.961,12.999-22.918,16.739c-0.808,0.337-2.995-0.449-2.996-0.72c-0.004-1.496,0.073-3.246,0.843-4.451
		c6.343-9.944,13.116-19.625,19.179-29.733c2.961-4.938,4.818-10.565,6.886-15.992c0.625-1.64,0.933-4.927,0.264-5.27
		c-2.762-1.411-6.213-3.184-8.928-2.596c-4.616,1.001-8.85,3.727-13.281,5.639c-2.57,1.11-3.124,2.736-2.693,5.555
		c1.525,9.997-2.82,18.666-11.503,23.481c-1.422,0.789-3.14,1.045-4.719,1.547c-0.261-0.444-0.521-0.89-0.778-1.334
		c1.71-1.392,3.35-2.882,5.144-4.154c5.074-3.604,6.913-8.836,7.303-14.681c0.099-1.485-0.479-3.386-1.461-4.418
		c-0.477-0.502-2.761,0.275-3.95,0.955c-29.089,16.609-61.247,22.886-93.766,27.962c-0.724,0.112-1.509-0.168-2.479-0.988
		c21.646-5.03,42.179-12.506,60.806-24.495c-0.116-0.433-0.231-0.863-0.35-1.295c-2.438,0.543-4.869,1.125-7.317,1.623
		c-14.338,2.923-28.584,6.47-43.038,8.605c-33.436,4.942-66.979,9.149-100.46,13.792c-4.482,0.622-8.855,2.035-13.281,3.082
		c-0.224-0.517-0.446-1.033-0.671-1.549c1.316-0.836,2.53-1.971,3.966-2.462c13.541-4.638,27.104-9.206,40.688-13.716
		c38.729-12.856,77.022-26.78,113.664-44.957c15.045-7.463,30.461-14.18,45.697-21.258c1.614-0.751,3.159-1.652,5.633-2.958
		c-1.503-0.387-2.095-0.755-2.529-0.618c-13.631,4.275-27.498,7.948-40.8,13.085c-16.602,6.409-32.639,14.269-49.096,21.072
		c-24.008,9.927-48.148,19.63-73.703,24.91c-11.691,2.416-23.854,2.829-35.337,5.895c-11.011,2.938-21.413,8.145-32.093,12.331
		c-3.409,1.337-6.798,2.774-10.304,3.8c-1.163,0.34-2.664-0.473-4.01-0.756c0.438-1.17,0.555-2.687,1.373-3.45
		c4.616-4.318,9.304-8.572,14.147-12.632c11.941-10.007,26.413-15.315,40.504-21.195c28.416-11.858,56.979-23.367,85.477-35.034
		c1.467-0.601,2.88-1.328,4.318-1.997c-0.069-0.46-0.141-0.921-0.209-1.381c-1.504,0-3.032-0.173-4.511,0.026
		c-22.965,3.091-45.986,6.381-67.783,14.439c-17.595,6.504-34.82,14.153-51.748,22.262c-16.49,7.896-32.283,17.237-48.616,25.481
		c-5.274,2.661-11.223,4.118-16.991,5.624c-3.834,1.001-7.235-0.075-8.98-4.304c-0.549-1.328-1.73-2.42-2.716-3.538
		c-5.993-6.81-5.576-12.732,1.024-19.139c8.486-8.232,19.351-11.741,30.225-14.682c16.868-4.561,34.075-7.854,50.992-12.251
		c43.187-11.222,86.333-22.599,129.407-34.244c16.864-4.56,33.471-10.067,50.239-14.992c3.485-1.022,7.152-1.816,10.767-1.96
		c24.116-0.951,48.239-1.722,72.362-2.485c3.325-0.105,6.678-0.018,9.984,0.309c1.517,0.149,2.955,1.09,4.43,1.672
		c-0.727,1.383-1.416,2.785-2.195,4.138c-0.319,0.556-0.831,1-0.932,2.216c2.441-1.07,4.821-2.33,7.342-3.169
		c4.97-1.654,9.935-3.978,15.046-4.443c29.365-2.683,58.808-4.556,88.154-7.414c16.723-1.628,33.288-4.807,49.97-6.929
		c20.653-2.628,41.401-4.55,62.016-7.436c10.858-1.52,21.502-4.527,32.274-6.704c24.324-4.918,48.66-9.774,73.006-14.581
		c27.288-5.389,54.536-11.003,81.905-15.943c26.05-4.702,52.233-8.668,78.363-12.928c1.013-0.165,2.074-0.021,3.113-0.021
		c0.05,0.4,0.1,0.801,0.147,1.202c-6.559,1.166-13.118,2.318-19.674,3.501c-33.269,6.001-66.561,11.874-99.794,18.06
		c-27.665,5.148-55.304,10.47-82.877,16.081c-25.292,5.148-50.485,10.78-75.713,16.243c-1.267,0.273-2.783,0.646-3.604,1.519
		c-7.744,8.218-15.546,16.396-22.896,24.958c-2.059,2.396-3.735,6.049-3.662,9.079c0.07,2.988,1.828,7.23,4.188,8.585
		c4.161,2.388,9.274,3.803,14.108,4.209c18.932,1.592,37.924,2.756,56.757-1.109c4.227-0.867,8.322-2.358,12.51-3.442
		c1.377-0.355,2.853-0.333,4.282-0.482c0.131,0.577,0.262,1.153,0.393,1.73c-4.13,1.378-8.163,3.289-12.404,4.045
		c-23.872,4.256-47.842,3.134-71.691,0.006c-11.91-1.562-16.16-9.739-10.418-20.107c3.807-6.874,9.545-12.684,14.471-18.929
		c1.069-1.355,2.361-2.534,3.098-4.522c-17.162,1.552-31.236,10.062-45.657,18.783c2.361-3.135,4.724-6.271,7.085-9.405
		c-0.229-0.429-0.46-0.855-0.689-1.285c-3.165,1.054-6.33,2.105-9.495,3.157L855.44,517.699z M803.646,538.281
		c-3.286,1.666-7.483,3.786-9.285,8.414c0.395,0.408,0.788,0.816,1.183,1.227C798.448,544.466,801.354,541.01,803.646,538.281z"/>
	<path d="M2660.159,318.719c-0.83,0.42-1.617,1.026-2.498,1.233c-27.653,6.499-52.983,18.757-77.903,31.857
		c-19.309,10.151-38.482,20.608-57.28,31.67c-23.521,13.843-46.717,28.249-69.827,42.771c-24.2,15.207-48.198,30.739-72.153,46.333
		c-10.738,6.99-21.095,14.564-31.765,21.665c-2.268,1.509-5.075,2.782-7.739,3.029c-38.491,3.56-76.998,6.949-115.509,10.298
		c-3.487,0.304-7.024,0.041-10.539,0.041c-0.096-0.595-0.19-1.188-0.286-1.783c1.557-0.545,3.073-1.388,4.674-1.593
		c24.103-3.079,44.589-14.877,63.731-28.444c30.278-21.461,59.709-44.137,89.189-66.703c20.623-15.786,40.865-32.079,61.02-48.465
		c12.769-10.381,27.298-16.179,43.272-19.325c49.265-9.705,99.009-15.886,148.935-20.828c9.449-0.936,18.871-2.169,28.315-3.173
		c2.027-0.216,4.099-0.031,6.149-0.031C2660.018,317.753,2660.088,318.235,2660.159,318.719z"/>
	<path d="M585.041,507.751c-2.71,0-5.438,0.202-8.127-0.03c-35.025-3.025-70.046-6.112-105.067-9.187
		c-0.166-0.016-0.333-0.076-0.495-0.062c-13.919,1.134-24.059-6.688-34.702-13.993c-17.55-12.045-35.548-23.438-53.396-35.046
		c-14.34-9.325-28.635-18.728-43.136-27.799c-16.794-10.505-33.541-21.127-50.756-30.908c-28.511-16.2-57.143-32.223-86.184-47.443
		c-19.01-9.964-38.871-18.273-59.955-23.145c-1.189-0.274-2.306-0.865-3.456-1.31c0.042-0.438,0.083-0.876,0.124-1.313
		c1.806-0.112,3.646-0.505,5.414-0.296c44.342,5.242,88.765,9.924,132.977,16.107c21.861,3.059,43.524,8.181,64.881,13.86
		c8.171,2.174,15.808,7.767,22.7,13.082c24.258,18.712,47.844,38.297,72.146,56.95c26.147,20.068,52.539,39.848,79.364,58.995
		c14.495,10.347,30.229,18.919,47.301,24.568c3.299,1.092,6.781,1.64,10.189,2.386c3.454,0.756,6.923,1.446,10.385,2.166
		C585.179,506.14,585.109,506.945,585.041,507.751z"/>
	<path d="M745.584,501.99c-1.656,0.395-3.295,1.013-4.973,1.148c-44.86,3.662-89.79,5.376-134.774,3.413
		c-6.012-0.263-12.405-2.713-17.738-5.718c-22.618-12.744-45.117-25.731-67.258-39.288c-28.391-17.383-56.688-34.954-84.453-53.31
		c-16.075-10.628-31.162-22.783-46.395-34.635c-4.254-3.31-7.722-7.778-10.976-12.145c-1.196-1.606-1.717-5.797-0.819-6.453
		c1.896-1.388,5.171-2.147,7.45-1.543c11.252,2.986,22.304,6.721,33.536,9.783c22.159,6.04,44.305,12.177,66.632,17.535
		c10.643,2.554,21.661,3.645,32.562,4.981c10.347,1.269,18.979,5.973,26.83,12.372c26.914,21.936,55.725,40.996,86.012,57.959
		c28.154,15.769,57.505,28.647,88.328,38.11c7.138,2.19,14.593,3.341,21.897,4.986c1.37,0.31,2.722,0.702,4.082,1.058
		C745.547,500.828,745.565,501.409,745.584,501.99z"/>
	<path d="M2054.461,500.201c4.297-0.943,8.711-1.528,12.87-2.892c18.798-6.158,37.839-11.74,56.202-19.022
		c27.303-10.827,52.896-25.257,77.358-41.45c17.463-11.56,34.539-23.792,51.045-36.675c11.302-8.822,23.341-14.592,37.564-15.717
		c23.248-1.839,45.475-8.346,67.731-14.706c19.356-5.531,38.658-11.254,58.066-16.594c1.943-0.534,5.145,0.364,6.475,1.795
		c0.967,1.038,0.621,4.819-0.544,6.062c-6.679,7.121-13.228,14.539-20.831,20.586c-26.885,21.378-55.758,39.906-85.115,57.677
		c-29.189,17.668-58.389,35.323-87.632,52.901c-6.704,4.03-13.349,8.339-20.507,11.369c-5.064,2.144-10.957,3.309-16.466,3.263
		c-34.636-0.29-69.269-0.939-103.896-1.712c-9.143-0.203-18.27-1.212-27.396-1.95c-1.678-0.136-3.316-0.751-4.973-1.146
		C2054.431,501.394,2054.445,500.797,2054.461,500.201z"/>
	<path d="M2071.088,458.545c7.092-1.445,13.503-7.61,14.428-14.597c1.709-12.922,7.753-23.58,17.969-31.146
		c13.213-9.786,27.187-18.554,40.906-27.646c4.995-3.311,10.182-6.336,15.335-9.399c1.438-0.855,3.072-1.383,4.616-2.062
		c0.332,0.382,0.664,0.763,0.996,1.144c-0.814,1.182-1.443,2.566-2.475,3.515c-21.94,20.179-44.007,40.225-65.821,60.541
		c-3.294,3.066-5.397,7.396-8.157,11.061c-4.196,5.572-8.502,11.06-12.722,16.614c-1.28,1.686-2.431,3.472-2.972,6.2
		c1.493-0.735,3.121-1.282,4.461-2.234c19.257-13.704,38.479-27.458,57.701-41.21c13.122-9.387,22.373-22.048,31.02-35.457
		c9.834-15.252,21.957-28.514,38.252-37.262c6.687-3.59,13.822-4.727,22.373-3.441c-1.309,1.012-1.666,1.529-2,1.514
		c-14.871-0.688-25.939,7.258-35.199,17.214c-9.234,9.928-17.688,20.787-25.123,32.13c-9.107,13.896-21.441,24.149-34.499,33.617
		c-18.464,13.391-37.479,26.02-56.241,38.998c-1.412,0.979-2.688,2.153-4.027,3.237c0.25,0.438,0.498,0.873,0.748,1.311
		c6.422-2.509,13.072-4.554,19.226-7.604c24.603-12.202,49.707-23.589,73.378-37.415c26.995-15.768,52.822-33.594,75.592-55.356
		c0.481-0.461,0.906-1.151,1.479-1.313c1.275-0.363,2.628-0.461,3.949-0.666c-0.344,1.141-0.35,2.601-1.08,3.373
		c-6.403,6.76-12.621,13.741-19.482,20.013c-42.584,38.925-91.468,66.94-146.635,83.906c-8.43,2.593-17.01,4.708-25.398,7.422
		c-3.65,1.182-6.898,3.566-10.509,4.933c-2.571,0.972-5.471,1.734-8.174,1.601c-40.099-1.993-80.189-4.11-120.277-6.299
		c-12.311-0.673-24.632-1.374-36.89-2.634c-4.456-0.458-8.725-2.636-13.11-3.915c-1.733-0.507-3.58-1.091-5.337-0.985
		c-14.039,0.829-27.396-3.164-40.938-5.716c-17.506-3.299-34.947-6.935-52.422-10.405c-30.707-6.102-61.436-12.097-92.117-18.313
		c-21.866-4.432-43.676-9.147-65.504-13.762c-1.285-0.271-2.524-0.759-3.785-1.146c0.117-0.483,0.235-0.967,0.354-1.45
		c4.29,0.695,8.614,1.221,12.862,2.113c28.188,5.929,56.33,12.1,84.553,17.867c23.814,4.866,47.718,9.304,71.584,13.918
		c21.094,4.077,42.289,7.701,63.26,12.34c18.645,4.124,34.727,0.767,46.542-14.655c4.945-6.454,7.799-14.565,11.252-22.084
		c1.512-3.29,1.975-7.047,3.254-10.464c0.485-1.297,1.927-2.237,2.933-3.34c0.433,1.387,1.513,2.942,1.2,4.134
		c-5.146,19.602-12.485,37.758-32.498,47.142c-0.551,0.257-0.97,0.793-2.213,1.845c5.791,1.819,11.393,4.878,16.192,2.156
		c14.877-8.431,29.279-17.708,43.724-26.882c3.909-2.481,5.959-6.4,6.804-11.17c2.282-12.875,8.969-22.789,20.735-28.956
		c0.858-0.449,1.802-0.758,2.733-1.032c0.214-0.062,0.55,0.288,1.569,0.872c-1.736,1.474-3.196,2.871-4.813,4.057
		c-8.452,6.188-13.991,14.157-15.278,24.749c-0.865,7.127-5.582,11.789-10.948,15.438c-9.899,6.731-20.232,12.827-30.395,19.173
		c-1.653,1.033-3.354,1.991-6.4,3.791c2.629,0.412,3.771,0.756,4.909,0.744c11.616-0.119,22.082-2.22,32.075-9.688
		c19.099-14.271,38.393-28.195,55.404-44.979c3.184-3.14,6.299-6.558,8.533-10.38c1.648-2.822,2.969-6.72,2.418-9.774
		c-1.42-7.861,0.672-14.508,6.073-19.652c6.218-5.924,13.278-10.971,20.061-16.288c0.88-0.689,2.275-0.72,3.434-1.056
		c0.258,0.432,0.514,0.863,0.771,1.295c-1.524,1.227-2.999,2.522-4.581,3.669c-8.104,5.873-16.521,11.511-20.372,21.338
		c-0.983,2.509-1.714,5.739-0.988,8.167c1.642,5.494-0.104,9.857-3.123,13.996c-9.839,13.487-22.78,23.759-35.817,33.854
		c-10.26,7.944-20.84,15.475-31.268,23.201c-1.163,0.862-2.261,1.813-3.373,2.71c0.411,0.602,0.604,1.097,0.765,1.086
		c10.365-0.675,20.652-0.414,30.204-6.44c16.889-10.657,34.618-19.979,51.557-30.562c15.385-9.613,30.24-20.095,41.952-34.303
		c3.354-4.07,4.811-8.404,3.374-13.845c-2.003-7.586,1.523-13.776,6.635-18.88c8.82-8.809,19.945-13.675,31.674-17.294
		c0.403-0.124,0.924,0.133,2.11,0.335c-1.858,5.438-3.919,10.611-5.392,15.945c-3.047,11.038-6.092,22.094-8.519,33.276
		c-1.34,6.175,0.155,11.94,4.272,17.35c1.646,2.161,1.657,7.057,0.351,9.68C2079.547,446.418,2075.134,452.272,2071.088,458.545z"/>
	<path d="M730.083,479.817c-1.64-1.26-3.241-2.572-4.926-3.769c-22.539-15.993-45.25-31.749-67.564-48.049
		c-10.141-7.407-17.627-17.257-24.472-27.983c-10.946-17.153-23.409-33.46-42.76-42.221c-4.975-2.251-10.725-2.791-17.124-4.365
		c2.407-0.354,4.145-0.816,5.883-0.828c10.002-0.062,18.341,4.288,26.054,10.132c14.715,11.149,25.706,25.552,35.162,41.151
		c5.65,9.322,13.213,16.779,21.668,23.266c13.341,10.231,27.086,19.939,40.721,29.785c5.933,4.283,11.992,8.392,18.044,12.506
		c1.852,1.258,3.866,2.272,5.807,3.398c0.353-0.343,0.704-0.686,1.056-1.029c-4.058-5.511-8.156-10.991-12.154-16.546
		c-1.912-2.658-3.363-5.69-5.501-8.14c-4.352-4.984-8.767-9.967-13.612-14.457c-19.549-18.107-39.28-36.021-58.914-54.038
		c-1.109-1.018-1.95-2.328-2.916-3.503c0.238-0.385,0.478-0.771,0.716-1.156c1.136,0.252,2.457,0.212,3.381,0.798
		c17.839,11.33,35.882,22.365,53.349,34.247c12.385,8.425,20.47,20.036,22.745,35.482c0.846,5.727,6.497,13.591,15.001,14.031
		c-2.8-3.541-5.474-6.593-7.756-9.911c-1.968-2.862-4.172-5.855-5.008-9.115c-0.75-2.929-0.979-7.259,0.651-9.294
		c5.211-6.499,5.588-13.522,3.622-20.787c-3.812-14.086-8.156-28.026-12.266-42.032c-0.318-1.089-0.52-2.214-0.896-3.85
		c1.426,0.073,2.562-0.114,3.519,0.22c9.944,3.47,19.599,7.529,27.646,14.592c7.203,6.322,11.261,13.496,8.868,23.785
		c-0.748,3.216,1.313,7.882,3.5,10.843c8.726,11.812,20.45,20.6,32.622,28.349c21.48,13.675,43.509,26.501,65.495,39.361
		c8.019,4.688,17.312,3.049,25.997,4.497c0.198-0.464,0.396-0.927,0.595-1.391c-1.175-0.979-2.323-1.993-3.527-2.936
		c-17.555-13.735-35.269-27.275-52.585-41.306c-5.11-4.141-9.277-9.515-13.562-14.589c-3.777-4.476-5.312-9.354-3.929-15.674
		c1.712-7.82-3.577-13.62-8.695-18.649c-4.125-4.053-9.091-7.245-13.646-10.867c-1.263-1.003-2.39-2.177-2.938-4.253
		c0.897,0.149,1.935,0.058,2.671,0.484c9.887,5.723,19.358,12.086,24.772,22.532c1.718,3.313,2.504,7.678,2.107,11.39
		c-0.589,5.539-0.05,10.438,3.882,14.356c8.706,8.683,17.112,17.783,26.604,25.533c13.784,11.254,28.432,21.447,42.682,32.134
		c4.001,3,8.357,4.512,13.429,4.506c5.037-0.006,10.075,0.548,15.112,0.855c0.153-0.521,0.308-1.043,0.46-1.564
		c-4.791-2.765-9.765-5.259-14.334-8.351c-9.07-6.141-18.17-12.296-26.713-19.125c-2.691-2.151-4.642-6.312-5.214-9.832
		c-1.771-10.905-7.183-19.161-15.995-25.485c-1.467-1.053-2.749-2.363-3.61-4.234c5.593,1.392,10.124,4.403,13.988,8.469
		c5.188,5.455,8.771,11.88,9.765,19.328c1.025,7.705,5.591,12.852,11.573,16.636c12.516,7.914,25.271,15.463,38.119,22.828
		c5.664,3.247,11.126-0.275,17.795-1.341c-1.608-1.355-2.194-2.108-2.964-2.461c-15.077-6.903-22.771-19.896-28.362-34.539
		c-1.537-4.024-2.674-8.231-3.61-12.44c-0.267-1.199,0.815-2.698,1.281-4.062c0.952,0.967,2.318,1.765,2.79,2.926
		c3.673,9.055,6.78,18.357,10.816,27.242c6.467,14.236,24.521,24.165,39.952,21.715c19.404-3.081,38.722-6.744,58.025-10.422
		c19.625-3.737,39.202-7.731,58.774-11.732c24.47-5.002,48.903-10.173,73.371-15.18c16.479-3.372,32.989-6.59,49.488-9.865
		c0.915-0.183,1.85-0.27,2.775-0.398c0.155,0.4,0.312,0.801,0.469,1.202c-1.106,0.451-2.174,1.084-3.323,1.328
		c-17.104,3.626-34.205,7.262-51.331,10.774c-40.129,8.229-80.256,16.473-120.415,24.557c-21.219,4.271-42.496,8.253-63.766,12.271
		c-2.597,0.491-5.303,0.521-7.961,0.557c-5.761,0.078-11.446-0.578-16.755,3.146c-2.362,1.657-6.056,1.743-9.182,1.934
		c-49.223,2.997-98.45,5.901-147.679,8.795c-3.489,0.205-7.076,0.636-10.47,0.069c-3.215-0.535-6.209-2.319-9.349-3.419
		c-4.683-1.64-9.332-3.456-14.127-4.682c-37.873-9.673-73.631-24.448-106.963-44.834c-25.218-15.422-48.684-33.224-69.577-54.245
		c-3.395-3.415-6.574-7.054-9.685-10.73c-0.689-0.815-0.666-2.233-0.972-3.373c1.321,0.24,3.015,0.042,3.904,0.794
		c5.852,4.934,11.161,10.579,17.331,15.049c17.515,12.688,35.177,25.19,53.113,37.272c29.435,19.824,61.64,34.279,94.387,47.6
		c1.599,0.648,3.33,0.97,5,1.442C729.705,480.562,729.895,480.189,730.083,479.817z"/>
	<path d="M1944.566,517.699c7.14,7.168,14.637,14.025,21.26,21.644c3.022,3.479,5.047,8.26,6.248,12.789
		c2.155,8.121,0.332,15.812-6.457,21.204c-5.535,4.396-11.355,8.836-17.753,11.671c-17.939,7.949-36.647,13.157-56.597,12.158
		c-9.352-0.469-17.683-3.246-23.713-10.85c-0.714-0.9-0.439-2.584-0.625-3.904c1.256,0.472,3.036,0.567,3.688,1.475
		c6.157,8.573,15.012,11.3,24.878,11.415c14.733,0.171,28.646-4.022,42.15-9.351c2.384-0.94,4.128-4.583,5.293-7.347
		c5.299-12.564,6.692-25.661,4.469-39.134c-0.128-0.774-0.017-1.59,0.813-2.576c3.549,6.757,6.46,13.84,5.16,21.639
		c-1.245,7.473-3.511,14.775-5.36,22.29c-0.018-0.012,0.343,0.392,0.493,0.323c19.109-8.486,26.389-23.386,13.547-40.167
		c-4.991-6.521-11.412-11.962-17.31-17.768c-2.008-1.977-3.96-3.565-0.035-5.403C1944.704,517.8,1944.566,517.699,1944.566,517.699z
		"/>
	<path d="M855.303,517.799c4.398,2.288,1.627,4.122-0.504,5.677c-8.468,6.18-15.268,13.821-20.324,22.974
		c-5.062,9.163-3.676,18.855,4.01,25.882c3.911,3.577,8.422,6.5,13.43,9.177c-4.876-15.188-9.05-29.847,0.648-44.535
		c-0.065,1.327-0.023,2.672-0.218,3.979c-1.993,13.524,0.011,26.514,5.118,39.106c1.447,3.565,3.568,6.184,7.622,7.145
		c10.018,2.376,19.864,5.673,29.987,7.354c13.119,2.179,25.72,1.021,34.599-11.066c0.569-0.773,2.236-0.74,3.394-1.083
		c-0.182,1.32,0.095,2.997-0.614,3.905c-5.736,7.347-13.755,10.284-22.71,10.805c-22.407,1.3-43.316-4.854-63.034-14.584
		c-9.592-4.734-18.808-11.261-19.495-23.971c-0.529-9.788,4.345-17.313,10.564-23.978c5.544-5.938,11.736-11.27,17.653-16.877
		C855.44,517.699,855.303,517.799,855.303,517.799z"/>
</g>
</svg>
