<?xml version="1.0" encoding="utf-8"?>
<!-- Generator: Adobe Illustrator 16.0.0, SVG Export Plug-In . SVG Version: 6.00 Build 0)  -->
<!DOCTYPE svg PUBLIC "-//W3C//DTD SVG 1.1//EN" "http://www.w3.org/Graphics/SVG/1.1/DTD/svg11.dtd">
<svg version="1.1" id="Layer_1" xmlns="http://www.w3.org/2000/svg" xmlns:xlink="http://www.w3.org/1999/xlink" x="0px" y="0px"
	 width="412.98px" height="414.72px" viewBox="153.516 80.64 412.98 414.72" enable-background="new 153.516 80.64 412.98 414.72"
	 xml:space="preserve">
<g>
	<path d="M360.173,80.64c-15.552,0-29.03,8.294-39.053,20.736c0.691-2.765-1.377-5.529-4.147-5.529h-0.346c0,0,0,0-0.352,0
		c-0.345,0-1.036,0.345-1.382,0.691c-34.56,16.935-56.679,51.84-57.019,90.547l0,0v1.037c0,3.456,0,6.912,0.346,10.368
		c4.493,44.928,38.022,80.87,81.222,89.856l-5.184,78.105c-30.413-47.347-83.29-78.797-143.77-78.797
		c-10.022,0-20.39,1.037-30.413,2.765c-2.068,0.345-3.456,1.728-3.802,3.456c-1.728,10.374-2.759,20.391-2.759,30.765
		c-0.012,94.343,76.366,170.721,170.715,170.721c10.022,0,20.391-1.037,30.413-2.765c1.728-0.346,3.11-1.729,3.456-3.796
		c0.69-3.11,1.382-6.572,1.733-9.683l0,0h0.346c0.346,3.11,1.037,6.572,1.728,9.683c0.352,2.067,1.729,3.456,3.462,3.796
		c10.011,1.728,20.379,2.765,30.401,2.765c94.349,0,170.727-76.378,170.727-170.727c0-10.374-1.037-20.391-2.759-30.764
		c-0.346-1.722-2.074-3.11-3.802-3.456c-10.022-1.728-20.391-2.765-30.413-2.765l0,0c-60.479,0-113.356,31.45-143.77,78.797
		l-5.189-78.1c7.257-1.382,14.515-3.802,21.427-6.912c0.346-0.346,0.691-0.346,0.691-0.346
		c32.141-14.861,55.296-45.619,59.098-82.598c0.352-3.456,0.691-6.912,0.691-10.368v-1.037l0,0
		c-0.691-38.708-22.464-73.613-57.024-90.547c-0.686-0.346-1.377-0.691-1.728-0.691c-0.346,0-0.346,0-0.691,0l0,0
		c-2.759,0.346-4.839,2.765-4.147,5.53C388.857,88.935,375.379,80.64,360.173,80.64L360.173,80.64z M360.173,89.625
		c12.787,0,24.877,7.258,33.869,19.699c2.759,4.147,5.184,8.64,7.603,13.824c-0.352,8.64-2.765,15.897-6.221,22.118
		c-6.221,11.405-16.589,21.082-27.993,30.758c-2.42,2.074-4.839,4.493-7.258,6.566c-2.419-2.073-4.839-4.493-7.258-6.566
		c-11.75-10.022-22.118-19.354-28.339-30.758c-3.462-6.221-5.529-13.478-5.881-22.118c2.073-5.184,4.492-9.677,7.258-13.824
		C334.944,96.883,347.04,89.625,360.173,89.625L360.173,89.625z M310.752,110.016c-2.419,15.897,0.352,28.685,6.221,39.744
		c6.912,13.133,18.317,23.155,30.067,33.178c23.161,20.045,47.692,39.744,49.421,83.635c0,2.419-0.346,4.838-0.346,7.603
		c-11.405,4.839-23.853,7.258-35.942,7.604c-1.383,0-2.759-0.346-4.147-0.346l0,0c-46.311-2.074-84.332-37.67-88.819-83.981
		c-0.352-3.11-0.691-6.221-0.691-9.331v-1.037C266.861,155.29,284.141,126.605,310.752,110.016L310.752,110.016z M409.594,110.016
		c26.266,16.589,43.546,45.273,43.891,77.069v1.037c0,3.11-0.351,6.221-0.351,9.331c-3.456,31.45-21.773,58.061-48.039,72.23
		c0.346-1.037,0.346-2.074,0.346-3.11v-0.346c-1.376-37.67-19.699-60.134-38.707-77.76c2.073-1.728,4.147-3.802,6.221-5.53
		c11.751-10.022,23.161-20.045,30.413-33.178C409.248,138.701,411.667,125.914,409.594,110.016L409.594,110.016z M348.423,289.728
		c2.419,0.346,4.838,0.346,7.257,0.691c1.383,0,2.765,0,4.153,0h0.346c3.802,0,7.598-0.345,11.399-0.691l6.221,90.547
		c-9.332,17.971-15.547,37.324-17.626,58.412c-2.419-20.742-8.64-40.441-17.972-58.412L348.423,289.728L348.423,289.728z
		 M190.483,296.64L190.483,296.64c89.51,0,161.74,72.231,161.74,161.741c0,8.64-1.036,17.28-2.419,25.568
		c-8.294,1.383-16.935,2.425-25.574,2.425c-89.51,0-161.741-72.23-161.741-161.74c0-8.64,1.042-17.28,2.419-25.575
		C173.203,297.331,181.843,296.64,190.483,296.64L190.483,296.64z M529.517,296.64L529.517,296.64L529.517,296.64
		c8.641,0,17.28,1.037,25.574,2.419c1.383,8.294,2.42,16.935,2.42,25.575c0,89.51-72.23,161.74-161.741,161.74
		c-8.64,0-16.929-1.042-25.568-2.425c-1.383-8.288-2.425-16.929-2.425-25.568C367.776,368.871,440.007,296.64,529.517,296.64
		L529.517,296.64z M360.173,477.043c0,0.346,0,0.346,0,0.691l0,0h-0.346C359.833,477.389,359.833,477.389,360.173,477.043
		L360.173,477.043z"/>
</g>
</svg>
