<?xml version="1.0" encoding="utf-8"?>
<!-- Generator: Adobe Illustrator 16.0.0, SVG Export Plug-In . SVG Version: 6.00 Build 0)  -->
<!DOCTYPE svg PUBLIC "-//W3C//DTD SVG 1.1//EN" "http://www.w3.org/Graphics/SVG/1.1/DTD/svg11.dtd">
<svg version="1.1" id="Layer_1" xmlns="http://www.w3.org/2000/svg" xmlns:xlink="http://www.w3.org/1999/xlink" x="0px" y="0px"
	 width="544.05px" height="571.5px" viewBox="87.975 2.25 544.05 571.5" enable-background="new 87.975 2.25 544.05 571.5"
	 xml:space="preserve">
<g>
	<path d="M189.45,214.312c0-15.3-12.375-27.675-27.675-27.675c-15.3,0-27.675,12.375-27.675,27.675s12.375,27.675,27.675,27.675
		C177.075,241.987,189.45,229.5,189.45,214.312z M152.55,214.312c0-5.062,4.163-9.225,9.225-9.225S171,209.25,171,214.312
		s-4.163,9.225-9.225,9.225C156.712,223.425,152.55,219.375,152.55,214.312z"/>
	<path d="M585.787,214.312c0-15.3-12.375-27.675-27.675-27.675s-27.675,12.375-27.675,27.675s12.375,27.675,27.675,27.675
		C573.412,241.875,585.787,229.5,585.787,214.312z M549,214.312c0-5.062,4.162-9.225,9.225-9.225s9.226,4.163,9.226,9.225
		s-4.163,9.225-9.226,9.225C553.05,223.425,549,219.375,549,214.312z"/>
	<path d="M567.45,370.912h1.462c29.476,0,53.438-23.962,53.438-53.437v-19.913h-19.912c-13.388,0-25.537,4.95-34.987,13.163V286.65
		c6.3-1.688,12.149-4.837,16.875-9.562c9.675,0.225,19.125-3.825,26.1-10.688c6.976-6.975,10.8-16.312,10.688-26.1
		c6.976-6.862,10.913-16.087,10.913-25.987s-3.938-19.125-10.913-25.987c0-9.788-3.712-19.125-10.688-26.1
		c-6.862-6.863-16.087-10.688-25.987-10.688h-0.112c-6.862-6.975-16.088-10.913-26.101-10.913c-9.899,0-19.125,3.938-26.1,10.913
		h-0.112c-9.788,0-19.013,3.825-25.987,10.688c-6.976,6.975-10.801,16.312-10.688,26.1c-6.976,6.862-10.913,16.087-10.913,25.987
		s3.938,19.125,10.913,25.987c0,9.788,3.712,19.125,10.688,26.1c6.862,6.863,16.087,10.688,25.987,10.688h0.112
		c4.725,4.725,10.463,7.988,16.875,9.562v24.525c-9.45-8.438-21.825-13.5-35.438-13.5H493.65v19.913
		c0,14.288,5.512,27.675,15.637,37.8s23.513,15.638,37.801,15.638H549l0,0v18.449H364.612V361.8h5.175
		c37.801,0,68.625-30.825,68.625-68.625V269.55h-23.625c-19.8,0-37.688,8.438-50.175,21.938v-32.625
		c12.713-3.6,23.625-14.625,30.601-31.387c8.55,3.487,16.762,5.288,24.524,5.288l0,0c13.95,0,25.65-6.075,31.95-16.763
		c6.975-11.812,6.862-27.788-0.112-44.888c20.7-8.662,32.85-23.175,32.85-39.825c0-16.763-12.037-31.163-32.85-39.825
		c6.975-17.1,7.087-33.075,0.112-44.887C441.9,30.038,419.175,25.2,395.213,35.1C386.55,14.288,372.15,2.25,355.388,2.25
		s-31.163,12.038-39.825,32.85c-23.962-9.788-46.575-5.062-56.475,11.475c-6.975,11.812-6.862,27.787,0.113,44.887
		c-20.7,8.663-32.85,23.175-32.85,39.825c0,16.762,12.038,31.163,32.85,39.825c-6.975,17.1-7.088,33.075-0.113,44.888
		c9.788,16.538,32.513,21.375,56.475,11.475c7.088,16.762,17.888,27.788,30.6,31.387v32.625
		c-12.487-13.5-30.375-21.938-50.175-21.938h-23.625v23.625c0,37.8,30.825,68.625,68.625,68.625h5.175v27.675H171v-18.449h1.688
		c29.475,0,53.438-23.963,53.438-53.438v-19.913h-19.913c-13.5,0-25.762,5.062-35.212,13.388v-24.3
		c6.3-1.688,12.15-4.838,16.875-9.562h0.112c9.788,0,19.013-3.825,25.988-10.688c6.975-6.975,10.8-16.312,10.688-26.1
		c6.975-6.863,10.913-16.087,10.913-25.988c0-9.9-3.938-19.125-10.913-25.987c0-9.788-3.712-19.125-10.688-26.1
		c-6.863-6.862-16.087-10.688-25.988-10.688h-0.112c-6.862-6.975-16.087-10.913-26.1-10.913c-9.9,0-19.125,3.938-26.1,10.913h-0.112
		c-9.788,0-19.013,3.825-25.987,10.688c-6.975,6.975-10.8,16.312-10.688,26.1c-6.975,6.862-10.913,16.087-10.913,25.987
		c0,9.9,3.938,19.125,10.913,25.988c0,9.788,3.712,19.125,10.688,26.1c6.862,6.862,16.087,10.688,25.987,10.688h0.112
		c4.725,4.725,10.463,7.875,16.875,9.562v24.075c-9.337-8.212-21.6-13.163-34.987-13.163h-19.8v19.913
		c0,29.475,23.962,53.438,53.438,53.438h1.462v18.449H88.087v147.488h36.9v36.787h55.35v-36.9h350.325v36.9h55.351v-36.9h36.899
		V389.362h-55.35v-18.45H567.45z M548.55,352.575h-1.462c-19.238,0-34.988-15.638-34.988-34.988v-1.462h1.463
		c19.237,0,34.987,15.638,34.987,34.987V352.575z M171.225,351.112c0-19.237,15.637-34.987,34.987-34.987h1.462v1.462
		c0,19.238-15.637,34.988-34.987,34.988h-1.462V351.112z M602.325,316.125h1.462v1.462c0,19.238-15.637,34.988-34.987,34.988h-1.462
		v-1.463C567.45,331.763,583.088,316.125,602.325,316.125z M543.487,262.125l-3.263-4.388l-5.399,0.788
		c-5.737,0.9-11.588-1.012-15.638-5.062c-4.05-4.05-5.963-9.788-5.062-15.75l0.787-5.4l-4.387-3.263
		c-4.726-3.6-7.426-8.887-7.426-14.737s2.7-11.138,7.426-14.737l4.387-3.263l-0.787-5.4c-0.9-5.85,1.013-11.587,5.062-15.75
		c4.05-4.05,9.9-5.962,15.638-5.062l5.399,0.788l3.263-4.388c7.088-9.45,22.275-9.45,29.362,0l3.263,4.388l5.4-0.788
		c5.85-0.9,11.587,1.012,15.638,5.062c4.05,4.05,5.962,9.788,5.062,15.75l-0.788,5.4l4.388,3.263
		c4.725,3.6,7.425,8.887,7.425,14.737s-2.7,11.138-7.425,14.737l-4.388,3.263l0.788,5.4c0.899,5.85-1.013,11.587-5.062,15.638
		c-4.051,4.05-9.9,5.962-15.75,5.062l-5.4-0.788l-3.263,4.388C565.763,271.575,550.575,271.575,543.487,262.125z M414.787,288h5.176
		v5.175c0,27.675-22.5,50.175-50.176,50.175h-5.175v-5.175C364.612,310.5,387.112,288,414.787,288z M435.825,206.663
		c-3.825,6.413-10.8,7.762-16.088,7.762l0,0c-7.425,0-16.2-2.587-25.312-7.65c15.525-8.1,28.351-20.812,36.45-36.45
		C438.75,184.95,440.662,198.562,435.825,206.663z M465.975,131.288c0,10.462-11.362,20.362-29.587,25.762
		c2.587-8.1,4.05-16.762,4.05-25.762s-1.463-17.55-4.05-25.763C454.725,110.925,465.975,120.825,465.975,131.288z M419.737,48.263
		c5.288,0,12.263,1.35,16.088,7.762c4.837,8.1,2.925,21.6-4.95,36.225c-8.1-15.525-20.812-28.35-36.45-36.45
		C403.65,50.85,412.312,48.263,419.737,48.263z M355.388,20.7c10.462,0,20.362,11.362,25.763,29.587
		c-8.101-2.587-16.763-4.05-25.763-4.05s-17.55,1.463-25.763,4.05C335.025,32.062,344.925,20.7,355.388,20.7z M274.95,55.913
		c3.825-6.413,10.8-7.763,16.087-7.763c7.425,0,16.087,2.587,25.312,7.65C300.825,63.9,288,76.725,279.9,92.25
		C272.025,77.625,270.112,64.125,274.95,55.913z M244.8,131.288c0-10.462,11.363-20.363,29.588-25.763
		c-2.588,8.1-4.05,16.763-4.05,25.763s1.462,17.55,4.05,25.762C256.163,151.65,244.8,141.75,244.8,131.288z M291.038,214.425
		c-5.288,0-12.263-1.35-16.087-7.762c-4.838-8.1-2.925-21.712,4.95-36.225c8.1,15.525,20.812,28.35,36.45,36.45
		C307.125,211.725,298.462,214.425,291.038,214.425z M288.788,131.288c0-36.675,29.925-66.6,66.6-66.6s66.6,29.925,66.6,66.6
		c0,36.675-29.925,66.6-66.6,66.6S288.788,168.075,288.788,131.288z M329.737,212.288c8.101,2.587,16.763,3.938,25.763,3.938
		s17.55-1.462,25.763-3.938c-5.513,18.337-15.413,29.587-25.875,29.587C344.925,241.875,335.025,230.625,329.737,212.288z
		 M340.987,343.35c-27.675,0-50.175-22.5-50.175-50.175V288h5.175c27.675,0,50.175,22.5,50.175,50.175v5.175H340.987z
		 M147.15,262.125l-3.262-4.388l-5.4,0.788c-5.737,0.9-11.587-1.012-15.75-5.062c-4.05-4.05-5.962-9.788-5.062-15.75l0.788-5.4
		l-4.387-3.263c-4.725-3.6-7.425-8.887-7.425-14.737s2.7-11.138,7.425-14.737l4.387-3.263l-0.788-5.4
		c-0.9-5.85,1.013-11.587,5.062-15.75c4.05-4.05,9.9-5.962,15.638-5.062l5.4,0.788l3.263-4.388c7.087-9.45,22.275-9.45,29.362,0
		l3.263,4.388l5.4-0.788c5.85-0.9,11.587,1.012,15.638,5.062c4.05,4.05,5.962,9.788,5.062,15.75l-0.788,5.4l4.387,3.263
		c4.725,3.6,7.425,8.887,7.425,14.737s-2.7,11.138-7.425,14.737l-4.387,3.263l0.788,5.4c0.9,5.85-1.013,11.587-5.062,15.75
		c-4.05,4.05-9.9,5.962-15.638,5.062l-5.4-0.788l-3.263,4.388C169.425,271.575,154.237,271.575,147.15,262.125z M151.087,352.575
		c-19.237,0-34.987-15.638-34.987-34.988v-1.462h1.462c19.237,0,34.987,15.638,34.987,34.987v1.463H151.087z M161.775,555.3h-18.337
		v-18.45h18.45v18.45H161.775z M567.45,555.3H549v-18.45h18.45V555.3z M604.237,518.4h-497.7v-73.688h497.7V518.4z M604.237,407.812
		v18.45h-497.7v-18.45H604.237z"/>
</g>
</svg>
