<?xml version="1.0" encoding="utf-8"?>
<!-- Generator: Adobe Illustrator 16.0.0, SVG Export Plug-In . SVG Version: 6.00 Build 0)  -->
<!DOCTYPE svg PUBLIC "-//W3C//DTD SVG 1.1//EN" "http://www.w3.org/Graphics/SVG/1.1/DTD/svg11.dtd">
<svg version="1.1" id="Layer_1" xmlns="http://www.w3.org/2000/svg" xmlns:xlink="http://www.w3.org/1999/xlink" x="0px" y="0px"
	 width="157.738px" height="550.46px" viewBox="276.555 14.02 157.738 550.46"
	 enable-background="new 276.555 14.02 157.738 550.46" xml:space="preserve">
<path d="M409.997,564.48c-1.21-38.869-1.878-77.761-3.842-116.589c-1.049-20.661-4.205-41.219-6.676-61.793
	c-1.118-9.297,0.011-11.779,10.488-17.787c1.976,15.604,4.188,30.896,5.812,46.253c5.017,47.451,7.159,95.046,6.555,142.756
	c-0.029,2.385-0.236,4.77-0.357,7.154C417.986,564.48,413.988,564.48,409.997,564.48z"/>
<path d="M401.576,359.493c-7.361-22.349-6.699-43.004,3.824-62.922c2.868-5.432,6.071-11.013,10.351-15.292
	c5.835-5.824,7.482-12.707,8.6-20.287c2.696-18.322,5.686-36.599,8.588-54.893c0.053-0.317,0.455-0.576,1.354-1.653
	c-0.727,15.909-1.51,30.995-2.08,46.086c-0.449,11.946-0.979,23.898-0.887,35.844C431.539,314.421,422.818,338.717,401.576,359.493z
	"/>
<path d="M391.115,302.336c-9.941-25.171-9.25-49.144,5.063-70.727c8.063-12.153,10.72-24.825,12.568-38.379
	c1.664-12.205,3.398-24.399,5.962-36.582c0,5.363,0.062,10.731-0.012,16.093c-0.3,20.892,0.443,41.691,2.119,62.571
	c1.855,23.144-6.635,43.811-21.122,61.914C394.462,298.766,393.068,300.165,391.115,302.336z"/>
<path d="M377.199,299.935c-12.77-1.924-24.238-7.027-33.2-15.972c-7.229-7.217-14.233-15.391-18.715-24.434
	c-5.748-11.595-13.316-21.606-21.058-31.668c-8.594-11.174-17.251-22.297-25.12-34.174c4.292,4.17,8.623,8.3,12.868,12.522
	c11.727,11.67,23.316,23.489,35.223,34.98c2.252,2.171,5.547,3.721,8.628,4.504c14.106,3.583,26.381,9.994,35.499,21.629
	c1.054,1.342,2.097,3.006,2.327,4.637C374.93,280.967,375.967,290.027,377.199,299.935z"/>
<path d="M287.125,243.815c13.427,12.453,26.899,24.866,40.256,37.394c4.066,3.813,7.673,8.122,11.797,11.871
	c1.636,1.486,3.997,2.419,6.191,3.007c15.046,4.032,28.132,11.146,37.406,24.002c1.699,2.356,2.562,5.651,2.874,8.611
	c0.87,8.254,1.25,16.554,1.854,25.378c-12.678-2.805-23.72-9.175-32.596-18.726c-5.501-5.916-11.054-12.476-14.146-19.78
	c-6.105-14.435-15.99-26.006-25.327-38.091c-9.009-11.658-18.121-23.236-27.187-34.848
	C287.873,243.032,287.499,243.423,287.125,243.815z"/>
<path d="M373.691,243.827c-7.954-21.998-7.298-42.44,5.104-60.745c6.998-10.328,9.146-21.249,10.875-32.814
	c2.027-13.536,4.199-27.049,5.454-35.073c0,15.512,0.069,36.438-0.034,57.364c-0.046,9.147,0.179,18.363-0.823,27.423
	C392.452,216.426,385.327,230.625,373.691,243.827z"/>
<path d="M360.771,242.277c-18.904-3.986-32.175-14.544-42.008-30.246c-9.17-14.642-18.691-29.059-28.229-43.465
	c-4.798-7.246-9.982-14.245-13.979-22.222c6.607,7.125,13.225,14.239,19.82,21.375c3.646,3.951,7.298,7.903,10.869,11.917
	c8.018,9.014,15.391,18.57,28.69,20.69c4.193,0.668,8.145,4.061,11.768,6.785c5.801,4.354,10.362,9.366,10.282,17.643
	C357.933,230.342,359.7,235.958,360.771,242.277z"/>
<path d="M277.978,105.915c8.605,12.062,17.407,23.984,25.724,36.236c4.125,6.077,8.571,10.299,16.192,12.453
	c13.847,3.911,24.416,12.263,27.78,27.487c0.841,3.813,2.701,7.407,4.36,11.796c-11.503-1.561-21.324-5.593-29.094-13.3
	c-5.179-5.132-9.953-10.961-13.681-17.211c-10.287-17.268-19.923-34.917-29.808-52.421c-0.83-1.475-1.567-3.007-2.344-4.51
	C277.396,106.266,277.689,106.093,277.978,105.915z"/>
<path d="M362.558,189.112c-10.65-20.027-9.314-38.932,0.173-57.537c2.315-4.544,2.84-8.761,2.465-13.657
	c-1.284-16.652-2.212-33.333-3.277-50.003c0.61-0.069,1.216-0.144,1.826-0.213c3.808,27.659,8.369,55.25,11.1,83.019
	C376.157,164.143,370.5,176.746,362.558,189.112z"/>
<path d="M281.445,72.202c8.294,12.009,16.427,24.134,24.992,35.942c2.327,3.208,5.593,6.128,9.061,8.035
	c13.254,7.281,20.08,18.519,22.406,33.984c-8.536-1.716-15.01-5.835-20.286-11.434c-3.899-4.136-7.229-9.014-9.953-14.025
	c-8.335-15.339-16.261-30.902-24.336-46.38c-0.968-1.854-1.883-3.738-2.822-5.604C280.823,72.553,281.134,72.38,281.445,72.202z"/>
<path d="M289.912,14.02c5.519,13.305,11.065,26.6,16.549,39.917c4.216,10.241,8.087,20.431,15.558,29.186
	c7.021,8.22,9.792,18.72,10.068,29.445c-15.045-4.77-20.701-15.483-22.366-30.309c-1.175-10.466-5.08-20.69-8.288-30.856
	c-3.917-12.413-8.381-24.659-12.609-36.974C289.192,14.291,289.555,14.158,289.912,14.02z"/>
<path d="M336.614,48.309c5.201,18.743,10.507,37.458,15.575,56.241c3.45,12.793,0.524,24.71-5.996,36.455
	c-6.878-9.55-9.297-20.742-6.318-31.052c4.901-16.94-0.282-32.619-2.305-48.787c-0.541-4.309-1.302-8.583-1.958-12.874
	C335.94,48.303,336.28,48.309,336.614,48.309z"/>
</svg>
