<?xml version="1.0" encoding="utf-8"?>
<!-- Generator: Adobe Illustrator 16.0.0, SVG Export Plug-In . SVG Version: 6.00 Build 0)  -->
<!DOCTYPE svg PUBLIC "-//W3C//DTD SVG 1.1//EN" "http://www.w3.org/Graphics/SVG/1.1/DTD/svg11.dtd">
<svg version="1.1" id="Layer_1" xmlns="http://www.w3.org/2000/svg" xmlns:xlink="http://www.w3.org/1999/xlink" x="0px" y="0px"
	 width="537.6px" height="566.4px" viewBox="91.2 4.8 537.6 566.4" enable-background="new 91.2 4.8 537.6 566.4"
	 xml:space="preserve">
<g>
	<g>
		<path d="M139.2,328.003V196.8c5.309,0,9.6-4.291,9.6-9.6c0-5.309-4.291-9.6-9.6-9.6V168c0-5.309-4.292-9.6-9.6-9.6
			c-5.309,0-9.6,4.292-9.6,9.6v9.6c-5.309,0-9.6,4.291-9.6,9.6c0,5.309,4.292,9.6,9.6,9.6v131.175l-26.851,35.434
			c-1.277,1.67-1.949,3.705-1.949,5.799V475.2c0,5.309,4.291,9.6,9.6,9.6h57.6c5.309,0,9.6-4.291,9.6-9.6V369.6
			c0-2.083-0.672-4.099-1.92-5.76L139.2,328.003z M148.8,465.6h-38.4v-93.168l19.162-25.286l19.238,25.651V465.6z M626.88,363.84
			L600,328.003V196.8c5.309,0,9.6-4.291,9.6-9.6c0-5.309-4.291-9.6-9.6-9.6V168c0-5.309-4.291-9.6-9.6-9.6
			c-5.31,0-9.601,4.292-9.601,9.6v9.6c-5.309,0-9.6,4.291-9.6,9.6c0,5.309,4.291,9.6,9.6,9.6v131.175l-26.851,35.434
			c-1.277,1.67-1.949,3.705-1.949,5.799V475.2c0,5.309,4.291,9.6,9.6,9.6H619.2c5.309,0,9.6-4.291,9.6-9.6V369.6
			C628.8,367.517,628.128,365.501,626.88,363.84z M609.6,465.6H571.2v-93.168l19.161-25.286l19.238,25.651V465.6z M388.8,62.4h-57.6
			c-47.645,0-86.4,38.765-86.4,86.4v278.4c0,47.645,38.755,86.399,86.4,86.399h57.6c47.646,0,86.4-38.755,86.4-86.399V148.8
			C475.2,101.165,436.445,62.4,388.8,62.4z M456,427.2c0,37.046-30.153,67.2-67.2,67.2h-57.6c-37.046,0-67.2-30.154-67.2-67.2V408
			h192V427.2z M456,388.8H264v-38.4h192V388.8z M456,331.2H264v-76.8h192V331.2z M456,235.2H264v-38.4h192V235.2z M456,177.6H264
			v-28.8c0-37.046,30.154-67.2,67.2-67.2h57.6c37.047,0,67.2,30.153,67.2,67.2V177.6z M388.8,4.8h-57.6
			c-79.402,0-144,64.599-144,144v278.4c0,79.401,64.598,144,144,144h57.6c79.401,0,144-64.599,144-144V148.8
			C532.8,69.398,468.201,4.8,388.8,4.8z M513.6,427.2c0,68.812-55.986,124.8-124.8,124.8h-57.6c-68.813,0-124.8-55.987-124.8-124.8
			V148.8C206.4,79.987,262.387,24,331.2,24h57.6c68.813,0,124.8,55.987,124.8,124.8V427.2z"/>
	</g>
</g>
</svg>
