<?xml version="1.0" encoding="utf-8"?>
<!-- Generator: Adobe Illustrator 16.0.0, SVG Export Plug-In . SVG Version: 6.00 Build 0)  -->
<!DOCTYPE svg PUBLIC "-//W3C//DTD SVG 1.1//EN" "http://www.w3.org/Graphics/SVG/1.1/DTD/svg11.dtd">
<svg version="1.1" id="Layer_1" xmlns="http://www.w3.org/2000/svg" xmlns:xlink="http://www.w3.org/1999/xlink" x="0px" y="0px"
	 width="295.556px" height="253.197px" viewBox="0 0 295.556 253.197" enable-background="new 0 0 295.556 253.197"
	 xml:space="preserve">
<g>
	<path fill-rule="evenodd" clip-rule="evenodd"  d="M227.941,134.871c-0.465,1.509-0.56,1.546-2.048,0.679
		c-0.417,0.81-0.835,1.614-1.375,2.658c-1.66-1.6-3.193-3.079-4.783-4.612c-1.648,2.517-1.863,5.423-2.717,8.391
		c-0.986-0.448-1.911-0.869-2.767-1.258c-0.481,2.883-0.973,5.842-1.497,8.995c-1.096-0.758-1.919-1.326-2.896-2
		c-0.927,3.631-0.47,7.557-3.603,10.562c-0.926-0.823-1.893-1.684-2.939-2.616c-0.647,1.558-1.22,2.995-1.849,4.406
		c-0.148,0.328-0.495,0.569-0.751,0.851c-0.216-0.263-0.513-0.494-0.635-0.797c-0.823-2.011-1.583-4.051-2.419-6.058
		c-0.325-0.776-0.798-1.493-1.203-2.238c-0.114,0.009-0.229,0.018-0.344,0.027c-0.105,0.384-0.286,0.767-0.304,1.155
		c-0.115,2.566-1.354,4.492-3.517,5.724c-1.377,0.784-1.563,2.022-1.725,3.298c-0.298,2.396-0.405,4.819-0.767,7.206
		c-0.154,1.017-0.705,1.987-1.161,2.938c-0.156,0.329-0.57,0.536-0.866,0.8c-0.251-0.297-0.627-0.558-0.729-0.9
		c-0.502-1.682-0.936-3.384-1.382-5.082c-0.09-0.34-0.137-0.69-0.239-1.225c-0.842,2.338-1.349,4.607-2.444,6.541
		c-1.091,1.926-2.774,3.514-4.574,5.26c-0.219-1.463-0.438-2.927-0.657-4.392c-0.128-0.045-0.255-0.09-0.382-0.134
		c-0.762,1.369-1.578,2.713-2.273,4.117c-0.931,1.88-2.214,3.508-4.001,4.512c-1.082,0.607-1.824,1.338-2.451,2.331
		c-0.938,1.487-2.251,2.46-4.009,2.82c-0.514,0.104-1.002,0.353-1.49,0.562c-0.823,0.354-1.061,0.92-1.188,1.882
		c-0.404,3.063-1.081,6.09-1.652,9.131c-0.184,0.006-0.367,0.013-0.551,0.02c-0.385-0.976-0.769-1.953-1.269-3.217
		c-0.228,3.044-0.433,5.784-0.636,8.523c-0.121,0.067-0.24,0.138-0.362,0.207c-0.262-0.303-0.68-0.567-0.769-0.914
		c-0.746-2.974-1.486-5.953-2.105-8.955c-0.188-0.901-0.267-1.565-1.417-1.537c-0.292,0.008-0.726-0.459-0.868-0.802
		c-0.309-0.737-0.468-1.533-0.689-2.306c-0.122-0.002-0.245-0.004-0.368-0.005c-0.118,0.651-0.4,1.322-0.327,1.952
		c0.3,2.543-0.672,4.85-1.213,7.234c-0.143,0.635-0.289,1.271-0.478,1.892c-0.071,0.229-0.267,0.422-0.405,0.631
		c-0.182-0.136-0.431-0.234-0.537-0.418c-1.432-2.47-2.518-5.034-2.448-7.986c0.022-0.915-0.294-1.838-0.468-2.829
		c-1.791,0.299-3.364,0.469-4.906,1.377c-1.448,0.852-3.278,1.04-4.915,1.592c-2.015,0.68-3.989,1.482-6.013,2.131
		c-0.775,0.248-1.649,0.34-2.464,0.285c-0.943-0.062-1.46,0.062-1.826,1.102c-0.594,1.688-1.477,3.273-2.222,4.907
		c-0.115,0.251-0.216,0.546-0.2,0.813c0.151,2.505-0.613,3.963-3.132,4.852c-1.492,0.525-2.447,1.442-3.371,2.582
		c-0.361,0.447-0.918,0.735-1.449,1.143c0.017,1.729,0.011,3.516,0.93,5.251c0.535,1.007,0.5,2.307,0.77,3.463
		c0.237,1.021,0.428,2.079,0.859,3.02c0.231,0.502,0.892,0.847,1.417,1.172c1.584,0.978,3.229,1.865,4.776,2.896
		c0.367,0.245,0.553,0.898,0.643,1.396c0.188,1.031-0.039,1.506-1.371,1.641c-1.99,0.201-3.719-0.188-5.466-0.997
		c-0.405-0.188-0.98-0.183-1.431-0.072c-3.377,0.824-6.744,1.696-10.113,2.558c-0.175,0.045-0.336,0.146-0.817,0.362
		c0.871,0.229,1.449,0.372,2.02,0.537c1.573,0.456,3.168,0.855,4.702,1.419c0.59,0.217,1.542,1.04,1.47,1.201
		c-0.379,0.845-0.894,1.98-1.628,2.229c-1.025,0.346-2.403,0.294-3.42-0.113c-2.772-1.104-4.372-0.747-6.206,1.716
		c-0.879,1.179-1.854,2.289-2.811,3.409c-2.807,3.287-6.688,4.114-10.697,4.568c-1.217,0.138-2.477,0.138-3.693-0.004
		c-2.368-0.276-3.918,0.858-5.41,2.524c-1.34,1.498-2.978,2.73-4.502,4.057c-0.176,0.155-0.47,0.172-0.815,0.288
		c0.37-1.979,0.516-3.856,1.111-5.579c0.42-1.219,1.264-2.438,2.237-3.293c2.854-2.504,6.059-4.465,9.766-5.537
		c0.85-0.246,1.596-0.855,2.39-1.297c-0.041-0.14-0.082-0.277-0.122-0.418c-0.59-0.028-1.187-0.134-1.767-0.074
		c-3.085,0.316-5.973-0.517-8.903-1.309c-2.617-0.707-5.298-0.684-7.81,0.529c-0.629,0.304-1.166,0.892-1.618,1.452
		c-1.232,1.527-2.706,2.559-4.744,2.313c-0.794-0.097-1.551-0.506-2.67-0.892c2.297-1.211,2.833-3.229,3.866-4.893
		c1.042-1.68,2.812-2.546,4.539-2.943c4.375-1.006,8.82-1.259,13.273-0.174c2.057,0.499,4.171,0.761,6.321,0.955
		c-1.691-2.345-4.194-3.493-6.534-4.815c-2.276-1.289-4.754-1.523-7.252-0.627c-0.765,0.274-1.488,0.695-2.186,1.12
		c-1.262,0.771-2.557,0.703-4.17,0.264c0.65-0.679,1.235-1.191,1.699-1.796c1.604-2.093,3.639-3.023,6.314-2.798
		c2.154,0.181,4.333,0.123,6.498,0.062c0.339-0.009,0.785-0.544,0.965-0.936c0.304-0.663,0.706-0.886,1.425-0.892
		c2.827-0.025,5.2,1.088,7.255,2.899c1.222,1.076,2.712,1.05,4.143,1.28c0.272,0.044,0.749-0.337,0.91-0.639
		c0.283-0.529,0.396-1.149,0.635-1.913c-1.634-0.366-3.195-0.637-4.704-1.085c-0.837-0.247-1.728-0.641-2.353-1.227
		c-3.534-3.313-7.541-4.016-12.023-2.042c-0.781,0.344-1.642,0.683-2.469,0.69c-0.619,0.004-1.242-0.532-1.877-0.832
		c1.937-1.479,3.584-2.957,5.45-4.067c0.947-0.564,2.294-0.672,3.446-0.627c2.744,0.107,5.477,0.475,7.833,2.072
		c1.39,0.941,2.666,2.056,4.071,2.972c0.822,0.536,1.8,0.834,3.088,1.409c-0.12-0.719-0.05-1.248-0.281-1.521
		c-1.072-1.258-2.105-2.604-3.392-3.611c-1.038-0.812-2.416-1.188-3.647-1.749c-0.236-0.107-0.492-0.171-0.739-0.254
		c0.131-0.224,0.224-0.487,0.402-0.664c0.418-0.412,0.906-1.139,1.314-1.104c1.482,0.12,3.089,0.098,4.194,1.399
		c0.413,0.486,0.773,1.019,1.328,1.382c0.357-1.604,0.216-2.866-1.13-3.792c-0.47-0.324-0.778-0.928-1.072-1.455
		c-0.836-1.5-1.556-3.07-2.457-4.53c-0.778-1.258-1.328-2.414-0.929-4.004c0.166-0.66-0.505-1.556-0.857-2.315
		c-0.816-1.77-1.963-3.445-2.45-5.297c-1.128-4.292-3.977-7.049-7.498-9.345c-0.628-0.408-1.255-0.829-1.825-1.313
		c-2.76-2.343-6.236-3.664-8.768-6.405c-0.951-1.03-2.708-1.485-4.184-1.827c-1.868-0.433-3.183-1.421-4.481-2.765
		c-1.495-1.547-3.374-2.718-4.947-4.199c-3.758-3.537-7.619-6.992-11.082-10.805c-2.443-2.688-4.378-5.834-6.06-9.132
		c-0.977-1.914-2.609-3.499-3.982-5.203c-1.987-2.469-3.222-5.25-3.889-8.352c-0.358-1.665-1.163-3.229-1.636-4.876
		c-0.608-2.117-1.125-4.261-1.61-6.409c-0.462-2.047-0.711-4.147-1.279-6.161c-0.441-1.563-1.27-3.016-1.843-4.548
		c-0.222-0.596-0.336-1.286-0.288-1.918c0.225-3.059,0.524-6.112,0.795-9.168c0.145-1.644-0.268-3.154-0.708-4.753
		c-0.688-2.504-0.729-5.151-0.447-7.813c0.529-4.97,0.793-9.968,1.199-14.951c0.078-0.969-0.286-1.458-1.236-1.57
		c-1.596-0.189-2.812-1.233-3.594-2.392c-1.225-1.816-2.982-2.483-4.856-3.018c-1.517-0.433-2.751-0.974-3.48-2.557
		c-0.429-0.931-1.644-1.423-1.832-2.624c-0.099-0.627-0.458-1.25-0.421-1.858c0.107-1.794,0.27-3.596,0.596-5.361
		c0.104-0.567,0.797-1.019,1.197-1.542c0.247-0.323,0.448-0.68,0.67-1.021c-0.417-0.219-0.838-0.632-1.249-0.621
		c-1.143,0.031-2.278,0.254-3.421,0.371c-1.347,0.137-2.696,0.274-4.047,0.348c-1.516,0.083-1.63-0.055-1.562-1.594
		c-1.249,0.271-2.467,0.568-3.699,0.78c-0.297,0.051-0.708-0.104-0.931-0.31c-0.098-0.09,0.073-0.606,0.248-0.832
		c1.725-2.225,3.419-4.479,5.25-6.614c0.636-0.742,1.581-1.275,2.475-1.724c0.951-0.477,1.241-1.17,0.707-2.075
		c-0.47-0.795-0.826-1.657-1.265-2.472c-0.427-0.789-0.925-1.539-1.34-2.333c-1.153-2.212-0.36-4.513-0.194-6.766
		C5.95,26.7,6.506,26.11,6.943,25.641c1.41-1.514,2.292-3.251,2.651-5.299c0.132-0.757,0.083-1.864,1.44-1.728
		c0.106,0.011,0.228-0.464,0.396-0.667c0.378-0.451,0.791-0.874,1.188-1.307c0.122,0.075,0.244,0.15,0.367,0.226
		c0.162-0.92,0.271-1.855,0.511-2.755c0.101-0.375,0.418-0.824,0.752-0.961c0.243-0.101,0.877,0.167,0.986,0.421
		c0.49,1.15,0.917,2.338,1.248,3.544c0.284,1.042,0.946,1.534,2.308,1.933c-0.514-1.117-0.826-1.976-1.281-2.751
		c-1.874-3.183-1.792-6.558-1.06-10.006c0.021-0.1,0.141-0.178,0.399-0.488c0.48,0.612,1.02,1.105,1.317,1.716
		c0.659,1.359,1.15,2.8,1.809,4.159c0.257,0.528,0.734,0.985,1.196,1.372c0.714,0.597,1.177,0.368,1.262-0.574
		c0.034-0.365-0.003-0.737-0.003-1.107c-0.001-3.39,0-6.779,0-10.234c0.866-0.569,1.254-0.243,1.587,0.82
		c0.858,2.735,1.846,5.43,2.823,8.127c0.197,0.543,0.575,1.021,0.871,1.528c0.155-0.004,0.309-0.008,0.463-0.013
		c0.972-3.856,1.944-7.712,2.915-11.568c0.178-0.01,0.355-0.02,0.533-0.029c0.273,1.177,0.593,2.347,0.807,3.535
		c0.291,1.615,0.461,3.252,0.757,4.867c0.293,1.603,0.99,1.856,2.447,1.208c2.364-1.051,3.969-2.852,5.188-5.037
		c0.325-0.583,0.352-1.325,0.575-1.975c0.091-0.265,0.342-0.477,0.519-0.712c0.264,0.207,0.699,0.375,0.757,0.628
		c0.144,0.63,0.116,1.3,0.156,1.948c1.609,0.321,1.663,0.444,0.978,1.95c-0.209,0.458-0.36,0.943-0.608,1.601
		c0.35-0.129,0.494-0.136,0.548-0.209c0.899-1.222,1.958-1.181,2.571,0.193c0.589,1.324,1.479,2.73,1.427,4.069
		c-0.067,1.728,0.662,3.396,0.305,5.034c-0.376,1.726-0.217,3.615-1.34,5.16c-0.149,0.206-0.269,0.63-0.161,0.794
		c0.895,1.361,0.19,2.55-0.432,3.672c-0.521,0.941-0.295,1.388,0.607,1.806c3.533,1.64,7.088,3.239,10.558,5.006
		c2.627,1.338,5.045,3.111,7.727,4.311c2.161,0.967,3.193,3.172,5.271,4.118c0.556,0.253,1.153,0.456,1.646,0.803
		c1.025,0.72,2.295,1.331,2.921,2.329c1.154,1.837,2.707,2.939,4.59,3.852c0.783,0.379,1.486,1.217,1.896,2.016
		c1.13,2.203,3.244,3.322,4.962,4.879c0.395,0.357,0.723,0.827,0.969,1.303c0.396,0.762,0.673,1.584,1.052,2.355
		c0.134,0.271,0.406,0.652,0.639,0.669c1.446,0.108,1.968,1.292,2.577,2.251c1.162,1.832,2.233,3.727,3.219,5.659
		c0.815,1.6,1.454,3.289,2.171,4.938c0.083,0.188,0.139,0.393,0.255,0.558c3.221,4.547,5.775,9.565,9.64,13.657
		c1.605,1.7,2.979,3.498,4.111,5.61c0.799,1.488,2.681,2.457,4.199,3.481c2.279,1.537,4.678,2.896,6.992,4.383
		c0.57,0.366,1.01,0.934,1.506,1.413c0.118,0.114,0.2,0.32,0.333,0.354c1.847,0.477,3.679,1.091,5.558,1.345
		c1.804,0.244,3.658,0.107,5.492,0.138c0.202,0.003,0.409,0.039,0.608,0.012c1.863-0.256,3.723-0.528,5.586-0.782
		c2.919-0.4,5.246-1.985,7.473-3.753c0.962-0.765,1.907-1.558,2.806-2.397c3.472-3.243,4.88-7.465,5.276-12.011
		c0.382-4.37,0.314-8.777,0.631-13.156c0.451-6.258,0.992-12.491,2.537-18.631c1.316-5.229,3.189-10.173,5.96-14.758
		c2.55-4.221,5.889-7.814,9.802-10.795c2.925-2.23,5.907-4.477,9.146-6.18c2.906-1.53,6.19-2.347,9.321-3.442
		c2.043-0.715,4.098-1.403,6.169-2.023c0.69-0.207,1.454-0.172,2.187-0.241c2.854-0.268,5.709-0.542,8.564-0.798
		c7.036-0.631,13.936,0.304,20.735,1.989c6.248,1.547,12.463,3.235,18.671,4.94c5.042,1.385,9.395,4.197,13.888,6.754
		c3.918,2.231,7.321,5.128,10.909,7.787c1.376,1.021,2.474,2.42,3.694,3.65c1.612,1.624,3.23,3.243,4.83,4.879
		c1.271,1.298,2.676,2.477,3.111,4.407c0.25,1.102,0.865,2.118,1.151,3.216c0.515,1.966,1.272,3.893,1.194,5.983
		c-0.005,0.147,0.088,0.33,0.19,0.445c1.713,1.9,1.933,4.441,2.656,6.706c0.909,2.842,1.548,5.785,1.583,8.875
		c0.024,2.169,0.938,4.329,1.456,6.492c0.085,0.353,0.253,0.704,0.259,1.057c0.027,1.968,0,3.937,0.026,5.905
		c0.016,1.23,0.126,2.458,0.13,3.688c0.001,0.515-0.198,1.027-0.241,1.546c-0.132,1.5-0.157,3.012-0.36,4.501
		c-0.207,1.515-0.692,2.995-0.85,4.512c-0.236,2.261-1.174,4.218-2.372,6.063c-0.402,0.622-1.117,1.042-1.789,1.645
		c-0.272-0.384-0.596-0.672-0.71-1.029c-1.288-3.969-3.12-7.768-3.406-12.044c-0.122-1.818-0.724-3.604-1.102-5.405
		c-0.797-3.799-1.65-7.587-2.37-11.401c-1.06-5.622-3.605-10.511-7.021-15.035c-1.663-2.204-3.403-4.291-5.86-6.051
		c-0.086,0.444-0.276,0.803-0.188,1.073c1.022,3.216,2.097,6.415,3.122,9.63c0.077,0.239-0.124,0.567-0.194,0.854
		c-0.329-0.09-0.721-0.097-0.972-0.289c-0.368-0.283-0.636-0.698-1.172-1.318c-0.168,0.707-0.335,1.103-0.346,1.501
		c-0.053,2.167-0.047,4.336-0.102,6.502c-0.034,1.326-0.861,2.275-1.715,3.159c-0.458,0.472-0.882,0.581-1.54-0.026
		c-1.194-1.102-2.617-1.951-3.906-2.955c-2.068-1.611-4.099-3.271-6.162-4.889c-0.886-0.695-1.812-1.338-2.851-2.101
		c-0.824,1.84-1.54,3.441-2.259,5.041c-0.201,0.449-0.416,0.892-0.621,1.339c-0.499,1.086-0.438,2.001,0.356,3.041
		c1.639,2.146,3.071,4.447,4.63,6.655c0.709,1.003,1.584,1.89,2.259,2.913c0.704,1.067,1.257,2.233,1.878,3.357
		c-0.099,0.111-0.2,0.222-0.298,0.333c-0.465-0.159-0.956-0.266-1.394-0.481c-3.821-1.886-7.633-3.797-11.452-5.686
		c-1.91-0.946-2.768-0.795-4.001,0.917c-1.076,1.495-2.084,3.052-2.979,4.661c-1.516,2.721-0.844,5.475,0.406,8.014
		c2.352,4.78,3.433,9.861,4.161,15.073c0.458,3.28,1.166,6.523,1.613,9.803c0.258,1.897,0.223,3.837,0.316,5.759
		c0.003,0.039,0.006,0.093-0.017,0.119c-0.46,0.573-0.92,1.143-1.383,1.713c-0.442-0.488-1.045-0.904-1.295-1.475
		c-0.686-1.57-1.086-3.274-1.849-4.801c-1.848-3.7-3.83-7.333-5.774-10.983c-0.464-0.869-0.972-1.715-1.5-2.547
		c-0.22-0.348-0.543-0.63-0.819-0.941c-0.147,0.043-0.295,0.085-0.44,0.127c0.065,1.146,0.216,2.294,0.185,3.438
		c-0.062,2.16-0.196,4.321-0.396,6.472c-0.021,0.232-0.708,0.608-1.037,0.565c-0.753-0.104-1.477-0.427-2.63-0.793
		c2.078,4.788,0.852,8.973-1.211,13.054c0.534-1.753,1.034-3.518,1.619-5.253c0.544-1.616,0.52-3.206,0.062-4.823
		c-0.411-1.455-0.896-2.9-1.154-4.383c-0.353-2.038-0.522-4.107-0.789-6.301c-0.565,2.544-0.027,4.925,0.388,7.271
		c0.456,2.578,1.14,5.118,0.656,7.762c-0.316,1.737-0.684,3.468-1.74,5.091c-2.073-1.938-4.026-3.763-5.978-5.586
		c-0.077,0.077-0.154,0.152-0.231,0.229c1.448,2.789,4.493,4.131,6.125,6.767C227.326,135.333,227.633,135.102,227.941,134.871z
		 M176.027,137.898c-0.137-0.847-0.269-1.695-0.436-2.536c-0.005-0.026-0.38,0.021-0.583,0.034c-0.07-0.788-0.015-1.614-0.238-2.354
		c-0.507-1.674-1.062-3.346-3.033-3.966c-0.598-0.187-1.1-0.677-1.647-1.029c0.056-0.093,0.11-0.187,0.165-0.278
		c0.801,0.374,1.599,0.75,2.397,1.125c0.048-0.099,0.097-0.198,0.146-0.297c-1.15-0.658-2.304-1.315-3.455-1.974
		c0.038-0.091,0.076-0.182,0.112-0.272c0.544,0.168,1.088,0.334,1.69,0.52c-1.307-0.991-2.564-1.944-3.823-2.897
		c0.043-0.077,0.083-0.155,0.125-0.234c0.335,0.058,0.672,0.115,0.644,0.11c-1.13-1.087-2.436-2.343-3.739-3.598
		c0.064-0.095,0.131-0.189,0.197-0.283c0.405,0.131,0.812,0.262,1.148,0.371c-1.172-0.803-2.406-1.578-3.556-2.463
		c-0.69-0.533-1.356-1.165-1.843-1.88c-1.2-1.756-3.108-2.66-4.833-2.189c1.23,0.938,2.569,1.821,3.745,2.884
		c2.995,2.708,5.738,5.604,8.169,8.896c2.448,3.316,5.451,6.238,7.678,9.76c-0.089,1.031,0.021,1.978,1.082,2.512
		c-0.021,0.385-0.156,0.808-0.04,1.146c0.329,0.96,0.761,1.883,1.151,2.821c-0.065-1.168-0.271-2.312-0.558-3.437
		C176.64,138.182,176.257,138.058,176.027,137.898z M85.489,121.157c-0.653,1.276-1.353-0.094-2.06,0.006
		c0.719,0.637,1.407,1.247,2.163,1.917c-0.035-0.604-0.071-1.264-0.109-1.922c-0.466-1.821-1.407-3.195-3.625-3.629
		c0.92,0.571,1.649,1.023,2.379,1.476c-0.051,0.097-0.103,0.194-0.153,0.292c-0.677-0.329-1.353-0.658-2.029-0.986
		c-0.04,0.075-0.08,0.151-0.119,0.227c0.941,0.562,1.881,1.124,2.823,1.686c-0.042,0.101-0.083,0.202-0.125,0.303
		c-0.664-0.266-1.328-0.531-1.992-0.797c-0.042,0.123-0.083,0.245-0.125,0.367C83.512,120.445,84.507,120.796,85.489,121.157z
		 M224.156,20.215c0.639-0.513,1.276-1.025,1.914-1.538c-0.022-0.048-0.046-0.096-0.068-0.144c-0.334,0.094-0.67,0.186-1.005,0.279
		c0.275-0.246,0.552-0.49,0.827-0.735c-0.069-0.102-0.14-0.203-0.209-0.306c-1.463,0.731-2.924,1.462-4.387,2.193
		c0.61-0.53,1.222-1.06,1.834-1.591c-0.033-0.049-0.068-0.098-0.103-0.147c-2.09,1.18-4.179,2.359-6.269,3.539
		c0.084,0.158,0.168,0.315,0.254,0.474c1.049-0.535,2.101-1.069,3.153-1.603c-0.438,0.484-0.878,0.967-1.315,1.45
		c0.458,0.07,0.867-0.046,1.225-0.253c0.792-0.459,1.559-0.964,2.335-1.45c-0.604,0.567-1.208,1.134-1.993,1.871
		c1.023,0.134,1.727,0.239,2.089-0.664c0.458-0.155,0.917-0.31,1.375-0.464c-0.318,0.353-0.636,0.708-0.955,1.062
		c0.046,0.051,0.091,0.103,0.136,0.154c0.747-0.365,1.493-0.73,2.24-1.095c-0.313,0.343-0.625,0.687-0.938,1.03
		c0.045,0.071,0.092,0.141,0.136,0.211c0.752-0.317,1.505-0.636,2.258-0.954c-0.373,0.349-0.744,0.699-1.263,1.186
		c0.577,0.092,0.962,0.167,1.35,0.214c1.871,0.227,3.773,0.304,5.604,0.708c1.891,0.418,3.695,0.671,5.496-0.233
		c0.027-0.013,0.111,0.09,0.168,0.136c-0.086,0.241-0.166,0.464-0.322,0.905c1.285-0.691,2.352-1.265,3.417-1.838
		c0.053,0.094,0.105,0.188,0.159,0.283c-0.593,0.438-1.188,0.878-1.782,1.317c0.073,0.127,0.149,0.255,0.223,0.382
		c0.87-0.449,1.739-0.898,2.66-1.375c0.021,0.286,0.042,0.557,0.073,0.996c1.423-0.742,2.7-1.407,4.275-2.229
		c-2.967-0.819-5.612-1.525-8.239-2.292c-0.841-0.246-1.593-0.32-2.314,0.262c-0.103,0.083-0.285,0.066-0.563,0.122
		c0.264-0.375,0.442-0.629,0.62-0.881c-0.062-0.099-0.124-0.197-0.186-0.296c-1.147,0.508-2.295,1.015-3.442,1.522
		c-0.035-0.064-0.068-0.129-0.102-0.193c0.685-0.46,1.371-0.919,2.059-1.379c-0.057-0.099-0.113-0.197-0.169-0.294
		c-1.504,0.735-3.01,1.471-4.512,2.206c-0.043-0.083-0.088-0.165-0.131-0.247c1.132-0.642,2.263-1.284,3.395-1.927
		c-0.048-0.104-0.098-0.208-0.146-0.312c-1.311,0.564-2.622,1.128-3.934,1.692c0.78-0.564,1.56-1.128,2.34-1.692
		c-0.039-0.058-0.077-0.116-0.115-0.175c-1.265,0.63-2.529,1.26-3.793,1.89c0.937-0.682,1.872-1.362,2.809-2.044
		c-0.033-0.05-0.063-0.1-0.093-0.15c-0.999,0.487-1.999,0.974-2.993,1.46c0.109-0.201,0.221-0.401,0.471-0.852
		C226.329,19.107,225.243,19.661,224.156,20.215z M199.256,83.615c0.737-0.691,1.475-1.384,2.213-2.076
		c-0.071-0.088-0.144-0.176-0.214-0.264c-0.93,0.639-1.859,1.278-2.788,1.917c0.785-0.809,1.569-1.618,2.355-2.427
		c-0.042-0.059-0.083-0.118-0.122-0.177c-0.808,0.478-1.617,0.957-2.426,1.434c-0.029-0.041-0.058-0.081-0.087-0.122
		c0.401-0.423,0.803-0.845,1.202-1.268c-2.309,1.075-4.393,2.399-5.653,4.679c0.03,0.151,0.061,0.303,0.088,0.454
		c0.774-0.048,1.548-0.096,2.321-0.143c0.204,0.671,0.237,0.676,0.997,0.136c-0.15,0.928,0.345,0.915,0.844,0.474
		c0.677-0.598,1.264-1.306,1.838-2.006c0.134-0.164,0.065-0.494,0.093-0.8C199.641,83.505,199.449,83.561,199.256,83.615z
		 M186.537,104.627c0.569,0.412,0.832,0.151,0.874-0.436c0.104-1.423,0.349-2.865,0.212-4.268c-0.104-1.056-0.71-2.062-1.093-3.092
		c-0.123,0.037-0.246,0.072-0.37,0.108c0.851,2.543,0.96,5.111,0.398,7.716c-0.264,1.18-0.525,2.359-0.788,3.539
		C186.434,107.072,187.208,105.96,186.537,104.627z M89.19,225.721c-0.083,0.232-0.097,0.569-0.262,0.682
		c-0.569,0.391-1.165,0.771-1.802,1.028c-0.634,0.255-0.703,0.556-0.209,0.942c0.483,0.379,1.042,0.664,1.692,1.067
		c-0.102-0.926-0.177-1.609-0.244-2.224c0.991-0.092,1.769-0.164,2.548-0.237c0.022-0.197,0.045-0.394,0.068-0.591
		c-0.611-0.212-1.222-0.424-1.833-0.636c-1.112-0.77-2.23-1.385-3.449-0.182c-0.378,0.372-0.767,0.731-1.151,1.099
		c0.421,0.33,0.841,0.66,1.262,0.99c0.075-0.057,0.151-0.114,0.227-0.17c-0.086-0.445-0.171-0.892-0.326-1.7
		c0.958,1.42,1.773,0.996,2.613,0.353C88.572,225.953,88.896,225.863,89.19,225.721z M206.432,84.668
		c0.087-0.179,0.175-0.357,0.262-0.537c-1.427,0.979-3.104,1.68-3.587,3.855c0.556-0.429,0.89-0.688,1.228-0.948
		c-0.172,0.438-0.346,0.875-0.642,1.632c0.648-0.068,1.239,0.05,1.463-0.185c1.295-1.354,2.504-2.79,3.742-4.199
		c-0.062-0.073-0.125-0.144-0.188-0.216c-0.641,0.399-1.281,0.799-1.943,1.212C206.657,85.081,206.544,84.875,206.432,84.668z
		 M154.196,143.196c0.349,1.085,0.697,2.173,1.047,3.26c0.535-1.415-0.505-2.233-1.066-3.235c-0.925-4.157-2.31-8.092-5.351-11.237
		c1.001,2.263,2.113,4.474,3.205,6.692C152.767,140.174,153.477,141.684,154.196,143.196z M193.28,33.601
		c-0.081,0.381-0.141,0.767-0.246,1.141c-0.365,1.298-0.747,2.592-1.122,3.887c0.193,0.061,0.387,0.122,0.58,0.183
		c1.222-2.451,1.333-5.301,2.447-7.795c-0.564,0.875-1.13,1.75-1.695,2.625c0.233-0.703,0.466-1.404,0.757-2.281
		c-2.444,2.776-3.445,6.002-4.42,9.25c1.132-0.495,1.719-1.269,2.02-2.446C192,36.606,192.701,35.124,193.28,33.601z
		 M180.335,95.741c0.19,0.439,0.489,0.864,0.55,1.32c0.172,1.296,0.24,2.606,0.359,3.909c0.072,0.804,0.16,1.606,0.242,2.41
		c1.533-3.393,1.161-7.837-2.188-9.593c0.408,0.757,0.74,1.373,1.067,1.984c-0.968-0.693-1.412-2.062-2.873-2.205
		c2.057,2.152,2.657,4.743,2.576,7.58c-0.01,0.363,0.279,0.735,0.43,1.104c0.147-0.023,0.298-0.046,0.445-0.069
		c0-0.664,0.06-1.335-0.013-1.991C180.767,98.704,180.538,97.224,180.335,95.741z M89.492,121.352
		c-0.836-0.537-1.672-1.074-2.28-1.465c-0.194-1.051-0.36-1.956-0.528-2.861c-0.144,0.019-0.289,0.038-0.434,0.056
		c-0.039,0.413-0.078,0.826-0.121,1.271c-0.416,0-0.782,0-1.258,0c1.018,1.554,1.967,3.003,2.915,4.451
		c1.282,1.444,1.65,3.569,3.403,4.882C91.652,125.173,91.688,124.61,89.492,121.352z M160.419,148.516
		c-0.456,1.428-1.12-0.118-1.815,0.083c0.703,0.655,1.304,1.218,2,1.868c-0.072-0.758-0.127-1.353-0.184-1.948
		c-0.546-1.702-1.152-3.389-1.62-5.111c-0.488-1.791-0.921-3.569-2.688-4.596c-0.021-0.013,0.02-0.13,0.044-0.272
		c0.346,0.196,0.672,0.381,0.998,0.567c0.051-0.094,0.103-0.187,0.151-0.279c-0.565-0.312-1.13-0.626-1.944-1.076
		c0.15,0.544,0.178,0.748,0.262,0.929c0.955,2.072,1.922,4.141,2.875,6.214c0.092,0.2,0.11,0.437,0.15,0.656
		c0.062,0.354,0.017,0.77,0.193,1.045c0.247,0.38,0.656,0.654,0.997,0.975c-0.041,0.068-0.082,0.135-0.125,0.201
		c-0.29-0.103-0.58-0.206-0.871-0.309c-0.028,0.073-0.058,0.146-0.088,0.221C159.309,147.96,159.864,148.238,160.419,148.516z
		 M242.029,46.759c-2.105-1.477-4.208-2.954-6.313-4.431c-0.1,0.14-0.201,0.279-0.302,0.419c0.324,0.269,0.622,0.583,0.979,0.798
		c1.188,0.718,2.392,1.411,3.6,2.093c0.68,0.385,1.382,0.727,2.074,1.089c0.279,0.361,0.495,0.818,0.854,1.063
		c0.974,0.667,2.025,1.218,3.014,1.866c0.626,0.41,1.194,0.908,1.788,1.366c-1.188-2.516-9.161-8.801-11.375-9.049
		c2.575,1.846,4.868,3.493,7.163,5.138c-0.066,0.1-0.131,0.199-0.195,0.299C242.888,47.191,242.464,46.971,242.029,46.759z
		 M181.808,91.067c1.447-0.323,2.897-0.646,4.347-0.968c-2.979-0.243-5.874-0.053-8.463,1.745c0.568,0.146,1.112,0.101,1.634-0.034
		c0.847-0.219,1.677-0.498,2.513-0.751c-0.824,0.373-1.65,0.747-2.476,1.12c0.029,0.181,0.058,0.362,0.087,0.543
		c1.129,0.068,2.258,0.137,3.386,0.206c-0.072,0.167-0.146,0.332-0.217,0.499c0.805,0.171,1.612,0.494,2.411,0.476
		c1.158-0.025,2.305-0.388,3.466-0.436c0.926-0.038,1.863,0.178,2.796,0.282c-2.553-1.449-5.228-1.566-7.986-0.84
		c0.355-0.165,0.702-0.445,1.067-0.473c1.736-0.134,3.479-0.198,5.363-0.295c-0.496-0.262-0.962-0.52-1.437-0.758
		C186.178,90.322,183.983,90.804,181.808,91.067z M49.314,73.609c-1.562,0.772-1.56,0.772-1.045,2.496
		c0.116,0.391,0.282,0.788,0.288,1.184c0.004,0.204-0.293,0.414-0.479,0.652c1.303,0.712-0.075,2.83,2.018,3.583
		c0-1.12,0.089-2.074-0.02-3.004c-0.192-1.646-0.504-3.278-0.766-4.916c-0.125-1.196-0.249-2.391-0.374-3.587
		c0.076-0.064,0.152-0.129,0.228-0.193c0.493,0.503,1.067,0.95,1.458,1.522c0.643,0.941,1.167,1.964,1.878,3.19
		c0.025-0.001,0.392-0.018,0.873-0.04c-0.812-2.363-1.568-4.559-2.293-6.668c-0.525,0.114-1.033,0.108-1.388,0.337
		c-0.281,0.179-0.374,0.649-0.607,1.102c-0.099-0.031-0.381-0.119-0.831-0.26c-0.045,1.028-0.026,1.961-0.143,2.878
		C47.984,72.882,48.377,73.415,49.314,73.609z M221.153,51.97c1.407,0.42,2.832,0.788,4.216,1.275
		c1.869,0.655,2.126,0.537,2.487-1.526c-1.557-0.763-3.104-1.611-4.731-2.262c-0.441-0.176-1.12,0.248-1.691,0.396
		c0.033,0.128,0.066,0.256,0.099,0.385c0.827,0.31,1.654,0.622,2.482,0.932c-1.461,0.286-2.82-1.211-4.464,0.026
		c0.716,0.352,1.182,0.581,1.649,0.811c-0.896,0.216-1.934-0.809-2.782,0.231c1.163,0.398,2.255,0.772,3.348,1.146
		c-2.159-0.588-4.316-1.173-6.1,0.866c-0.041,0.046-0.021,0.145-0.039,0.294c0.289,0.105,0.594,0.215,0.969,0.351
		c-0.825,0.071-1.55,0.133-2.276,0.195c-0.007,0.1-0.012,0.199-0.018,0.299c0.22,0.155,0.442,0.31,0.384,0.27
		c-0.998,0.448-2.092,0.94-3.47,1.56c1.007,0.39,1.606,0.621,2.207,0.854c-0.755-0.054-1.51-0.109-2.448-0.176
		c0.361,0.334,0.542,0.502,0.87,0.806c-0.594-0.111-0.967-0.181-1.582-0.296c0.502,0.299,0.781,0.467,1.215,0.726
		c-0.749-0.057-1.294-0.097-1.839-0.139c-0.015,0.108-0.03,0.216-0.045,0.324c1.545,0.508,3.085,1.037,4.637,1.52
		c1.462,0.455,2.604-0.312,3.856-0.898c-0.672-0.487-1.193-0.864-1.715-1.241c1.581,0.865,3.118,1.198,4.521-0.344
		c0.133-0.145,0.36-0.197,0.521-0.322c1.228-0.969,2.448-1.945,3.798-3.02c-1.227-0.597-2.209-1.076-3.194-1.556
		c0.893,0.278,1.775,0.599,2.682,0.817c0.437,0.105,0.918,0.018,1.38,0.018c-0.378-0.469-0.78-0.655-1.192-0.822
		C223.644,52.964,222.397,52.469,221.153,51.97z M41.455,78.204c-0.17-0.32-0.337-0.641-0.51-0.958
		c-0.231-0.425-0.651-0.843-0.663-1.272c-0.028-1.062,0.076-2.135,0.225-3.19c0.238-1.686-0.17-2.39-1.964-2.842
		c0.681,0.417,1.181,0.724,1.68,1.03c-0.045,0.098-0.09,0.195-0.136,0.292c-0.312,0-0.623,0-1.218,0
		c0.667,0.43,1.08,0.696,1.45,0.936c-0.5,0.392-0.978,0.678-1.343,1.068c-1.5,1.612-1.026,3.48-0.584,5.311
		c0.217,0.897,0.812,1.257,1.797,0.862c0-0.312,0-0.618,0-0.792c0.502-0.116,0.909-0.21,1.316-0.304
		c-0.204,0.485-0.689,1.07-0.559,1.436c0.375,1.054,0.976,2.034,1.56,2.998c0.053,0.088,0.629-0.134,0.957-0.23
		c0.034-0.01,0.022-0.154,0.042-0.233c0.408-1.59,1.468-3.189-0.057-4.769c-0.008-0.008,0.259-0.281,0.398-0.431
		c-0.375-0.279-0.738-0.551-0.977-0.729C42.37,77.025,41.913,77.614,41.455,78.204z M235.662,59.965
		c-1.044-0.019-2.275-0.516-2.709,1.125c0.666,0.269,1.337,0.538,2.007,0.808c-0.012,0.041-0.024,0.082-0.037,0.122
		c-0.816-0.187-1.635-0.374-2.453-0.56c-0.031,0.113-0.063,0.227-0.093,0.341c0.497,0.278,0.995,0.557,1.77,0.99
		c-2.427-0.657-2.427-0.657-3.355,1.451c1.056,0.429,2.104,0.892,3.18,1.264c0.279,0.097,0.788,0.027,0.97-0.169
		c1.12-1.211,2.177-2.48,3.346-3.835c-1.072-0.63-1.868-1.097-2.67-1.567c0.768,0.255,1.528,0.536,2.307,0.754
		c0.227,0.063,0.505-0.054,0.759-0.088c-0.124-0.252-0.185-0.634-0.385-0.737c-0.863-0.441-1.746-0.885-2.673-1.153
		c-0.389-0.113-0.901,0.206-1.358,0.328c0.025,0.116,0.051,0.23,0.075,0.346C234.782,59.578,235.222,59.771,235.662,59.965z
		 M56.321,81.642c0.462-1.897-1.198-4.277-2.843-3.817c0.372,0.48,0.712,0.914,1.046,1.353c0.631,0.828,1.258,1.658,1.887,2.487
		c-0.845-0.16-0.521,0.408-0.421,0.739c0.232,0.779,0.522,1.542,0.789,2.31c-0.134,0.065-0.269,0.131-0.402,0.196
		c-0.341-0.604-0.821-1.17-0.995-1.817c-0.391-1.467-0.808-2.809-2.747-2.805c-0.691,0.516-0.722,1.25-0.188,1.877
		c0.753,0.885,1.646,1.65,2.562,2.549c-0.354,0.045-0.708,0.089-1.373,0.174c0.953,0.373,2.028-0.003,2.063,1.243
		c-0.322,0.024-0.593,0.045-1.02,0.079c0.602,0.291,1.027,0.496,1.453,0.701c-0.048,0.105-0.097,0.21-0.146,0.314
		c-0.436-0.108-0.873-0.217-1.309-0.326c1.888,0.688,2.506,2.276,3.107,3.958c0.417,1.166,1.087,2.239,1.718,3.501
		c0.107-0.302,0.169-0.386,0.155-0.452c-0.771-3.562-1.521-7.129-2.354-10.677C57.166,82.654,56.656,82.168,56.321,81.642z
		 M95.803,119.966c-0.208,1.247,0.575,2.077,1.218,2.98c-0.157-2-0.307-3.992-0.75-5.917c-0.654-2.834-1.82-3.843-4.342-3.936
		c0.523,0.282,1.046,0.564,1.653,0.892c-0.313,0.172-0.541,0.297-0.769,0.423c0.853,1.681,1.682,3.311,2.51,4.942
		c-4.058-5.6-6.87-11.908-10.152-17.989c-0.203,0.572-0.322,1.103-0.257,1.61c0.149,1.174,0.387,2.337,0.589,3.505
		c-0.219-0.379-0.43-0.764-0.656-1.14c-0.513-0.848-1.033-1.693-1.55-2.539c-0.085,0.054-0.169,0.107-0.254,0.162
		c0.726,2.205,1.451,4.41,2.258,6.86c-0.453-0.28-0.646-0.399-0.772-0.478c-0.534,2.526,0.436,4.656,2.016,6.707
		c-0.353-1.348-0.682-2.612-1.012-3.877c1.879,2.016,0.876,5.286,3.353,7.229c0.105-3.108,0.375-5.986-1.428-8.637
		c-0.88-1.294-1.341-2.874-1.987-4.32c0.123,0.103,0.313,0.182,0.357,0.31c1.785,5.221,6.22,8.582,9.147,13
		C95.091,119.93,95.52,119.9,95.803,119.966z M93.336,107.111c-0.081-0.416-0.16-0.831-0.256-1.333
		c0.508,0.161,0.958,0.302,1.408,0.444c-1.49-0.478-2.471-1.193-2.591-2.97c-0.088-1.317-0.605-2.604-1.004-4.196
		c-0.496,1.388-1.061,0.797-1.541,0.516c0.054-0.442,0.094-0.768,0.134-1.093c-0.447,0-0.894,0-1.246,0
		c0.938,3.37,2.981,6.019,5.115,8.614c0.986,1.632,1.971,3.264,2.956,4.896c-0.094,0.059-0.188,0.118-0.282,0.177
		c-0.146-0.176-0.309-0.341-0.438-0.529c-1.846-2.705-3.701-5.403-5.521-8.125c-0.425-0.637-0.853-1.055-1.954-0.595
		c0.785,1.049,1.462,2.031,2.219,2.946c0.955,1.154,1.999,2.235,2.958,3.386c1.174,1.407,2.301,2.854,3.549,4.408
		c0.139-0.397,0.205-0.586,0.395-1.128c0.791,1.363,1.406,2.497,2.093,3.583c0.667,1.054,1.113,2.362,2.626,2.691
		c-0.81-4.871-4.016-11.122-6.139-11.547c1.002,0.52,0.793,0.94,0.297,1.236C95.132,108.005,94.231,107.561,93.336,107.111z
		 M187.406,74.341c0.13,0.422,0.262,0.844,0.385,1.244c0.815,0,1.568,0,2.393,0c-0.116-0.565-0.215-1.035-0.36-1.73
		c0.26,0.206,0.356,0.287,0.46,0.358c0.013,0.008,0.063-0.04,0.095-0.061c-0.188-2.79-1.49-6.857-2.66-7.914
		c0.279,1.168,0.515,2.154,0.751,3.14c-0.065,0.015-0.131,0.03-0.196,0.045c-0.459-1.165-0.92-2.331-1.38-3.496
		c-0.188,0.051-0.378,0.103-0.566,0.154c0.277,1.866,0.554,3.73,0.829,5.596c-0.146-0.37-0.354-0.729-0.429-1.113
		c-0.27-1.366-0.469-2.745-0.762-4.105c-0.062-0.292-0.401-0.524-0.613-0.785c-0.145,0.292-0.377,0.573-0.413,0.877
		c-0.055,0.468,0.026,0.952,0.05,1.428c-0.035,0.003-0.072,0.007-0.107,0.01c-0.235-0.732-0.47-1.464-0.705-2.196
		c-0.163,0.026-0.326,0.05-0.489,0.076c-0.081,0.637-0.162,1.274-0.264,2.085c-0.122-0.762-0.213-1.328-0.304-1.894
		c-0.127,0.001-0.255,0.001-0.381,0.002c-0.088,0.485-0.196,0.967-0.259,1.455c-0.061,0.47-0.072,0.948-0.104,1.421
		c-0.049-0.003-0.098-0.006-0.146-0.01c0-0.853,0-1.706,0-2.609c-1.086-0.119-1.287,0.646-1.239,1.306
		c0.168,2.36,0.412,4.717,0.709,7.066c0.088,0.69,0.409,1.35,1.389,1.146c0.989-0.206,0.574-0.947,0.585-1.477
		c0.039-1.739,0.015-3.479,0.015-4.967c0.22,1.609,0.442,3.478,0.759,5.331c0.057,0.332,0.47,0.787,0.788,0.852
		c0.649,0.133,1.346,0.04,2.08,0.04C187.347,75.152,187.376,74.747,187.406,74.341z M175.202,68.887l0.02,0.021
		c0-0.256,0-0.512,0-0.832c-1.744,0.92-2.612,6.275-1.323,8.439c0-0.9,0-1.595,0-2.291c0.368,2.126,0.37,2.067,2.007,2.133
		c1.63,0.064,0.833-1.167,1.012-1.944c0.193,0.627,0.353,1.143,0.511,1.658c0.11-0.024,0.218-0.046,0.327-0.07
		c-0.054-0.526-0.107-1.054-0.161-1.581c0.157,0.262,0.146,0.589,0.298,0.794c0.252,0.338,0.611,0.595,0.925,0.885
		c0.235-0.353,0.583-0.68,0.68-1.068c0.138-0.564,0.097-1.172,0.142-1.958c0.081,0.982,0.146,1.76,0.209,2.537
		c0.072-0.004,0.144-0.008,0.215-0.011c0-0.411,0-0.822,0-1.473c0.229,0.482,0.349,0.732,0.571,1.201
		c0-2.748,0.013-5.232-0.014-7.718c-0.005-0.352-0.204-0.702-0.312-1.053c-0.278,0.297-0.725,0.557-0.801,0.899
		c-0.191,0.868-0.218,1.772-0.344,2.995c-0.065-1.388-0.113-2.438-0.162-3.489c-0.16-0.006-0.322-0.014-0.485-0.021
		c-1.363,1.913-0.961,4.188-1.072,6.362c-0.11-1.844-0.221-3.688-0.33-5.532c-0.127-0.004-0.255-0.007-0.381-0.011
		c-0.063,0.293-0.124,0.588-0.191,0.88c-0.072,0.308-0.15,0.614-0.227,0.92c-0.039-0.012-0.08-0.022-0.12-0.034
		c0.03-0.567,0.062-1.134,0.092-1.7c-0.086-0.015-0.172-0.029-0.258-0.044C175.751,68.15,175.477,68.518,175.202,68.887z
		 M178.786,48.787c0.552-3.812,1.692-7.45,3.416-10.919c-0.111-0.045-0.22-0.09-0.332-0.135c-0.479,0.874-0.96,1.747-1.44,2.621
		c0.046-0.405,0.093-0.811,0.157-1.394c-2.375,1.76-3.045,4.243-4.027,6.577c0.059-0.409,0.115-0.818,0.173-1.228
		c-0.052-0.011-0.104-0.022-0.154-0.033c-0.278,0.829-0.558,1.658-0.838,2.486c-0.052-0.017-0.106-0.034-0.161-0.052
		c0.159-0.645,0.32-1.289,0.511-2.064c-0.325,0.191-0.485,0.286-0.697,0.411c0.031-0.34,0.056-0.622,0.082-0.903
		c-0.839,0.978-1.536,1.989-2.071,3.077c-1.52,3.084-2.774,6.271-3.479,9.657c0.352-2.196,0.705-4.392,1.057-6.587
		c-1.062,3.518-1.926,7.062-1.52,11.086c0.187-1.722,0.337-3.132,0.488-4.542c0,1.359,0,2.719,0,4.149
		c2.104-0.773,3.215-1.988,3.075-4.088c0.032,0.659,0.065,1.317,0.096,1.975c0.136,0.04,0.271,0.079,0.405,0.118
		c0.32-0.607,0.85-1.191,0.917-1.824c0.159-1.543,0.084-3.11,0.143-4.666c0.037-1.031,0.14-2.059,0.214-3.089
		c0.036,0.006,0.071,0.012,0.107,0.018c0,2.383,0,4.766,0,7.363c1.486-1.596,2.602-3.04,2.726-5.2
		c0.111-1.973,0.707-3.918,1.09-5.875c-0.303,2.146-0.606,4.292-0.909,6.437c0.128,0.018,0.256,0.037,0.386,0.055
		c0.206-1.159,0.412-2.318,0.62-3.476c0,0.858,0,1.715,0,2.822c1.587-1.639,3.233-2.856,3.199-5.183
		c0.126,0.417,0.252,0.834,0.408,1.344c1.325-1.209,2.686-2.258,3.066-4.172c0.365-1.841,0.874-3.667,1.486-5.441
		c0.633-1.833,1.467-3.597,2.212-5.39c-0.092-0.065-0.186-0.128-0.278-0.192c-1.459,2.223-2.919,4.446-4.419,6.73
		c0.348-1.108,0.671-2.139,0.993-3.168c-0.118-0.044-0.236-0.09-0.357-0.134c-0.591,1.445-1.182,2.89-1.774,4.335
		c-0.066-0.027-0.135-0.054-0.203-0.082c0.48-1.389,0.961-2.779,1.443-4.168c-0.521,0.331-1.002,0.695-1.26,1.179
		c-0.974,1.84-2.012,3.666-2.768,5.598C179.812,44.743,179.368,46.791,178.786,48.787z M223.396,47.021
		c1.732,0.933,3.464,1.865,5.195,2.798c0.061-0.073,0.12-0.146,0.179-0.219c-1.389-1.306-2.777-2.612-4.167-3.918
		c0.064-0.07,0.129-0.142,0.192-0.212c3.324,2.73,6.646,5.46,9.969,8.19c0.074-0.076,0.147-0.151,0.223-0.228
		c-1.993-2.326-3.986-4.651-5.979-6.978c0.113-0.093,0.226-0.186,0.338-0.278c2.193,2.587,4.382,5.179,6.58,7.76
		c0.721,0.845,1.472,1.664,2.255,2.547c0.916-1.042,1.078-1.89,0.42-2.786c-0.387-0.527-0.839-1.008-1.257-1.513
		c-0.485-0.582-0.964-1.168-1.445-1.753c0.848,0.455,1.446,1.128,2.138,1.685c0.331,0.267,0.841,0.309,1.269,0.453
		c-0.067-0.555,0.076-1.357-0.237-1.626c-3.048-2.619-6.197-5.13-9.923-6.735c-1.138-0.49-2.511-0.988-3.653-0.785
		c-1.668,0.296-3.226,1.222-4.89,1.905c0.931,0.57,1.882,1.15,2.835,1.733c-0.797-0.172-1.595-0.343-2.39-0.516
		c-0.032,0.088-0.063,0.176-0.095,0.264c1.188,0.502,2.375,1.004,3.562,1.507c0.021-0.058,0.044-0.117,0.065-0.175
		C224.186,47.768,223.791,47.395,223.396,47.021z M23.179,33.479c-0.728,0.66-1.444,1.225-2.055,1.888
		c-0.82,0.889-1.597,1.825-2.304,2.804c-0.187,0.258-0.18,0.829-0.013,1.108c0.114,0.192,0.657,0.129,0.982,0.175
		c-0.488,0.979-0.969,2.041-1.55,3.044c-0.15,0.261-0.6,0.389-0.938,0.494c-0.778,0.241-1.163,0.696-1.003,1.601
		c0.928-0.342,1.865-1.014,2.696-0.902c0.859,0.116,1.617,0.994,2.419,1.54c-0.061,0.154-0.122,0.309-0.182,0.464
		c-1.363-0.085-2.733-0.12-4.088-0.273c-0.91-0.104-1.761-0.555-2.713,0.025c-0.317,0.193-0.934-0.053-1.396-0.165
		c-0.393-0.096-0.75-0.337-1.142-0.43c-1.585-0.378-3.558-0.049-4.078-2.31c-0.006-0.021-0.135-0.014-0.338-0.03
		c0.206,0.726,0.399,1.406,0.598,2.108c-0.512-0.451-0.987-0.87-1.462-1.289c-0.058,0.042-0.114,0.085-0.171,0.127
		c0.128,0.397,0.255,0.793,0.384,1.19c-0.047,0.02-0.094,0.041-0.141,0.06c-0.183-0.282-0.366-0.564-0.638-0.982
		c-0.64,0.857-1.408,1.552-1.749,2.415c-0.528,1.335-1.168,2.498-2.402,3.266c1.965-0.75,3.931-1.502,5.907-2.258
		c-0.401-0.279-0.764-0.532-1.127-0.785c0.438-0.203,0.868-0.558,1.316-0.585c2.167-0.13,4.301,0.354,6.495,0.3
		c2.252-0.055,4.521,0.593,6.783,0.936c0.481,0.073,0.961,0.151,1.378,0.218c-0.258-0.57-0.481-1.062-0.753-1.662
		c0.547,0.214,0.821,0.322,1.096,0.43c-0.058-0.393-0.117-0.787-0.184-1.234c1.261,0.161,1.637,2.138,3.573,1.926
		c-0.865-0.641-1.525-1.036-2.053-1.563c-0.24-0.239-0.218-0.742-0.315-1.125c0.366,0.034,0.76-0.006,1.09,0.122
		c0.389,0.151,0.721,0.448,1.078,0.682c0.061-0.091,0.122-0.182,0.183-0.273c-0.616-0.588-1.206-1.206-1.854-1.755
		c-0.571-0.483-1.047-0.471-1.192,0.418c-0.057,0.351-0.171,0.692-0.259,1.037c-0.152-0.033-0.303-0.065-0.456-0.099
		c0.467-1.708,0.934-3.417,1.469-5.379c-0.847,0.578-2.025,0.836-2.75,0.75c-0.24-2.214,0.665-3.962,2.305-5.359
		C23.408,33.825,23.252,33.589,23.179,33.479z M13.981,26.001c-0.154-0.02-0.307-0.04-0.46-0.061
		c-0.053-0.22-0.222-0.569-0.141-0.643c1.384-1.26,1.289-3.089,1.813-4.671c0.077-0.232-0.033-0.734-0.19-0.802
		c-0.866-0.377-0.856-0.748-0.157-1.303c0.167-0.133,0.176-0.469,0.257-0.71c-0.102-0.089-0.204-0.178-0.306-0.266
		c-0.332,0.313-0.722,0.583-0.982,0.947c-0.412,0.574-0.602,1.444-1.138,1.757c-0.521,0.304-1.358,0.065-1.897,0.065
		c-0.41,1.712-0.79,3.461-1.264,5.185c-0.14,0.511-0.54,0.951-0.846,1.407c-0.007,0.01-0.462-0.227-0.45-0.266
		c0.148-0.464,0.347-0.91,0.526-1.363c0.01-0.025-0.028-0.069-0.043-0.105c-1.365,0.853-1.329,1.521-0.102,2.717
		c0,1.387,0,2.514,0,3.563c0.581,0.226,1.02,0.396,1.556,0.604c-0.256,0.29-0.408,0.461-0.849,0.958
		c0.934-0.141,1.533-0.23,2.188-0.329c-0.021,0.26-0.049,0.605-0.078,0.953c0.323-0.214,0.647-0.429,0.688-0.456
		c0.222-0.795,0.382-1.371,0.541-1.944c-0.446-0.343-0.963-0.74-1.235-0.949C12.315,28.784,13.148,27.393,13.981,26.001z
		 M73.021,105.012c0.899,4.574,2.582,8.944,5.896,12.605c-0.285-0.192-0.57-0.383-1.083-0.727c0.893,3.035,2.739,5.183,4.42,7.442
		c0.164-3.537-0.648-6.762-2.557-9.665c-0.112,0.029-0.225,0.06-0.337,0.089c0.231,1.181,0.462,2.362,0.694,3.544
		c-0.147,0.019-0.295,0.039-0.442,0.059c-0.228-1.335-0.39-2.685-0.695-4.002c-0.709-3.069-1.493-6.121-2.231-9.183
		c-0.154-0.636-0.186-1.308-0.397-1.92c-0.08-0.234-0.509-0.347-0.779-0.515c-0.044,0.076-0.09,0.152-0.135,0.228
		c0.224,0.174,0.446,0.348,0.67,0.522c-0.036,0.071-0.071,0.142-0.107,0.213c-0.458-0.133-0.915-0.266-1.372-0.399
		c-0.026,0.064-0.054,0.128-0.081,0.192c0.552,0.293,1.104,0.585,1.655,0.877c-0.02,0.072-0.041,0.144-0.061,0.216
		c-0.395-0.036-0.789-0.071-1.183-0.105c-0.04,0.079-0.081,0.157-0.121,0.236c0.426,0.292,0.853,0.582,1.342,0.916
		c-0.175,0.162-0.37,0.341-0.378,0.348c0.252,1.663,0.483,3.188,0.716,4.715c-0.44-0.545-0.588-1.167-0.781-1.774
		c-0.257-0.804-0.41-1.69-0.867-2.367C74.373,105.915,73.604,105.496,73.021,105.012z M61.243,87.765
		c-0.352-0.409-1.039-0.889-1.26-1.529c-0.461-1.336-0.645-2.766-1.02-4.136c-0.07-0.254-0.503-0.409-0.769-0.609
		c-0.097,0.299-0.327,0.628-0.266,0.891c0.156,0.657,0.546,1.266,0.653,1.926c0.241,1.48,0.159,3.04,0.579,4.458
		c1.124,3.799,2.371,7.568,3.713,11.297c0.694,1.927,1.697,3.743,2.56,5.609c0.631-1.292,0.186-2.485,0.245-3.684
		c0.105-2.134-0.106-4.385-1.784-6.149c-0.033,0.301-0.061,0.569-0.089,0.838c-0.433-1.623-0.622-3.269-0.81-4.916
		c-0.07-0.615-0.102-1.197-0.966-1.287c-0.451-0.047-0.871-0.377-1.305-0.581c0.039-0.098,0.076-0.195,0.114-0.293
		c0.455,0.106,0.911,0.212,1.367,0.318c-0.994-0.604-2.142-0.972-2.173-2.535C60.545,87.545,61.021,87.695,61.243,87.765z
		 M175.742,57.972c1.671,0.111,2.216-0.9,2.991-1.838c3.085-3.726,6.233-7.405,9.493-10.979c3.15-3.455,6.924-6.156,11.053-8.341
		c2.321-1.229,4.682-2.385,7.023-3.575c-0.474-0.132-0.887-0.104-1.26,0.03c-2.205,0.796-4.491,1.34-6.477,2.739
		c-2.098,1.481-4.487,2.565-6.521,4.123c-5.373,4.112-9.953,9.023-13.889,14.53C177.399,55.72,176.624,56.766,175.742,57.972z
		 M151.987,129.502c-0.051,0.079-0.102,0.156-0.154,0.234c0.797,0.442,1.593,0.887,2.664,1.483
		c-0.793-0.113-1.249-0.176-1.705-0.241c-0.028,0.075-0.057,0.15-0.085,0.225c0.767,0.461,1.532,0.92,2.301,1.38
		c-0.025,0.055-0.05,0.108-0.074,0.162c-0.488-0.115-0.976-0.231-1.463-0.347c-0.04,0.088-0.079,0.177-0.117,0.265
		c0.787,0.414,1.575,0.828,2.698,1.418c-0.883-0.112-1.435-0.182-1.984-0.25c-0.036,0.093-0.069,0.188-0.104,0.283
		c0.656,0.318,1.316,0.638,2.167,1.05c0.307,0.827,0.719,1.948,1.133,3.07c0.098-0.031,0.195-0.061,0.292-0.09
		c-0.103-0.42-0.207-0.841-0.309-1.26c1.712,2,1.617,4.976,4.069,6.954c-0.115-1.021-0.062-1.74-0.287-2.357
		c-0.814-2.229-1.634-4.466-2.627-6.618c-0.589-1.279-1.367-2.533-2.307-3.579c-1.968-2.194-4.123-4.22-6.148-6.364
		c-0.915-0.969-1.567-2.219-2.576-3.056c-1.58-1.31-3.36-2.379-5.055-3.55c-0.08,0.088-0.159,0.175-0.239,0.261
		c2.213,1.85,3.898,4.157,5.78,6.289c1.146,1.299,2.77,2.175,4.362,3.382c-0.594-0.076-0.974-0.126-1.355-0.175
		c-0.009,0.056-0.02,0.112-0.028,0.167c0.825,0.447,1.65,0.894,2.476,1.342c-0.025,0.064-0.051,0.127-0.077,0.191
		C152.817,129.682,152.402,129.592,151.987,129.502z M158.631,120.238c1.824,1.924,3.728,3.779,5.449,5.791
		c1.723,2.013,3.428,4.081,4.838,6.316c1.411,2.239,2.661,4.636,3.585,7.11c0.906,2.424,1.311,5.033,1.937,7.561
		c0.04-0.011,0.078-0.021,0.116-0.031c-0.017-0.307-0.034-0.612-0.054-0.976c0.276,0.177,0.471,0.3,0.771,0.492
		C173.833,135.036,169.092,125.831,158.631,120.238z M79.266,100.521c0.12-0.066,0.241-0.133,0.36-0.199
		c1.248,2.292,2.497,4.586,3.746,6.878c0.147-0.071,0.295-0.142,0.442-0.214c-1.56-4.132-2.039-8.662-4.713-12.391
		c-1.387,0.703-1.233-0.413-1.372-1.277c-1.003,0.988-1.258,1.977-0.949,3.205c0.845,3.359,2.083,6.553,3.866,9.525
		c0.973,1.622,1.989,3.219,2.985,4.827c0.257-0.441,0.243-0.829,0.259-1.215c0.069-1.625-1.1-2.67-1.813-3.936
		C81.109,104.008,80.2,102.257,79.266,100.521z M45.273,82.59c-0.006,0.089-0.011,0.177-0.017,0.265c-0.389,0-0.779,0-1.168,0
		c-0.034,0.1-0.068,0.201-0.101,0.301c0.585,0.296,1.171,0.593,1.758,0.89c-0.033,0.08-0.065,0.16-0.098,0.241
		c-0.5-0.125-0.999-0.251-1.499-0.376c1.576,0.459,2.075,1.657,2.236,3.086c0.102,0.896,0.12,1.802,0.224,2.698
		c0.191,1.658,0.509,3.279,1.65,4.683c0.13-0.179,0.237-0.264,0.26-0.368c0.626-2.855,0.842-5.723,0.143-8.596
		c-0.075-0.308-0.354-0.774-0.584-0.803c-1.445-0.183-1.847-0.966-1.563-2.305c0.062-0.296-0.089-0.641-0.155-0.961
		c-0.409-1.988-0.789-3.982-1.245-5.959c-0.217-0.938-0.831-1.829-0.118-2.8c0.034-0.046-0.003-0.16-0.029-0.235
		c-0.416-1.18,0.294-1.309,1.31-1.169c-0.287-0.938-0.534-1.747-0.782-2.557c-0.147,0.015-0.294,0.029-0.441,0.044
		c-0.271,0.974-0.613,1.935-0.795,2.925c-0.241,1.3-1.028,2.673,0.403,3.856c0.28,0.231,0.364,0.816,0.369,1.24
		c0.008,0.804-0.1,1.61-0.17,2.415c-0.085,0.973-0.18,1.946-0.289,3.096C44.667,82.254,44.97,82.423,45.273,82.59z M204.069,23.214
		c1.842-0.238,3.38-0.45,4.922-0.632c3.422-0.406,7.02-0.119,9.916-2.565c0.118-0.1,0.311-0.108,0.452-0.188
		c0.883-0.504,1.764-1.016,2.644-1.525c-0.061-0.112-0.121-0.224-0.181-0.336c-2.631,0.564-4.685,2.414-7.035,3.605
		c-0.059-0.113-0.116-0.226-0.177-0.34c1.55-0.913,3.101-1.826,4.507-2.655c-0.53-0.058-1.156-0.189-1.784-0.179
		c-0.798,0.013-1.666-0.04-2.379,0.249c-2.253,0.913-4.952,0.879-6.639,3.034c-0.044,0.057-0.146,0.1-0.22,0.098
		c-0.229-0.007-0.531,0.038-0.667-0.088c-0.115-0.105-0.136-0.481-0.035-0.63c0.524-0.794,1.016-1.638,1.68-2.304
		c0.862-0.864,1.876-1.574,2.825-2.352C208.589,17.804,206.522,20.561,204.069,23.214z M53.551,101.886
		c0.131-0.098,0.262-0.195,0.393-0.293c-2.761-0.264-1.773-2.246-2.065-3.642c1.058-0.329,0.942-1.638-0.25-3.59
		c-0.571,0-1.052,0-1.605,0c0.361,0.24,0.68,0.453,1.246,0.83c-0.657,0-1.013,0-1.466,0c0.159,0.743,0.285,1.381,0.43,2.016
		c0.491,2.139,0.027,4.589,2.032,6.238c0.081,0.067,0.097,0.224,0.125,0.344c0.551,2.423,1.089,4.849,1.653,7.269
		c0.285,1.226,0.615,2.44,0.924,3.66c0.143-0.037,0.288-0.073,0.432-0.11c-0.107-0.592-0.214-1.184-0.353-1.954
		c0.547,0.215,0.886,0.347,1.315,0.515c-0.387-1.528-0.752-2.908-1.083-4.297c-0.333-1.395-0.688-2.787-0.926-4.198
		c-0.188-1.11-0.278-2.199-1.657-2.493c-0.076-0.016-0.108-0.244-0.204-0.483C52.939,101.778,53.245,101.832,53.551,101.886z
		 M153.795,115.994c-0.661-1.833-1.917-2.882-3.559-3.638c-1.542-0.709-2.984-1.639-4.722-1.893c2.372,1.26,4.443,2.859,6.316,4.711
		c-0.064,0.116-0.132,0.232-0.199,0.348c-2.274-0.993-4.549-1.986-6.827-2.98c-0.134,0.513-0.203,0.782-0.285,1.091
		c1.566,0.688,3.197,1.273,4.697,2.097c2.11,1.158,4.623,1.49,6.001,4.103c0.902,1.709,2.976,2.804,4.531,4.166
		c0.835,0.732,1.688,1.443,2.531,2.165c0.09-0.1,0.181-0.197,0.271-0.297c-3.239-3.031-5.518-6.976-9.401-9.513
		C153.409,116.208,153.601,116.102,153.795,115.994z M144.679,134.334c0.1-0.046,0.198-0.094,0.297-0.142
		c0.221,0.427,0.483,0.839,0.658,1.284c1.776,4.536,3.537,9.078,5.308,13.617c0.064,0.169,0.202,0.31,0.305,0.463
		c0.136-0.205,0.415-0.433,0.384-0.608c-0.285-1.662-0.32-3.458-1.01-4.944c-1.72-3.716-3.736-7.295-5.651-10.92
		c-0.166-0.312-0.425-0.767-0.688-0.802c-1.052-0.146-1.315-0.998-1.791-1.701c-0.906-1.344-1.861-2.655-2.796-3.98
		c3.049,6.066,6.445,11.913,8.689,18.34c0.121-0.054,0.241-0.108,0.362-0.161C147.39,141.297,146.036,137.817,144.679,134.334z
		 M67.596,99.479c0.058,1.529,6.243,14.952,7.471,15.591c-0.402-2.035-0.969-4.028-1.486-6.035c-0.437-1.698-0.94-3.393-1.182-5.122
		c-0.198-1.414-0.802-2.272-2.1-2.835C69.318,100.652,68.441,99.989,67.596,99.479z M169.36,51.683
		c6.22-11.441,16.497-18.289,27.405-24.463c-0.354-0.01-0.674,0.031-0.954,0.156c-1.68,0.755-3.458,1.36-5,2.335
		c-2.69,1.703-5.228,3.647-7.84,5.472c-4.05,2.827-7.269,6.499-10.429,10.229C170.992,47.244,169.987,49.373,169.36,51.683z
		 M155.914,125.105c0.075-0.046,0.148-0.091,0.225-0.136c3.398,4.23,6.801,8.461,10.201,12.691
		c-2.394-6.075-6.535-10.819-11.585-15.2c1.245,0.407,2.275,0.744,3.306,1.081c0.042-0.135,0.085-0.271,0.128-0.406
		c-1.419-0.461-2.847-0.904-4.259-1.391c-1.378-0.475-2.742-0.995-4.111-1.495c0.882,1.006,1.747,2.304,2.873,2.597
		c1.517,0.393,2.274,1.14,2.767,2.459c0.081,0.214,0.304,0.377,0.563,0.688C155.97,125.563,155.943,125.333,155.914,125.105z
		 M38.569,56.601c0.068,0.005,0.436,0.121,0.756,0.044c3.264-0.781,5.295-3.512,4.851-6.873c-0.039-0.292-1.03-0.773-1.112-0.692
		c-0.746,0.735-0.966,0.042-1.015-0.175c-2.3,0.297-2.454,2.385-3.234,3.522C38.73,53.841,38.658,55.088,38.569,56.601z
		 M200.419,159.74c0.173,0.035,0.344,0.069,0.516,0.104c0.495-1.316,1.225-2.594,1.435-3.953c0.408-2.621,0.512-5.287,0.762-7.934
		c0.142-1.504,0.35-3.003,0.481-4.508c0.117-1.337,0.168-2.679,0.25-4.02c-0.171-0.015-0.342-0.029-0.514-0.043
		c-0.156,1.131-0.327,2.259-0.465,3.392c-0.182,1.488-0.327,2.981-0.507,4.471c-0.357,2.966-0.714,5.933-1.108,8.894
		c-0.059,0.431-0.328,0.833-0.498,1.247c-0.405-0.283-1.019-0.48-1.178-0.866c-0.547-1.317-0.983-2.689-1.374-4.063
		c-0.793-2.787-1.528-5.591-2.288-8.388C196.252,149.658,198.101,154.773,200.419,159.74z M187.063,84.614
		c0.106,0.164,0.213,0.329,0.317,0.494c0.724-0.191,1.446-0.382,2.17-0.573c0.006,0.04,0.037,0.245,0.026,0.177
		c0.574,0.175,0.943,0.358,1.324,0.387c0.467,0.035,1.133,0.129,1.383-0.126c1.619-1.655,3.149-3.397,4.722-5.125
		c-1.993-0.733-3.868-1.116-5.568,0.606C190.025,81.885,188.525,83.23,187.063,84.614z M160.584,91.858
		c0.097,0.102,0.192,0.204,0.289,0.307c0.078-0.018,0.176-0.011,0.233-0.054c4.588-3.399,9.732-5.496,15.308-6.607
		c0.256-0.051,0.526-0.235,0.704-0.434c0.944-1.06,1.862-2.146,2.789-3.222c-0.036-0.067-0.072-0.135-0.108-0.202
		c-1.038,0.577-2.078,1.153-3.083,1.711c0.021-0.107,0.055-0.288,0.091-0.469c-0.064-0.073-0.13-0.145-0.194-0.218
		c-0.881,0.689-1.762,1.378-2.644,2.068c-0.041-0.046-0.082-0.093-0.122-0.139c0.183-0.272,0.365-0.544,0.55-0.816
		c-0.052-0.043-0.102-0.086-0.153-0.129c-0.405,0.374-0.811,0.748-1.297,1.195c-0.076-0.277-0.13-0.473-0.325-1.177
		c-0.765,1.02-1.363,1.821-1.963,2.623c-0.098-0.085-0.195-0.17-0.291-0.255c0.163-0.326,0.324-0.651,0.487-0.977
		c-0.866,0.432-1.482,1.154-2.258,1.606c-1.054,0.617-2.327,0.883-3.33,1.558C163.632,89.327,162.138,90.637,160.584,91.858z
		 M53.001,96.544c0.635,2.917,1.253,6.088,2.025,9.22c0.765,3.11,1.685,6.182,2.564,9.368c0.42-3.709-0.509-7.095-1.59-10.465
		c-0.373-1.163-0.63-2.361-0.94-3.544c0.173-0.046,0.346-0.093,0.52-0.141c1.054,3.508,2.108,7.015,3.162,10.523
		c0.123-0.034,0.245-0.067,0.367-0.101c-0.093-0.45-0.17-0.903-0.281-1.348c-0.645-2.567-1.246-5.146-1.972-7.69
		c-0.323-1.128-0.758-2.281-1.407-3.243C54.771,98.122,53.774,97.337,53.001,96.544z M58.979,104.431
		c0.055-0.093,0.109-0.186,0.164-0.279c0.169,0,0.338,0,0.278,0c-0.666-0.756-1.394-1.585-2.122-2.414
		c1.632,4.822,2.029,10.084,5.663,14.235c0.751-3.117-1.538-5.459-1.82-8.195c0.126-0.041,0.253-0.081,0.38-0.121
		c0.61,1.739,1.22,3.478,1.83,5.218c0.141-0.469,0.078-0.868-0.026-1.257c-0.488-1.822-0.593-3.829-2.739-4.753
		c-0.49-0.211-0.756-0.941-1.125-1.433c0.052-0.05,0.103-0.1,0.155-0.149c0.315,0.124,0.63,0.248,0.945,0.372
		c0.013-0.033,0.026-0.065,0.039-0.098C60.06,105.183,59.52,104.806,58.979,104.431z M51.553,89.558
		c-0.206-0.533-0.455-0.991-0.555-1.481c-0.188-0.913-0.224-1.858-0.441-2.762c-0.438-1.831-1.47-2.588-3.466-2.494
		c2.057,0.267,1.735,1.914,2.031,3.204c0.074,0.319,0.204,0.629,0.247,0.951c0.219,1.645,0.418,3.292,0.625,4.947
		c1.974,1.209,2.826,3.561,4.573,5.408c0.018-2.339,0.04-4.449-0.879-6.42c-0.137-0.295-0.566-0.452-0.79-0.621
		c0.079,0.855,0.145,1.57,0.208,2.253c-1.731-0.458-2.125-1.659-2.047-3.203C51.276,89.435,51.421,89.499,51.553,89.558z
		 M72.391,112.84c-0.125,0.029-0.251,0.059-0.377,0.088c0.39,2.191,0.465,4.505,1.257,6.54c0.789,2.028,2.297,3.778,3.49,5.648
		c0.142-0.069,0.283-0.137,0.425-0.203c-0.358-2.893-0.716-5.785-1.099-8.888c-0.88,0.979-1.324,0.573-1.682,0.027
		C73.712,114.996,73.06,113.913,72.391,112.84z M151.385,140.11c-1.198-1.171-1.58-2.739-2.285-4.171
		c-0.693-1.411-2.098-2.456-3.08-3.746c-1.018-1.336-1.861-2.805-2.855-4.16c-0.957-1.302-2.011-2.53-3.021-3.792
		c-0.078,0.063-0.155,0.126-0.231,0.188c1.571,2.391,3.208,4.741,4.697,7.182c1.446,2.369,2.872,4.768,4.071,7.267
		c1.519,3.163,3.061,5.362,5.455,6.968c-1.669-1.763-3.351-3.518-3.328-6.129C150.939,139.805,151.162,139.958,151.385,140.11z
		 M188.957,66.156c-0.082,0.026-0.165,0.052-0.247,0.079c1.328,2.925,2.637,5.858,4.009,8.761c0.156,0.331,0.649,0.645,1.024,0.7
		c0.847,0.123,1.717,0.096,2.576,0.088c0.206-0.002,0.523-0.12,0.588-0.272c0.075-0.172-0.026-0.468-0.134-0.665
		c-0.384-0.697-0.765-1.401-1.22-2.052c-0.395-0.566-0.819-1.155-1.354-1.573c-0.729-0.567-1.712-0.847-2.342-1.491
		C190.79,68.638,189.913,67.358,188.957,66.156z M66.593,98.981c0.144-0.029,0.288-0.058,0.431-0.086
		c0.055-2.358,0.126-4.715,0.144-7.073c0.002-0.282-0.221-0.667-0.459-0.83c-1.196-0.822-2.432-1.587-3.697-2.398
		c0.423,1.885,1.009,3.688,1.194,5.533C64.407,96.143,65.803,97.366,66.593,98.981z M171.087,144.988
		c0.099-0.041,0.196-0.083,0.294-0.122c-0.104-0.383-0.156-0.79-0.32-1.144c-1.458-3.148-2.77-6.378-4.454-9.402
		c-1.546-2.773-3.414-5.383-5.324-7.926c-0.599-0.798-1.795-1.145-2.719-1.696c-0.081,0.121-0.16,0.242-0.24,0.362
		c0.89,0.946,1.889,1.814,2.646,2.857c1.945,2.681,3.936,5.348,5.616,8.19C168.27,138.959,169.602,142.02,171.087,144.988z
		 M190.63,79.216c-3.021-0.509-8.098,2.656-9.501,5.803c0.937,0,1.825,0.066,2.696-0.023c0.596-0.062,1.31-0.184,1.724-0.555
		c0.803-0.719,1.389-1.673,2.145-2.455C188.583,81.063,189.556,80.221,190.63,79.216z M147.007,125.884
		c0.609,1.379,0.897,2.683,1.648,3.614c2.724,3.39,4.225,7.305,5.515,11.382c0.562,1.773,1.632,3.388,2.472,5.075
		c0.182-0.081,0.365-0.164,0.547-0.247c-0.416-1.227-0.785-2.471-1.26-3.675c-0.766-1.939-1.701-3.816-2.381-5.783
		C152.199,132.365,150.297,128.857,147.007,125.884z M68.348,111.194c-1.094-2.076,0.275-4.711-2.055-6.58
		c0.224,0.966,0.382,1.653,0.57,2.467c-0.5-0.083-0.844-0.141-1.246-0.208c1.01,2.845,1.979,5.576,2.949,8.306
		c1.713-2.984,1.881-8.943,0.598-9.227c0.09,0.16,0.186,0.329,0.332,0.586c-0.555-0.143-0.958-0.247-1.362-0.351
		c-0.036,0.074-0.071,0.147-0.107,0.221c0.366,0.249,0.731,0.499,1.383,0.943c-0.659-0.095-0.971-0.14-1.354-0.195
		C68.156,108.531,68.247,109.793,68.348,111.194z M59.151,100.427c0.114-0.049,0.229-0.099,0.344-0.148
		c0.651-4.231,0.126-6.607-1.526-6.898c0.061,0.184,0.123,0.368,0.184,0.552c-0.117,0.053-0.234,0.106-0.352,0.16
		c-3.485-2.516-3.123-7.036-5.12-10.344c0.582,2.8,1.216,5.584,1.897,8.357c0.103,0.417,0.322,0.965,0.653,1.14
		c1.764,0.925,1.985,2.682,2.544,4.298C58.122,98.544,58.685,99.469,59.151,100.427z M167.914,144.711
		c0.076-0.055,0.149-0.109,0.226-0.164c-0.868-1.237-1.738-2.476-2.606-3.714c0.077-0.063,0.154-0.13,0.231-0.194
		c0.48,0.529,0.962,1.059,1.406,1.547c-0.424-0.973-0.814-1.965-1.281-2.921c-1.202-2.46-2.266-5.001-4.804-6.525
		c-0.583-0.351-0.837-1.251-1.242-1.896c-0.097,0.045-0.19,0.092-0.286,0.14c0.687,1.391,1.345,2.795,2.068,4.166
		c0.515,0.974,1.202,1.861,1.665,2.855c1.149,2.474,2.217,4.989,3.312,7.475c0.073-0.567,0.145-1.112,0.248-1.916
		C167.37,144.125,167.641,144.418,167.914,144.711z M45.363,86.586c-0.057,0.107-0.113,0.215-0.17,0.323
		c-0.513-0.285-1.055-0.531-1.532-0.867c-0.517-0.363-1.186-0.702-0.603-1.566c0.08-0.119-0.334-0.569-0.519-0.865
		c-0.1,1.896,0.044,3.635,0.177,5.375c0.137,1.784,0.265,3.568,0.396,5.333c0.485,0.043,0.799,0.071,1.369,0.121
		c-0.079-0.891-0.149-1.682-0.229-2.579c0.015-0.003,0.247-0.058,0.619-0.146c-0.49-0.426-0.867-0.753-1.243-1.081
		c0.034-0.065,0.067-0.131,0.101-0.196c0.281,0.055,0.561,0.109,0.874,0.17c-0.213-0.28-0.409-0.536-0.604-0.793
		c0.07-0.106,0.14-0.212,0.211-0.318c0.604,0.346,1.209,0.691,1.729,0.989c0-1.02,0.07-2.129-0.019-3.226
		c-0.103-1.263-0.271-1.353-1.638-1.458C44.658,86.074,45.01,86.331,45.363,86.586z M195.815,36.562
		c1.105-0.713,2.45-0.85,3.089-2.229c1.012-2.183,2.145-4.31,3.221-6.464c0.163-0.323,0.3-0.659,0.542-1.192
		C199.513,28.029,195.463,33.922,195.815,36.562z M63.375,108.177c0.63-4.147-0.135-7.598-2.941-10.598
		C59.729,100.926,60.928,105.394,63.375,108.177z M67.234,88.807c0.708,4.692,2.523,8.895,4.783,12.922
		c0.156-0.053,0.312-0.106,0.468-0.159c-1.329-4.433-2.657-8.866-3.994-13.325C67.882,88.518,67.566,88.659,67.234,88.807z
		 M105.071,116.55c-0.137-0.594-0.161-0.925-0.288-1.21c-0.658-1.495-1.288-3.005-2.042-4.452c-0.325-0.625-0.942-1.094-1.388-1.665
		c-0.156-0.199-0.318-0.515-0.271-0.732c0.263-1.204-0.27-1.716-1.571-1.443C99.002,111.445,101.964,113.856,105.071,116.55z
		 M43.053,71.265c-0.088,0.007-0.177,0.013-0.266,0.02c-0.376-1.925-0.751-3.851-1.126-5.776c-0.084,0.012-0.169,0.023-0.254,0.034
		c0,0.461,0,0.922,0,1.469c-2.432-0.697-1.387-2.916-2.037-4.354c-1.641,2.094-1.496,2.949,0.433,4.789
		c0.515,0.49,0.832,1.399,0.87,2.135c0.092,1.78,0.854,3.326,2.118,3.758c1.127-2.043,1.193-2.705,0.262-3.376
		C43.053,70.431,43.053,70.848,43.053,71.265z M229.128,34.589c0.565,1.754,1.544,2.178,2.82,1.541
		c0.289-0.145,0.824-0.18,1.054-0.008c1.582,1.179,3.06,2.503,4.677,3.625c1.017,0.706,2.22,1.143,3.339,1.701
		c0.107-0.171,0.214-0.342,0.321-0.513c-1.991-1.65-3.959-3.33-5.982-4.94C233.56,34.567,231.39,34.751,229.128,34.589z
		 M45.307,94.275c-0.029,0.054-0.06,0.108-0.09,0.163c0.842,0.536,1.686,1.074,2.242,1.429c-0.221,0.654-0.459,0.988-0.409,1.27
		c0.214,1.205,0.46,2.409,0.797,3.584c0.34,1.186,0.804,2.337,1.213,3.502c1.488-3.041,0.71-5.946,0.131-8.501
		C47.696,95.166,46.501,94.721,45.307,94.275z M166.42,155.404c-1.061-4.379-2.003-8.826-4.312-13.187
		c0.507,2.897,1.063,5.444,1.365,8.021c0.212,1.811,0.487,3.543,1.354,4.851C165.468,155.215,165.9,155.3,166.42,155.404z
		 M174.179,128.781c-0.187-0.533-0.285-0.962-0.479-1.344c-1.858-3.681-4.548-6.694-7.568-9.45
		c-0.645-0.588-1.255-0.882-2.003-0.497C167.424,121.191,170.73,124.905,174.179,128.781z M85.124,117.702
		c1.089-3.299-2.118-6.449-5.973-6.348c-0.933,2.108,2.225,1.603,2.098,3.226c-0.011,0.134,0.475,0.306,0.826,0.519
		c-0.104-0.44-0.171-0.72-0.308-1.295C82.985,115.217,83.99,116.385,85.124,117.702z M180.168,114.599
		c-0.21-0.077-0.421-0.153-0.631-0.229c-0.593,1.268-1.271,2.506-1.762,3.812c-0.764,2.037-0.39,2.751,1.77,3.67
		c0.687-1.736,1.371-3.47,2.055-5.201c-0.122-0.054-0.243-0.109-0.365-0.164c-0.372,0.672-0.743,1.344-1.197,2.168
		c-0.224-1.282,1.25-2.039,0.636-3.464c-0.503,0.774-0.864,1.33-1.226,1.887c-0.039-0.022-0.079-0.044-0.119-0.065
		C179.609,116.208,179.888,115.403,180.168,114.599z M64.05,109.77c0.496,4.72,2,8.662,5.166,11.928
		c-0.363-1.901-0.918-3.743-1.502-5.575c-0.047-0.145-0.309-0.33-0.456-0.317c-1.319,0.11-1.373-1.035-1.78-1.909
		c0.515,0.222,1.03,0.444,1.545,0.666c-1.547-0.823-2.343-2.032-2.232-3.802c0.382,0.168,0.763,0.336,1.145,0.504
		c0.049-0.094,0.1-0.187,0.149-0.28C65.488,110.629,64.895,110.274,64.05,109.77z M46.925,71.64
		c0.125-0.013,0.248-0.025,0.372-0.039c0.069-1.117,0.431-2.326,0.117-3.322c-0.269-0.853-0.369-1.631-0.422-2.494
		c-0.098-1.581-0.253-3.174-0.58-4.719c-0.142-0.667-0.653-1.401-1.841-1.177C45.364,63.845,46.144,67.743,46.925,71.64z
		 M168.369,55.194c-1.931,3.328-3.204,6.84-3.117,10.788c0.45-0.533,0.902-1.047,1.328-1.581c0.4-0.501,1.044-0.992,1.112-1.545
		C168.008,60.314,168.159,57.75,168.369,55.194z M82.329,110.751c0.105-0.053,0.21-0.108,0.315-0.161
		c-1.486-2.607-3.179-5.122-4.402-7.848c-1.217-2.715-1.963-5.643-2.917-8.477c-0.253,1.079-0.432,2.111-0.218,3.055
		c0.517,2.292,1.333,4.449,2.776,6.405C79.525,105.949,80.86,108.399,82.329,110.751z M79.594,121.749
		c-0.109,0.032-0.218,0.065-0.327,0.099c0.786,2.571,1.544,5.153,2.379,7.708c0.198,0.604,0.656,1.123,0.994,1.684
		c0.336-0.519,0.675-1.032,1.001-1.555c0.034-0.054-0.01-0.156-0.019-0.244c-0.334-0.295-0.671-0.593-1.007-0.89
		c0.05-0.072,0.1-0.144,0.149-0.216c0.449,0.117,0.898,0.235,1.347,0.351c-0.894-0.805-2.071-1.311-1.668-2.818
		c0.014-0.055-0.076-0.138-0.123-0.205C81.412,124.358,80.502,123.052,79.594,121.749z M102.719,117.352
		c-0.067,0.038-0.135,0.075-0.204,0.112c-0.041,0.643-0.032,1.294-0.14,1.926c-0.066,0.384-0.383,0.725-0.46,1.11
		c-0.357,1.77,0.152,3.219,1.738,4.176c0.348,0.21,0.797,0.254,1.2,0.373c0.073-0.355,0.285-0.75,0.198-1.063
		c-0.422-1.529-0.897-3.048-1.409-4.55C103.399,118.719,103.031,118.044,102.719,117.352z M75.492,126.579
		c-0.045,0.078-0.09,0.159-0.134,0.238c1.382,0.88,2.754,1.777,4.15,2.631c0.915,0.562,0.931,0.535,1.13,1.759
		c-0.498-0.193-0.969-0.377-1.44-0.561c0.173,0.24,0.375,0.386,0.601,0.46c0.403,0.138,0.82,0.231,1.231,0.343
		c0.009-0.459,0.117-0.943,0.01-1.373c-0.394-1.578-0.918-3.124-1.275-4.71c-0.252-1.12-0.966-1.566-1.82-1.815
		c0.117,1.062,0.216,2.1,0.349,3.13c0.107,0.841-0.154,1.09-0.954,0.701C76.737,127.087,76.109,126.843,75.492,126.579z
		 M184.208,107.74c0.158-0.034,0.317-0.067,0.477-0.1c2.08-3.015,2.211-10.921-0.361-11.767c1.127,2.215,0.976,4.422,0.421,6.646
		c-0.286,1.15-0.652,2.288-0.829,3.456C183.832,106.535,184.098,107.15,184.208,107.74z M146.709,132.263
		c-1.067-4.538-3.332-7.957-7.025-10.488c-0.028,0.615-0.083,1.324,0.242,1.737c0.973,1.239,2.173,2.298,3.137,3.543
		C144.305,128.662,145.402,130.381,146.709,132.263z M166.933,74.373c-0.232,1.839-0.427,3.377-0.622,4.914
		c0.142,0.036,0.283,0.072,0.424,0.108c1.226-0.875,0.829-2.477,1.434-3.915c0.052,1.124,0.091,1.976,0.129,2.828
		c0.193,0.019,0.388,0.038,0.581,0.057c0.42-2.087,0.839-4.175,1.259-6.262c-1.502,0.572-2.586,1.31-2.512,3.167
		C167.366,74.931,167.265,74.801,166.933,74.373z M185.95,43.781c0.123,0.092,0.245,0.183,0.366,0.274
		c0.579-0.71,1.342-1.34,1.699-2.148c1.102-2.493,2.011-5.072,3.073-7.583c0.568-1.347,1.296-2.625,1.95-3.935
		c-0.122-0.06-0.245-0.119-0.367-0.178C189.851,34.44,187.542,38.929,185.95,43.781z M183.068,152.1
		c0.304-3.034-1.127-9.234-2.635-13.466c-0.195,0.747-0.554,1.375-0.467,1.938c0.198,1.282,0.644,2.525,0.937,3.796
		c0.294,1.277,0.162,2.837,0.869,3.787C182.712,149.419,182.898,150.707,183.068,152.1z M102.009,129.046
		c0.058-2.18-0.585-3.979-1.608-5.719c-0.269,0.495-0.415,1.125-0.711,1.208c-0.325,0.088-0.79-0.329-1.199-0.527
		C98.25,126.439,99.501,128.36,102.009,129.046z M200.011,34.146c1.303-0.432,2.246-0.616,2.706-1.92
		c0.78-2.211,1.802-4.335,2.721-6.496C203.083,28.02,201.072,30.573,200.011,34.146z M69.408,117.386
		c-0.106,0.109-0.212,0.217-0.318,0.326c0.949,1.706,1.897,3.412,2.846,5.118c0.229-1.413,0.146-2.757,0.251-4.086
		c0.123-1.544-0.26-2.594-2.051-2.706c-0.021,0.455-0.044,0.933-0.068,1.444C69.829,117.446,69.619,117.416,69.408,117.386z
		 M39.136,84.197c0.26,0.438,0.451,0.761,0.849,1.432c0.339-1.081,0.57-1.813,0.83-2.643c-2.391-0.294-1.693-2.731-2.993-3.771
		c-0.589,0.646-1.091,1.546-2.22,0.63c-0.059,0.111-0.119,0.223-0.178,0.334c0.471,0.716,0.943,1.432,1.439,2.185
		c0.283-0.438,0.439-0.679,0.812-1.256c0.332,1.44,0.579,2.518,0.827,3.598C38.639,84.595,38.852,84.424,39.136,84.197z
		 M216.44,141.309c0.15-0.093,0.301-0.188,0.451-0.281c0.775-4.535,1.55-9.069,2.326-13.605c-0.462,0.579-0.712,1.217-0.849,1.877
		c-0.614,2.959-1.133,5.938-1.813,8.879c-0.452,1.964-0.549,1.941-2.234,0.992c-0.037-0.02-0.128,0.053-0.531,0.232
		C214.774,140.11,215.608,140.71,216.44,141.309z M80.763,231.407c-2.878,0.583-5.587-0.838-8.324,0.261
		c0.47,1.11,0.486,1.084,1.276,0.774c0.369-0.144,0.82-0.092,1.234-0.103c0.883-0.021,1.766-0.024,2.58-0.034
		c-0.239,0.254-0.666,0.707-1.27,1.351c0.544,0.458,1.047,0.883,1.55,1.307c0.116-0.099,0.231-0.196,0.346-0.295
		c-0.118-0.649-0.235-1.296-0.382-2.107C78.879,232.715,79.977,233.083,80.763,231.407z M167.244,103.064
		c4.204-0.589,8.392-0.878,12.848,0.373c-2.374-1.84-10.062-2.823-11.746-1.635c2.004,0,3.945,0,5.888,0
		C171.892,102.238,169.474,101.958,167.244,103.064z M159.237,133.846c0.029-0.009,0.057-0.019,0.085-0.027
		c-1.111-1.578-2.2-3.174-3.339-4.731c-1.836-2.509-4.361-4.195-7.074-5.881C152.424,126.828,155.831,130.337,159.237,133.846z
		 M212.7,106.735c0.406,0.765,0.637,1.887,1.156,2.042c1.447,0.433,3.015,0.465,4.647,0.671c-0.167-1.486-1.2-1.495-2.021-1.606
		c-0.893-0.122-1.812-0.028-2.722-0.028c-0.002-0.093-0.005-0.186-0.008-0.28c1.256,0,2.512,0,3.768,0
		c0.008-0.122,0.016-0.245,0.023-0.367C216.002,107.089,214.612,105.985,212.7,106.735z M186.114,111.363
		c-2.522-2.51-6.284-2.451-9.803-3.121c1.207,1.161,2.67,1.785,4.289,2.088C182.534,110.694,184.468,111.055,186.114,111.363z
		 M145.981,126.47c0.096-0.097,0.191-0.195,0.288-0.293c-1.29-2.784-3.744-4.525-5.853-6.506c-0.157,0.373-0.296,0.7-0.477,1.131
		C141.913,122.654,143.948,124.563,145.981,126.47z M83.323,224.023c-0.035-0.129-0.07-0.257-0.106-0.387
		c-0.575,0.235-1.177,0.425-1.699,0.746c-0.093,0.059,0.147,0.657,0.246,1.058c-1.351,0.166-0.823-0.876-0.765-1.684
		c-0.725,0.049-1.354,0.093-2.21,0.149c0.558,0.33,0.898,0.529,1.111,0.653c-0.492,0.188-0.974,0.372-1.639,0.625
		c1.767,0.407,3.213,0.636,4.583,1.096c0.84,0.281,1.297-0.068,1.609-0.619c0.249-0.438,0.214-1.037,0.306-1.565
		c-0.156-0.056-0.312-0.114-0.468-0.173c-0.523,0.591-1.046,1.181-1.569,1.771c-0.07-0.046-0.14-0.094-0.211-0.14
		C82.784,225.043,83.054,224.534,83.323,224.023z M84.126,102.96c0.733-2.146,0.259-4.049-0.416-6.146
		c-0.538,0.578-0.936,1.004-1.37,1.47c0.656,0.826,1.29,1.624,1.923,2.422c-0.116,0.105-0.233,0.211-0.351,0.316
		c-0.601-0.736-1.201-1.473-1.802-2.209C82.184,100.491,82.489,101.959,84.126,102.96z M118.102,114.684
		c0.095-0.085,0.191-0.17,0.286-0.255c-1.899-2.373-3.798-4.745-5.697-7.118c-0.158,0.129-0.317,0.259-0.475,0.389
		C113.67,110.439,115.327,113.014,118.102,114.684z M42.312,66.593c1.25-0.424,1.226-1.35,1.086-2.165
		c-0.284-1.647-0.683-3.277-1.093-4.899c-0.16-0.635-0.481-1.229-0.729-1.842c-0.087,0.026-0.173,0.052-0.26,0.078
		C41.646,60.695,41.977,63.625,42.312,66.593z M173.414,69.215c-0.125-0.07-0.252-0.139-0.377-0.208
		c-0.558,0.618-1.528,1.194-1.595,1.862c-0.209,2.081-0.077,4.196-0.077,6.298c0.174,0.017,0.347,0.033,0.521,0.048
		C172.395,74.549,172.905,71.882,173.414,69.215z M165.294,100.939c2.766-0.439,5.51-0.875,8.427-1.338
		C171.167,98.166,166.474,98.979,165.294,100.939z M200.205,87.448c0.472-0.129,1.164-0.106,1.377-0.415
		c1.095-1.583,2.064-3.25,3.076-4.883C203.139,81.92,201.277,83.911,200.205,87.448z M84.188,232.053
		c-2.005-0.788-2.384-0.652-3.754,0.7c-0.452,0.444-1.208,0.582-2.019,0.945c0-0.176-0.062,0.025,0.012,0.129
		c0.283,0.396,0.609,0.762,0.919,1.14c0.251-0.33,0.521-0.647,0.748-0.991c0.215-0.329,0.386-0.685,0.574-1.021
		C82.429,233.844,83.051,233.685,84.188,232.053z M108.028,212.205c-0.388,1.642-0.784,3.279-1.145,4.925
		c-0.026,0.119,0.25,0.439,0.318,0.422c0.252-0.069,0.53-0.192,0.702-0.384C109.448,215.481,109.542,214.436,108.028,212.205z
		 M183.04,95.16c0.256,1.602,0.653,3.187,0.723,4.786c0.066,1.58-0.197,3.174-0.316,4.762
		C185.23,101.018,185.092,95.768,183.04,95.16z M230.307,121.012c0.741,0.391,1.679,1.226,2.106-0.04
		c0.892-2.627,0.021-5.181-0.528-7.749c-0.204,0.174-0.314,0.357-0.303,0.531c0.118,1.671,0.164,3.354,0.422,5.005
		c0.173,1.102-0.056,1.755-1.161,2.028C230.657,120.834,230.485,120.936,230.307,121.012z M211.43,85.059
		c-1.577,1.289-2.459,3.081-2.442,4.774c0.004,0.351,0.346,0.697,0.53,1.045c0.254-0.325,0.598-0.614,0.74-0.981
		c0.433-1.093,0.818-2.207,1.154-3.333C211.525,86.182,211.43,85.738,211.43,85.059z M175,93.364
		c0.357,2.156,1.796,5.684,2.358,5.842C177.916,96.572,176.745,93.545,175,93.364z M203.206,32.396
		c0.127,0.117,0.252,0.234,0.377,0.35c0.3-0.277,0.67-0.508,0.883-0.84c1.054-1.639,2.071-3.3,3.086-4.963
		c0.204-0.334,0.342-0.71,0.509-1.068c-0.104-0.052-0.208-0.105-0.312-0.157C205.684,27.575,204.306,29.892,203.206,32.396z
		 M176.236,110.545c-0.157-0.076-0.315-0.151-0.475-0.228c-1.535,1.4-2.482,3.167-3.024,5.158c-0.069,0.255,0.279,0.623,0.434,0.939
		c0.122-0.004,0.243-0.008,0.364-0.012C174.436,114.45,175.335,112.498,176.236,110.545z M170.021,90.949
		c0.044,0.131,0.088,0.264,0.133,0.396c0.573-0.191,1.258-0.242,1.7-0.596c2.075-1.662,4.454-2.594,7.001-3.187
		C175.385,87.378,172.577,88.849,170.021,90.949z M184.008,88.866c-1.552-0.898-7.184,0.721-9.071,2.712
		c0.613-0.013,1.223-0.09,1.784-0.299c1.138-0.425,2.229-0.992,3.38-1.373C181.364,89.488,182.673,89.214,184.008,88.866z
		 M83.926,241.106c0.312,0.198,0.537,0.299,0.708,0.456c0.949,0.875,2.603,1.048,2.76,2.743c0.004,0.044,0.739,0.157,0.824,0.03
		c0.441-0.66-0.292-2.043-1.109-2.249c-0.737-0.187-1.494-0.37-1.787-1.229c0.668,0.289,1.336,0.577,2.197,0.949
		C86.82,240.031,85.701,239.859,83.926,241.106z M170.665,112.856c0.104,0.047,0.207,0.095,0.312,0.142
		c1.333-1.226,2.667-2.452,3.983-3.662c-1.13-1.309-1.211-1.296-1.992-0.101c-0.243,0.374-0.604,0.673-0.836,1.053
		C171.619,111.129,171.152,111.999,170.665,112.856z M92.431,117.784c-0.3,0.629-0.586,1.229-0.935,1.958
		c-0.417-0.212-0.936-0.475-1.453-0.736c-0.022,0.05-0.044,0.1-0.066,0.15c0.681,0.454,1.363,0.905,2.044,1.358
		c-0.044,0.094-0.088,0.188-0.132,0.283c-0.451-0.153-0.903-0.307-1.354-0.46c-0.016,0.046-0.031,0.094-0.046,0.141
		c0.516,0.294,1.031,0.587,1.654,0.941c-0.439,0.364-0.767,0.636-1.228,1.018c0.53,0.31,0.997,0.582,1.463,0.855
		c0.156-0.556,0.389-1.106,0.445-1.672c0.05-0.516-0.16-1.057-0.128-1.578c0.027-0.445,0.233-0.878,0.401-1.456
		C92.928,118.383,92.645,118.042,92.431,117.784z M178.453,84.899c0.149,0.199,0.299,0.398,0.447,0.598
		c2.271-1.235,3.353-3.884,5.549-5.208C181.616,80.801,180.274,83.145,178.453,84.899z M193.707,37.606
		c1.818-0.867,1.219-2.706,1.731-4.025c0.562-1.439,0.948-2.946,1.415-4.434C195.296,31.066,193.529,35.727,193.707,37.606z
		 M182.297,64.569c1.279-0.204,2.415,0.309,3.061-0.859c0.745-1.347,1.448-2.719,2.168-4.08c-0.067-0.05-0.137-0.099-0.204-0.148
		c-0.862,1.172-1.727,2.343-2.59,3.515c-0.041-0.023-0.082-0.046-0.124-0.07c0.158-0.425,0.316-0.85,0.476-1.275
		c-0.129-0.069-0.259-0.136-0.39-0.205c-0.379,0.814-0.758,1.627-1.183,2.537c-0.049-0.365-0.084-0.636-0.148-1.125
		C182.982,63.47,182.731,63.875,182.297,64.569z M207.01,99.085c-0.05-0.093-0.102-0.186-0.152-0.279
		c-1.885,0.686-3.709,1.485-4.774,3.378c-0.18,0.319-0.087,0.791-0.138,1.403C203.822,101.92,205.416,100.503,207.01,99.085z
		 M178.848,100.903c0.132-0.065,0.264-0.131,0.395-0.196c0.685-3.098-0.983-5.819-2.135-6.591c0.299,1.506,0.639,3.359,1.051,5.195
		C178.284,99.866,178.612,100.374,178.848,100.903z M105.191,121.628c0.091,1.115,0.115,2.083,1.478,2.292
		c0.827,0.125,1.148-0.107,0.959-0.861c-0.278-1.109-0.627-2.205-1.036-3.272c-0.1-0.262-0.551-0.388-0.602-0.422
		c0.186,0.752,0.386,1.564,0.642,2.593C105.964,121.806,105.622,121.728,105.191,121.628z M88.405,101.808
		c-0.057-0.425-0.04-0.635-0.117-0.799c-0.415-0.885-0.813-1.783-1.303-2.626c-0.183-0.315-0.598-0.495-0.906-0.736
		c-0.161,0.403-0.564,0.918-0.439,1.188c0.422,0.911,0.99,1.765,1.597,2.57C87.415,101.642,87.904,101.646,88.405,101.808z
		 M83.883,245.514c0.152,0.031,0.304,0.063,0.455,0.093c0.065-0.572,0.13-1.145,0.177-1.562c-1.2-0.392-2.196-0.715-3.19-1.04
		c0.037-0.115,0.074-0.231,0.11-0.347c0.5,0.139,0.999,0.278,1.681,0.469c-1.111-1.857-1.882-0.286-2.896-0.067
		c0.873,1.238,1.634,2.323,3.303,1.509C83.655,244.916,83.769,245.214,83.883,245.514z M173.382,97.685
		c0.113-1.421-0.296-3.297-0.942-3.645c-0.343-0.183-0.864-0.032-1.317-0.032C171.368,96.959,171.645,97.386,173.382,97.685z
		 M210.331,101.46c1.912,0.402,3.66,0.77,5.38,1.131c-0.622-1.804-3.355-2.843-4.689-1.737c0.272,0.109,0.546,0.218,1.142,0.457
		C211.358,101.376,210.917,101.412,210.331,101.46z M158.692,141.469c1.161,4.012,2.32,8.023,3.479,12.033
		c0.115-0.033,0.229-0.069,0.346-0.102C161.569,149.303,160.562,145.224,158.692,141.469z M90.813,242.694
		c0.503-1.005-0.404-1.621-1.058-2.282c-0.761-0.768-1.667-1.131-3.157-0.44c1,0.646,1.783,1.151,2.566,1.656
		C89.684,241.963,90.203,242.298,90.813,242.694z M71.689,90.948c-0.864,0.084-1.435,0.2-1.223,1.101
		c0.438,1.861,0.885,3.72,1.328,5.579c0.108-0.018,0.216-0.035,0.324-0.054C71.977,95.393,71.836,93.213,71.689,90.948z
		 M101.202,220.183c-0.073,0.045-0.146,0.092-0.22,0.137c0.04,0.395,0.171,0.806,0.101,1.179c-0.201,1.076,0.452,1.762,1.149,2.281
		c0.341,0.255,1.244,0.236,1.541-0.038c0.613-0.567,0.012-0.9-0.501-1.269c-0.545-0.391-0.959-0.969-1.417-1.476
		C101.622,220.739,101.418,220.455,101.202,220.183z M151.285,122.785c0.062-0.076,0.123-0.153,0.186-0.229
		c-1.58-1.294-3.121-2.64-4.76-3.854c-0.639-0.474-1.499-0.648-2.258-0.958c-0.061,0.139-0.121,0.276-0.181,0.416
		C146.609,119.702,148.948,121.243,151.285,122.785z M171.183,70.915c-0.945,0.915-1.422,5.627-0.696,6.975
		C171.656,75.547,170.982,73.292,171.183,70.915z M187.456,113.506c-2.365-1.67-5.396-2.307-8.473-2.848
		c0.674,0.541,1.405,0.984,2.199,1.211C183.325,112.481,185.493,113,187.456,113.506z M98.788,108.275
		c0.181-1.3-0.79-2.269-1.548-3.3c-0.182-0.248-0.659-0.28-1.001-0.411c-0.018,0.481-0.246,1.154-0.014,1.409
		C97.004,106.833,97.948,107.543,98.788,108.275z M204.083,106.385c1.261-1.274,2.665-2.666,4.022-4.099
		c0.2-0.211,0.186-0.627,0.317-1.126C206.196,102.159,204.138,104.861,204.083,106.385z M94.978,236.272
		c1.039,0.618,2.1,1.269,3.186,1.877c0.199,0.112,0.534,0.129,0.733,0.035c0.116-0.055,0.175-0.445,0.111-0.636
		C98.501,236.039,96.24,235.375,94.978,236.272z M100.928,223.599c-0.105,0.358-0.265,0.741-0.326,1.138
		c-0.176,1.134,0.96,2.16,1.988,1.73c0.361-0.152,0.613-0.679,0.784-1.088c0.04-0.1-0.425-0.442-0.689-0.627
		C102.132,224.367,101.559,224.011,100.928,223.599z M169.65,52.522c-0.863,3.151-1.678,6.313-1.316,9.779
		c0.286-0.168,0.409-0.203,0.414-0.249C169.054,58.876,169.352,55.699,169.65,52.522z M202.903,104.832
		c1.562-1.558,3.15-3.143,4.883-4.871C205.637,100.238,202.794,103.328,202.903,104.832z M184.989,118.738
		c0.125-0.116,0.254-0.234,0.379-0.351c-2.461-2.667-4.919-5.334-7.38-8c-0.097,0.089-0.194,0.179-0.291,0.268
		C180.128,113.349,182.558,116.044,184.989,118.738z M215.291,25.884c-2.03,0.553-3.126,2.013-4.198,3.482
		c-0.088,0.121-0.005,0.53,0.114,0.594c0.156,0.086,0.521,0.05,0.635-0.078C212.969,28.613,214.065,27.315,215.291,25.884z
		 M187.63,96.008c1.576,0.141,3.15,0.312,4.729,0.39c0.232,0.012,0.486-0.422,0.73-0.65
		C191.201,95.687,189.372,94.262,187.63,96.008z M182.009,107.143c-2.197-0.929-4.578-1.047-6.898-1.451
		C177.239,106.897,179.513,107.477,182.009,107.143z M210.13,106.625c-2.405,1.877-3.232,4.019-2.163,5.207
		C208.694,110.081,209.413,108.354,210.13,106.625z M102.386,218.184c0.391,0.905,1.941,1.812,2.442,1.318
		c0.373-0.368,0.605-1.171,0.484-1.68C105.118,217.015,103.958,217.177,102.386,218.184z M100.878,122.175
		c0.897-3.063-0.568-4.144-3.252-4.124c0.973,0.449,1.665,0.768,2.356,1.087c-0.027,0.085-0.054,0.171-0.081,0.258
		c-0.369,0-0.739,0-1.108,0c-0.006,0.055-0.011,0.11-0.018,0.166c0.539,0.225,1.077,0.45,1.798,0.752
		c-0.39,0.261-0.604,0.404-0.871,0.581C100.063,121.288,100.416,121.67,100.878,122.175z M78.186,245.042
		c0.783,0.458,1.47,0.858,2.415,1.409c0.216-0.18,0.684-0.571,1.152-0.963c-0.001-0.151-0.002-0.303-0.003-0.453
		c-0.88-0.2-1.76-0.4-2.662-0.607c0.318-0.186,0.662-0.387,1.115-0.652C79.158,243.596,78.632,243.994,78.186,245.042z
		 M211.884,108.739c-0.123,0.007-0.247,0.015-0.372,0.021c-1.277,2.911,0.985,5.811,0.372,7.322
		C211.884,114.568,211.884,111.654,211.884,108.739z M177.45,111.958c-0.629,1.601-1.245,3.169-1.86,4.737
		c0.136,0.061,0.269,0.122,0.404,0.183c0.732-1.119,1.421-2.269,2.212-3.345C178.769,112.766,178.524,112.392,177.45,111.958z
		 M163.01,101.519c-2.973,0.76-5.837,1.49-8.7,2.221C157.232,103.223,160.431,103.728,163.01,101.519z M182.906,118.047
		c-0.195-0.044-0.39-0.09-0.585-0.135c-0.784,1.724-1.61,3.438-1.368,5.411c0.153,0.041,0.308,0.082,0.461,0.123
		C181.912,121.646,182.409,119.847,182.906,118.047z M96.893,234.807c1.21,1.048,2.089,1.81,3.002,2.602
		c-0.128-0.666-0.339-1.262-0.333-1.854c0.008-0.818-0.086-1.55-1.069-1.494C97.986,234.089,97.501,234.508,96.893,234.807z
		 M213.1,111.755c0,2.576,0,5.231,0,8.199C214.189,118.251,214.041,113.631,213.1,111.755z M181.659,112.935
		c1.872,1.451,4.075,2.264,5.573,2.149C185.811,113.515,183.931,113,181.659,112.935z M26.522,30.905
		c-0.008,0.121-0.016,0.243-0.024,0.364c0.989,0.088,1.978,0.179,2.967,0.261c0.075,0.006,0.219-0.038,0.223-0.074
		c0.212-1.555,1.152-0.538,2.208-0.49c-0.35-0.608-0.591-1.029-0.733-1.276C29.506,30.125,28.014,30.514,26.522,30.905z
		 M82.8,241.435c-0.098,0.17-0.196,0.341-0.294,0.511c1.076,0.707,2.152,1.412,3.353,2.201c0.006,0.058,0.045,0.452,0.085,0.849
		c0.178-0.009,0.354-0.016,0.531-0.023c-0.053-0.513,0.078-1.172-0.192-1.515C85.4,242.337,84.254,241.557,82.8,241.435z
		 M209.212,103.093c-0.138-0.125-0.274-0.251-0.41-0.376c-1.979,0.949-3.088,2.683-3.871,4.709
		C206.358,105.982,207.786,104.538,209.212,103.093z M207.782,30.74c0.098,0.092,0.196,0.183,0.294,0.275
		c1.163-0.154,2.785-2.372,2.581-4.111C209.698,28.184,208.74,29.462,207.782,30.74z M223.679,60.799
		c1.317,0.662,1.86,0.342,3.413-2.008C225.769,58.299,224.952,58.781,223.679,60.799z M174.427,106.422
		c2.719,2.03,5.65,2.029,8.81,2.527c-0.447-0.249-0.577-0.358-0.727-0.397C179.945,107.87,177.375,107.197,174.427,106.422z
		 M181.83,26.855c1.543-1.61,3.084-3.22,4.581-4.782C184.305,22.979,183.019,24.854,181.83,26.855z M157.174,101.693
		c-1.815-0.009-3.554,0.203-5.284,1.509C154.051,103.298,155.718,102.838,157.174,101.693z M90.646,230.56
		c0.028-0.089,0.056-0.179,0.083-0.268c0.611-0.213,1.21-0.471,1.834-0.63c0.996-0.254,2.009-0.44,3.016-0.655
		c-1.999-1.038-3.346,0.599-5.206,0.642c0.018,0.051-0.082-0.229-0.211-0.595c-0.396,0.231-0.729,0.427-1.227,0.718
		C89.624,230.088,90.135,230.325,90.646,230.56z M205.667,97.198c-2.298-0.3-4.331,0.837-4.618,2.411
		C202.621,98.788,204.144,97.993,205.667,97.198z M30.13,41.276c0.291-0.578,0.566-0.895,0.6-1.234
		c0.124-1.226,0.301-1.356,1.483-0.915c0.223,0.083,0.46,0.125,0.692,0.186c-1.653-1.189-3.567-0.968-4.59,0.461
		c0.428,0,0.813,0,1.207,0C29.697,40.209,29.855,40.6,30.13,41.276z M218.417,113.321c-0.014-0.127-0.029-0.254-0.043-0.381
		c-0.754,0.142-1.506,0.284-2.368,0.447c1.192,2.016,1.622,2.075,3.867,0.466c-0.897,0.069-1.795,0.138-2.898,0.223
		C217.571,113.764,217.995,113.542,218.417,113.321z M210.533,108.499c-1.304,1.636-1.561,4.382-0.51,5.975
		C210.197,112.44,210.358,110.543,210.533,108.499z M105.173,220.475c-0.073-0.154-0.147-0.306-0.221-0.46
		c-0.834,0.183-1.815,0.162-2.453,0.618c-0.442,0.317,0.678,1.321,2.008,1.478C104.723,221.581,104.949,221.027,105.173,220.475z
		 M89.252,238.996c-0.006,0.122-0.012,0.247-0.018,0.369c0.589,0.494,1.158,1.021,1.78,1.47c0.291,0.209,0.682,0.312,1.042,0.364
		c0.071,0.01,0.36-0.565,0.284-0.663c-0.219-0.277-0.547-0.522-0.882-0.644c-0.462-0.169-0.97-0.212-1.459-0.31
		c0.021-0.093,0.042-0.187,0.064-0.281c0.772-0.061,1.546-0.122,2.319-0.185c-0.016-0.144-0.032-0.288-0.047-0.434
		C91.307,238.788,90.279,238.891,89.252,238.996z M188.818,61.667c-1.48,0.055-2.175,1.017-2.721,2.253
		C187.843,64.17,188.844,63.771,188.818,61.667z M99.189,123.284c0.506-1.399-0.013-2.674-1.67-4.021
		C97.795,120.771,97.641,122.309,99.189,123.284z M143.873,115.214c-0.084,0.116-0.168,0.231-0.251,0.346
		c1.438,1.07,2.877,2.141,4.315,3.21c0.096-0.132,0.192-0.265,0.29-0.397C146.713,117.405,145.872,115.529,143.873,115.214z
		 M94.692,125.96c-0.43-0.862-0.783-1.569-1.136-2.277c-0.158-0.009-0.316-0.02-0.474-0.029c-0.223,0.843-0.445,1.686-0.754,2.855
		C93.353,126.271,93.952,126.132,94.692,125.96z M73.615,233.108c0.593,1.806,0.884,1.945,2.668,1.356
		C75.862,232.805,75.299,232.503,73.615,233.108z M181.295,59.346c-1.427,1.191-2.836,4.988-2.297,6.125
		C179.758,63.448,180.475,61.533,181.295,59.346z M220.064,25.507c0.01,0.161,0.021,0.322,0.031,0.483
		c1.218,0.915,2.524,0.722,4.138-0.854C222.634,25.279,221.349,25.394,220.064,25.507z M159.348,105.54
		c-0.062,0.09-0.127,0.18-0.191,0.27c1.807,1.437,3.45,3.1,5.572,4.089c0.076-0.108,0.153-0.216,0.231-0.325
		C163.09,108.229,161.219,106.884,159.348,105.54z M173.146,90.864c0.057,0.116,0.11,0.233,0.165,0.351
		c1.811-0.849,3.618-1.697,5.429-2.546c-0.046-0.097-0.092-0.194-0.139-0.292C176.581,88.776,174.718,89.509,173.146,90.864z
		 M179.139,113.683c-0.106-0.041-0.21-0.082-0.316-0.124c-1.042,1.782-2.424,3.415-2.651,5.557c0.106,0.047,0.212,0.094,0.319,0.141
		C177.373,117.399,178.255,115.542,179.139,113.683z M208.099,149.825c0.59-2.459,0.416-4.787-0.919-7.005
		C207.492,145.194,207.796,147.51,208.099,149.825z M174.803,98.005c-0.108-1.675-0.509-3.188-1.8-4.284
		C174.031,94.972,173.071,97.102,174.803,98.005z M102.826,227.819c-0.058-0.171-0.117-0.341-0.175-0.512
		c-0.938,0.252-1.73-1.27-2.777-0.177c0.352,0.757,0.615,1.552,1.63,1.265C101.963,228.265,102.386,228.014,102.826,227.819z
		 M93.7,237.249c1.4,0.451,1.563,2.065,3.032,2.116C96.622,237.613,95.845,237.017,93.7,237.249z M17.659,40.815
		c-0.087-0.126-0.174-0.253-0.261-0.379c-1.125,0.562-2.25,1.124-3.375,1.686c-0.006,0.118-0.012,0.234-0.019,0.351
		c0.359,0.058,0.884,0.296,1.049,0.144C15.833,41.895,17.452,42.25,17.659,40.815z M83.309,235.321
		c-0.131-1.761-1.839-0.804-2.447-1.636C80.054,235.061,80.555,235.325,83.309,235.321z M45.305,49.663
		c-0.111,0.021-0.223,0.041-0.333,0.062c-0.209,2.313,0.103,3.462,1.324,4.611C45.95,52.707,45.628,51.185,45.305,49.663z
		 M152.307,110.674c0.018-0.112,0.036-0.224,0.056-0.336c-1.659-0.352-3.317-0.704-5.316-1.128
		C148.774,110.853,150.613,110.446,152.307,110.674z M201.792,100.933c1.681-0.991,3.154-1.859,4.627-2.728
		c-0.079-0.125-0.158-0.25-0.238-0.375C204.464,98.336,202.941,99.152,201.792,100.933z M217.076,106.17
		c-1.412-1.292-3.44-1.452-4.457-0.231C214.133,106.017,215.642,106.095,217.076,106.17z M213.883,99.595
		c-0.606-1.606-1.298-1.746-3.999-0.861C211.238,99.026,212.477,99.292,213.883,99.595z M227.517,57.114
		c1.274,0.697,1.649,0.538,2.559-1.075C228.669,55.481,228.352,55.613,227.517,57.114z M221.9,115.432
		c-0.227,0.091-0.453,0.182-0.68,0.273c0.561,1.312,1.121,2.625,1.682,3.937c0.188-0.074,0.376-0.147,0.563-0.222
		C222.944,118.091,222.422,116.761,221.9,115.432z M171.274,97.081c-0.219-0.825-0.355-1.542-0.629-2.203
		c-0.062-0.15-0.801-0.245-0.894-0.119C169.208,95.497,170.113,97.043,171.274,97.081z M168.347,90.811
		c0.091,0.157,0.184,0.314,0.275,0.472c1.537-1.021,3.074-2.043,4.61-3.064c-0.075-0.118-0.148-0.236-0.224-0.354
		C171.456,88.846,169.901,89.828,168.347,90.811z M112.502,99.086c-0.142,0.115-0.283,0.229-0.424,0.345
		c1.094,1.143,2.188,2.287,3.282,3.431c0.119-0.111,0.237-0.222,0.356-0.333C114.646,101.381,113.574,100.233,112.502,99.086z
		 M167.583,144.991c-0.18,0.078-0.36,0.156-0.54,0.235c0.528,1.25,1.055,2.5,1.582,3.75c0.211-0.092,0.422-0.183,0.632-0.274
		C168.7,147.465,168.142,146.227,167.583,144.991z M169.002,107.774c0.091-1.817-0.661-2.238-2.683-1.672
		C167.238,106.674,168.028,107.167,169.002,107.774z M219.229,110.932c-1.214-1.155-4.158-1.532-4.863-0.711
		C215.936,110.45,217.5,110.679,219.229,110.932z M200.698,97.354c1.345-0.498,2.629-0.973,3.726-1.379
		c-0.808,0-1.826-0.101-2.811,0.036C200.962,96.101,200.079,96.371,200.698,97.354z M167.008,109.059
		c0.066-0.098,0.13-0.197,0.195-0.295c-1.587-1.15-3.173-2.3-4.759-3.449c-0.097,0.145-0.192,0.29-0.288,0.434
		C163.773,106.853,165.392,107.956,167.008,109.059z M127.224,128.938c-0.472-2.107-1.76-3.527-3.534-4.592
		C124.873,125.882,126.04,127.399,127.224,128.938z M177.196,111.829c-0.106-0.075-0.213-0.149-0.32-0.224
		c-1.069,1.72-2.14,3.441-3.208,5.162c0.136,0.084,0.271,0.168,0.408,0.252C175.116,115.289,176.156,113.559,177.196,111.829z
		 M183.194,102.128c0.449-2.162,0.338-4.104-0.602-5.979C182.787,98.084,182.981,100.02,183.194,102.128z M102.209,215.531
		c1.025,1.103,1.665,1.307,2.716,0.863C103.517,214.907,103.266,214.827,102.209,215.531z M169.684,68.838
		c0.187,0.032,0.371,0.062,0.559,0.095c0.347-1.917,0.693-3.835,1.04-5.752c-0.113-0.025-0.225-0.05-0.34-0.075
		C170.524,65.017,170.104,66.927,169.684,68.838z M154.705,109.028c1.414,0.731,2.826,1.462,4.303,2.226
		C158.088,109.301,156.341,109.218,154.705,109.028z M222.762,114.681c0.114-0.086,0.227-0.173,0.339-0.259
		c-0.791-1.235-1.582-2.469-2.374-3.704C220.35,112.688,222.195,113.296,222.762,114.681z M168.936,142.703
		c0.111,2.15,0.862,3.481,1.939,3.716C170.197,145.117,169.567,143.91,168.936,142.703z M171.314,114.101
		c0.149,0.122,0.298,0.245,0.445,0.367c0.95-1.165,1.899-2.329,2.848-3.493c-0.114-0.095-0.231-0.191-0.348-0.286
		C173.279,111.827,172.296,112.963,171.314,114.101z M249.357,25.2c0.081,0.207,0.161,0.415,0.243,0.622
		c1.188-0.498,2.375-0.996,3.564-1.492c-0.066-0.167-0.131-0.333-0.196-0.499C251.764,24.287,250.56,24.743,249.357,25.2z
		 M218.641,103.582c-0.12,0.121-0.242,0.24-0.363,0.36c1.168,1.083,2.335,2.166,3.505,3.248c0.089-0.092,0.18-0.185,0.269-0.277
		C220.915,105.802,219.779,104.691,218.641,103.582z M100.718,215.532c0,0.738,0,1.162,0,1.69c0.772,0,1.471,0,2.17,0
		c0.025-0.112,0.051-0.226,0.076-0.34C102.274,216.468,101.584,216.052,100.718,215.532z M159.736,109.632
		c0.055-0.071,0.108-0.142,0.163-0.212c-1.526-1.225-3.053-2.449-4.579-3.673c-0.064,0.08-0.129,0.16-0.193,0.241
		c1.28,1.104,2.554,2.216,3.849,3.303C159.181,109.463,159.481,109.521,159.736,109.632z M84.252,234.607
		c0.144-0.023,0.286-0.046,0.429-0.068c0.345-0.633,0.69-1.268,1.064-1.952c-0.936-0.603-1.393,0.069-1.655,0.647
		C83.927,233.593,84.185,234.143,84.252,234.607z M165.175,80.168c0.188,0.023,0.376,0.046,0.564,0.07
		c0.15-1.377,0.302-2.753,0.452-4.13c-0.132-0.016-0.264-0.031-0.396-0.048C165.59,77.43,165.381,78.8,165.175,80.168z
		 M70.594,122.448c-0.054,1.503,0.914,2.838,2.066,3.252C71.969,124.612,71.281,123.53,70.594,122.448z M102.144,233.089
		c0.118-0.069,0.236-0.137,0.353-0.204c0.084-1.593-0.093-1.808-1.753-2.003C101.228,231.646,101.686,232.368,102.144,233.089z
		 M181.591,65.25c0.022,0.167,0.042,0.335,0.062,0.501c2.096-0.343,4.19-0.688,6.284-1.032c-0.008-0.074-0.015-0.146-0.021-0.22
		C185.808,64.75,183.7,65,181.591,65.25z M161.118,105.717c-0.063,0.081-0.127,0.162-0.191,0.242
		c1.687,1.191,3.372,2.381,5.057,3.572c0.065-0.094,0.131-0.188,0.198-0.283C164.493,108.072,162.804,106.894,161.118,105.717z
		 M207.691,54.766c-1.497-0.496-1.958,0.399-2.603,1.208C206.446,56.496,206.894,55.536,207.691,54.766z M167.734,108.315
		c0.088-0.112,0.177-0.225,0.264-0.337c-1.218-0.879-2.437-1.757-3.656-2.637c-0.091,0.131-0.182,0.261-0.273,0.391
		C165.292,106.594,166.512,107.455,167.734,108.315z M86.593,232.823c-0.774,0.713-1.434,1.394-1.203,2.452
		c0.058,0.268,0.476,0.457,0.766,0.714C86.315,234.839,86.445,233.897,86.593,232.823z M209.805,83.35
		c2.953,1.69,2.953,1.69,3.415,1.152C212.029,84.1,210.917,83.725,209.805,83.35z M229.938,65.185
		c1.45,0.478,2.639,0.869,4.073,1.342C233.062,65.3,231.301,64.697,229.938,65.185z M247.546,22.702
		c-0.086-0.154-0.172-0.309-0.258-0.463c-1.304,0.708-2.609,1.416-3.914,2.125c0.057,0.107,0.115,0.214,0.173,0.321
		C244.881,24.023,246.212,23.363,247.546,22.702z M174.567,62.662c-0.114-0.029-0.227-0.059-0.34-0.088
		c-0.378,1.394-0.755,2.789-1.134,4.183c0.171,0.044,0.341,0.088,0.512,0.131C173.925,65.479,174.246,64.07,174.567,62.662z
		 M69.866,235.923c1.106-0.743,1.082-1.854,0-3.326C69.866,233.825,69.866,234.754,69.866,235.923z M179.751,64.665
		c0.224,0.096,0.444,0.192,0.666,0.288c0.426-1.505,0.851-3.01,1.275-4.515c-0.099-0.035-0.198-0.07-0.296-0.104
		C180.848,61.776,180.299,63.221,179.751,64.665z M149.326,194.376c0.088-0.001,0.175-0.002,0.263-0.003c0-1.31,0-2.618,0-3.927
		c-0.088,0.001-0.175,0.003-0.263,0.005C149.326,191.759,149.326,193.068,149.326,194.376z M206.757,157.692
		c0.393-1.598,0.706-2.882,1.023-4.167c-0.109-0.028-0.22-0.057-0.329-0.086c-0.422,1.189-0.22,2.736-2.005,3.18
		C205.86,156.958,206.132,157.181,206.757,157.692z M219.208,103.713c0.141-0.107,0.281-0.213,0.419-0.32
		c-0.65-0.868-1.301-1.734-1.953-2.601c-0.162,0.127-0.326,0.253-0.491,0.379C217.858,102.019,218.534,102.866,219.208,103.713z
		 M175.869,126.248c0.431,1.184,0.772,2.126,1.173,3.229C177.536,128.366,176.961,126.69,175.869,126.248z M167.445,66.314
		c-0.1-0.015-0.201-0.031-0.302-0.047c-0.272,1.695-0.546,3.389-0.817,5.083c0.146,0.022,0.297,0.045,0.445,0.067
		C166.997,69.716,167.22,68.015,167.445,66.314z M95.375,231.028c0.261,0.38,0.381,0.654,0.586,0.826
		c0.22,0.184,0.521,0.273,0.787,0.403c0.042-0.279,0.152-0.567,0.111-0.835c-0.068-0.451-0.233-0.886-0.317-1.191
		C96.128,230.514,95.758,230.766,95.375,231.028z M102.573,219.616c-0.462-0.73-0.843-1.33-1.345-2.124
		C100.643,219.659,100.771,219.838,102.573,219.616z M38.096,70.988c-0.145-0.001-0.288-0.002-0.432-0.003
		c-0.628,0.735-0.387,1.478,0.067,2.225c0.121,0,0.243,0.001,0.365,0.002C38.096,72.471,38.096,71.729,38.096,70.988z
		 M33.664,37.879c0.853,0.717,1.591,1.337,2.444,2.055C35.928,38.507,34.905,37.693,33.664,37.879z M211.427,103.821
		c-0.008,0.168-0.016,0.336-0.022,0.503c1.062,0.585,2.029-0.344,3.05-0.503C213.446,103.821,212.436,103.821,211.427,103.821z
		 M69.217,235.836c0-1.117,0-2.053,0-3.031C67.94,233.37,67.94,233.833,69.217,235.836z M72.22,234.894
		c0.52-0.054,0.977-0.1,1.762-0.182c-0.541-0.711-0.92-1.211-1.3-1.711c-0.114,0.058-0.228,0.112-0.342,0.169
		C72.303,233.706,72.266,234.239,72.22,234.894z M101.208,212.945c-0.037-0.022-0.074-0.045-0.11-0.065
		c-0.149,0.703-0.312,1.404-0.412,2.115c-0.007,0.043,0.618,0.303,0.714,0.212c0.488-0.456,0.897-0.994,1.334-1.503
		c-0.103-0.082-0.206-0.163-0.309-0.242c-0.296,0.431-0.593,0.862-1.106,1.608C101.268,214.118,101.238,213.531,101.208,212.945z
		 M147.41,196.402c-0.084,0.055-0.169,0.112-0.254,0.168c0.394,0.814,0.788,1.629,1.284,2.654c0.211-0.797,0.333-1.265,0.464-1.757
		C148.426,197.127,147.918,196.764,147.41,196.402z M207.422,81.991c0.836,1.401,1.966,0.507,2.958,0.832
		c0.016-0.118,0.032-0.237,0.047-0.355C209.426,82.309,208.424,82.15,207.422,81.991z M175.631,98.338
		c0.17-1.782-0.848-4.347-1.562-4.543C174.58,95.282,175.106,96.81,175.631,98.338z M89.121,233.482
		c-0.101-0.048-0.202-0.095-0.302-0.143c-0.27,0.591-0.584,1.167-0.775,1.783c-0.043,0.139,0.345,0.411,0.535,0.622
		c0.14-0.199,0.364-0.383,0.401-0.6C89.072,234.598,89.08,234.037,89.121,233.482z M98.896,232.769
		c0.69,0.217,1.38,0.432,2.234,0.701C100.742,231.747,99.862,232.122,98.896,232.769z M180.76,65.826
		c-0.052-0.153-0.104-0.305-0.155-0.458c-1.26,0.432-2.519,0.865-3.778,1.297c0.036,0.108,0.073,0.215,0.11,0.323
		C178.21,66.601,179.486,66.213,180.76,65.826z M188.534,97.925c-0.173,0.057-0.347,0.114-0.519,0.171
		c0.26,0.905,0.52,1.81,0.779,2.715c0.143-0.039,0.285-0.077,0.429-0.116C188.993,99.771,188.763,98.848,188.534,97.925z
		 M189.165,96.593c0.855,1.136,1.68,1.293,2.7,0.519C191.042,96.953,190.217,96.795,189.165,96.593z M186.162,94.692
		c0.018,0.233,0.036,0.466,0.054,0.698c1.28-0.307,2.558-0.615,3.838-0.922c0-0.066,0.001-0.133,0.001-0.201
		C188.757,94.409,187.459,94.551,186.162,94.692z M78.3,247.935c0.237-0.743,0.026-1.408-0.577-1.882
		c-0.125-0.099-0.634,0.289-0.728,0.336C77.471,246.955,77.852,247.406,78.3,247.935z M168.666,112.095
		c0.131,0.11,0.262,0.221,0.391,0.332c0.835-1.014,1.669-2.028,2.503-3.041c-0.071-0.062-0.14-0.122-0.211-0.184
		C170.454,110.167,169.56,111.13,168.666,112.095z M128.091,124.883c0.121-0.102,0.243-0.204,0.364-0.307
		c-0.865-0.938-1.729-1.877-2.594-2.817c-0.06,0.052-0.12,0.103-0.179,0.154C126.484,122.904,127.287,123.895,128.091,124.883z
		 M246.667,24.556c0.039,0.085,0.077,0.17,0.115,0.256c1.211-0.509,2.422-1.019,3.634-1.529c-0.06-0.132-0.119-0.265-0.178-0.396
		C249.046,23.443,247.857,24,246.667,24.556z M195.335,93.95c0.109,0.158,0.22,0.316,0.328,0.475
		c0.879-0.792,1.756-1.583,2.633-2.374c-0.059-0.08-0.118-0.16-0.178-0.24C197.192,92.524,196.263,93.237,195.335,93.95z
		 M209.125,86.058c-0.113-0.094-0.229-0.188-0.345-0.282c-0.876,1.028-1.752,2.056-2.628,3.084c0.085,0.07,0.169,0.142,0.251,0.213
		C207.311,88.067,208.218,87.062,209.125,86.058z M168.227,69.77c0.059,0.009,0.116,0.019,0.174,0.029
		c0.277-1.779,0.555-3.558,0.831-5.338c-0.119-0.016-0.238-0.033-0.356-0.05C168.66,66.196,168.444,67.982,168.227,69.77z
		 M67.748,233.67c-0.906,0.752-0.56,1.568,1.053,2.805C68.438,235.51,68.118,234.657,67.748,233.67z M30.09,44.556
		c0.034-0.119,0.068-0.237,0.103-0.355c-1.354-1.083-1.354-1.083-2.171-0.399C28.796,44.084,29.443,44.32,30.09,44.556z
		 M97.152,230.726c0.105,0.136,0.211,0.271,0.317,0.407c0.461-0.228,0.922-0.454,1.578-0.777c-0.604-0.44-0.916-0.669-1.341-0.979
		C97.495,229.891,97.323,230.308,97.152,230.726z M96.106,229.799c-0.091-0.163-0.183-0.325-0.274-0.488
		c-0.807,0.437-1.614,0.874-2.421,1.312c0.092,0.165,0.183,0.331,0.275,0.498C94.493,230.679,95.299,230.239,96.106,229.799z
		 M208.635,52.637c0.115,0.14,0.23,0.279,0.347,0.419c0.782-0.732,1.566-1.465,2.35-2.198c-0.065-0.077-0.13-0.153-0.195-0.23
		C210.302,51.298,209.468,51.967,208.635,52.637z M183.522,119.234c-0.14-0.026-0.279-0.051-0.421-0.077
		c-0.221,1.164-0.44,2.329-0.661,3.494c0.125,0.021,0.248,0.043,0.372,0.065C183.048,121.556,183.285,120.395,183.522,119.234z
		 M240.441,38.678c-0.044,0.028-0.088,0.056-0.131,0.084c0.822,0.921,1.645,1.841,2.469,2.762c0.015-0.013,0.03-0.026,0.046-0.039
		C242.03,40.549,241.236,39.613,240.441,38.678z M166.434,67.397c-0.093-0.015-0.187-0.029-0.278-0.043
		c-0.28,1.623-0.561,3.247-0.839,4.87c0.124,0.02,0.248,0.04,0.373,0.06C165.938,70.655,166.186,69.026,166.434,67.397z
		 M176.034,104.882c-0.024,0.127-0.049,0.254-0.073,0.38c1.321,0.275,2.642,0.551,3.962,0.826c0.028-0.14,0.055-0.279,0.08-0.418
		C178.68,105.407,177.358,105.145,176.034,104.882z M254.346,24.865c-0.065-0.141-0.131-0.282-0.198-0.424
		c-0.918,0.434-1.837,0.868-2.756,1.301c0.056,0.118,0.108,0.234,0.163,0.352C252.486,25.684,253.417,25.275,254.346,24.865z
		 M208.623,106.838c-2.017,1.785-2.556,2.665-2.154,3.169C207.151,109.004,207.857,107.965,208.623,106.838z M251.578,23.726
		c-0.029-0.109-0.059-0.218-0.088-0.327c-1.152,0.482-2.305,0.965-3.459,1.448c0.054,0.127,0.107,0.253,0.161,0.381
		C249.321,24.727,250.45,24.227,251.578,23.726z M186.292,117.227c0.058-0.133,0.116-0.266,0.175-0.399
		c-0.714-0.396-1.425-0.791-2.138-1.187c-0.051,0.095-0.1,0.19-0.15,0.286C184.842,116.434,185.103,117.655,186.292,117.227z
		 M193.716,92.992c0.91-0.749,1.712-1.407,2.742-2.255C195.042,91.133,194.067,91.586,193.716,92.992z M209.668,104.828
		c-0.1-0.086-0.201-0.173-0.301-0.259c-1.053,1.145-2.105,2.289-3.156,3.434c-0.054-0.062-0.106-0.125-0.159-0.187
		C207.258,106.819,208.463,105.824,209.668,104.828z M202.887,85.265c0.098,0.088,0.195,0.176,0.293,0.265
		c0.801-0.884,1.602-1.769,2.403-2.654c-0.102-0.09-0.201-0.181-0.303-0.272C204.484,83.491,203.685,84.377,202.887,85.265z
		 M169.08,94.998c-0.218,0.038-0.436,0.077-0.653,0.114c0.133,0.68,0.263,1.361,0.396,2.041c0.187-0.031,0.373-0.062,0.558-0.093
		C169.28,96.372,169.18,95.685,169.08,94.998z M238.808,59.303c-1.066-0.646-2.033-1.549-3.307-1.572
		c-0.047,0.129-0.093,0.258-0.139,0.387C236.511,58.514,237.66,58.909,238.808,59.303z M176.271,62.065
		c-0.076-0.022-0.151-0.043-0.228-0.065c-0.441,1.402-0.885,2.807-1.326,4.209c0.123,0.035,0.246,0.069,0.369,0.105
		C175.481,64.898,175.876,63.482,176.271,62.065z M90.626,233.894c-1.293,0.51-1.37,0.969-0.369,1.857
		C90.379,235.131,90.482,234.618,90.626,233.894z M219.203,46.811c-0.773-0.434-1.603-0.959-2.479-0.575
		c-0.01,0.145-0.018,0.29-0.026,0.436C217.532,46.718,218.368,46.765,219.203,46.811z M161.538,83.653
		c1.263-0.67,1.233-1.601,0.906-2.634C162.159,81.845,161.876,82.67,161.538,83.653z M255.998,56.813
		c-0.036,1.417,0.365,1.772,1.547,1.295C257.009,57.661,256.539,57.266,255.998,56.813z M83.291,117.59
		c0.092-0.107,0.185-0.214,0.277-0.322c-0.409-1.055-1.725-0.744-2.321-1.518c-0.083,0.125-0.167,0.251-0.25,0.377
		C81.761,116.615,82.525,117.103,83.291,117.59z M93.6,218.385c0.673-1.045-0.186-1.205-0.841-1.546
		C92.055,217.931,92.92,218.086,93.6,218.385z M95.11,239.761c0.07-0.088,0.142-0.176,0.213-0.265
		c-0.654-0.563-1.307-1.127-1.96-1.69c-0.12,0.155-0.24,0.309-0.36,0.464C93.706,238.766,94.408,239.265,95.11,239.761z
		 M86.794,235.377c0.181,0.025,0.362,0.05,0.544,0.075c0.114-0.72,0.229-1.441,0.343-2.161c-0.143-0.025-0.285-0.051-0.428-0.076
		C87.101,233.936,86.947,234.657,86.794,235.377z M75.813,224.742c0.214,0.277,0.415,0.807,0.698,0.855
		c1.043,0.18,1.319-0.06,1.354-0.855C77.262,224.742,76.654,224.742,75.813,224.742z M101.095,229.128
		c-0.064,0.201-0.13,0.401-0.196,0.602c0.443,0.171,0.884,0.343,1.326,0.513c0.071-0.252,0.144-0.504,0.215-0.756
		C101.992,229.367,101.544,229.248,101.095,229.128z M176.618,109.88c0.078-0.104,0.154-0.209,0.232-0.313
		c-0.862-0.755-1.725-1.511-2.586-2.267c-0.075,0.086-0.149,0.173-0.226,0.26C174.899,108.333,175.757,109.106,176.618,109.88z
		 M48.492,105.752c-0.141,0.042-0.283,0.083-0.424,0.124c0.067,0.719,0.136,1.437,0.204,2.156c0.174-0.027,0.347-0.054,0.52-0.08
		C48.691,107.219,48.591,106.486,48.492,105.752z M87.173,216.57c0.205-0.042,0.411-0.087,0.617-0.131
		c-0.096-0.513-0.191-1.026-0.287-1.541c-0.226,0.107-0.651,0.236-0.644,0.32C86.904,215.675,87.057,216.122,87.173,216.57z
		 M174.407,122.993c0.095-0.042,0.189-0.086,0.284-0.128c-0.506-1.053-1.009-2.104-1.513-3.155
		c-0.106,0.051-0.213,0.102-0.317,0.153C173.376,120.907,173.892,121.95,174.407,122.993z M220.917,117.864
		c-0.454,0.392-0.745,0.642-1.166,1.005c0.368,0.332,0.672,0.604,1.166,1.048C220.917,119.135,220.917,118.624,220.917,117.864z
		 M231.178,55.314c-0.013-0.204-0.026-0.409-0.04-0.613c-0.594,0.039-1.187,0.076-1.779,0.115c0.011,0.166,0.022,0.332,0.032,0.498
		C229.987,55.314,230.583,55.314,231.178,55.314z M156.47,116.093c-0.113,0.072-0.226,0.145-0.338,0.218
		c0.63,0.904,1.258,1.81,1.889,2.714c0.09-0.064,0.181-0.13,0.271-0.195C157.684,117.917,157.079,117.005,156.47,116.093z
		 M81.835,111.164c0.069-0.108,0.137-0.215,0.207-0.322c-1.055-0.512-2.109-1.023-3.163-1.534c-0.043,0.084-0.084,0.168-0.127,0.253
		C79.78,110.096,80.808,110.629,81.835,111.164z M71.063,232.112c-0.16,0.041-0.32,0.083-0.48,0.124
		c0.185,0.753,0.37,1.503,0.554,2.254c0.147-0.036,0.293-0.074,0.44-0.109C71.405,233.623,71.234,232.868,71.063,232.112z
		 M182.928,61.978c-0.58,0.802-1.65,1.409-1.587,2.472c0.144,0.06,0.288,0.12,0.434,0.179
		C182.16,63.745,182.543,62.862,182.928,61.978z M99.129,227.687c-0.285,0.607-0.461,0.986-0.639,1.363
		c0.445,0.062,0.891,0.124,1.579,0.222C99.711,228.667,99.53,228.362,99.129,227.687z M217.803,115.642
		c0.047,0.161,0.095,0.322,0.142,0.483c0.774-0.3,1.548-0.601,2.32-0.902c-0.04-0.116-0.079-0.233-0.121-0.349
		C219.366,115.13,218.583,115.386,217.803,115.642z M13.789,32.541c-0.107-0.046-0.214-0.093-0.322-0.139
		c-0.395,1.055-0.79,2.11-1.185,3.166c0.102,0.037,0.203,0.074,0.305,0.111C12.987,34.632,13.388,33.586,13.789,32.541z
		 M155.162,136.167c-0.115,0.137-0.229,0.271-0.342,0.406c0.549,0.445,1.098,0.891,1.647,1.335c0.113-0.136,0.226-0.271,0.339-0.406
		C156.257,137.058,155.709,136.613,155.162,136.167z M206.93,18.776c-0.062-0.072-0.123-0.144-0.184-0.217
		c-0.851,0.69-1.699,1.381-2.55,2.071c0.082,0.095,0.164,0.189,0.244,0.284C205.271,20.201,206.1,19.488,206.93,18.776z
		 M89.092,241.98c-0.115,0.059-0.229,0.116-0.344,0.173c0.17,0.699,0.339,1.398,0.509,2.095c0.164-0.05,0.328-0.1,0.491-0.149
		C89.528,243.391,89.31,242.687,89.092,241.98z M218.149,111.615c-0.021-0.129-0.044-0.259-0.066-0.389
		c-0.971,0.169-1.94,0.338-2.911,0.507c0.022,0.125,0.044,0.25,0.065,0.376C216.208,111.944,217.177,111.779,218.149,111.615z
		 M171.681,65.205c-0.117-0.006-0.233-0.012-0.352-0.018c-0.182,1.02-0.365,2.04-0.548,3.059c0.141,0.024,0.284,0.048,0.426,0.072
		C171.366,67.28,171.525,66.243,171.681,65.205z"/>
</g>
</svg>
