<?xml version="1.0" encoding="utf-8"?>
<!-- Generator: Adobe Illustrator 16.0.0, SVG Export Plug-In . SVG Version: 6.00 Build 0)  -->
<!DOCTYPE svg PUBLIC "-//W3C//DTD SVG 1.1//EN" "http://www.w3.org/Graphics/SVG/1.1/DTD/svg11.dtd">
<svg version="1.1" id="Layer_1" xmlns="http://www.w3.org/2000/svg" xmlns:xlink="http://www.w3.org/1999/xlink" x="0px" y="0px"
	  viewBox="0 0 300.961 29.408" enable-background="new 0 0 300.961 29.408"
	 xml:space="preserve">
<g>
	<path fill-rule="evenodd" clip-rule="evenodd" d="M0,22.451c2.615-0.156,5.312,0.033,7.823-0.564
		c2.631-0.623,5.375-1.603,7.526-3.172c1.823-1.33,3.128-3.592,4.183-5.684c0.926-1.838,2.113-3.115,3.989-2.459
		c1.317,0.461,2.396,1.879,3.332,3.064c0.664,0.842,0.896,2.02,1.365,3.025c0.065,0.139,0.387,0.232,0.585,0.223
		c5.004-0.217,10.021-0.301,15.006-0.736c3.363-0.293,6.668-1.203,10.026-1.608c2.364-0.284,4.791-0.036,7.161-0.294
		c3.385-0.369,7.312-0.055,9.987-1.695c4.762-2.918,9.545-1.168,14.265-1.479c2.08-0.138,4.262,1.289,6.401,1.994
		c0.337,0.111,0.691,0.227,1.042,0.236c5.496,0.176,11.122,1.15,16.46,0.307c7.968-1.26,15.88-0.238,23.785-0.834
		c1.163-0.088,2.23-1.08,3.411-1.4c1.169-0.318,2.426-0.307,3.644-0.455c4.053-0.498,8.47-0.164,12.062-1.727
		c4.088-1.779,8.158-1.535,11.85-0.854c3.205,0.591,6.354,1.308,9.572,1.079c3.035-0.218,6.033-0.959,9.043-1.49
		c0.217-0.039,0.405-0.242,0.604-0.375c3.138-2.081,6.11-4.506,9.47-6.126c2.268-1.095,5.069-1.222,7.66-1.425
		c0.765-0.059,1.596,1.144,2.449,1.684c0.674,0.425,1.424,1.01,2.151,1.025c3.94,0.082,7.142,1.789,10.193,4.097
		c2.532,1.915,5.107,3.857,7.917,5.294c1.955,1,4.331,1.559,6.532,1.603c3.073,0.062,6.152-0.649,9.24-0.829
		c2.671-0.157,5.372-0.209,8.034,0.006c4.268,0.346,8.515,0.949,12.77,1.452c0.19,0.022,0.401,0.097,0.551,0.213
		c3.746,2.907,7.461,5.856,11.247,8.71c0.731,0.553,1.706,0.912,2.618,1.062c1.09,0.182,2.24-0.039,3.351,0.059
		c3.363,0.295,7.327-0.341,9.931,1.24c3.465,2.104,7.046,0.986,10.366,2.166c1.09,0.387,2.238,0.609,3.359,0.907
		c0,0.16,0,0.32,0,0.479c-0.56,0.01-1.119,0.027-1.679,0.027C200.041,29.2,100.799,29.203,1.558,29.204
		c-0.52,0-1.039-0.022-1.558-0.034C0,26.93,0,24.69,0,22.451z"/>
	<path fill-rule="evenodd" clip-rule="evenodd" fill="#FFFFFF" d="M0,29.169c0.519,0.012,1.039,0.034,1.558,0.034
		c99.241-0.001,198.483-0.004,297.724-0.007c0.56,0,1.119-0.018,1.679-0.027c-0.32,0.08-0.64,0.23-0.96,0.23
		c-99.681,0.01-199.361,0.01-299.042,0C0.639,29.4,0.319,29.25,0,29.169z"/>
</g>
</svg>
