<?xml version="1.0" encoding="UTF-8"?>
<!-- Generator: Adobe Illustrator 15.0.2, SVG Export Plug-In . SVG Version: 6.00 Build 0)  -->
<!DOCTYPE svg PUBLIC "-//W3C//DTD SVG 1.1//EN" "http://www.w3.org/Graphics/SVG/1.1/DTD/svg11.dtd">
<svg xmlns="http://www.w3.org/2000/svg" xmlns:xlink="http://www.w3.org/1999/xlink" version="1.1" id="Layer_1" x="0px" y="0px" viewBox="0 0 512 512.021" enable-background="new 0 0 512 512.021" xml:space="preserve">
<path d="M512,288.34l-95.504,21.933c7.189-21.149,10.22-43.854,8.484-66.9L512,288.34z M414.155,459.901l-83.012-52.025  c20.763-10.24,38.745-24.419,53.279-41.336L414.155,459.901z M223.671,512.021l-21.927-95.503  c21.148,7.168,43.854,10.208,66.904,8.474L223.671,512.021z M52.114,414.166l52.021-83.017  c10.24,20.762,24.424,38.744,41.341,53.279L52.114,414.166z M0,223.676l95.504-21.927c-7.174,21.148-10.22,43.854-8.475,66.904  L0,223.676z M97.844,52.119l83.022,52.021c-20.762,10.245-38.744,24.425-53.273,41.342L97.844,52.119z M288.334,0l21.933,95.509  c-21.148-7.173-43.854-10.219-66.899-8.474L288.334,0z M459.901,97.85l-52.03,83.022c-10.24-20.763-24.42-38.745-41.337-53.279  L459.901,97.85z M256.005,120.482c74.856,0,135.523,60.677,135.523,135.528c0,74.856-60.667,135.522-135.523,135.522  c-74.851,0-135.528-60.666-135.528-135.522C120.477,181.159,181.154,120.482,256.005,120.482z" fill="#000000"/>
</svg>
