<?xml version="1.0" encoding="utf-8"?>
<!-- Generator: Adobe Illustrator 16.0.0, SVG Export Plug-In . SVG Version: 6.00 Build 0)  -->
<!DOCTYPE svg PUBLIC "-//W3C//DTD SVG 1.1//EN" "http://www.w3.org/Graphics/SVG/1.1/DTD/svg11.dtd">
<svg version="1.1" id="Layer_1" xmlns="http://www.w3.org/2000/svg" xmlns:xlink="http://www.w3.org/1999/xlink" x="0px" y="0px"
	  viewBox="0 0 400.244 496.399" enable-background="new 0 0 400.244 496.399"
	 xml:space="preserve">
<g>
	<path fill-rule="evenodd" clip-rule="evenodd" d="M326.562,386.197c0.002-30.96,0.001-61.919,0.003-92.878
		c0-1.319,0.054-2.641,0.024-3.959c-0.033-1.512-0.616-2.129-2.098-2.209c-1.037-0.057-2.081-0.055-3.118-0.01
		c-1.232,0.053-1.785,0.61-1.93,1.859c-0.046,0.396-0.042,0.798-0.042,1.197c0.003,62.158,0.008,124.317,0.011,186.477
		c0,3.15,0.187,6.295-0.899,9.375c-2.567,7.279-10.528,11.611-18.081,10.021c-6.942-1.463-12.334-8.063-12.325-15.645
		c0.07-62.838,0.036-125.676,0.033-188.516c0-0.918,0.063-1.844-0.022-2.756c-0.129-1.365-0.838-1.975-2.21-2.018
		c-0.56-0.018-1.12,0.014-1.68,0.027c-1.971,0.045-2.478-0.444-2.482-2.457c-0.004-2,0.023-4,0.023-5.999
		c0.002-44.999-0.001-89.998,0.006-134.997c0.001-4.239,0.068-8.478,0.1-12.716c0.002-0.319,0.021-0.654-0.065-0.954
		c-0.134-0.465-0.353-0.907-0.535-1.358c-0.476,0.309-1.09,0.518-1.394,0.947c-0.526,0.742-0.852,1.625-1.275,2.441
		c-3.168,6.104-6.329,12.212-9.513,18.308c-4.609,8.824-9.226,17.646-13.858,26.458c-6.288,11.959-12.589,23.912-18.896,35.86
		c-3.994,7.566-8.011,15.121-12.017,22.681c-1.102,2.078-1.992,4.305-3.339,6.208c-4.08,5.765-12.771,7.232-18.695,3.387
		c-2.385-1.548-3.995-3.653-5.421-6.085c-1.957-3.339-4.243-6.488-6.426-9.692c-3.534-5.186-7.103-10.348-10.65-15.525
		c-3.93-5.736-7.85-11.479-11.779-17.217c-4.812-7.025-9.631-14.046-14.442-21.072c-3.907-5.706-7.795-11.425-11.71-17.125
		c-4.367-6.36-8.746-12.711-13.152-19.044c-0.304-0.437-0.88-0.684-1.33-1.019c-0.254,0.507-0.693,1-0.736,1.524
		c-0.811,9.997-3.218,19.712-5.165,29.508c-1.886,9.487-3.81,18.967-5.718,28.45c-0.323,1.606-0.633,3.214-0.976,4.816
		c-0.287,1.339-0.039,2.458,0.906,3.539c6.093,6.97,11.392,14.526,16.334,22.344c5.135,8.124,9.71,16.558,13.739,25.271
		c2.547,5.508,4.864,11.137,6.985,16.823c2.204,5.906,4.292,11.879,5.983,17.947c1.876,6.731,3.421,13.567,4.796,20.421
		c2.127,10.598,3.356,21.32,3.757,32.13c0.074,1.979-0.438,2.511-2.406,2.509c-13.839-0.012-27.679-0.014-41.519-0.027
		c-0.798,0-1.599-0.035-2.395-0.096c-1.745-0.135-2.479,0.484-2.493,2.217c-0.018,2.36,0.01,4.721,0.01,7.08
		c-0.002,40.879-0.006,81.758-0.012,122.637c0,2.48,0.168,4.979-0.077,7.434c-0.68,6.828-6.104,12.379-12.903,13.437
		c-7.674,1.194-14.74-2.798-17.329-10.106c-0.755-2.133-0.793-4.549-0.966-6.849c-0.135-1.786,0.059-3.595,0.059-5.394
		c0.005-42.039,0.003-84.078,0.003-126.117c0-0.8,0.045-1.602,0.005-2.398c-0.054-1.068-0.637-1.725-1.718-1.801
		c-1.116-0.078-2.239-0.125-3.355-0.09c-1.231,0.039-1.792,0.701-1.801,2.064c-0.018,2.479,0.006,4.957,0.007,7.437
		c0.007,41.839,0.02,83.678,0.011,125.517c-0.001,3.921-0.475,7.747-2.843,11.085c-3.573,5.034-8.417,7.338-14.566,6.753
		c-6.033-0.574-10.207-3.82-12.772-9.214c-1.229-2.585-1.484-5.405-1.487-8.199c-0.029-31.279-0.01-62.559-0.002-93.838
		c0.003-12.919,0.009-25.839,0.014-38.759c0-0.32,0.011-0.641-0.011-0.96c-0.093-1.318-0.66-1.845-2.001-1.845
		c-14.679,0.006-29.358,0.016-44.038,0.023c-0.24,0-0.481,0.011-0.72-0.005c-1.413-0.093-2.073-0.769-1.965-2.157
		c0.396-5.062,0.583-10.158,1.303-15.175c1.22-8.502,2.489-17.019,4.296-25.409c1.528-7.094,3.669-14.074,5.871-21
		c1.874-5.895,4.092-11.693,6.433-17.422c0.761-1.861,0.505-3.1-0.55-4.595c-1.744-2.472-2.246-5.358-2.287-8.316
		c-0.051-3.679-0.019-7.359-0.02-11.04c-0.003-29.959-0.039-59.918,0.012-89.877c0.015-8.832,0.955-17.56,3.801-25.998
		c3.429-10.167,8.739-19.11,17.092-26.014c7.175-5.931,15.441-9.168,24.791-9.221c15.119-0.085,30.239-0.026,45.358-0.037
		c7.791-0.006,14.731,2.477,21.027,6.996c7.059,5.067,12.477,11.666,17.429,18.67c4.454,6.299,8.691,12.751,13.063,19.108
		c7.112,10.341,14.279,20.643,21.378,30.992c6.557,9.558,13.052,19.159,19.58,28.736c2.679,3.931,5.363,7.86,8.067,11.774
		c1.232,1.783,2.082,1.667,3.067-0.235c2.334-4.507,4.732-8.982,7.092-13.476c2.304-4.389,4.584-8.789,6.889-13.177
		c4.461-8.494,8.937-16.98,13.396-25.475c3.251-6.194,6.456-12.412,9.735-18.591c4.589-8.648,9.142-17.318,13.883-25.883
		c2.518-4.547,5.842-8.503,10.205-11.458c2.977-2.016,6.252-3.38,9.722-4.286c5.623-1.468,11.357-1.645,17.133-1.625
		c16.319,0.059,32.64,0.018,48.959,0.024c1.997,0,4-0.045,5.989,0.096c9.118,0.648,17.056,4.162,24.088,9.935
		c9.263,7.604,15.076,17.456,18.953,28.617c2.297,6.614,3.694,13.4,4.016,20.396c0.189,4.15,0.422,8.303,0.426,12.456
		c0.037,38.319,0.049,76.638,0.019,114.957c-0.009,9.889-8.379,15.711-16.631,14.229c-5.837-1.049-10.635-6.171-11.16-12.207
		c-0.215-2.464-0.192-4.953-0.193-7.431c-0.01-38.319-0.003-76.638-0.008-114.958c-0.001-8.522-1.657-16.686-5.416-24.375
		c-0.296-0.605-0.663-1.195-1.1-1.704c-0.221-0.258-0.73-0.505-1-0.418c-0.28,0.091-0.522,0.566-0.611,0.917
		c-0.115,0.455-0.079,0.952-0.079,1.431c0.007,50.199,0.017,100.397,0.028,150.595c0,0.76,0.03,1.52,0.039,2.28
		c0.029,2.599-0.397,3.025-2.956,2.985c-0.52-0.008-1.04-0.018-1.56-0.001c-1.095,0.035-1.691,0.624-1.804,1.7
		c-0.041,0.396-0.039,0.799-0.039,1.197c0.004,62.479,0.011,124.957,0.015,187.436c0,1.52,0.05,3.046-0.069,4.557
		c-0.732,9.311-9.35,15.971-18.955,14.066c-6.872-1.361-12.248-8.378-12.223-14.818
		C326.628,449.555,326.561,417.875,326.562,386.197z M43.779,160.265c-0.164,0.007-0.328,0.015-0.492,0.022
		c-0.117,1.021-0.333,2.041-0.335,3.062c-0.013,6.795,0.035,13.591,0.034,20.387c-0.001,9.751-0.028,19.503-0.041,29.254
		c0,0.438-0.02,0.888,0.064,1.313c0.214,1.095,0.86,1.284,1.68,0.508c0.26-0.246,0.479-0.536,0.705-0.816
		c2.128-2.645,4.235-5.308,6.39-7.931c0.887-1.08,1.125-2.23,0.84-3.579c-0.916-4.341-1.801-8.688-2.68-13.036
		c-1.887-9.322-3.759-18.646-5.653-27.965C44.203,161.061,43.953,160.67,43.779,160.265z"/>
	<path fill-rule="evenodd" clip-rule="evenodd" d="M154.645,23.86c0.08-8.94,3.97-15.748,11.493-20.359
		c6.665-4.085,13.831-4.503,21.086-1.733c5.003,1.91,8.909,5.303,11.626,9.935c0.817,1.394,1.231,3.021,1.884,4.516
		c0.228,0.521,0.618,0.971,0.935,1.453c0.469-0.332,1.017-0.594,1.383-1.014c0.354-0.407,0.542-0.967,0.767-1.476
		c2.887-6.53,7.485-11.249,14.358-13.551c5.998-2.009,12.091-1.767,17.682,0.819c7.543,3.49,12.303,9.519,13.425,18.026
		c0.732,5.557-0.049,10.848-2.89,15.732c-0.655,1.127-1.521,2.161-2.424,3.11c-5.506,5.787-11.035,11.553-16.589,17.294
		c-3.078,3.183-6.25,6.276-9.324,9.464c-3.357,3.48-6.641,7.032-9.978,10.532c-1.654,1.735-3.364,3.416-5.03,5.14
		c-0.768,0.795-1.417,0.664-2.129-0.089c-2.333-2.466-4.704-4.897-7.038-7.363c-3.379-3.57-6.729-7.168-10.109-10.738
		c-4.919-5.195-9.863-10.367-14.777-15.567c-3.375-3.572-6.794-7.107-10.047-10.789c-1.932-2.188-2.963-4.931-3.572-7.765
		C154.983,27.611,154.878,25.721,154.645,23.86z"/>
	<path fill-rule="evenodd" clip-rule="evenodd" d="M323.003,12.718c19.505-0.196,34.159,16.507,33.354,34.722
		c-0.829,18.75-16.588,32.971-35.087,32.048c-18.485-0.922-32.309-16.222-31.806-34.261
		C290.013,25.568,306.401,12.307,323.003,12.718z"/>
	<path fill-rule="evenodd" clip-rule="evenodd" d="M116.902,45.037c-0.041,18.41-14.928,33.164-33.394,33.096
		c-18.251-0.068-33.014-14.987-32.946-33.302c0.068-18.29,14.525-33.129,33.268-33.092
		C102.685,11.775,116.998,26.991,116.902,45.037z"/>
</g>
</svg>
